<?xml version="1.0" standalone="no"?>
<!DOCTYPE svg
  PUBLIC '-//W3C//DTD SVG 1.1//EN'
  'http://www.w3.org/Graphics/SVG/1.1/DTD/svg11.dtd'><svg version="1.1" xmlns="http://www.w3.org/2000/svg"><defs><font horiz-adv-x="0" id="font"><font-face ascent="750" bbox="-171 -310 1136 1001" cap-height="708" descent="-250" font-family="Fidelity Sans Lt" font-stretch="normal" font-style="normal" font-weight="708" units-per-em="1000" x-height="469" /><missing-glyph d="M475 0 25 0V708H475ZM103 503 186 503Q228 503 254 526Q280 549 280 587Q280 626 253.5 647Q227 668 181 668H81V361H103ZM103 649 184 649Q217 649 237 632.5Q257 616 257 587Q257 557 237 539.5Q217 522 185 522H103ZM400 356Q405 356 411.5 357Q418 358 428 361V378Q423 376 417 374.5Q411 373 405 373Q389 373 380 382.5Q371 392 371 410V547H428V564H371V622H350V564H308V547H350V407Q350 382 363 369Q376 356 400 356Z" horiz-adv-x="500" /><glyph d="" glyph-name=".null" horiz-adv-x="0" unicode="" /><glyph d="" glyph-name="CR" horiz-adv-x="0" unicode="" /><glyph d="" glyph-name="space" horiz-adv-x="250" unicode=" " /><glyph d="" glyph-name="uni00A0" horiz-adv-x="250" unicode=" " /><glyph d="M515 232 343 658L164 232ZM665 0 609 0L532 190H147L67 0H13L318 708H370Z" glyph-name="A" horiz-adv-x="678" unicode="A" /><glyph d="M530 535Q530 475 493.5 432Q457 389 395 374V372Q467 363 514.5 314Q562 265 562 192Q562 101 499.5 50.5Q437 0 332 0H99V708H307Q411 708 470.5 663Q530 618 530 535ZM481 530Q481 595 434.5 629.5Q388 664 301 664H149V392H306Q383 392 432 429.5Q481 467 481 530ZM511 191Q511 263 459 306Q407 349 329 349H149V43H320Q410 43 460.5 81.5Q511 120 511 191Z" glyph-name="B" horiz-adv-x="618" unicode="B" /><glyph d="M431 26Q503 26 568 55Q633 84 682 141V78Q635 31 568 5.5Q501 -20 427 -20Q268 -20 166.5 85Q65 190 65 354Q65 517 167 622.5Q269 728 427 728Q496 728 559 706Q622 684 667 644V583Q617 632 556.5 657Q496 682 430 682Q294 682 206 588.5Q118 495 118 354Q118 212 206 119Q294 26 431 26Z" glyph-name="C" horiz-adv-x="722" unicode="C" /><glyph d="M703 354Q703 186 599 93Q495 0 313 0H99V708H310Q495 708 599 615.5Q703 523 703 354ZM649 354Q649 502 559 582.5Q469 663 308 663H152V44H307Q469 44 559 124.5Q649 205 649 354Z" glyph-name="D" horiz-adv-x="769" unicode="D" /><glyph d="M539 0 99 0V708H524V663H150V387H501V343H150V44H539Z" glyph-name="E" horiz-adv-x="591" unicode="E" /><glyph d="M515 663 151 663V382H488V338H151V0H99V680L88 708H515Z" glyph-name="F" horiz-adv-x="563" unicode="F" /><glyph d="M678 655 678 594Q628 636 565.5 659Q503 682 440 682Q298 682 208 589.5Q118 497 118 355Q118 209 207 116.5Q296 24 442 24Q499 24 549.5 35.5Q600 47 646 71V319H472V363H697V74L709 49Q652 16 582.5 -1.5Q513 -19 441 -19Q275 -19 170 86Q65 191 65 355Q65 518 169.5 623Q274 728 438 728Q506 728 567.5 709Q629 690 678 655Z" glyph-name="G" horiz-adv-x="786" unicode="G" /><glyph d="M637 0 585 0V344H151V0H99V708H151V388H585V708H637Z" glyph-name="H" horiz-adv-x="736" unicode="H" /><glyph d="M151 0 99 0V708H151Z" glyph-name="I" horiz-adv-x="250" unicode="I" /><glyph d="M381 708 381 199Q381 94 332 38Q283 -18 191 -18Q146 -18 108 -1.5Q70 15 46 45V110Q75 69 111 47.5Q147 26 188 26Q258 26 294.5 71Q331 116 331 202V708Z" glyph-name="J" horiz-adv-x="477" unicode="J" /><glyph d="M563 0 496 0L151 366H149V0H99V708H149V392H150L479 708H546L202 383Z" glyph-name="K" horiz-adv-x="589" unicode="K" /><glyph d="M486 0 99 0V708H149V44H486Z" glyph-name="L" horiz-adv-x="502" unicode="L" /><glyph d="M437 0 152 644H148L149 0H99V708H179L455 77H458L734 708H814V0H763V644H759L473 0Z" glyph-name="M" horiz-adv-x="913" unicode="M" /><glyph d="M152 0 99 0V708H163L620 66H623L619 708H672V0H606L151 638H148Z" glyph-name="N" horiz-adv-x="771" unicode="N" /><glyph d="M432 -20Q272 -20 168.5 85.5Q65 191 65 354Q65 517 169 622.5Q273 728 432 728Q591 728 695 622Q799 516 799 352Q799 190 695 85Q591 -20 432 -20ZM432 682Q297 682 207.5 588Q118 494 118 354Q118 213 207 119.5Q296 26 432 26Q568 26 657 118.5Q746 211 746 352Q746 493 656.5 587.5Q567 682 432 682Z" glyph-name="O" horiz-adv-x="864" unicode="O" /><glyph d="M558 522Q558 433 498 380.5Q438 328 341 328H149V0H99V708H330Q437 708 497.5 660Q558 612 558 522ZM505 521Q505 589 459 626.5Q413 664 336 664H149V372H340Q414 372 459.5 412Q505 452 505 521Z" glyph-name="P" horiz-adv-x="608" unicode="P" /><glyph d="M801 6 801 -41Q766 -41 729 -21.5Q692 -2 644 43Q598 12 544.5 -4Q491 -20 432 -20Q272 -20 168.5 85.5Q65 191 65 354Q65 517 169 622.5Q273 728 432 728Q591 728 695 622Q799 516 799 352Q799 268 769 195.5Q739 123 682 72Q720 38 749 22Q778 6 801 6ZM118 354Q118 213 207 118.5Q296 24 432 24Q482 24 526.5 37.5Q571 51 609 77Q604 83 598.5 88.5Q593 94 587 99L491 195L524 226L622 129Q628 123 633.5 117.5Q639 112 645 106Q694 151 720 215Q746 279 746 352Q746 493 656.5 587.5Q567 682 432 682Q297 682 207.5 588Q118 494 118 354Z" glyph-name="Q" horiz-adv-x="864" unicode="Q" /><glyph d="M771 7 771 -40Q739 -40 709.5 -21Q680 -2 645 43Q599 12 545 -4Q491 -20 432 -20Q272 -20 168.5 85.5Q65 191 65 354Q65 517 169 622.5Q273 728 432 728Q591 728 695 622Q799 516 799 352Q799 267 768 194Q737 121 680 70Q707 36 728 21.5Q749 7 771 7ZM118 354Q118 213 207 118.5Q296 24 432 24Q484 24 530.5 38.5Q577 53 616 81Q570 144 543 164Q516 184 489 184V232Q526 232 560 208.5Q594 185 650 110Q696 155 721 218Q746 281 746 352Q746 493 656.5 587.5Q567 682 432 682Q297 682 207.5 588Q118 494 118 354Z" glyph-name="Q.alt" horiz-adv-x="864" unicode="" /><glyph d="M323 664 149 664V382H331Q418 382 465 419Q512 456 512 524Q512 593 463.5 628.5Q415 664 323 664ZM149 0 99 0V708H336Q447 708 506 661Q565 614 565 524Q565 445 513.5 397.5Q462 350 374 343L582 0H523L322 338H149Z" glyph-name="R" horiz-adv-x="632" unicode="R" /><glyph d="M303 728Q358 728 407 709.5Q456 691 491 656V593Q448 639 400.5 662Q353 685 300 685Q225 685 177.5 644.5Q130 604 130 537Q130 481 164.5 445Q199 409 292 380Q414 342 459.5 296Q505 250 505 178Q505 89 441.5 34.5Q378 -20 280 -20Q219 -20 164.5 -0.5Q110 19 66 57V122Q118 71 171 46.5Q224 22 280 22Q356 22 404 64.5Q452 107 452 175Q452 229 415 265.5Q378 302 277 334Q165 368 121 414.5Q77 461 77 536Q77 622 140.5 675Q204 728 303 728Z" glyph-name="S" horiz-adv-x="570" unicode="S" /><glyph d="M534 663 300 663V0H249V663H15V708H534Z" glyph-name="T" horiz-adv-x="550" unicode="T" /><glyph d="M643 708 643 270Q643 130 571.5 55Q500 -20 365 -20Q230 -20 159.5 55Q89 130 89 270V708H139V274Q139 153 197 88.5Q255 24 366 24Q477 24 534.5 89Q592 154 592 274V708Z" glyph-name="U" horiz-adv-x="732" unicode="U" /><glyph d="M13 708 69 708L309 57H311L553 708H608L338 0H279Z" glyph-name="V" horiz-adv-x="622" unicode="V" /><glyph d="M484 640 482 640L292 0H234L22 708H77L263 68H266L453 708H513L705 68H708L893 708H947L734 0H677Z" glyph-name="W" horiz-adv-x="970" unicode="W" /><glyph d="M588 0 524 0L306 332L87 0H26L275 370L48 708H110L307 407L502 708H563L337 371Z" glyph-name="X" horiz-adv-x="614" unicode="X" /><glyph d="M550 708 306 306V0H255V306L11 708H71L282 351L492 708Z" glyph-name="Y" horiz-adv-x="561" unicode="Y" /><glyph d="M559 0 50 0V49L491 663H63V708H547V659L104 44H559Z" glyph-name="Z" horiz-adv-x="600" unicode="Z" /><glyph d="M473 665 452 665L195 232H473ZM904 0 473 0V189H170L58 0H4L422 708H888V663H524V387H865V343H524V44H904Z" glyph-name="AE" horiz-adv-x="956" unicode="Æ" /><glyph d="M928 44 928 0H454Q273 0 169 93Q65 186 65 354Q65 521 169 614.5Q273 708 453 708H912V663H572V388H890V344H572V44ZM119 354Q119 206 209 125Q299 44 459 44H521V663H459Q300 663 209.5 582Q119 501 119 354Z" glyph-name="OE" horiz-adv-x="980" unicode="Œ" /><glyph d="M486 44 486 0H99V339L25 308V349L99 380V708H149V401L269 451V410L149 360V44Z" glyph-name="Lslash" horiz-adv-x="502" unicode="Ł" /><glyph d="M432 682Q297 682 207.5 588Q118 494 118 354Q118 279 145.5 214Q173 149 223 103L605 631Q567 656 523.5 669Q480 682 432 682ZM432 24Q568 24 657 117.5Q746 211 746 352Q746 428 718 493.5Q690 559 638 606L256 77Q294 51 338.5 37.5Q383 24 432 24ZM799 352Q799 190 695 85Q591 -20 432 -20Q376 -20 324 -5.5Q272 9 227 38L164 -50H113L194 62Q132 113 98.5 189Q65 265 65 354Q65 517 169 622.5Q273 728 432 728Q488 728 539.5 713.5Q591 699 634 671L697 758H748L668 647Q731 595 765 518.5Q799 442 799 352Z" glyph-name="Oslash" horiz-adv-x="864" unicode="Ø" /><glyph d="M703 354Q703 186 599 93Q495 0 313 0H99V348H23V388H99V708H310Q495 708 599 615.5Q703 523 703 354ZM152 348 152 44H307Q469 44 559 124.5Q649 205 649 354Q649 501 558.5 582Q468 663 308 663H152V388H395V348Z" glyph-name="Eth" horiz-adv-x="769" unicode="Ð" /><glyph d="M149 180 149 0H99V708H149V558H302Q409 558 469.5 510Q530 462 530 372Q530 284 469.5 232Q409 180 312 180ZM477 372Q477 439 431 476.5Q385 514 308 514H149V224H312Q385 224 431 263.5Q477 303 477 372Z" glyph-name="Thorn" horiz-adv-x="580" unicode="Þ" /><glyph d="M388 101 388 246L222 225Q163 217 135 192.5Q107 168 107 123Q107 74 138.5 48.5Q170 23 227 23Q266 23 304.5 41.5Q343 60 388 101ZM59 121Q59 177 93.5 210Q128 243 197 254L375 282Q381 283 384 285.5Q387 288 387 293V313Q387 375 352 409Q317 443 255 443Q211 443 168.5 426Q126 409 90 378V429Q123 455 166.5 469.5Q210 484 257 484Q343 484 389.5 437.5Q436 391 436 303V111Q436 84 438.5 52.5Q441 21 445 0H397Q395 11 393.5 30Q392 49 391 62H389Q351 24 308.5 5Q266 -14 222 -14Q145 -14 102 21Q59 56 59 121Z" glyph-name="a" horiz-adv-x="523" unicode="a" /><glyph d="M142 708 142 410H144Q193 450 233 466.5Q273 483 320 483Q425 483 490 415.5Q555 348 555 238Q555 127 489 56.5Q423 -14 319 -14Q276 -14 238 0Q200 14 159 47Q151 54 148 55.5Q145 57 144 57Q141 57 139.5 54Q138 51 138 44V0H94V708ZM314 25Q398 25 452 85Q506 145 506 236Q506 327 453 385Q400 443 316 443Q272 443 232.5 424.5Q193 406 142 360V113Q192 62 230 43.5Q268 25 314 25Z" glyph-name="b" horiz-adv-x="615" unicode="b" /><glyph d="M454 87 454 35Q424 11 385 -1.5Q346 -14 301 -14Q194 -14 125 55.5Q56 125 56 233Q56 342 125.5 412.5Q195 483 302 483Q344 483 383.5 469.5Q423 456 452 431V375Q413 411 377.5 427.5Q342 444 302 444Q217 444 161 383.5Q105 323 105 233Q105 143 161 83.5Q217 24 303 24Q343 24 379.5 39Q416 54 454 87Z" glyph-name="c" horiz-adv-x="486" unicode="c" /><glyph d="M293 25Q343 25 381.5 42.5Q420 60 469 106V367Q415 411 375.5 427Q336 443 287 443Q207 443 156 384Q105 325 105 235Q105 144 157.5 84.5Q210 25 293 25ZM469 0 469 59H468Q415 15 377.5 0.5Q340 -14 290 -14Q186 -14 121 54Q56 122 56 232Q56 343 120.5 413Q185 483 285 483Q334 483 374.5 469.5Q415 456 468 419H469V708H518V0Z" glyph-name="d" horiz-adv-x="612" unicode="d" /><glyph d="M285 443Q212 443 162.5 392Q113 341 106 265H460Q456 346 409 394.5Q362 443 285 443ZM486 103 486 49Q445 17 399.5 1.5Q354 -14 300 -14Q190 -14 123 55Q56 124 56 238Q56 345 121 414Q186 483 285 483Q385 483 445.5 419Q506 355 506 255Q506 243 506 237.5Q506 232 505 228H106Q111 135 163 80.5Q215 26 301 26Q355 26 399 44.5Q443 63 486 103Z" glyph-name="e" horiz-adv-x="564" unicode="e" /><glyph d="M284 469 284 428H162V0H113V428H20V469H113V569Q113 641 149 680Q185 719 248 719Q261 719 273.5 717.5Q286 716 298 713V671Q288 674 277 676Q266 678 254 678Q210 678 186 648.5Q162 619 162 566V469Z" glyph-name="f" horiz-adv-x="296" unicode="f" /><glyph d="M431 311Q431 374 392.5 410Q354 446 287 446Q220 446 182 410Q144 374 144 311Q144 248 182.5 211.5Q221 175 287 175Q354 175 392.5 211.5Q431 248 431 311ZM539 -82Q539 -158 472 -204.5Q405 -251 293 -251Q188 -251 128.5 -213Q69 -175 69 -109Q69 -68 92 -37Q115 -6 157 11V13Q134 21 120.5 42Q107 63 107 88Q107 113 119 135Q131 157 156 176Q127 198 112 232Q97 266 97 310Q97 391 148.5 437Q200 483 288 483Q303 483 318 481.5Q333 480 359 476Q384 472 396.5 470.5Q409 469 421 469H554V428H430V426Q454 407 466.5 378.5Q479 350 479 312Q479 232 426.5 185.5Q374 139 286 139Q256 139 231 144Q206 149 185 159Q169 146 160 130Q151 114 151 98Q151 75 168 59.5Q185 44 214 44H378Q457 44 498 11.5Q539 -21 539 -82ZM492 -88Q492 -44 460.5 -21.5Q429 1 367 1H243Q183 1 149 -27.5Q115 -56 115 -103Q115 -155 164.5 -184Q214 -213 300 -213Q387 -213 439.5 -178.5Q492 -144 492 -88Z" glyph-name="g" horiz-adv-x="584" unicode="g" /><glyph d="M287 446Q220 446 181.5 410Q143 374 143 311Q143 248 181.5 211.5Q220 175 287 175Q354 175 392.5 211.5Q431 248 431 311Q431 375 393 410.5Q355 446 287 446ZM539 -81Q539 -158 472 -204Q405 -250 293 -250Q188 -250 128.5 -212.5Q69 -175 69 -108Q69 -67 92 -36.5Q115 -6 157 11V13Q134 22 120.5 42Q107 62 107 87Q107 113 119 135Q131 157 156 176Q126 199 111 232.5Q96 266 96 310Q96 391 147.5 437Q199 483 288 483Q317 483 342 478Q367 473 388 464Q430 522 467.5 539Q505 556 565 553V510Q516 515 485.5 502.5Q455 490 420 445Q449 423 464.5 389.5Q480 356 480 312Q480 231 428.5 185Q377 139 286 139Q256 139 231 144Q206 149 185 159Q169 146 160 130Q151 114 151 98Q151 74 168 59Q185 44 214 44H378Q457 44 498 12Q539 -20 539 -81ZM492 -88Q492 -44 460.5 -21.5Q429 1 367 1H243Q183 1 149 -27.5Q115 -56 115 -103Q115 -155 164.5 -184Q214 -213 300 -213Q387 -213 439.5 -178.5Q492 -144 492 -88Z" glyph-name="g.alt" horiz-adv-x="584" unicode="" /><glyph d="M145 708 145 410H147Q198 453 235 468Q272 483 319 483Q399 483 445 436Q491 389 491 309V0H443V306Q443 367 406.5 405Q370 443 309 443Q268 443 234 427Q200 411 145 360V0H96V708Z" glyph-name="h" horiz-adv-x="580" unicode="h" /><glyph d="M153 682Q153 666 142.5 655.5Q132 645 118 645Q103 645 93 655.5Q83 666 83 682Q83 697 93 708Q103 719 118 719Q133 719 143 708Q153 697 153 682ZM142 0 94 0V469H142Z" glyph-name="i" horiz-adv-x="236" unicode="i" /><glyph d="M153 682Q153 666 142.5 655.5Q132 645 118 645Q103 645 93 655.5Q83 666 83 682Q83 697 93 708Q103 719 118 719Q133 719 143 708Q153 697 153 682ZM94 469 142 469V-80Q142 -168 113 -204Q84 -240 17 -240Q9 -240 0.5 -239.5Q-8 -239 -16 -237V-197Q-8 -199 -2 -199.5Q4 -200 9 -200Q53 -200 73.5 -174.5Q94 -149 94 -85Z" glyph-name="j" horiz-adv-x="236" unicode="j" /><glyph d="M387 0 144 240H142V0H94V708H142V258H144L365 469H426L193 252L450 0Z" glyph-name="k" horiz-adv-x="470" unicode="k" /><glyph d="M94 708 142 708V102Q142 72 156.5 56Q171 40 199 40H222V0H185Q140 0 117 24.5Q94 49 94 97Z" glyph-name="l" horiz-adv-x="237" unicode="l" /><glyph d="M296 443Q261 443 230.5 427Q200 411 145 359V0H96V370Q96 401 94.5 424Q93 447 89 469H136Q139 455 140.5 437Q142 419 142 407H143Q196 453 230 468Q264 483 304 483Q358 483 396.5 460.5Q435 438 454 395Q510 447 547.5 465Q585 483 629 483Q709 483 753.5 436.5Q798 390 798 309V0H750V306Q750 367 715.5 405Q681 443 623 443Q584 443 550 424.5Q516 406 467 355Q469 346 470 334.5Q471 323 471 309V0H423V306Q423 367 388.5 405Q354 443 296 443Z" glyph-name="m" horiz-adv-x="887" unicode="m" /><glyph d="M142 407 143 407Q198 452 234 467.5Q270 483 314 483Q397 483 444 436Q491 389 491 309V0H443V306Q443 367 405.5 405Q368 443 305 443Q266 443 231.5 425.5Q197 408 145 359V0H96V370Q96 401 94.5 424Q93 447 89 469H136Q139 455 140.5 437Q142 419 142 407Z" glyph-name="n" horiz-adv-x="580" unicode="n" /><glyph d="M297 -14Q190 -14 123 54.5Q56 123 56 233Q56 343 123.5 413Q191 483 297 483Q404 483 471 415Q538 347 538 236Q538 126 470 56Q402 -14 297 -14ZM297 443Q212 443 158.5 384Q105 325 105 235Q105 144 158.5 84.5Q212 25 297 25Q381 25 435 84.5Q489 144 489 234Q489 325 435.5 384Q382 443 297 443Z" glyph-name="o" horiz-adv-x="595" unicode="o" /><glyph d="M317 25Q401 25 454 84.5Q507 144 507 235Q507 325 453.5 384Q400 443 315 443Q269 443 233 426Q197 409 142 358V96Q191 56 230 40.5Q269 25 317 25ZM319 -14Q271 -14 231.5 -1Q192 12 143 44H142V-240H94V469H139L141 408H142Q191 450 231 466.5Q271 483 319 483Q425 483 490.5 415Q556 347 556 237Q556 126 490 56Q424 -14 319 -14Z" glyph-name="p" horiz-adv-x="613" unicode="p" /><glyph d="M291 -14Q186 -14 121 54Q56 122 56 233Q56 344 120.5 413.5Q185 483 287 483Q331 483 370.5 470.5Q410 458 451 429Q459 424 461.5 422.5Q464 421 465 421Q469 421 470.5 423.5Q472 426 472 432V469H518V-137Q518 -166 522.5 -186Q527 -206 539 -223L497 -244Q484 -229 477 -203Q470 -177 470 -142V56Q425 19 382.5 2.5Q340 -14 291 -14ZM293 25Q342 25 385.5 45Q429 65 470 107V362Q430 403 385 423Q340 443 288 443Q208 443 156.5 383.5Q105 324 105 234Q105 143 157 84Q209 25 293 25Z" glyph-name="q" horiz-adv-x="612" unicode="q" /><glyph d="M518 -240 470 -240V56Q425 19 382.5 2.5Q340 -14 291 -14Q186 -14 121 54Q56 122 56 233Q56 344 120.5 413.5Q185 483 287 483Q331 483 370.5 470.5Q410 458 451 429Q459 424 461.5 422.5Q464 421 465 421Q469 421 470.5 423.5Q472 426 472 432V469H518ZM293 25Q342 25 385.5 45Q429 65 470 107V362Q430 403 385 423Q340 443 288 443Q208 443 156.5 383.5Q105 324 105 234Q105 143 157 84Q209 25 293 25Z" glyph-name="q.alt" horiz-adv-x="612" unicode="" /><glyph d="M142 388 143 388Q167 435 209.5 459Q252 483 309 483H320V438Q314 439 309 439.5Q304 440 300 440Q250 440 213 415.5Q176 391 145 336V0H96V370Q96 401 94.5 424Q93 447 89 469H136Q139 454 140.5 432Q142 410 142 388Z" glyph-name="r" horiz-adv-x="331" unicode="r" /><glyph d="M217 -13Q171 -13 129 2Q87 17 55 45V106Q89 69 132 48Q175 27 217 27Q266 27 298.5 53Q331 79 331 121Q331 147 319 165.5Q307 184 282 196Q271 202 255 207.5Q239 213 191 226Q123 244 93 275Q63 306 63 356Q63 413 108 448Q153 483 219 483Q260 483 294.5 471Q329 459 360 433V375Q328 408 292.5 425.5Q257 443 219 443Q172 443 142 420.5Q112 398 112 359Q112 322 133 302Q154 282 235 260Q314 239 347 207.5Q380 176 380 125Q380 64 333.5 25.5Q287 -13 217 -13Z" glyph-name="s" horiz-adv-x="430" unicode="s" /><glyph d="M292 39 292 0Q276 -6 259 -9Q242 -12 228 -12Q172 -12 142 18.5Q112 49 112 105V428H16V469H112V601H160V469H291V428H160V113Q160 71 180 49.5Q200 28 240 28Q252 28 266.5 31Q281 34 292 39Z" glyph-name="t" horiz-adv-x="315" unicode="t" /><glyph d="M436 75 434 75Q393 27 354.5 6.5Q316 -14 267 -14Q181 -14 133.5 35.5Q86 85 86 175V469H135V180Q135 109 172.5 67Q210 25 274 25Q317 25 350.5 45.5Q384 66 433 125V469H479V98Q479 72 480.5 49.5Q482 27 486 0H441Q439 14 437.5 36Q436 58 436 75Z" glyph-name="u" horiz-adv-x="580" unicode="u" /><glyph d="M261 0 203 0L20 469H74L233 48H235L389 469H441Z" glyph-name="v" horiz-adv-x="462" unicode="v" /><glyph d="M367 414 365 414L224 0H169L28 469H80L198 54H200L339 469H396L537 54H539L657 469H707L565 0H510Z" glyph-name="w" horiz-adv-x="736" unicode="w" /><glyph d="M456 0 396 0L238 214L81 0H23L208 246L44 469H103L240 277L375 469H433L269 246Z" glyph-name="x" horiz-adv-x="480" unicode="x" /><glyph d="M78 -248 78 -202Q120 -185 144 -152Q168 -119 192 -57L200 -35Q205 -22 205 -10.5Q205 1 200 14L21 469H76L234 42L386 469H438L237 -65Q205 -151 170 -192Q135 -233 78 -248Z" glyph-name="y" horiz-adv-x="460" unicode="y" /><glyph d="M402 0 44 0V41L335 428H58V469H391V428L101 40H402Z" glyph-name="z" horiz-adv-x="449" unicode="z" /><glyph d="M607 443Q539 443 492 395Q445 347 437 274H774Q770 351 725 397Q680 443 607 443ZM108 123Q108 74 139.5 47.5Q171 21 226 21Q272 21 316 51.5Q360 82 402 143Q395 164 391.5 187.5Q388 211 387 237L229 222Q167 215 137.5 191Q108 167 108 123ZM800 103 800 49Q759 16 715.5 1Q672 -14 622 -14Q553 -14 499.5 18Q446 50 416 109Q368 45 320 15.5Q272 -14 213 -14Q142 -14 100.5 21.5Q59 57 59 121Q59 178 96.5 210Q134 242 214 253L374 275Q380 276 383 278Q386 280 386 284V313Q386 376 351 410.5Q316 445 255 445Q211 445 168.5 428Q126 411 90 380V430Q122 456 166 470Q210 484 257 484Q321 484 363.5 458Q406 432 424 382Q454 430 501.5 456.5Q549 483 607 483Q704 483 762 421Q820 359 820 263V237H436Q441 140 490.5 83Q540 26 623 26Q673 26 714.5 44Q756 62 800 103Z" glyph-name="ae" horiz-adv-x="878" unicode="æ" /><glyph d="M716 443Q644 443 594.5 392Q545 341 538 265H892Q888 346 840.5 394.5Q793 443 716 443ZM297 442Q212 442 159.5 384Q107 326 107 235Q107 144 160 85.5Q213 27 297 27Q381 27 434.5 85.5Q488 144 488 234Q488 325 434.5 383.5Q381 442 297 442ZM918 103 918 49Q876 17 831 1.5Q786 -14 732 -14Q655 -14 597 21.5Q539 57 512 122Q484 58 427 22Q370 -14 297 -14Q190 -14 123 54.5Q56 123 56 234Q56 344 124 414Q192 484 297 484Q370 484 427 448.5Q484 413 512 350Q540 412 594.5 447.5Q649 483 717 483Q817 483 877.5 419Q938 355 938 255V228H538Q543 135 595 80.5Q647 26 732 26Q787 26 831 44.5Q875 63 918 103Z" glyph-name="oe" horiz-adv-x="996" unicode="œ" /><glyph d="M222 40 222 0H185Q140 0 117 24.5Q94 49 94 97V341L25 313V352L94 380V708H142V399L223 432V393L142 360V102Q142 72 156.5 56Q171 40 199 40Z" glyph-name="lslash" horiz-adv-x="237" unicode="ł" /><glyph d="M297 442Q212 442 158.5 383.5Q105 325 105 235Q105 186 122.5 143.5Q140 101 172 72L396 416Q373 429 348.5 435.5Q324 442 297 442ZM297 26Q381 26 435 85.5Q489 145 489 234Q489 283 472 325Q455 367 423 396L198 52Q221 39 245.5 32.5Q270 26 297 26ZM538 236Q538 126 470 56Q402 -14 297 -14Q263 -14 232 -6.5Q201 1 174 16L138 -40H98L146 34Q102 68 79 119Q56 170 56 234Q56 344 124 414Q192 484 297 484Q330 484 361.5 476.5Q393 469 421 454L457 509H497L449 435Q492 402 515 351Q538 300 538 236Z" glyph-name="oslash" horiz-adv-x="595" unicode="ø" /><glyph d="M538 247Q538 130 471 58Q404 -14 297 -14Q190 -14 123 54.5Q56 123 56 234Q56 344 124 414Q192 484 297 484Q347 484 387.5 465.5Q428 447 462 409Q435 478 395.5 536Q356 594 305 639L191 588L180 618L278 662Q258 677 238 690.5Q218 704 197 715L232 735Q253 723 273.5 709Q294 695 315 678L427 729L439 700L341 656Q435 572 486.5 464.5Q538 357 538 247ZM297 442Q212 442 158.5 383.5Q105 325 105 235Q105 145 158.5 85.5Q212 26 297 26Q381 26 435 85.5Q489 145 489 234Q489 324 435.5 383Q382 442 297 442Z" glyph-name="eth" horiz-adv-x="595" unicode="ð" /><glyph d="M317 25Q401 25 454 84.5Q507 144 507 235Q507 325 453.5 384Q400 443 315 443Q266 443 229 424Q192 405 142 347V103Q188 61 228 43Q268 25 317 25ZM319 -14Q269 -14 228 0.5Q187 15 143 49H142V-240H94V708H142V398Q187 445 228 464Q269 483 319 483Q425 483 490.5 415Q556 347 556 237Q556 127 489.5 56.5Q423 -14 319 -14Z" glyph-name="thorn" horiz-adv-x="613" unicode="þ" /><glyph d="M450 546Q450 609 410 646.5Q370 684 304 684Q225 684 183 632Q141 580 141 485V0H93V489Q93 600 149 664Q205 728 305 728Q393 728 447 678.5Q501 629 501 549Q501 486 466 442.5Q431 399 371 386V384Q458 370 499.5 322.5Q541 275 541 191Q541 96 481 43Q421 -10 315 -10Q302 -10 288 -8.5Q274 -7 260 -5V39Q276 36 288.5 34.5Q301 33 311 33Q396 33 443 75Q490 117 490 194Q490 278 443 319.5Q396 361 301 361H285V404H302Q368 404 409 442.5Q450 481 450 546Z" glyph-name="germandbls" horiz-adv-x="599" unicode="ß" /><glyph d="M142 0 94 0V469H142Z" glyph-name="dotlessi" horiz-adv-x="236" unicode="ı" /><glyph d="M94 469 142 469V-80Q142 -168 113 -204Q84 -240 17 -240Q9 -240 0.5 -239.5Q-8 -239 -16 -237V-197Q-8 -199 -2 -199.5Q4 -200 9 -200Q53 -200 73.5 -174.5Q94 -149 94 -85Z" glyph-name="dotlessj" horiz-adv-x="236" unicode="ȷ" /><glyph d="M447 682Q447 666 436.5 655.5Q426 645 412 645Q397 645 387 655.5Q377 666 377 682Q377 697 387 708Q397 719 412 719Q427 719 437 708Q447 697 447 682ZM436 0 388 0V428H162V0H113V428H20V469H113V569Q113 641 149 680Q185 719 248 719Q261 719 273.5 717.5Q286 716 298 713V671Q288 674 277 676Q266 678 254 678Q210 678 186 648.5Q162 619 162 566V469H436Z" glyph-name="fi" horiz-adv-x="531" unicode="ﬁ" /><glyph d="M388 708 436 708V102Q436 72 450.5 56Q465 40 493 40H516V0H479Q434 0 411 24.5Q388 49 388 97ZM284 469 284 428H162V0H113V428H20V469H113V569Q113 641 149 680Q185 719 248 719Q261 719 273.5 717.5Q286 716 298 713V671Q288 674 277 676Q266 678 254 678Q210 678 186 648.5Q162 619 162 566V469Z" glyph-name="fl" horiz-adv-x="531" unicode="ﬂ" /><glyph d="M436 708 436 410H438Q487 450 527 466.5Q567 483 614 483Q719 483 784 415.5Q849 348 849 238Q849 127 783 56.5Q717 -14 613 -14Q570 -14 531 0.5Q492 15 452 48Q445 54 442.5 55.5Q440 57 439 57Q435 57 433.5 54Q432 51 432 42V0H388V708ZM608 25Q692 25 746 85Q800 145 800 236Q800 327 747 385Q694 443 610 443Q566 443 526.5 424.5Q487 406 436 360V113Q486 62 524 43.5Q562 25 608 25ZM284 469 284 428H162V0H113V428H20V469H113V569Q113 641 149 680Q185 719 248 719Q261 719 273.5 717.5Q286 716 298 713V671Q288 674 277 676Q266 678 254 678Q210 678 186 648.5Q162 619 162 566V469Z" glyph-name="f_b" horiz-adv-x="909" unicode="" /><glyph d="M437 708 437 410H439Q490 453 527 468Q564 483 611 483Q691 483 737 436Q783 389 783 309V0H735V306Q735 367 698.5 405Q662 443 601 443Q560 443 526 427Q492 411 437 360V0H388V708ZM284 469 284 428H162V0H113V428H20V469H113V569Q113 641 149 680Q185 719 248 719Q261 719 273.5 717.5Q286 716 298 713V671Q288 674 277 676Q266 678 254 678Q210 678 186 648.5Q162 619 162 566V469Z" glyph-name="f_h" horiz-adv-x="872" unicode="" /><glyph d="M447 682Q447 666 436.5 655.5Q426 645 412 645Q397 645 387 655.5Q377 666 377 682Q377 697 387 708Q397 719 412 719Q427 719 437 708Q447 697 447 682ZM311 -240Q303 -240 294.5 -239.5Q286 -239 278 -237V-197Q286 -199 292 -199.5Q298 -200 303 -200Q347 -200 367.5 -174.5Q388 -149 388 -85V428H162V0H113V428H20V469H113V569Q113 641 149 680Q185 719 248 719Q261 719 273.5 717.5Q286 716 298 713V671Q288 674 277 676Q266 678 254 678Q210 678 186 648.5Q162 619 162 566V469H436V-80Q436 -168 407 -204Q378 -240 311 -240Z" glyph-name="f_j" horiz-adv-x="530" unicode="" /><glyph d="M284 469 284 428H162V0H113V428H20V469H113V569Q113 641 149 680Q185 719 248 719Q261 719 273.5 717.5Q286 716 298 713V671Q288 674 277 676Q266 678 254 678Q210 678 186 648.5Q162 619 162 566V469ZM681 0 438 240H436V0H388V708H436V258H438L659 469H720L487 252L744 0Z" glyph-name="f_k" horiz-adv-x="764" unicode="" /><glyph d="M504 -12Q448 -12 418 18.5Q388 49 388 105V428H162V0H113V428H20V469H113V569Q113 641 149 680Q185 719 248 719Q261 719 273.5 717.5Q286 716 298 713V671Q288 674 277 676Q266 678 254 678Q210 678 186 648.5Q162 619 162 566V469H388V601H436V469H567V428H436V113Q436 71 456 49.5Q476 28 516 28Q528 28 542.5 31Q557 34 568 39V0Q552 -6 535 -9Q518 -12 504 -12Z" glyph-name="f_t" horiz-adv-x="591" unicode="" /><glyph d="M449 0 400 0V428H162V0H113V428H20V469H113V569Q113 641 149 680Q185 719 248 719Q261 719 273.5 717.5Q286 716 298 713V671Q288 674 277 676Q266 678 254 678Q210 678 186 648.5Q162 619 162 566V469H400V569Q400 641 436 680Q472 719 535 719Q548 719 560.5 717.5Q573 716 585 713V671Q575 674 564 676Q553 678 541 678Q497 678 473 648.5Q449 619 449 566V469H571V428H449Z" glyph-name="f_f" horiz-adv-x="583" unicode="ﬀ" /><glyph d="M734 682Q734 666 723.5 655.5Q713 645 699 645Q684 645 674 655.5Q664 666 664 682Q664 697 674 708Q684 719 699 719Q714 719 724 708Q734 697 734 682ZM449 0 400 0V428H162V0H113V428H20V469H113V569Q113 641 149 680Q185 719 248 719Q261 719 273.5 717.5Q286 716 298 713V671Q288 674 277 676Q266 678 254 678Q210 678 186 648.5Q162 619 162 566V469H400V569Q400 641 436 680Q472 719 535 719Q548 719 560.5 717.5Q573 716 585 713V671Q575 674 564 676Q553 678 541 678Q497 678 473 648.5Q449 619 449 566V469H723V0H675V428H449Z" glyph-name="f_f_i" horiz-adv-x="818" unicode="ﬃ" /><glyph d="M675 708 723 708V102Q723 72 737.5 56Q752 40 780 40H803V0H766Q721 0 698 24.5Q675 49 675 97ZM449 0 400 0V428H162V0H113V428H20V469H113V569Q113 641 149 680Q185 719 248 719Q261 719 273.5 717.5Q286 716 298 713V671Q288 674 277 676Q266 678 254 678Q210 678 186 648.5Q162 619 162 566V469H400V569Q400 641 436 680Q472 719 535 719Q548 719 560.5 717.5Q573 716 585 713V671Q575 674 564 676Q553 678 541 678Q497 678 473 648.5Q449 619 449 566V469H571V428H449Z" glyph-name="f_f_l" horiz-adv-x="819" unicode="ﬄ" /><glyph d="M723 708 723 410H725Q774 450 814 466.5Q854 483 901 483Q1006 483 1071 415.5Q1136 348 1136 238Q1136 127 1070 56.5Q1004 -14 900 -14Q857 -14 818 0.5Q779 15 739 48Q732 54 729.5 55.5Q727 57 726 57Q722 57 720.5 54Q719 51 719 42V0H675V708ZM895 25Q979 25 1033 85Q1087 145 1087 236Q1087 327 1034 385Q981 443 897 443Q853 443 813.5 424.5Q774 406 723 360V113Q773 62 811 43.5Q849 25 895 25ZM449 0 400 0V428H162V0H113V428H20V469H113V569Q113 641 149 680Q185 719 248 719Q261 719 273.5 717.5Q286 716 298 713V671Q288 674 277 676Q266 678 254 678Q210 678 186 648.5Q162 619 162 566V469H400V569Q400 641 436 680Q472 719 535 719Q548 719 560.5 717.5Q573 716 585 713V671Q575 674 564 676Q553 678 541 678Q497 678 473 648.5Q449 619 449 566V469H571V428H449Z" glyph-name="f_f_b" horiz-adv-x="1196" unicode="" /><glyph d="M724 708 724 410H726Q777 453 814 468Q851 483 898 483Q978 483 1024 436Q1070 389 1070 309V0H1022V306Q1022 367 985.5 405Q949 443 888 443Q847 443 813 427Q779 411 724 360V0H675V708ZM449 0 400 0V428H162V0H113V428H20V469H113V569Q113 641 149 680Q185 719 248 719Q261 719 273.5 717.5Q286 716 298 713V671Q288 674 277 676Q266 678 254 678Q210 678 186 648.5Q162 619 162 566V469H400V569Q400 641 436 680Q472 719 535 719Q548 719 560.5 717.5Q573 716 585 713V671Q575 674 564 676Q553 678 541 678Q497 678 473 648.5Q449 619 449 566V469H571V428H449Z" glyph-name="f_f_h" horiz-adv-x="1159" unicode="" /><glyph d="M734 682Q734 666 723.5 655.5Q713 645 699 645Q684 645 674 655.5Q664 666 664 682Q664 697 674 708Q684 719 699 719Q714 719 724 708Q734 697 734 682ZM598 -240Q590 -240 581.5 -239.5Q573 -239 565 -237V-197Q573 -199 579 -199.5Q585 -200 590 -200Q634 -200 654.5 -174.5Q675 -149 675 -85V428H449V0H400V428H162V0H113V428H20V469H113V569Q113 641 149 680Q185 719 248 719Q261 719 273.5 717.5Q286 716 298 713V671Q288 674 277 676Q266 678 254 678Q210 678 186 648.5Q162 619 162 566V469H400V569Q400 641 436 680Q472 719 535 719Q548 719 560.5 717.5Q573 716 585 713V671Q575 674 564 676Q553 678 541 678Q497 678 473 648.5Q449 619 449 566V469H723V-80Q723 -168 694 -204Q665 -240 598 -240Z" glyph-name="f_f_j" horiz-adv-x="817" unicode="" /><glyph d="M449 0 400 0V428H162V0H113V428H20V469H113V569Q113 641 149 680Q185 719 248 719Q261 719 273.5 717.5Q286 716 298 713V671Q288 674 277 676Q266 678 254 678Q210 678 186 648.5Q162 619 162 566V469H400V569Q400 641 436 680Q472 719 535 719Q548 719 560.5 717.5Q573 716 585 713V671Q575 674 564 676Q553 678 541 678Q497 678 473 648.5Q449 619 449 566V469H571V428H449ZM968 0 725 240H723V0H675V708H723V258H725L946 469H1007L774 252L1031 0Z" glyph-name="f_f_k" horiz-adv-x="1051" unicode="" /><glyph d="M791 -12Q735 -12 705 18.5Q675 49 675 105V428H449V0H400V428H162V0H113V428H20V469H113V569Q113 641 149 680Q185 719 248 719Q261 719 273.5 717.5Q286 716 298 713V671Q288 674 277 676Q266 678 254 678Q210 678 186 648.5Q162 619 162 566V469H400V569Q400 641 436 680Q472 719 535 719Q548 719 560.5 717.5Q573 716 585 713V671Q575 674 564 676Q553 678 541 678Q497 678 473 648.5Q449 619 449 566V469H675V601H723V469H854V428H723V113Q723 71 743 49.5Q763 28 803 28Q815 28 829.5 31Q844 34 855 39V0Q839 -6 822 -9Q805 -12 791 -12Z" glyph-name="f_f_t" horiz-adv-x="878" unicode="" /><glyph d="M515 232 343 658L164 232ZM665 0 609 0L532 190H147L67 0H13L318 708H370ZM457 954 339 810H296L400 954Z" glyph-name="Aacute" horiz-adv-x="678" unicode="Á" /><glyph d="M515 232 343 658L164 232ZM665 0 609 0L532 190H147L67 0H13L318 708H370ZM474 810 424 810L338 936L252 810H203L307 954H369Z" glyph-name="Acircumflex" horiz-adv-x="678" unicode="Â" /><glyph d="M515 232 343 658L164 232ZM665 0 609 0L532 190H147L67 0H13L318 708H370ZM442 890Q442 875 432 864.5Q422 854 408 854Q394 854 383.5 864.5Q373 875 373 890Q373 904 383.5 914Q394 924 408 924Q422 924 432 914Q442 904 442 890ZM302 890Q302 875 292 864.5Q282 854 269 854Q254 854 244 864.5Q234 875 234 890Q234 904 244.5 914Q255 924 269 924Q282 924 292 914Q302 904 302 890Z" glyph-name="Adieresis" horiz-adv-x="678" unicode="Ä" /><glyph d="M515 232 343 658L164 232ZM665 0 609 0L532 190H147L67 0H13L318 708H370ZM380 810 337 810L220 954H276Z" glyph-name="Agrave" horiz-adv-x="678" unicode="À" /><glyph d="M406 771Q406 797 387.5 815.5Q369 834 343 834Q317 834 299 815.5Q281 797 281 771Q281 744 299 726Q317 708 343 708Q370 708 388 726Q406 744 406 771ZM515 232 343 658L164 232ZM665 0 609 0L532 190H147L67 0H13L305 677Q276 689 258.5 714.5Q241 740 241 771Q241 812 271 841.5Q301 871 343 871Q385 871 415 841.5Q445 812 445 771Q445 740 428 715Q411 690 383 678Z" glyph-name="Aring" horiz-adv-x="678" unicode="Å" /><glyph d="M515 232 343 658L164 232ZM665 0 609 0L532 190H147L67 0H13L318 708H370ZM281 941Q300 941 316 932Q332 923 350 902Q365 884 374.5 877Q384 870 394 870Q411 870 420.5 886Q430 902 435 940H469Q464 889 446 863Q428 837 397 837Q378 837 362 846Q346 855 327 876Q311 895 302 901.5Q293 908 284 908Q267 908 257.5 892Q248 876 243 838H209Q213 889 231.5 915Q250 941 281 941Z" glyph-name="Atilde" horiz-adv-x="678" unicode="Ã" /><glyph d="M515 232 343 658L164 232ZM665 0 609 0L532 190H147L67 0H13L318 708H370ZM336 852Q374 852 396 874.5Q418 897 427 944H468Q458 883 423.5 849.5Q389 816 336 816Q283 816 249 850Q215 884 208 944H249Q255 901 278.5 876.5Q302 852 336 852Z" glyph-name="Abreve" horiz-adv-x="678" unicode="Ă" /><glyph d="M515 232 343 658L164 232ZM665 0 609 0L532 190H147L67 0H13L318 708H370ZM461 861 215 861V896H461Z" glyph-name="Amacron" horiz-adv-x="678" unicode="Ā" /><glyph d="M515 232 343 658L164 232ZM513 -143Q513 -111 535.5 -77Q558 -43 609 0L532 190H147L67 0H13L318 708H370L665 0H645Q591 -53 572.5 -81.5Q554 -110 554 -137Q554 -165 570 -181Q586 -197 613 -197Q632 -197 650 -189.5Q668 -182 680 -169L693 -194Q677 -209 654 -217Q631 -225 605 -225Q563 -225 538 -203Q513 -181 513 -143Z" glyph-name="Aogonek" horiz-adv-x="678" unicode="Ą" /><glyph d="M524 -144Q524 -183 490.5 -205Q457 -227 403 -227Q381 -227 354 -221.5Q327 -216 306 -207L316 -181Q333 -189 357 -194Q381 -199 402 -199Q440 -199 462 -184.5Q484 -170 484 -143Q484 -121 466.5 -109Q449 -97 417 -97Q403 -97 383 -101Q363 -105 353 -111L337 -98L394 -19Q248 -7 156.5 96.5Q65 200 65 354Q65 517 167 622.5Q269 728 427 728Q496 728 559 706Q622 684 667 644V583Q617 632 556.5 657Q496 682 430 682Q294 682 206 588.5Q118 495 118 354Q118 212 206 118Q294 24 431 24Q503 24 568 54Q633 84 682 141V78Q636 31 569 5.5Q502 -20 428 -20L384 -80Q395 -77 406.5 -75.5Q418 -74 434 -74Q475 -74 499.5 -92.5Q524 -111 524 -144Z" glyph-name="Ccedilla" horiz-adv-x="722" unicode="Ç" /><glyph d="M431 26Q503 26 568 55Q633 84 682 141V78Q635 31 568 5.5Q501 -20 427 -20Q268 -20 166.5 85Q65 190 65 354Q65 517 167 622.5Q269 728 427 728Q496 728 559 706Q622 684 667 644V583Q617 632 556.5 657Q496 682 430 682Q294 682 206 588.5Q118 495 118 354Q118 212 206 119Q294 26 431 26ZM526 954 408 810H365L469 954Z" glyph-name="Cacute" horiz-adv-x="722" unicode="Ć" /><glyph d="M431 26Q503 26 568 55Q633 84 682 141V78Q635 31 568 5.5Q501 -20 427 -20Q268 -20 166.5 85Q65 190 65 354Q65 517 167 622.5Q269 728 427 728Q496 728 559 706Q622 684 667 644V583Q617 632 556.5 657Q496 682 430 682Q294 682 206 588.5Q118 495 118 354Q118 212 206 119Q294 26 431 26ZM272 954 321 954L407 829L493 954H543L437 810H376Z" glyph-name="Ccaron" horiz-adv-x="722" unicode="Č" /><glyph d="M431 26Q503 26 568 55Q633 84 682 141V78Q635 31 568 5.5Q501 -20 427 -20Q268 -20 166.5 85Q65 190 65 354Q65 517 167 622.5Q269 728 427 728Q496 728 559 706Q622 684 667 644V583Q617 632 556.5 657Q496 682 430 682Q294 682 206 588.5Q118 495 118 354Q118 212 206 119Q294 26 431 26ZM543 810 493 810L407 936L321 810H272L376 954H438Z" glyph-name="Ccircumflex" horiz-adv-x="722" unicode="Ĉ" /><glyph d="M431 26Q503 26 568 55Q633 84 682 141V78Q635 31 568 5.5Q501 -20 427 -20Q268 -20 166.5 85Q65 190 65 354Q65 517 167 622.5Q269 728 427 728Q496 728 559 706Q622 684 667 644V583Q617 632 556.5 657Q496 682 430 682Q294 682 206 588.5Q118 495 118 354Q118 212 206 119Q294 26 431 26ZM443 890Q443 874 432 863.5Q421 853 407 853Q392 853 381 863.5Q370 874 370 890Q370 905 381 915.5Q392 926 407 926Q421 926 432 915.5Q443 905 443 890Z" glyph-name="Cdotaccent" horiz-adv-x="722" unicode="Ċ" /><glyph d="M703 354Q703 186 599 93Q495 0 313 0H99V708H310Q495 708 599 615.5Q703 523 703 354ZM649 354Q649 502 559 582.5Q469 663 308 663H152V44H307Q469 44 559 124.5Q649 205 649 354ZM192 954 241 954L327 829L413 954H463L357 810H296Z" glyph-name="Dcaron" horiz-adv-x="769" unicode="Ď" /><glyph d="M703 354Q703 186 599 93Q495 0 313 0H99V348H23V388H99V708H310Q495 708 599 615.5Q703 523 703 354ZM152 348 152 44H307Q469 44 559 124.5Q649 205 649 354Q649 501 558.5 582Q468 663 308 663H152V388H395V348Z" glyph-name="Dcroat" horiz-adv-x="769" unicode="Đ" /><glyph d="M539 0 99 0V708H524V663H150V387H501V343H150V44H539ZM431 954 313 810H270L374 954Z" glyph-name="Eacute" horiz-adv-x="591" unicode="É" /><glyph d="M539 0 99 0V708H524V663H150V387H501V343H150V44H539ZM448 810 398 810L312 936L226 810H177L281 954H343Z" glyph-name="Ecircumflex" horiz-adv-x="591" unicode="Ê" /><glyph d="M539 0 99 0V708H524V663H150V387H501V343H150V44H539ZM416 890Q416 875 406 864.5Q396 854 382 854Q368 854 357.5 864.5Q347 875 347 890Q347 904 357.5 914Q368 924 382 924Q396 924 406 914Q416 904 416 890ZM276 890Q276 875 266 864.5Q256 854 243 854Q228 854 218 864.5Q208 875 208 890Q208 904 218.5 914Q229 924 243 924Q256 924 266 914Q276 904 276 890Z" glyph-name="Edieresis" horiz-adv-x="591" unicode="Ë" /><glyph d="M539 0 99 0V708H524V663H150V387H501V343H150V44H539ZM354 810 311 810L194 954H250Z" glyph-name="Egrave" horiz-adv-x="591" unicode="È" /><glyph d="M539 0 99 0V708H524V663H150V387H501V343H150V44H539ZM310 852Q348 852 370 874.5Q392 897 401 944H442Q432 883 397.5 849.5Q363 816 310 816Q257 816 223 850Q189 884 182 944H223Q229 901 252.5 876.5Q276 852 310 852Z" glyph-name="Ebreve" horiz-adv-x="591" unicode="Ĕ" /><glyph d="M539 0 99 0V708H524V663H150V387H501V343H150V44H539ZM177 954 226 954L312 829L398 954H448L342 810H281Z" glyph-name="Ecaron" horiz-adv-x="591" unicode="Ě" /><glyph d="M539 0 99 0V708H524V663H150V387H501V343H150V44H539ZM348 890Q348 874 337 863.5Q326 853 312 853Q297 853 286 863.5Q275 874 275 890Q275 905 286 915.5Q297 926 312 926Q326 926 337 915.5Q348 905 348 890Z" glyph-name="Edotaccent" horiz-adv-x="591" unicode="Ė" /><glyph d="M539 0 99 0V708H524V663H150V387H501V343H150V44H539ZM435 861 189 861V896H435Z" glyph-name="Emacron" horiz-adv-x="591" unicode="Ē" /><glyph d="M348 -143Q348 -111 370.5 -77Q393 -43 444 0H99V708H524V663H150V387H501V343H150V44H539V0H480Q427 -51 408 -80Q389 -109 389 -137Q389 -165 405 -181Q421 -197 449 -197Q467 -197 485 -189.5Q503 -182 515 -169L528 -194Q511 -209 488.5 -217Q466 -225 440 -225Q398 -225 373 -203Q348 -181 348 -143Z" glyph-name="Eogonek" horiz-adv-x="591" unicode="Ę" /><glyph d="M678 655 678 594Q628 636 565.5 659Q503 682 440 682Q298 682 208 589.5Q118 497 118 355Q118 209 207 116.5Q296 24 442 24Q499 24 549.5 35.5Q600 47 646 71V319H472V363H697V74L709 49Q652 16 582.5 -1.5Q513 -19 441 -19Q275 -19 170 86Q65 191 65 355Q65 518 169.5 623Q274 728 438 728Q506 728 567.5 709Q629 690 678 655ZM424 852Q462 852 484 874.5Q506 897 515 944H556Q546 883 511.5 849.5Q477 816 424 816Q371 816 337 850Q303 884 296 944H337Q343 901 366.5 876.5Q390 852 424 852Z" glyph-name="Gbreve" horiz-adv-x="786" unicode="Ğ" /><glyph d="M678 655 678 594Q628 636 565.5 659Q503 682 440 682Q298 682 208 589.5Q118 497 118 355Q118 209 207 116.5Q296 24 442 24Q499 24 549.5 35.5Q600 47 646 71V319H472V363H697V74L709 49Q652 16 582.5 -1.5Q513 -19 441 -19Q275 -19 170 86Q65 191 65 355Q65 518 169.5 623Q274 728 438 728Q506 728 567.5 709Q629 690 678 655ZM562 810 512 810L426 936L340 810H291L395 954H457Z" glyph-name="Gcircumflex" horiz-adv-x="786" unicode="Ĝ" /><glyph d="M678 655 678 594Q628 636 565.5 659Q503 682 440 682Q298 682 208 589.5Q118 497 118 355Q118 209 207 116.5Q296 24 442 24Q499 24 549.5 35.5Q600 47 646 71V319H472V363H697V74L709 49Q652 16 582.5 -1.5Q513 -19 441 -19Q275 -19 170 86Q65 191 65 355Q65 518 169.5 623Q274 728 438 728Q506 728 567.5 709Q629 690 678 655ZM351 -231 403 -47H454L393 -231Z" glyph-name="Gcommaaccent" horiz-adv-x="786" unicode="Ģ" /><glyph d="M678 655 678 594Q628 636 565.5 659Q503 682 440 682Q298 682 208 589.5Q118 497 118 355Q118 209 207 116.5Q296 24 442 24Q499 24 549.5 35.5Q600 47 646 71V319H472V363H697V74L709 49Q652 16 582.5 -1.5Q513 -19 441 -19Q275 -19 170 86Q65 191 65 355Q65 518 169.5 623Q274 728 438 728Q506 728 567.5 709Q629 690 678 655ZM462 890Q462 874 451 863.5Q440 853 426 853Q411 853 400 863.5Q389 874 389 890Q389 905 400 915.5Q411 926 426 926Q440 926 451 915.5Q462 905 462 890Z" glyph-name="Gdotaccent" horiz-adv-x="786" unicode="Ġ" /><glyph d="M151 554 151 388H585V554ZM585 344 151 344V0H99V554H51V592H99V708H151V592H585V708H637V592H684V554H637V0H585Z" glyph-name="Hbar" horiz-adv-x="736" unicode="Ħ" /><glyph d="M637 0 585 0V344H151V0H99V708H151V388H585V708H637ZM503 810 453 810L367 936L281 810H232L336 954H398Z" glyph-name="Hcircumflex" horiz-adv-x="736" unicode="Ĥ" /><glyph d="M151 0 99 0V708H151ZM244 954 126 810H83L187 954Z" glyph-name="Iacute" horiz-adv-x="250" unicode="Í" /><glyph d="M151 0 99 0V708H151ZM261 810 211 810L125 936L39 810H-10L94 954H156Z" glyph-name="Icircumflex" horiz-adv-x="250" unicode="Î" /><glyph d="M151 0 99 0V708H151ZM229 890Q229 875 219 864.5Q209 854 195 854Q181 854 170.5 864.5Q160 875 160 890Q160 904 170.5 914Q181 924 195 924Q209 924 219 914Q229 904 229 890ZM89 890Q89 875 79 864.5Q69 854 56 854Q41 854 31 864.5Q21 875 21 890Q21 904 31.5 914Q42 924 56 924Q69 924 79 914Q89 904 89 890Z" glyph-name="Idieresis" horiz-adv-x="250" unicode="Ï" /><glyph d="M151 0 99 0V708H151ZM167 810 124 810L7 954H63Z" glyph-name="Igrave" horiz-adv-x="250" unicode="Ì" /><glyph d="M151 0 99 0V708H151ZM123 852Q161 852 183 874.5Q205 897 214 944H255Q245 883 210.5 849.5Q176 816 123 816Q70 816 36 850Q2 884 -5 944H36Q42 901 65.5 876.5Q89 852 123 852Z" glyph-name="Ibreve" horiz-adv-x="250" unicode="Ĭ" /><glyph d="M151 0 99 0V708H151ZM161 890Q161 874 150 863.5Q139 853 125 853Q110 853 99 863.5Q88 874 88 890Q88 905 99 915.5Q110 926 125 926Q139 926 150 915.5Q161 905 161 890Z" glyph-name="Idotaccent" horiz-adv-x="250" unicode="İ" /><glyph d="M151 0 99 0V708H151ZM248 861 2 861V896H248Z" glyph-name="Imacron" horiz-adv-x="250" unicode="Ī" /><glyph d="M9 -143Q9 -111 32 -77Q55 -43 106 0H99V708H151V0H140Q87 -51 68.5 -80Q50 -109 50 -137Q50 -165 66 -181Q82 -197 110 -197Q129 -197 146.5 -189.5Q164 -182 176 -169L190 -194Q172 -209 149.5 -217Q127 -225 101 -225Q59 -225 34 -203Q9 -181 9 -143Z" glyph-name="Iogonek" horiz-adv-x="250" unicode="Į" /><glyph d="M151 0 99 0V708H151ZM68 941Q87 941 103 932Q119 923 137 902Q152 884 161.5 877Q171 870 181 870Q198 870 207.5 886Q217 902 222 940H256Q251 889 233 863Q215 837 184 837Q165 837 149 846Q133 855 114 876Q98 895 89 901.5Q80 908 71 908Q54 908 44.5 892Q35 876 30 838H-4Q0 889 18.5 915Q37 941 68 941Z" glyph-name="Itilde" horiz-adv-x="250" unicode="Ĩ" /><glyph d="M381 708 381 199Q381 94 332 38Q283 -18 191 -18Q146 -18 108 -1.5Q70 15 46 45V110Q75 69 111 47.5Q147 26 188 26Q258 26 294.5 71Q331 116 331 202V708ZM480 810 430 810L344 936L258 810H209L313 954H375Z" glyph-name="Jcircumflex" horiz-adv-x="477" unicode="Ĵ" /><glyph d="M151 0 99 0V708H151ZM631 708 631 199Q631 94 582 38Q533 -18 441 -18Q396 -18 358 -1.5Q320 15 296 45V110Q325 69 361 47.5Q397 26 438 26Q508 26 544.5 71Q581 116 581 202V708Z" glyph-name="IJ" horiz-adv-x="728" unicode="Ĳ" /><glyph d="M563 0 496 0L151 366H149V0H99V708H149V392H150L479 708H546L202 383ZM234 -231 286 -47H337L276 -231Z" glyph-name="Kcommaaccent" horiz-adv-x="589" unicode="Ķ" /><glyph d="M563 0 496 0L151 366H149V0H99V708H149V392H150L479 708H546L202 383ZM666 708 625 564H574L626 708Z" glyph-name="kgreenlandic.case" horiz-adv-x="651" unicode="" /><glyph d="M486 0 99 0V708H149V44H486ZM273 954 155 810H112L216 954Z" glyph-name="Lacute" horiz-adv-x="502" unicode="Ĺ" /><glyph d="M486 0 99 0V708H149V44H486ZM245 526 294 708H344L286 526Z" glyph-name="Lcaron" horiz-adv-x="502" unicode="Ľ" /><glyph d="M486 0 99 0V708H149V44H486ZM203 -231 255 -47H306L245 -231Z" glyph-name="Lcommaaccent" horiz-adv-x="502" unicode="Ļ" /><glyph d="M486 0 99 0V708H149V44H486ZM399 327Q399 311 388.5 300.5Q378 290 364 290Q349 290 338.5 300.5Q328 311 328 327Q328 342 338.5 352.5Q349 363 364 363Q379 363 389 352.5Q399 342 399 327Z" glyph-name="Ldot" horiz-adv-x="502" unicode="Ŀ" /><glyph d="M152 0 99 0V708H163L620 66H623L619 708H672V0H606L151 638H148ZM328 941Q347 941 363 932Q379 923 397 902Q412 884 421.5 877Q431 870 441 870Q458 870 467.5 886Q477 902 482 940H516Q511 889 493 863Q475 837 444 837Q425 837 409 846Q393 855 374 876Q358 895 349 901.5Q340 908 331 908Q314 908 304.5 892Q295 876 290 838H256Q260 889 278.5 915Q297 941 328 941Z" glyph-name="Ntilde" horiz-adv-x="771" unicode="Ñ" /><glyph d="M152 0 99 0V708H163L620 66H623L619 708H672V0H606L151 638H148ZM504 954 386 810H343L447 954Z" glyph-name="Nacute" horiz-adv-x="771" unicode="Ń" /><glyph d="M152 0 99 0V708H163L620 66H623L619 708H672V0H606L151 638H148ZM250 954 299 954L385 829L471 954H521L415 810H354Z" glyph-name="Ncaron" horiz-adv-x="771" unicode="Ň" /><glyph d="M152 0 99 0V708H163L620 66H623L619 708H672V0H606L151 638H148ZM325 -231 377 -47H428L367 -231Z" glyph-name="Ncommaaccent" horiz-adv-x="771" unicode="Ņ" /><glyph d="M152 0 99 0V708H163L620 66H623L619 708H672V0H606L151 638H148ZM109 810 143 954H194L153 810Z" glyph-name="napostrophe.case" horiz-adv-x="771" unicode="" /><glyph d="M482 -240Q437 -240 399 -223.5Q361 -207 337 -177V-112Q366 -153 402 -174.5Q438 -196 479 -196Q549 -196 585.5 -151Q622 -106 622 -20V0H606L151 638H148L149 0H99V708H163L620 66H623L621 708H672V-23Q672 -128 623 -184Q574 -240 482 -240Z" glyph-name="Eng" horiz-adv-x="771" unicode="Ŋ" /><glyph d="M432 -20Q272 -20 168.5 85.5Q65 191 65 354Q65 517 169 622.5Q273 728 432 728Q591 728 695 622Q799 516 799 352Q799 190 695 85Q591 -20 432 -20ZM432 682Q297 682 207.5 588Q118 494 118 354Q118 213 207 119.5Q296 26 432 26Q568 26 657 118.5Q746 211 746 352Q746 493 656.5 587.5Q567 682 432 682ZM550 954 432 810H389L493 954Z" glyph-name="Oacute" horiz-adv-x="864" unicode="Ó" /><glyph d="M432 -20Q272 -20 168.5 85.5Q65 191 65 354Q65 517 169 622.5Q273 728 432 728Q591 728 695 622Q799 516 799 352Q799 190 695 85Q591 -20 432 -20ZM432 682Q297 682 207.5 588Q118 494 118 354Q118 213 207 119.5Q296 26 432 26Q568 26 657 118.5Q746 211 746 352Q746 493 656.5 587.5Q567 682 432 682ZM567 810 517 810L431 936L345 810H296L400 954H462Z" glyph-name="Ocircumflex" horiz-adv-x="864" unicode="Ô" /><glyph d="M432 -20Q272 -20 168.5 85.5Q65 191 65 354Q65 517 169 622.5Q273 728 432 728Q591 728 695 622Q799 516 799 352Q799 190 695 85Q591 -20 432 -20ZM432 682Q297 682 207.5 588Q118 494 118 354Q118 213 207 119.5Q296 26 432 26Q568 26 657 118.5Q746 211 746 352Q746 493 656.5 587.5Q567 682 432 682ZM535 890Q535 875 525 864.5Q515 854 501 854Q487 854 476.5 864.5Q466 875 466 890Q466 904 476.5 914Q487 924 501 924Q515 924 525 914Q535 904 535 890ZM395 890Q395 875 385 864.5Q375 854 362 854Q347 854 337 864.5Q327 875 327 890Q327 904 337.5 914Q348 924 362 924Q375 924 385 914Q395 904 395 890Z" glyph-name="Odieresis" horiz-adv-x="864" unicode="Ö" /><glyph d="M432 -20Q272 -20 168.5 85.5Q65 191 65 354Q65 517 169 622.5Q273 728 432 728Q591 728 695 622Q799 516 799 352Q799 190 695 85Q591 -20 432 -20ZM432 682Q297 682 207.5 588Q118 494 118 354Q118 213 207 119.5Q296 26 432 26Q568 26 657 118.5Q746 211 746 352Q746 493 656.5 587.5Q567 682 432 682ZM473 810 430 810L313 954H369Z" glyph-name="Ograve" horiz-adv-x="864" unicode="Ò" /><glyph d="M432 -20Q272 -20 168.5 85.5Q65 191 65 354Q65 517 169 622.5Q273 728 432 728Q591 728 695 622Q799 516 799 352Q799 190 695 85Q591 -20 432 -20ZM432 682Q297 682 207.5 588Q118 494 118 354Q118 213 207 119.5Q296 26 432 26Q568 26 657 118.5Q746 211 746 352Q746 493 656.5 587.5Q567 682 432 682ZM374 941Q393 941 409 932Q425 923 443 902Q458 884 467.5 877Q477 870 487 870Q504 870 513.5 886Q523 902 528 940H562Q557 889 539 863Q521 837 490 837Q471 837 455 846Q439 855 420 876Q404 895 395 901.5Q386 908 377 908Q360 908 350.5 892Q341 876 336 838H302Q306 889 324.5 915Q343 941 374 941Z" glyph-name="Otilde" horiz-adv-x="864" unicode="Õ" /><glyph d="M432 -20Q272 -20 168.5 85.5Q65 191 65 354Q65 517 169 622.5Q273 728 432 728Q591 728 695 622Q799 516 799 352Q799 190 695 85Q591 -20 432 -20ZM432 682Q297 682 207.5 588Q118 494 118 354Q118 213 207 119.5Q296 26 432 26Q568 26 657 118.5Q746 211 746 352Q746 493 656.5 587.5Q567 682 432 682ZM429 852Q467 852 489 874.5Q511 897 520 944H561Q551 883 516.5 849.5Q482 816 429 816Q376 816 342 850Q308 884 301 944H342Q348 901 371.5 876.5Q395 852 429 852Z" glyph-name="Obreve" horiz-adv-x="864" unicode="Ŏ" /><glyph d="M432 -20Q272 -20 168.5 85.5Q65 191 65 354Q65 517 169 622.5Q273 728 432 728Q591 728 695 622Q799 516 799 352Q799 190 695 85Q591 -20 432 -20ZM432 682Q297 682 207.5 588Q118 494 118 354Q118 213 207 119.5Q296 26 432 26Q568 26 657 118.5Q746 211 746 352Q746 493 656.5 587.5Q567 682 432 682ZM623 954 505 810H465L569 954ZM489 954 371 810H331L435 954Z" glyph-name="Ohungarumlaut" horiz-adv-x="864" unicode="Ő" /><glyph d="M432 -20Q272 -20 168.5 85.5Q65 191 65 354Q65 517 169 622.5Q273 728 432 728Q591 728 695 622Q799 516 799 352Q799 190 695 85Q591 -20 432 -20ZM432 682Q297 682 207.5 588Q118 494 118 354Q118 213 207 119.5Q296 26 432 26Q568 26 657 118.5Q746 211 746 352Q746 493 656.5 587.5Q567 682 432 682ZM554 861 308 861V896H554Z" glyph-name="Omacron" horiz-adv-x="864" unicode="Ō" /><glyph d="M323 664 149 664V382H331Q418 382 465 419Q512 456 512 524Q512 593 463.5 628.5Q415 664 323 664ZM149 0 99 0V708H336Q447 708 506 661Q565 614 565 524Q565 445 513.5 397.5Q462 350 374 343L582 0H523L322 338H149ZM434 954 316 810H273L377 954Z" glyph-name="Racute" horiz-adv-x="632" unicode="Ŕ" /><glyph d="M323 664 149 664V382H331Q418 382 465 419Q512 456 512 524Q512 593 463.5 628.5Q415 664 323 664ZM149 0 99 0V708H336Q447 708 506 661Q565 614 565 524Q565 445 513.5 397.5Q462 350 374 343L582 0H523L322 338H149ZM180 954 229 954L315 829L401 954H451L345 810H284Z" glyph-name="Rcaron" horiz-adv-x="632" unicode="Ř" /><glyph d="M323 664 149 664V382H331Q418 382 465 419Q512 456 512 524Q512 593 463.5 628.5Q415 664 323 664ZM149 0 99 0V708H336Q447 708 506 661Q565 614 565 524Q565 445 513.5 397.5Q462 350 374 343L582 0H523L322 338H149ZM255 -231 307 -47H358L297 -231Z" glyph-name="Rcommaaccent" horiz-adv-x="632" unicode="Ŗ" /><glyph d="M303 728Q358 728 407 709.5Q456 691 491 656V593Q448 639 400.5 662Q353 685 300 685Q225 685 177.5 644.5Q130 604 130 537Q130 481 164.5 445Q199 409 292 380Q414 342 459.5 296Q505 250 505 178Q505 89 441.5 34.5Q378 -20 280 -20Q219 -20 164.5 -0.5Q110 19 66 57V122Q118 71 171 46.5Q224 22 280 22Q356 22 404 64.5Q452 107 452 175Q452 229 415 265.5Q378 302 277 334Q165 368 121 414.5Q77 461 77 536Q77 622 140.5 675Q204 728 303 728ZM149 954 198 954L284 829L370 954H420L314 810H253Z" glyph-name="Scaron" horiz-adv-x="570" unicode="Š" /><glyph d="M303 728Q358 728 407 709.5Q456 691 491 656V593Q448 639 400.5 662Q353 685 300 685Q225 685 177.5 644.5Q130 604 130 537Q130 481 164.5 445Q199 409 292 380Q414 342 459.5 296Q505 250 505 178Q505 89 441.5 34.5Q378 -20 280 -20Q219 -20 164.5 -0.5Q110 19 66 57V122Q118 71 171 46.5Q224 22 280 22Q356 22 404 64.5Q452 107 452 175Q452 229 415 265.5Q378 302 277 334Q165 368 121 414.5Q77 461 77 536Q77 622 140.5 675Q204 728 303 728ZM403 954 285 810H242L346 954Z" glyph-name="Sacute" horiz-adv-x="570" unicode="Ś" /><glyph d="M399 -144Q399 -183 365.5 -205Q332 -227 279 -227Q256 -227 229.5 -221.5Q203 -216 181 -207L191 -181Q208 -189 232 -194Q256 -199 277 -199Q315 -199 337 -184.5Q359 -170 359 -143Q359 -121 341.5 -109Q324 -97 293 -97Q279 -97 259 -101Q239 -105 228 -111L213 -98L269 -20Q211 -18 159.5 1.5Q108 21 66 57V122Q118 71 171 46.5Q224 22 280 22Q356 22 404 64.5Q452 107 452 175Q452 229 415 265.5Q378 302 277 334Q165 368 121 414.5Q77 461 77 536Q77 622 140.5 675Q204 728 303 728Q358 728 407 709.5Q456 691 491 656V593Q448 639 400.5 662Q353 685 300 685Q225 685 177.5 644.5Q130 604 130 537Q130 481 164.5 445Q199 409 292 380Q414 342 459.5 296Q505 250 505 178Q505 95 449 41.5Q393 -12 303 -19L259 -80Q270 -77 281.5 -75.5Q293 -74 309 -74Q350 -74 374.5 -92.5Q399 -111 399 -144Z" glyph-name="Scedilla" horiz-adv-x="570" unicode="Ş" /><glyph d="M303 728Q358 728 407 709.5Q456 691 491 656V593Q448 639 400.5 662Q353 685 300 685Q225 685 177.5 644.5Q130 604 130 537Q130 481 164.5 445Q199 409 292 380Q414 342 459.5 296Q505 250 505 178Q505 89 441.5 34.5Q378 -20 280 -20Q219 -20 164.5 -0.5Q110 19 66 57V122Q118 71 171 46.5Q224 22 280 22Q356 22 404 64.5Q452 107 452 175Q452 229 415 265.5Q378 302 277 334Q165 368 121 414.5Q77 461 77 536Q77 622 140.5 675Q204 728 303 728ZM420 810 370 810L284 936L198 810H149L253 954H315Z" glyph-name="Scircumflex" horiz-adv-x="570" unicode="Ŝ" /><glyph d="M303 728Q358 728 407 709.5Q456 691 491 656V593Q448 639 400.5 662Q353 685 300 685Q225 685 177.5 644.5Q130 604 130 537Q130 481 164.5 445Q199 409 292 380Q414 342 459.5 296Q505 250 505 178Q505 89 441.5 34.5Q378 -20 280 -20Q219 -20 164.5 -0.5Q110 19 66 57V122Q118 71 171 46.5Q224 22 280 22Q356 22 404 64.5Q452 107 452 175Q452 229 415 265.5Q378 302 277 334Q165 368 121 414.5Q77 461 77 536Q77 622 140.5 675Q204 728 303 728ZM224 -231 276 -47H327L266 -231Z" glyph-name="uni0218" horiz-adv-x="570" unicode="Ș" /><glyph d="M401 390 401 352H300V0H249V352H148V390H249V663H15V708H534V663H300V390Z" glyph-name="Tbar" horiz-adv-x="550" unicode="Ŧ" /><glyph d="M534 663 300 663V0H249V663H15V708H534ZM139 954 188 954L274 829L360 954H410L304 810H243Z" glyph-name="Tcaron" horiz-adv-x="550" unicode="Ť" /><glyph d="M534 663 300 663V0H249V663H15V708H534ZM204 -231 256 -47H307L246 -231Z" glyph-name="uni0162" horiz-adv-x="550" unicode="Ţ" /><glyph d="M534 663 300 663V0H249V663H15V708H534ZM204 -231 256 -47H307L246 -231Z" glyph-name="uni021A" horiz-adv-x="550" unicode="Ț" /><glyph d="M643 708 643 270Q643 130 571.5 55Q500 -20 365 -20Q230 -20 159.5 55Q89 130 89 270V708H139V274Q139 153 197 88.5Q255 24 366 24Q477 24 534.5 89Q592 154 592 274V708ZM484 954 366 810H323L427 954Z" glyph-name="Uacute" horiz-adv-x="732" unicode="Ú" /><glyph d="M643 708 643 270Q643 130 571.5 55Q500 -20 365 -20Q230 -20 159.5 55Q89 130 89 270V708H139V274Q139 153 197 88.5Q255 24 366 24Q477 24 534.5 89Q592 154 592 274V708ZM501 810 451 810L365 936L279 810H230L334 954H396Z" glyph-name="Ucircumflex" horiz-adv-x="732" unicode="Û" /><glyph d="M643 708 643 270Q643 130 571.5 55Q500 -20 365 -20Q230 -20 159.5 55Q89 130 89 270V708H139V274Q139 153 197 88.5Q255 24 366 24Q477 24 534.5 89Q592 154 592 274V708ZM469 890Q469 875 459 864.5Q449 854 435 854Q421 854 410.5 864.5Q400 875 400 890Q400 904 410.5 914Q421 924 435 924Q449 924 459 914Q469 904 469 890ZM329 890Q329 875 319 864.5Q309 854 296 854Q281 854 271 864.5Q261 875 261 890Q261 904 271.5 914Q282 924 296 924Q309 924 319 914Q329 904 329 890Z" glyph-name="Udieresis" horiz-adv-x="732" unicode="Ü" /><glyph d="M643 708 643 270Q643 130 571.5 55Q500 -20 365 -20Q230 -20 159.5 55Q89 130 89 270V708H139V274Q139 153 197 88.5Q255 24 366 24Q477 24 534.5 89Q592 154 592 274V708ZM407 810 364 810L247 954H303Z" glyph-name="Ugrave" horiz-adv-x="732" unicode="Ù" /><glyph d="M643 708 643 270Q643 130 571.5 55Q500 -20 365 -20Q230 -20 159.5 55Q89 130 89 270V708H139V274Q139 153 197 88.5Q255 24 366 24Q477 24 534.5 89Q592 154 592 274V708ZM363 852Q401 852 423 874.5Q445 897 454 944H495Q485 883 450.5 849.5Q416 816 363 816Q310 816 276 850Q242 884 235 944H276Q282 901 305.5 876.5Q329 852 363 852Z" glyph-name="Ubreve" horiz-adv-x="732" unicode="Ŭ" /><glyph d="M643 708 643 270Q643 130 571.5 55Q500 -20 365 -20Q230 -20 159.5 55Q89 130 89 270V708H139V274Q139 153 197 88.5Q255 24 366 24Q477 24 534.5 89Q592 154 592 274V708ZM557 954 439 810H399L503 954ZM423 954 305 810H265L369 954Z" glyph-name="Uhungarumlaut" horiz-adv-x="732" unicode="Ű" /><glyph d="M643 708 643 270Q643 130 571.5 55Q500 -20 365 -20Q230 -20 159.5 55Q89 130 89 270V708H139V274Q139 153 197 88.5Q255 24 366 24Q477 24 534.5 89Q592 154 592 274V708ZM488 861 242 861V896H488Z" glyph-name="Umacron" horiz-adv-x="732" unicode="Ū" /><glyph d="M388 -225Q346 -225 321 -203Q296 -181 296 -143Q296 -115 313.5 -85Q331 -55 369 -20H365Q230 -20 159.5 55Q89 130 89 270V708H139V274Q139 153 197 88.5Q255 24 366 24Q477 24 534.5 89Q592 154 592 274V708H643V270Q643 143 583.5 68.5Q524 -6 410 -18Q369 -59 353 -85Q337 -111 337 -137Q337 -165 353 -181Q369 -197 396 -197Q415 -197 433 -189.5Q451 -182 463 -169L476 -194Q460 -209 437 -217Q414 -225 388 -225Z" glyph-name="Uogonek" horiz-adv-x="732" unicode="Ų" /><glyph d="M643 708 643 270Q643 130 571.5 55Q500 -20 365 -20Q230 -20 159.5 55Q89 130 89 270V708H139V274Q139 153 197 88.5Q255 24 366 24Q477 24 534.5 89Q592 154 592 274V708ZM467 901Q467 859 437 829.5Q407 800 365 800Q323 800 293 829.5Q263 859 263 901Q263 942 293 971.5Q323 1001 365 1001Q407 1001 437 971.5Q467 942 467 901ZM432 901Q432 928 412 948.5Q392 969 365 969Q338 969 318 948.5Q298 928 298 901Q298 873 318 853Q338 833 365 833Q392 833 412 853Q432 873 432 901Z" glyph-name="Uring" horiz-adv-x="732" unicode="Ů" /><glyph d="M643 708 643 270Q643 130 571.5 55Q500 -20 365 -20Q230 -20 159.5 55Q89 130 89 270V708H139V274Q139 153 197 88.5Q255 24 366 24Q477 24 534.5 89Q592 154 592 274V708ZM308 941Q327 941 343 932Q359 923 377 902Q392 884 401.5 877Q411 870 421 870Q438 870 447.5 886Q457 902 462 940H496Q491 889 473 863Q455 837 424 837Q405 837 389 846Q373 855 354 876Q338 895 329 901.5Q320 908 311 908Q294 908 284.5 892Q275 876 270 838H236Q240 889 258.5 915Q277 941 308 941Z" glyph-name="Utilde" horiz-adv-x="732" unicode="Ũ" /><glyph d="M484 640 482 640L292 0H234L22 708H77L263 68H266L453 708H513L705 68H708L893 708H947L734 0H677ZM603 954 485 810H442L546 954Z" glyph-name="Wacute" horiz-adv-x="970" unicode="Ẃ" /><glyph d="M484 640 482 640L292 0H234L22 708H77L263 68H266L453 708H513L705 68H708L893 708H947L734 0H677ZM620 810 570 810L484 936L398 810H349L453 954H515Z" glyph-name="Wcircumflex" horiz-adv-x="970" unicode="Ŵ" /><glyph d="M484 640 482 640L292 0H234L22 708H77L263 68H266L453 708H513L705 68H708L893 708H947L734 0H677ZM588 890Q588 875 578 864.5Q568 854 554 854Q540 854 529.5 864.5Q519 875 519 890Q519 904 529.5 914Q540 924 554 924Q568 924 578 914Q588 904 588 890ZM448 890Q448 875 438 864.5Q428 854 415 854Q400 854 390 864.5Q380 875 380 890Q380 904 390.5 914Q401 924 415 924Q428 924 438 914Q448 904 448 890Z" glyph-name="Wdieresis" horiz-adv-x="970" unicode="Ẅ" /><glyph d="M484 640 482 640L292 0H234L22 708H77L263 68H266L453 708H513L705 68H708L893 708H947L734 0H677ZM526 810 483 810L366 954H422Z" glyph-name="Wgrave" horiz-adv-x="970" unicode="Ẁ" /><glyph d="M550 708 306 306V0H255V306L11 708H71L282 351L492 708ZM399 954 281 810H238L342 954Z" glyph-name="Yacute" horiz-adv-x="561" unicode="Ý" /><glyph d="M550 708 306 306V0H255V306L11 708H71L282 351L492 708ZM384 890Q384 875 374 864.5Q364 854 350 854Q336 854 325.5 864.5Q315 875 315 890Q315 904 325.5 914Q336 924 350 924Q364 924 374 914Q384 904 384 890ZM244 890Q244 875 234 864.5Q224 854 211 854Q196 854 186 864.5Q176 875 176 890Q176 904 186.5 914Q197 924 211 924Q224 924 234 914Q244 904 244 890Z" glyph-name="Ydieresis" horiz-adv-x="561" unicode="Ÿ" /><glyph d="M550 708 306 306V0H255V306L11 708H71L282 351L492 708ZM416 810 366 810L280 936L194 810H145L249 954H311Z" glyph-name="Ycircumflex" horiz-adv-x="561" unicode="Ŷ" /><glyph d="M550 708 306 306V0H255V306L11 708H71L282 351L492 708ZM322 810 279 810L162 954H218Z" glyph-name="Ygrave" horiz-adv-x="561" unicode="Ỳ" /><glyph d="M559 0 50 0V49L491 663H63V708H547V659L104 44H559ZM164 954 213 954L299 829L385 954H435L329 810H268Z" glyph-name="Zcaron" horiz-adv-x="600" unicode="Ž" /><glyph d="M559 0 50 0V49L491 663H63V708H547V659L104 44H559ZM418 954 300 810H257L361 954Z" glyph-name="Zacute" horiz-adv-x="600" unicode="Ź" /><glyph d="M559 0 50 0V49L491 663H63V708H547V659L104 44H559ZM335 890Q335 874 324 863.5Q313 853 299 853Q284 853 273 863.5Q262 874 262 890Q262 905 273 915.5Q284 926 299 926Q313 926 324 915.5Q335 905 335 890Z" glyph-name="Zdotaccent" horiz-adv-x="600" unicode="Ż" /><glyph d="M388 101 388 246L222 225Q163 217 135 192.5Q107 168 107 123Q107 74 138.5 48.5Q170 23 227 23Q266 23 304.5 41.5Q343 60 388 101ZM59 121Q59 177 93.5 210Q128 243 197 254L375 282Q381 283 384 285.5Q387 288 387 293V313Q387 375 352 409Q317 443 255 443Q211 443 168.5 426Q126 409 90 378V429Q123 455 166.5 469.5Q210 484 257 484Q343 484 389.5 437.5Q436 391 436 303V111Q436 84 438.5 52.5Q441 21 445 0H397Q395 11 393.5 30Q392 49 391 62H389Q351 24 308.5 5Q266 -14 222 -14Q145 -14 102 21Q59 56 59 121ZM373 710 255 566H212L316 710Z" glyph-name="aacute" horiz-adv-x="523" unicode="á" /><glyph d="M388 101 388 246L222 225Q163 217 135 192.5Q107 168 107 123Q107 74 138.5 48.5Q170 23 227 23Q266 23 304.5 41.5Q343 60 388 101ZM59 121Q59 177 93.5 210Q128 243 197 254L375 282Q381 283 384 285.5Q387 288 387 293V313Q387 375 352 409Q317 443 255 443Q211 443 168.5 426Q126 409 90 378V429Q123 455 166.5 469.5Q210 484 257 484Q343 484 389.5 437.5Q436 391 436 303V111Q436 84 438.5 52.5Q441 21 445 0H397Q395 11 393.5 30Q392 49 391 62H389Q351 24 308.5 5Q266 -14 222 -14Q145 -14 102 21Q59 56 59 121ZM390 566 340 566L254 692L168 566H119L223 710H285Z" glyph-name="acircumflex" horiz-adv-x="523" unicode="â" /><glyph d="M388 101 388 246L222 225Q163 217 135 192.5Q107 168 107 123Q107 74 138.5 48.5Q170 23 227 23Q266 23 304.5 41.5Q343 60 388 101ZM59 121Q59 177 93.5 210Q128 243 197 254L375 282Q381 283 384 285.5Q387 288 387 293V313Q387 375 352 409Q317 443 255 443Q211 443 168.5 426Q126 409 90 378V429Q123 455 166.5 469.5Q210 484 257 484Q343 484 389.5 437.5Q436 391 436 303V111Q436 84 438.5 52.5Q441 21 445 0H397Q395 11 393.5 30Q392 49 391 62H389Q351 24 308.5 5Q266 -14 222 -14Q145 -14 102 21Q59 56 59 121ZM358 646Q358 631 348 620.5Q338 610 324 610Q310 610 299.5 620.5Q289 631 289 646Q289 660 299.5 670Q310 680 324 680Q338 680 348 670Q358 660 358 646ZM218 646Q218 631 208 620.5Q198 610 185 610Q170 610 160 620.5Q150 631 150 646Q150 660 160.5 670Q171 680 185 680Q198 680 208 670Q218 660 218 646Z" glyph-name="adieresis" horiz-adv-x="523" unicode="ä" /><glyph d="M388 101 388 246L222 225Q163 217 135 192.5Q107 168 107 123Q107 74 138.5 48.5Q170 23 227 23Q266 23 304.5 41.5Q343 60 388 101ZM59 121Q59 177 93.5 210Q128 243 197 254L375 282Q381 283 384 285.5Q387 288 387 293V313Q387 375 352 409Q317 443 255 443Q211 443 168.5 426Q126 409 90 378V429Q123 455 166.5 469.5Q210 484 257 484Q343 484 389.5 437.5Q436 391 436 303V111Q436 84 438.5 52.5Q441 21 445 0H397Q395 11 393.5 30Q392 49 391 62H389Q351 24 308.5 5Q266 -14 222 -14Q145 -14 102 21Q59 56 59 121ZM296 566 253 566L136 710H192Z" glyph-name="agrave" horiz-adv-x="523" unicode="à" /><glyph d="M388 101 388 246L222 225Q163 217 135 192.5Q107 168 107 123Q107 74 138.5 48.5Q170 23 227 23Q266 23 304.5 41.5Q343 60 388 101ZM59 121Q59 177 93.5 210Q128 243 197 254L375 282Q381 283 384 285.5Q387 288 387 293V313Q387 375 352 409Q317 443 255 443Q211 443 168.5 426Q126 409 90 378V429Q123 455 166.5 469.5Q210 484 257 484Q343 484 389.5 437.5Q436 391 436 303V111Q436 84 438.5 52.5Q441 21 445 0H397Q395 11 393.5 30Q392 49 391 62H389Q351 24 308.5 5Q266 -14 222 -14Q145 -14 102 21Q59 56 59 121ZM356 657Q356 615 326 585.5Q296 556 254 556Q212 556 182 585.5Q152 615 152 657Q152 698 182 727.5Q212 757 254 757Q296 757 326 727.5Q356 698 356 657ZM321 657Q321 684 301 704.5Q281 725 254 725Q227 725 207 704.5Q187 684 187 657Q187 629 207 609Q227 589 254 589Q281 589 301 609Q321 629 321 657Z" glyph-name="aring" horiz-adv-x="523" unicode="å" /><glyph d="M388 101 388 246L222 225Q163 217 135 192.5Q107 168 107 123Q107 74 138.5 48.5Q170 23 227 23Q266 23 304.5 41.5Q343 60 388 101ZM59 121Q59 177 93.5 210Q128 243 197 254L375 282Q381 283 384 285.5Q387 288 387 293V313Q387 375 352 409Q317 443 255 443Q211 443 168.5 426Q126 409 90 378V429Q123 455 166.5 469.5Q210 484 257 484Q343 484 389.5 437.5Q436 391 436 303V111Q436 84 438.5 52.5Q441 21 445 0H397Q395 11 393.5 30Q392 49 391 62H389Q351 24 308.5 5Q266 -14 222 -14Q145 -14 102 21Q59 56 59 121ZM197 697Q216 697 232 688Q248 679 266 658Q281 640 290.5 633Q300 626 310 626Q327 626 336.5 642Q346 658 351 696H385Q380 645 362 619Q344 593 313 593Q294 593 278 602Q262 611 243 632Q227 651 218 657.5Q209 664 200 664Q183 664 173.5 648Q164 632 159 594H125Q129 645 147.5 671Q166 697 197 697Z" glyph-name="atilde" horiz-adv-x="523" unicode="ã" /><glyph d="M388 101 388 246L222 225Q163 217 135 192.5Q107 168 107 123Q107 74 138.5 48.5Q170 23 227 23Q266 23 304.5 41.5Q343 60 388 101ZM59 121Q59 177 93.5 210Q128 243 197 254L375 282Q381 283 384 285.5Q387 288 387 293V313Q387 375 352 409Q317 443 255 443Q211 443 168.5 426Q126 409 90 378V429Q123 455 166.5 469.5Q210 484 257 484Q343 484 389.5 437.5Q436 391 436 303V111Q436 84 438.5 52.5Q441 21 445 0H397Q395 11 393.5 30Q392 49 391 62H389Q351 24 308.5 5Q266 -14 222 -14Q145 -14 102 21Q59 56 59 121ZM252 608Q290 608 312 630.5Q334 653 343 700H384Q374 639 339.5 605.5Q305 572 252 572Q199 572 165 606Q131 640 124 700H165Q171 657 194.5 632.5Q218 608 252 608Z" glyph-name="abreve" horiz-adv-x="523" unicode="ă" /><glyph d="M388 101 388 246L222 225Q163 217 135 192.5Q107 168 107 123Q107 74 138.5 48.5Q170 23 227 23Q266 23 304.5 41.5Q343 60 388 101ZM59 121Q59 177 93.5 210Q128 243 197 254L375 282Q381 283 384 285.5Q387 288 387 293V313Q387 375 352 409Q317 443 255 443Q211 443 168.5 426Q126 409 90 378V429Q123 455 166.5 469.5Q210 484 257 484Q343 484 389.5 437.5Q436 391 436 303V111Q436 84 438.5 52.5Q441 21 445 0H397Q395 11 393.5 30Q392 49 391 62H389Q351 24 308.5 5Q266 -14 222 -14Q145 -14 102 21Q59 56 59 121ZM377 617 131 617V652H377Z" glyph-name="amacron" horiz-adv-x="523" unicode="ā" /><glyph d="M388 101 388 246L222 225Q163 217 135 192.5Q107 168 107 123Q107 74 138.5 48.5Q170 23 227 23Q266 23 304.5 41.5Q343 60 388 101ZM301 -143Q301 -111 323.5 -77Q346 -43 397 0Q395 11 393.5 30Q392 49 391 62H389Q351 24 308.5 5Q266 -14 222 -14Q145 -14 102 21Q59 56 59 121Q59 177 93.5 210Q128 243 197 254L375 282Q382 284 384.5 286Q387 288 387 292V313Q387 375 352 409Q317 443 255 443Q211 443 168.5 426Q126 409 90 378V429Q123 455 166.5 469.5Q210 484 257 484Q343 484 389.5 437.5Q436 391 436 303V111Q436 84 438.5 52.5Q441 21 445 0H431Q378 -51 359.5 -80Q341 -109 341 -137Q341 -165 357 -181Q373 -197 401 -197Q420 -197 438 -189.5Q456 -182 468 -169L481 -194Q465 -209 442 -217Q419 -225 393 -225Q351 -225 326 -203Q301 -181 301 -143Z" glyph-name="aogonek" horiz-adv-x="523" unicode="ą" /><glyph d="M386 -144Q386 -183 353 -205Q320 -227 266 -227Q243 -227 216.5 -221.5Q190 -216 169 -207L179 -181Q195 -189 219 -194Q243 -199 264 -199Q302 -199 324 -184.5Q346 -170 346 -143Q346 -121 328.5 -109Q311 -97 280 -97Q266 -97 246 -101Q226 -105 216 -111L200 -98L262 -11Q170 2 113 69Q56 136 56 233Q56 342 125.5 412.5Q195 483 302 483Q344 483 383.5 469.5Q423 456 452 431V375Q413 411 377.5 427.5Q342 444 302 444Q217 444 161 383.5Q105 323 105 233Q105 143 161 83.5Q217 24 303 24Q343 24 379.5 39Q416 54 454 87V35Q424 11 385 -1.5Q346 -14 301 -14Q299 -14 297.5 -14Q296 -14 294 -14L247 -80Q258 -77 269.5 -75.5Q281 -74 297 -74Q338 -74 362 -92.5Q386 -111 386 -144Z" glyph-name="ccedilla" horiz-adv-x="486" unicode="ç" /><glyph d="M454 87 454 35Q424 11 385 -1.5Q346 -14 301 -14Q194 -14 125 55.5Q56 125 56 233Q56 342 125.5 412.5Q195 483 302 483Q344 483 383.5 469.5Q423 456 452 431V375Q413 411 377.5 427.5Q342 444 302 444Q217 444 161 383.5Q105 323 105 233Q105 143 161 83.5Q217 24 303 24Q343 24 379.5 39Q416 54 454 87ZM401 710 283 566H240L344 710Z" glyph-name="cacute" horiz-adv-x="486" unicode="ć" /><glyph d="M454 87 454 35Q424 11 385 -1.5Q346 -14 301 -14Q194 -14 125 55.5Q56 125 56 233Q56 342 125.5 412.5Q195 483 302 483Q344 483 383.5 469.5Q423 456 452 431V375Q413 411 377.5 427.5Q342 444 302 444Q217 444 161 383.5Q105 323 105 233Q105 143 161 83.5Q217 24 303 24Q343 24 379.5 39Q416 54 454 87ZM147 710 196 710L282 585L368 710H418L312 566H251Z" glyph-name="ccaron" horiz-adv-x="486" unicode="č" /><glyph d="M454 87 454 35Q424 11 385 -1.5Q346 -14 301 -14Q194 -14 125 55.5Q56 125 56 233Q56 342 125.5 412.5Q195 483 302 483Q344 483 383.5 469.5Q423 456 452 431V375Q413 411 377.5 427.5Q342 444 302 444Q217 444 161 383.5Q105 323 105 233Q105 143 161 83.5Q217 24 303 24Q343 24 379.5 39Q416 54 454 87ZM418 566 368 566L282 692L196 566H147L251 710H313Z" glyph-name="ccircumflex" horiz-adv-x="486" unicode="ĉ" /><glyph d="M454 87 454 35Q424 11 385 -1.5Q346 -14 301 -14Q194 -14 125 55.5Q56 125 56 233Q56 342 125.5 412.5Q195 483 302 483Q344 483 383.5 469.5Q423 456 452 431V375Q413 411 377.5 427.5Q342 444 302 444Q217 444 161 383.5Q105 323 105 233Q105 143 161 83.5Q217 24 303 24Q343 24 379.5 39Q416 54 454 87ZM318 646Q318 630 307 619.5Q296 609 282 609Q267 609 256 619.5Q245 630 245 646Q245 661 256 671.5Q267 682 282 682Q296 682 307 671.5Q318 661 318 646Z" glyph-name="cdotaccent" horiz-adv-x="486" unicode="ċ" /><glyph d="M293 25Q343 25 381.5 42.5Q420 60 469 106V367Q415 411 375.5 427Q336 443 287 443Q207 443 156 384Q105 325 105 235Q105 144 157.5 84.5Q210 25 293 25ZM469 0 469 59H468Q415 15 377.5 0.5Q340 -14 290 -14Q186 -14 121 54Q56 122 56 232Q56 343 120.5 413Q185 483 285 483Q334 483 374.5 469.5Q415 456 468 419H469V708H518V0ZM562 526 611 708H661L603 526Z" glyph-name="dcaron" horiz-adv-x="620" unicode="ď" /><glyph d="M293 25Q343 25 381.5 42.5Q420 60 469 106V367Q415 411 375.5 427Q336 443 287 443Q207 443 156 384Q105 325 105 235Q105 144 157.5 84.5Q210 25 293 25ZM469 59 468 59Q415 15 377.5 0.5Q340 -14 290 -14Q186 -14 121 54Q56 122 56 232Q56 343 120.5 413Q185 483 285 483Q334 483 374.5 469.5Q415 456 468 419H469V588H326V623H469V708H518V623H572V588H518V0H469Z" glyph-name="dcroat" horiz-adv-x="612" unicode="đ" /><glyph d="M285 443Q212 443 162.5 392Q113 341 106 265H460Q456 346 409 394.5Q362 443 285 443ZM486 103 486 49Q445 17 399.5 1.5Q354 -14 300 -14Q190 -14 123 55Q56 124 56 238Q56 345 121 414Q186 483 285 483Q385 483 445.5 419Q506 355 506 255Q506 243 506 237.5Q506 232 505 228H106Q111 135 163 80.5Q215 26 301 26Q355 26 399 44.5Q443 63 486 103ZM400 710 282 566H239L343 710Z" glyph-name="eacute" horiz-adv-x="564" unicode="é" /><glyph d="M285 443Q212 443 162.5 392Q113 341 106 265H460Q456 346 409 394.5Q362 443 285 443ZM486 103 486 49Q445 17 399.5 1.5Q354 -14 300 -14Q190 -14 123 55Q56 124 56 238Q56 345 121 414Q186 483 285 483Q385 483 445.5 419Q506 355 506 255Q506 243 506 237.5Q506 232 505 228H106Q111 135 163 80.5Q215 26 301 26Q355 26 399 44.5Q443 63 486 103ZM417 566 367 566L281 692L195 566H146L250 710H312Z" glyph-name="ecircumflex" horiz-adv-x="564" unicode="ê" /><glyph d="M285 443Q212 443 162.5 392Q113 341 106 265H460Q456 346 409 394.5Q362 443 285 443ZM486 103 486 49Q445 17 399.5 1.5Q354 -14 300 -14Q190 -14 123 55Q56 124 56 238Q56 345 121 414Q186 483 285 483Q385 483 445.5 419Q506 355 506 255Q506 243 506 237.5Q506 232 505 228H106Q111 135 163 80.5Q215 26 301 26Q355 26 399 44.5Q443 63 486 103ZM385 646Q385 631 375 620.5Q365 610 351 610Q337 610 326.5 620.5Q316 631 316 646Q316 660 326.5 670Q337 680 351 680Q365 680 375 670Q385 660 385 646ZM245 646Q245 631 235 620.5Q225 610 212 610Q197 610 187 620.5Q177 631 177 646Q177 660 187.5 670Q198 680 212 680Q225 680 235 670Q245 660 245 646Z" glyph-name="edieresis" horiz-adv-x="564" unicode="ë" /><glyph d="M285 443Q212 443 162.5 392Q113 341 106 265H460Q456 346 409 394.5Q362 443 285 443ZM486 103 486 49Q445 17 399.5 1.5Q354 -14 300 -14Q190 -14 123 55Q56 124 56 238Q56 345 121 414Q186 483 285 483Q385 483 445.5 419Q506 355 506 255Q506 243 506 237.5Q506 232 505 228H106Q111 135 163 80.5Q215 26 301 26Q355 26 399 44.5Q443 63 486 103ZM323 566 280 566L163 710H219Z" glyph-name="egrave" horiz-adv-x="564" unicode="è" /><glyph d="M285 443Q212 443 162.5 392Q113 341 106 265H460Q456 346 409 394.5Q362 443 285 443ZM486 103 486 49Q445 17 399.5 1.5Q354 -14 300 -14Q190 -14 123 55Q56 124 56 238Q56 345 121 414Q186 483 285 483Q385 483 445.5 419Q506 355 506 255Q506 243 506 237.5Q506 232 505 228H106Q111 135 163 80.5Q215 26 301 26Q355 26 399 44.5Q443 63 486 103ZM279 608Q317 608 339 630.5Q361 653 370 700H411Q401 639 366.5 605.5Q332 572 279 572Q226 572 192 606Q158 640 151 700H192Q198 657 221.5 632.5Q245 608 279 608Z" glyph-name="ebreve" horiz-adv-x="564" unicode="ĕ" /><glyph d="M285 443Q212 443 162.5 392Q113 341 106 265H460Q456 346 409 394.5Q362 443 285 443ZM486 103 486 49Q445 17 399.5 1.5Q354 -14 300 -14Q190 -14 123 55Q56 124 56 238Q56 345 121 414Q186 483 285 483Q385 483 445.5 419Q506 355 506 255Q506 243 506 237.5Q506 232 505 228H106Q111 135 163 80.5Q215 26 301 26Q355 26 399 44.5Q443 63 486 103ZM146 710 195 710L281 585L367 710H417L311 566H250Z" glyph-name="ecaron" horiz-adv-x="564" unicode="ě" /><glyph d="M285 443Q212 443 162.5 392Q113 341 106 265H460Q456 346 409 394.5Q362 443 285 443ZM486 103 486 49Q445 17 399.5 1.5Q354 -14 300 -14Q190 -14 123 55Q56 124 56 238Q56 345 121 414Q186 483 285 483Q385 483 445.5 419Q506 355 506 255Q506 243 506 237.5Q506 232 505 228H106Q111 135 163 80.5Q215 26 301 26Q355 26 399 44.5Q443 63 486 103ZM317 646Q317 630 306 619.5Q295 609 281 609Q266 609 255 619.5Q244 630 244 646Q244 661 255 671.5Q266 682 281 682Q295 682 306 671.5Q317 661 317 646Z" glyph-name="edotaccent" horiz-adv-x="564" unicode="ė" /><glyph d="M285 443Q212 443 162.5 392Q113 341 106 265H460Q456 346 409 394.5Q362 443 285 443ZM486 103 486 49Q445 17 399.5 1.5Q354 -14 300 -14Q190 -14 123 55Q56 124 56 238Q56 345 121 414Q186 483 285 483Q385 483 445.5 419Q506 355 506 255Q506 243 506 237.5Q506 232 505 228H106Q111 135 163 80.5Q215 26 301 26Q355 26 399 44.5Q443 63 486 103ZM404 617 158 617V652H404Z" glyph-name="emacron" horiz-adv-x="564" unicode="ē" /><glyph d="M285 443Q212 443 162.5 392Q113 341 106 265H460Q456 346 409 394.5Q362 443 285 443ZM427 -169 440 -194Q423 -209 400.5 -217Q378 -225 351 -225Q310 -225 284.5 -203Q259 -181 259 -143Q259 -114 278.5 -82.5Q298 -51 343 -11Q332 -13 321.5 -13.5Q311 -14 300 -14Q190 -14 123 55Q56 124 56 238Q56 345 121 414Q186 483 285 483Q385 483 445.5 419Q506 355 506 255Q506 243 506 237.5Q506 232 505 228H106Q111 135 163 80.5Q215 26 301 26Q355 26 399 44.5Q443 63 486 103V49Q463 31 439 18Q415 5 389 -2Q336 -54 318 -82Q300 -110 300 -137Q300 -165 316 -181Q332 -197 360 -197Q379 -197 396.5 -189.5Q414 -182 427 -169Z" glyph-name="eogonek" horiz-adv-x="564" unicode="ę" /><glyph d="M431 311Q431 374 392.5 410Q354 446 287 446Q220 446 182 410Q144 374 144 311Q144 248 182.5 211.5Q221 175 287 175Q354 175 392.5 211.5Q431 248 431 311ZM539 -82Q539 -158 472 -204.5Q405 -251 293 -251Q188 -251 128.5 -213Q69 -175 69 -109Q69 -68 92 -37Q115 -6 157 11V13Q134 21 120.5 42Q107 63 107 88Q107 113 119 135Q131 157 156 176Q127 198 112 232Q97 266 97 310Q97 391 148.5 437Q200 483 288 483Q303 483 318 481.5Q333 480 359 476Q384 472 396.5 470.5Q409 469 421 469H554V428H430V426Q454 407 466.5 378.5Q479 350 479 312Q479 232 426.5 185.5Q374 139 286 139Q256 139 231 144Q206 149 185 159Q169 146 160 130Q151 114 151 98Q151 75 168 59.5Q185 44 214 44H378Q457 44 498 11.5Q539 -21 539 -82ZM492 -88Q492 -44 460.5 -21.5Q429 1 367 1H243Q183 1 149 -27.5Q115 -56 115 -103Q115 -155 164.5 -184Q214 -213 300 -213Q387 -213 439.5 -178.5Q492 -144 492 -88ZM289 608Q327 608 349 630.5Q371 653 380 700H421Q411 639 376.5 605.5Q342 572 289 572Q236 572 202 606Q168 640 161 700H202Q208 657 231.5 632.5Q255 608 289 608Z" glyph-name="gbreve" horiz-adv-x="584" unicode="ğ" /><glyph d="M431 311Q431 374 392.5 410Q354 446 287 446Q220 446 182 410Q144 374 144 311Q144 248 182.5 211.5Q221 175 287 175Q354 175 392.5 211.5Q431 248 431 311ZM539 -82Q539 -158 472 -204.5Q405 -251 293 -251Q188 -251 128.5 -213Q69 -175 69 -109Q69 -68 92 -37Q115 -6 157 11V13Q134 21 120.5 42Q107 63 107 88Q107 113 119 135Q131 157 156 176Q127 198 112 232Q97 266 97 310Q97 391 148.5 437Q200 483 288 483Q303 483 318 481.5Q333 480 359 476Q384 472 396.5 470.5Q409 469 421 469H554V428H430V426Q454 407 466.5 378.5Q479 350 479 312Q479 232 426.5 185.5Q374 139 286 139Q256 139 231 144Q206 149 185 159Q169 146 160 130Q151 114 151 98Q151 75 168 59.5Q185 44 214 44H378Q457 44 498 11.5Q539 -21 539 -82ZM492 -88Q492 -44 460.5 -21.5Q429 1 367 1H243Q183 1 149 -27.5Q115 -56 115 -103Q115 -155 164.5 -184Q214 -213 300 -213Q387 -213 439.5 -178.5Q492 -144 492 -88ZM427 566 377 566L291 692L205 566H156L260 710H322Z" glyph-name="gcircumflex" horiz-adv-x="584" unicode="ĝ" /><glyph d="M431 311Q431 374 392.5 410Q354 446 287 446Q220 446 182 410Q144 374 144 311Q144 248 182.5 211.5Q221 175 287 175Q354 175 392.5 211.5Q431 248 431 311ZM539 -82Q539 -158 472 -204.5Q405 -251 293 -251Q188 -251 128.5 -213Q69 -175 69 -109Q69 -68 92 -37Q115 -6 157 11V13Q134 21 120.5 42Q107 63 107 88Q107 113 119 135Q131 157 156 176Q127 198 112 232Q97 266 97 310Q97 391 148.5 437Q200 483 288 483Q303 483 318 481.5Q333 480 359 476Q384 472 396.5 470.5Q409 469 421 469H554V428H430V426Q454 407 466.5 378.5Q479 350 479 312Q479 232 426.5 185.5Q374 139 286 139Q256 139 231 144Q206 149 185 159Q169 146 160 130Q151 114 151 98Q151 75 168 59.5Q185 44 214 44H378Q457 44 498 11.5Q539 -21 539 -82ZM492 -88Q492 -44 460.5 -21.5Q429 1 367 1H243Q183 1 149 -27.5Q115 -56 115 -103Q115 -155 164.5 -184Q214 -213 300 -213Q387 -213 439.5 -178.5Q492 -144 492 -88ZM327 710 286 566H235L287 710Z" glyph-name="gcommaaccent" horiz-adv-x="584" unicode="ģ" /><glyph d="M431 311Q431 374 392.5 410Q354 446 287 446Q220 446 182 410Q144 374 144 311Q144 248 182.5 211.5Q221 175 287 175Q354 175 392.5 211.5Q431 248 431 311ZM539 -82Q539 -158 472 -204.5Q405 -251 293 -251Q188 -251 128.5 -213Q69 -175 69 -109Q69 -68 92 -37Q115 -6 157 11V13Q134 21 120.5 42Q107 63 107 88Q107 113 119 135Q131 157 156 176Q127 198 112 232Q97 266 97 310Q97 391 148.5 437Q200 483 288 483Q303 483 318 481.5Q333 480 359 476Q384 472 396.5 470.5Q409 469 421 469H554V428H430V426Q454 407 466.5 378.5Q479 350 479 312Q479 232 426.5 185.5Q374 139 286 139Q256 139 231 144Q206 149 185 159Q169 146 160 130Q151 114 151 98Q151 75 168 59.5Q185 44 214 44H378Q457 44 498 11.5Q539 -21 539 -82ZM492 -88Q492 -44 460.5 -21.5Q429 1 367 1H243Q183 1 149 -27.5Q115 -56 115 -103Q115 -155 164.5 -184Q214 -213 300 -213Q387 -213 439.5 -178.5Q492 -144 492 -88ZM327 646Q327 630 316 619.5Q305 609 291 609Q276 609 265 619.5Q254 630 254 646Q254 661 265 671.5Q276 682 291 682Q305 682 316 671.5Q327 661 327 646Z" glyph-name="gdotaccent" horiz-adv-x="584" unicode="ġ" /><glyph d="M287 446Q220 446 181.5 410Q143 374 143 311Q143 248 181.5 211.5Q220 175 287 175Q354 175 392.5 211.5Q431 248 431 311Q431 375 393 410.5Q355 446 287 446ZM539 -81Q539 -158 472 -204Q405 -250 293 -250Q188 -250 128.5 -212.5Q69 -175 69 -108Q69 -67 92 -36.5Q115 -6 157 11V13Q134 22 120.5 42Q107 62 107 87Q107 113 119 135Q131 157 156 176Q126 199 111 232.5Q96 266 96 310Q96 391 147.5 437Q199 483 288 483Q317 483 342 478Q367 473 388 464Q430 522 467.5 539Q505 556 565 553V510Q516 515 485.5 502.5Q455 490 420 445Q449 423 464.5 389.5Q480 356 480 312Q480 231 428.5 185Q377 139 286 139Q256 139 231 144Q206 149 185 159Q169 146 160 130Q151 114 151 98Q151 74 168 59Q185 44 214 44H378Q457 44 498 12Q539 -20 539 -81ZM492 -88Q492 -44 460.5 -21.5Q429 1 367 1H243Q183 1 149 -27.5Q115 -56 115 -103Q115 -155 164.5 -184Q214 -213 300 -213Q387 -213 439.5 -178.5Q492 -144 492 -88ZM289 608Q327 608 349 630.5Q371 653 380 700H421Q411 639 376.5 605.5Q342 572 289 572Q236 572 202 606Q168 640 161 700H202Q208 657 231.5 632.5Q255 608 289 608Z" glyph-name="gbreve.alt" horiz-adv-x="584" unicode="" /><glyph d="M287 446Q220 446 181.5 410Q143 374 143 311Q143 248 181.5 211.5Q220 175 287 175Q354 175 392.5 211.5Q431 248 431 311Q431 375 393 410.5Q355 446 287 446ZM539 -81Q539 -158 472 -204Q405 -250 293 -250Q188 -250 128.5 -212.5Q69 -175 69 -108Q69 -67 92 -36.5Q115 -6 157 11V13Q134 22 120.5 42Q107 62 107 87Q107 113 119 135Q131 157 156 176Q126 199 111 232.5Q96 266 96 310Q96 391 147.5 437Q199 483 288 483Q317 483 342 478Q367 473 388 464Q430 522 467.5 539Q505 556 565 553V510Q516 515 485.5 502.5Q455 490 420 445Q449 423 464.5 389.5Q480 356 480 312Q480 231 428.5 185Q377 139 286 139Q256 139 231 144Q206 149 185 159Q169 146 160 130Q151 114 151 98Q151 74 168 59Q185 44 214 44H378Q457 44 498 12Q539 -20 539 -81ZM492 -88Q492 -44 460.5 -21.5Q429 1 367 1H243Q183 1 149 -27.5Q115 -56 115 -103Q115 -155 164.5 -184Q214 -213 300 -213Q387 -213 439.5 -178.5Q492 -144 492 -88ZM427 566 377 566L291 692L205 566H156L260 710H322Z" glyph-name="gcircumflex.alt" horiz-adv-x="584" unicode="" /><glyph d="M287 446Q220 446 181.5 410Q143 374 143 311Q143 248 181.5 211.5Q220 175 287 175Q354 175 392.5 211.5Q431 248 431 311Q431 375 393 410.5Q355 446 287 446ZM539 -81Q539 -158 472 -204Q405 -250 293 -250Q188 -250 128.5 -212.5Q69 -175 69 -108Q69 -67 92 -36.5Q115 -6 157 11V13Q134 22 120.5 42Q107 62 107 87Q107 113 119 135Q131 157 156 176Q126 199 111 232.5Q96 266 96 310Q96 391 147.5 437Q199 483 288 483Q317 483 342 478Q367 473 388 464Q430 522 467.5 539Q505 556 565 553V510Q516 515 485.5 502.5Q455 490 420 445Q449 423 464.5 389.5Q480 356 480 312Q480 231 428.5 185Q377 139 286 139Q256 139 231 144Q206 149 185 159Q169 146 160 130Q151 114 151 98Q151 74 168 59Q185 44 214 44H378Q457 44 498 12Q539 -20 539 -81ZM492 -88Q492 -44 460.5 -21.5Q429 1 367 1H243Q183 1 149 -27.5Q115 -56 115 -103Q115 -155 164.5 -184Q214 -213 300 -213Q387 -213 439.5 -178.5Q492 -144 492 -88ZM327 710 286 566H235L287 710Z" glyph-name="gcommaaccent.alt" horiz-adv-x="584" unicode="" /><glyph d="M287 446Q220 446 181.5 410Q143 374 143 311Q143 248 181.5 211.5Q220 175 287 175Q354 175 392.5 211.5Q431 248 431 311Q431 375 393 410.5Q355 446 287 446ZM539 -81Q539 -158 472 -204Q405 -250 293 -250Q188 -250 128.5 -212.5Q69 -175 69 -108Q69 -67 92 -36.5Q115 -6 157 11V13Q134 22 120.5 42Q107 62 107 87Q107 113 119 135Q131 157 156 176Q126 199 111 232.5Q96 266 96 310Q96 391 147.5 437Q199 483 288 483Q317 483 342 478Q367 473 388 464Q430 522 467.5 539Q505 556 565 553V510Q516 515 485.5 502.5Q455 490 420 445Q449 423 464.5 389.5Q480 356 480 312Q480 231 428.5 185Q377 139 286 139Q256 139 231 144Q206 149 185 159Q169 146 160 130Q151 114 151 98Q151 74 168 59Q185 44 214 44H378Q457 44 498 12Q539 -20 539 -81ZM492 -88Q492 -44 460.5 -21.5Q429 1 367 1H243Q183 1 149 -27.5Q115 -56 115 -103Q115 -155 164.5 -184Q214 -213 300 -213Q387 -213 439.5 -178.5Q492 -144 492 -88ZM327 646Q327 630 316 619.5Q305 609 291 609Q276 609 265 619.5Q254 630 254 646Q254 661 265 671.5Q276 682 291 682Q305 682 316 671.5Q327 661 327 646Z" glyph-name="gdotaccent.alt" horiz-adv-x="584" unicode="" /><glyph d="M307 443Q263 443 225 421.5Q187 400 145 350V0H96V595H36V630H96V708H145V630H283V595H145V400H147Q185 443 227 463Q269 483 319 483Q399 483 445 436Q491 389 491 309V0H443V306Q443 367 406.5 405Q370 443 307 443Z" glyph-name="hbar" horiz-adv-x="580" unicode="ħ" /><glyph d="M145 708 145 410H147Q198 453 235 468Q272 483 319 483Q399 483 445 436Q491 389 491 309V0H443V306Q443 367 406.5 405Q370 443 309 443Q268 443 234 427Q200 411 145 360V0H96V708ZM372 758 322 758L236 884L150 758H101L205 902H267Z" glyph-name="hcircumflex" horiz-adv-x="580" unicode="ĥ" /><glyph d="M142 0 94 0V469H142ZM237 710 119 566H76L180 710Z" glyph-name="iacute" horiz-adv-x="236" unicode="í" /><glyph d="M142 0 94 0V469H142ZM254 566 204 566L118 692L32 566H-17L87 710H149Z" glyph-name="icircumflex" horiz-adv-x="236" unicode="î" /><glyph d="M142 0 94 0V469H142ZM222 646Q222 631 212 620.5Q202 610 188 610Q174 610 163.5 620.5Q153 631 153 646Q153 660 163.5 670Q174 680 188 680Q202 680 212 670Q222 660 222 646ZM82 646Q82 631 72 620.5Q62 610 49 610Q34 610 24 620.5Q14 631 14 646Q14 660 24.5 670Q35 680 49 680Q62 680 72 670Q82 660 82 646Z" glyph-name="idieresis" horiz-adv-x="236" unicode="ï" /><glyph d="M142 0 94 0V469H142ZM160 566 117 566L0 710H56Z" glyph-name="igrave" horiz-adv-x="236" unicode="ì" /><glyph d="M142 0 94 0V469H142ZM116 608Q154 608 176 630.5Q198 653 207 700H248Q238 639 203.5 605.5Q169 572 116 572Q63 572 29 606Q-5 640 -12 700H29Q35 657 58.5 632.5Q82 608 116 608Z" glyph-name="ibreve" horiz-adv-x="236" unicode="ĭ" /><glyph d="M153 682Q153 666 142.5 655.5Q132 645 118 645Q103 645 93 655.5Q83 666 83 682Q83 697 93 708Q103 719 118 719Q133 719 143 708Q153 697 153 682ZM142 0 94 0V469H142Z" glyph-name="i.dot" horiz-adv-x="236" unicode="" /><glyph d="M142 0 94 0V469H142ZM241 617 -5 617V652H241Z" glyph-name="imacron" horiz-adv-x="236" unicode="ī" /><glyph d="M153 682Q153 666 142.5 655.5Q132 645 118 645Q103 645 93 655.5Q83 666 83 682Q83 697 93 708Q103 719 118 719Q133 719 143 708Q153 697 153 682ZM4 -143Q4 -112 26.5 -78Q49 -44 101 0H94V469H142V0H136Q82 -53 63.5 -81.5Q45 -110 45 -137Q45 -165 61 -181Q77 -197 105 -197Q124 -197 141.5 -189.5Q159 -182 172 -169L185 -194Q168 -209 145.5 -217Q123 -225 96 -225Q55 -225 29.5 -203Q4 -181 4 -143Z" glyph-name="iogonek" horiz-adv-x="236" unicode="į" /><glyph d="M142 0 94 0V469H142ZM61 697Q80 697 96 688Q112 679 130 658Q145 640 154.5 633Q164 626 174 626Q191 626 200.5 642Q210 658 215 696H249Q244 645 226 619Q208 593 177 593Q158 593 142 602Q126 611 107 632Q91 651 82 657.5Q73 664 64 664Q47 664 37.5 648Q28 632 23 594H-11Q-7 645 11.5 671Q30 697 61 697Z" glyph-name="itilde" horiz-adv-x="236" unicode="ĩ" /><glyph d="M94 469 142 469V-80Q142 -168 113 -204Q84 -240 17 -240Q9 -240 0.5 -239.5Q-8 -239 -16 -237V-197Q-8 -199 -2 -199.5Q4 -200 9 -200Q53 -200 73.5 -174.5Q94 -149 94 -85ZM254 566 204 566L118 692L32 566H-17L87 710H149Z" glyph-name="jcircumflex" horiz-adv-x="236" unicode="ĵ" /><glyph d="M153 682Q153 666 142.5 655.5Q132 645 118 645Q103 645 93 655.5Q83 666 83 682Q83 697 93 708Q103 719 118 719Q133 719 143 708Q153 697 153 682ZM142 0 94 0V469H142ZM389 682Q389 666 378.5 655.5Q368 645 354 645Q339 645 329 655.5Q319 666 319 682Q319 697 329 708Q339 719 354 719Q369 719 379 708Q389 697 389 682ZM330 469 378 469V-80Q378 -168 349 -204Q320 -240 253 -240Q245 -240 236.5 -239.5Q228 -239 220 -237V-197Q228 -199 234 -199.5Q240 -200 245 -200Q289 -200 309.5 -174.5Q330 -149 330 -85Z" glyph-name="ij" horiz-adv-x="473" unicode="ĳ" /><glyph d="M387 0 144 240H142V0H94V708H142V258H144L365 469H426L193 252L450 0ZM174 -231 226 -47H277L216 -231Z" glyph-name="kcommaaccent" horiz-adv-x="470" unicode="ķ" /><glyph d="M387 0 144 240H142V0H94V469H142V258H144L365 469H426L193 252L450 0Z" glyph-name="kgreenlandic" horiz-adv-x="470" unicode="ĸ" /><glyph d="M94 708 142 708V102Q142 72 156.5 56Q171 40 199 40H222V0H185Q140 0 117 24.5Q94 49 94 97ZM250 902 132 758H89L193 902Z" glyph-name="lacute" horiz-adv-x="237" unicode="ĺ" /><glyph d="M94 708 142 708V102Q142 72 156.5 56Q171 40 199 40H222V0H185Q140 0 117 24.5Q94 49 94 97ZM185 526 234 708H284L226 526Z" glyph-name="lcaron" horiz-adv-x="242" unicode="ľ" /><glyph d="M94 708 142 708V102Q142 72 156.5 56Q171 40 199 40H222V0H185Q140 0 117 24.5Q94 49 94 97ZM59 -231 111 -47H162L101 -231Z" glyph-name="lcommaaccent" horiz-adv-x="237" unicode="ļ" /><glyph d="M94 708 142 708V102Q142 72 156.5 56Q171 40 199 40H222V0H185Q140 0 117 24.5Q94 49 94 97ZM270 327Q270 311 259.5 300.5Q249 290 235 290Q220 290 209.5 300.5Q199 311 199 327Q199 342 209.5 352.5Q220 363 235 363Q250 363 260 352.5Q270 342 270 327Z" glyph-name="ldot" horiz-adv-x="237" unicode="ŀ" /><glyph d="M142 407 143 407Q198 452 234 467.5Q270 483 314 483Q397 483 444 436Q491 389 491 309V0H443V306Q443 367 405.5 405Q368 443 305 443Q266 443 231.5 425.5Q197 408 145 359V0H96V370Q96 401 94.5 424Q93 447 89 469H136Q139 455 140.5 437Q142 419 142 407ZM232 697Q251 697 267 688Q283 679 301 658Q316 640 325.5 633Q335 626 345 626Q362 626 371.5 642Q381 658 386 696H420Q415 645 397 619Q379 593 348 593Q329 593 313 602Q297 611 278 632Q262 651 253 657.5Q244 664 235 664Q218 664 208.5 648Q199 632 194 594H160Q164 645 182.5 671Q201 697 232 697Z" glyph-name="ntilde" horiz-adv-x="580" unicode="ñ" /><glyph d="M142 407 143 407Q198 452 234 467.5Q270 483 314 483Q397 483 444 436Q491 389 491 309V0H443V306Q443 367 405.5 405Q368 443 305 443Q266 443 231.5 425.5Q197 408 145 359V0H96V370Q96 401 94.5 424Q93 447 89 469H136Q139 455 140.5 437Q142 419 142 407ZM408 710 290 566H247L351 710Z" glyph-name="nacute" horiz-adv-x="580" unicode="ń" /><glyph d="M142 407 143 407Q198 452 234 467.5Q270 483 314 483Q397 483 444 436Q491 389 491 309V0H443V306Q443 367 405.5 405Q368 443 305 443Q266 443 231.5 425.5Q197 408 145 359V0H96V370Q96 401 94.5 424Q93 447 89 469H136Q139 455 140.5 437Q142 419 142 407ZM154 710 203 710L289 585L375 710H425L319 566H258Z" glyph-name="ncaron" horiz-adv-x="580" unicode="ň" /><glyph d="M142 407 143 407Q198 452 234 467.5Q270 483 314 483Q397 483 444 436Q491 389 491 309V0H443V306Q443 367 405.5 405Q368 443 305 443Q266 443 231.5 425.5Q197 408 145 359V0H96V370Q96 401 94.5 424Q93 447 89 469H136Q139 455 140.5 437Q142 419 142 407ZM229 -231 281 -47H332L271 -231Z" glyph-name="ncommaaccent" horiz-adv-x="580" unicode="ņ" /><glyph d="M142 407 143 407Q198 452 234 467.5Q270 483 314 483Q397 483 444 436Q491 389 491 309V0H443V306Q443 367 405.5 405Q368 443 305 443Q266 443 231.5 425.5Q197 408 145 359V0H96V370Q96 401 94.5 424Q93 447 89 469H136Q139 455 140.5 437Q142 419 142 407ZM90 566 124 710H175L134 566Z" glyph-name="napostrophe" horiz-adv-x="580" unicode="ŉ" /><glyph d="M366 -240Q358 -240 349.5 -239.5Q341 -239 333 -237V-197Q341 -199 347 -199.5Q353 -200 358 -200Q402 -200 422.5 -174.5Q443 -149 443 -85V306Q443 367 405.5 405Q368 443 305 443Q266 443 231.5 425.5Q197 408 145 359V0H96V370Q96 401 94.5 424Q93 447 89 469H136Q139 455 140.5 437Q142 419 142 407H143Q198 452 234 467.5Q270 483 314 483Q397 483 444 436Q491 389 491 309V-80Q491 -168 462 -204Q433 -240 366 -240Z" glyph-name="eng" horiz-adv-x="580" unicode="ŋ" /><glyph d="M297 -14Q190 -14 123 54.5Q56 123 56 233Q56 343 123.5 413Q191 483 297 483Q404 483 471 415Q538 347 538 236Q538 126 470 56Q402 -14 297 -14ZM297 443Q212 443 158.5 384Q105 325 105 235Q105 144 158.5 84.5Q212 25 297 25Q381 25 435 84.5Q489 144 489 234Q489 325 435.5 384Q382 443 297 443ZM416 710 298 566H255L359 710Z" glyph-name="oacute" horiz-adv-x="595" unicode="ó" /><glyph d="M297 -14Q190 -14 123 54.5Q56 123 56 233Q56 343 123.5 413Q191 483 297 483Q404 483 471 415Q538 347 538 236Q538 126 470 56Q402 -14 297 -14ZM297 443Q212 443 158.5 384Q105 325 105 235Q105 144 158.5 84.5Q212 25 297 25Q381 25 435 84.5Q489 144 489 234Q489 325 435.5 384Q382 443 297 443ZM433 566 383 566L297 692L211 566H162L266 710H328Z" glyph-name="ocircumflex" horiz-adv-x="595" unicode="ô" /><glyph d="M297 -14Q190 -14 123 54.5Q56 123 56 233Q56 343 123.5 413Q191 483 297 483Q404 483 471 415Q538 347 538 236Q538 126 470 56Q402 -14 297 -14ZM297 443Q212 443 158.5 384Q105 325 105 235Q105 144 158.5 84.5Q212 25 297 25Q381 25 435 84.5Q489 144 489 234Q489 325 435.5 384Q382 443 297 443ZM401 646Q401 631 391 620.5Q381 610 367 610Q353 610 342.5 620.5Q332 631 332 646Q332 660 342.5 670Q353 680 367 680Q381 680 391 670Q401 660 401 646ZM261 646Q261 631 251 620.5Q241 610 228 610Q213 610 203 620.5Q193 631 193 646Q193 660 203.5 670Q214 680 228 680Q241 680 251 670Q261 660 261 646Z" glyph-name="odieresis" horiz-adv-x="595" unicode="ö" /><glyph d="M297 -14Q190 -14 123 54.5Q56 123 56 233Q56 343 123.5 413Q191 483 297 483Q404 483 471 415Q538 347 538 236Q538 126 470 56Q402 -14 297 -14ZM297 443Q212 443 158.5 384Q105 325 105 235Q105 144 158.5 84.5Q212 25 297 25Q381 25 435 84.5Q489 144 489 234Q489 325 435.5 384Q382 443 297 443ZM339 566 296 566L179 710H235Z" glyph-name="ograve" horiz-adv-x="595" unicode="ò" /><glyph d="M297 -14Q190 -14 123 54.5Q56 123 56 233Q56 343 123.5 413Q191 483 297 483Q404 483 471 415Q538 347 538 236Q538 126 470 56Q402 -14 297 -14ZM297 443Q212 443 158.5 384Q105 325 105 235Q105 144 158.5 84.5Q212 25 297 25Q381 25 435 84.5Q489 144 489 234Q489 325 435.5 384Q382 443 297 443ZM240 697Q259 697 275 688Q291 679 309 658Q324 640 333.5 633Q343 626 353 626Q370 626 379.5 642Q389 658 394 696H428Q423 645 405 619Q387 593 356 593Q337 593 321 602Q305 611 286 632Q270 651 261 657.5Q252 664 243 664Q226 664 216.5 648Q207 632 202 594H168Q172 645 190.5 671Q209 697 240 697Z" glyph-name="otilde" horiz-adv-x="595" unicode="õ" /><glyph d="M297 -14Q190 -14 123 54.5Q56 123 56 233Q56 343 123.5 413Q191 483 297 483Q404 483 471 415Q538 347 538 236Q538 126 470 56Q402 -14 297 -14ZM297 443Q212 443 158.5 384Q105 325 105 235Q105 144 158.5 84.5Q212 25 297 25Q381 25 435 84.5Q489 144 489 234Q489 325 435.5 384Q382 443 297 443ZM295 608Q333 608 355 630.5Q377 653 386 700H427Q417 639 382.5 605.5Q348 572 295 572Q242 572 208 606Q174 640 167 700H208Q214 657 237.5 632.5Q261 608 295 608Z" glyph-name="obreve" horiz-adv-x="595" unicode="ŏ" /><glyph d="M297 -14Q190 -14 123 54.5Q56 123 56 233Q56 343 123.5 413Q191 483 297 483Q404 483 471 415Q538 347 538 236Q538 126 470 56Q402 -14 297 -14ZM297 443Q212 443 158.5 384Q105 325 105 235Q105 144 158.5 84.5Q212 25 297 25Q381 25 435 84.5Q489 144 489 234Q489 325 435.5 384Q382 443 297 443ZM489 710 371 566H331L435 710ZM355 710 237 566H197L301 710Z" glyph-name="ohungarumlaut" horiz-adv-x="595" unicode="ő" /><glyph d="M297 -14Q190 -14 123 54.5Q56 123 56 233Q56 343 123.5 413Q191 483 297 483Q404 483 471 415Q538 347 538 236Q538 126 470 56Q402 -14 297 -14ZM297 443Q212 443 158.5 384Q105 325 105 235Q105 144 158.5 84.5Q212 25 297 25Q381 25 435 84.5Q489 144 489 234Q489 325 435.5 384Q382 443 297 443ZM420 617 174 617V652H420Z" glyph-name="omacron" horiz-adv-x="595" unicode="ō" /><glyph d="M142 388 143 388Q167 435 209.5 459Q252 483 309 483H320V438Q314 439 309 439.5Q304 440 300 440Q250 440 213 415.5Q176 391 145 336V0H96V370Q96 401 94.5 424Q93 447 89 469H136Q139 454 140.5 432Q142 410 142 388ZM284 710 166 566H123L227 710Z" glyph-name="racute" horiz-adv-x="331" unicode="ŕ" /><glyph d="M142 388 143 388Q167 435 209.5 459Q252 483 309 483H320V438Q314 439 309 439.5Q304 440 300 440Q250 440 213 415.5Q176 391 145 336V0H96V370Q96 401 94.5 424Q93 447 89 469H136Q139 454 140.5 432Q142 410 142 388ZM30 710 79 710L165 585L251 710H301L195 566H134Z" glyph-name="rcaron" horiz-adv-x="331" unicode="ř" /><glyph d="M142 388 143 388Q167 435 209.5 459Q252 483 309 483H320V438Q314 439 309 439.5Q304 440 300 440Q250 440 213 415.5Q176 391 145 336V0H96V370Q96 401 94.5 424Q93 447 89 469H136Q139 454 140.5 432Q142 410 142 388ZM56 -231 108 -47H159L98 -231Z" glyph-name="rcommaaccent" horiz-adv-x="331" unicode="ŗ" /><glyph d="M217 -13Q171 -13 129 2Q87 17 55 45V106Q89 69 132 48Q175 27 217 27Q266 27 298.5 53Q331 79 331 121Q331 147 319 165.5Q307 184 282 196Q271 202 255 207.5Q239 213 191 226Q123 244 93 275Q63 306 63 356Q63 413 108 448Q153 483 219 483Q260 483 294.5 471Q329 459 360 433V375Q328 408 292.5 425.5Q257 443 219 443Q172 443 142 420.5Q112 398 112 359Q112 322 133 302Q154 282 235 260Q314 239 347 207.5Q380 176 380 125Q380 64 333.5 25.5Q287 -13 217 -13ZM79 710 128 710L214 585L300 710H350L244 566H183Z" glyph-name="scaron" horiz-adv-x="430" unicode="š" /><glyph d="M217 -13Q171 -13 129 2Q87 17 55 45V106Q89 69 132 48Q175 27 217 27Q266 27 298.5 53Q331 79 331 121Q331 147 319 165.5Q307 184 282 196Q271 202 255 207.5Q239 213 191 226Q123 244 93 275Q63 306 63 356Q63 413 108 448Q153 483 219 483Q260 483 294.5 471Q329 459 360 433V375Q328 408 292.5 425.5Q257 443 219 443Q172 443 142 420.5Q112 398 112 359Q112 322 133 302Q154 282 235 260Q314 239 347 207.5Q380 176 380 125Q380 64 333.5 25.5Q287 -13 217 -13ZM333 710 215 566H172L276 710Z" glyph-name="sacute" horiz-adv-x="430" unicode="ś" /><glyph d="M327 -144Q327 -183 294 -205Q261 -227 207 -227Q184 -227 157.5 -221.5Q131 -216 110 -207L120 -181Q136 -189 160.5 -194Q185 -199 206 -199Q244 -199 265.5 -184.5Q287 -170 287 -143Q287 -121 269.5 -109Q252 -97 221 -97Q207 -97 187 -101Q167 -105 157 -111L141 -98L202 -13Q160 -10 122 5Q84 20 55 45V106Q89 69 132 48Q175 27 217 27Q266 27 298.5 53Q331 79 331 121Q331 147 319 165.5Q307 184 282 196Q271 202 255 207.5Q239 213 191 226Q123 244 93 275Q63 306 63 356Q63 413 108 448Q153 483 219 483Q260 483 294.5 471Q329 459 360 433V375Q328 408 292.5 425.5Q257 443 219 443Q172 443 142 420.5Q112 398 112 359Q112 322 133 302Q154 282 235 260Q314 239 347 207.5Q380 176 380 125Q380 68 340 31Q300 -6 236 -12L188 -80Q198 -77 209.5 -75.5Q221 -74 238 -74Q279 -74 303 -92.5Q327 -111 327 -144Z" glyph-name="scedilla" horiz-adv-x="430" unicode="ş" /><glyph d="M217 -13Q171 -13 129 2Q87 17 55 45V106Q89 69 132 48Q175 27 217 27Q266 27 298.5 53Q331 79 331 121Q331 147 319 165.5Q307 184 282 196Q271 202 255 207.5Q239 213 191 226Q123 244 93 275Q63 306 63 356Q63 413 108 448Q153 483 219 483Q260 483 294.5 471Q329 459 360 433V375Q328 408 292.5 425.5Q257 443 219 443Q172 443 142 420.5Q112 398 112 359Q112 322 133 302Q154 282 235 260Q314 239 347 207.5Q380 176 380 125Q380 64 333.5 25.5Q287 -13 217 -13ZM350 566 300 566L214 692L128 566H79L183 710H245Z" glyph-name="scircumflex" horiz-adv-x="430" unicode="ŝ" /><glyph d="M217 -13Q171 -13 129 2Q87 17 55 45V106Q89 69 132 48Q175 27 217 27Q266 27 298.5 53Q331 79 331 121Q331 147 319 165.5Q307 184 282 196Q271 202 255 207.5Q239 213 191 226Q123 244 93 275Q63 306 63 356Q63 413 108 448Q153 483 219 483Q260 483 294.5 471Q329 459 360 433V375Q328 408 292.5 425.5Q257 443 219 443Q172 443 142 420.5Q112 398 112 359Q112 322 133 302Q154 282 235 260Q314 239 347 207.5Q380 176 380 125Q380 64 333.5 25.5Q287 -13 217 -13ZM154 -231 206 -47H257L196 -231Z" glyph-name="uni0219" horiz-adv-x="430" unicode="ș" /><glyph d="M292 39 292 0Q276 -6 259 -9Q242 -12 228 -12Q172 -12 142 18.5Q112 49 112 105V235H30V270H112V428H16V469H112V601H160V469H291V428H160V270H277V235H160V113Q160 71 180 49.5Q200 28 240 28Q252 28 266.5 31Q281 34 292 39Z" glyph-name="tbar" horiz-adv-x="315" unicode="ŧ" /><glyph d="M292 39 292 0Q276 -6 259 -9Q242 -12 228 -12Q172 -12 142 18.5Q112 49 112 105V428H16V469H112V601H160V469H291V428H160V113Q160 71 180 49.5Q200 28 240 28Q252 28 266.5 31Q281 34 292 39ZM204 528 253 710H303L245 528Z" glyph-name="tcaron" horiz-adv-x="315" unicode="ť" /><glyph d="M292 39 292 0Q276 -6 259 -9Q242 -12 228 -12Q172 -12 142 18.5Q112 49 112 105V428H16V469H112V601H160V469H291V428H160V113Q160 71 180 49.5Q200 28 240 28Q252 28 266.5 31Q281 34 292 39ZM97 -231 149 -47H200L139 -231Z" glyph-name="uni0163" horiz-adv-x="315" unicode="ţ" /><glyph d="M292 39 292 0Q276 -6 259 -9Q242 -12 228 -12Q172 -12 142 18.5Q112 49 112 105V428H16V469H112V601H160V469H291V428H160V113Q160 71 180 49.5Q200 28 240 28Q252 28 266.5 31Q281 34 292 39ZM97 -231 149 -47H200L139 -231Z" glyph-name="uni021B" horiz-adv-x="315" unicode="ț" /><glyph d="M436 75 434 75Q393 27 354.5 6.5Q316 -14 267 -14Q181 -14 133.5 35.5Q86 85 86 175V469H135V180Q135 109 172.5 67Q210 25 274 25Q317 25 350.5 45.5Q384 66 433 125V469H479V98Q479 72 480.5 49.5Q482 27 486 0H441Q439 14 437.5 36Q436 58 436 75ZM408 710 290 566H247L351 710Z" glyph-name="uacute" horiz-adv-x="580" unicode="ú" /><glyph d="M436 75 434 75Q393 27 354.5 6.5Q316 -14 267 -14Q181 -14 133.5 35.5Q86 85 86 175V469H135V180Q135 109 172.5 67Q210 25 274 25Q317 25 350.5 45.5Q384 66 433 125V469H479V98Q479 72 480.5 49.5Q482 27 486 0H441Q439 14 437.5 36Q436 58 436 75ZM425 566 375 566L289 692L203 566H154L258 710H320Z" glyph-name="ucircumflex" horiz-adv-x="580" unicode="û" /><glyph d="M436 75 434 75Q393 27 354.5 6.5Q316 -14 267 -14Q181 -14 133.5 35.5Q86 85 86 175V469H135V180Q135 109 172.5 67Q210 25 274 25Q317 25 350.5 45.5Q384 66 433 125V469H479V98Q479 72 480.5 49.5Q482 27 486 0H441Q439 14 437.5 36Q436 58 436 75ZM393 646Q393 631 383 620.5Q373 610 359 610Q345 610 334.5 620.5Q324 631 324 646Q324 660 334.5 670Q345 680 359 680Q373 680 383 670Q393 660 393 646ZM253 646Q253 631 243 620.5Q233 610 220 610Q205 610 195 620.5Q185 631 185 646Q185 660 195.5 670Q206 680 220 680Q233 680 243 670Q253 660 253 646Z" glyph-name="udieresis" horiz-adv-x="580" unicode="ü" /><glyph d="M436 75 434 75Q393 27 354.5 6.5Q316 -14 267 -14Q181 -14 133.5 35.5Q86 85 86 175V469H135V180Q135 109 172.5 67Q210 25 274 25Q317 25 350.5 45.5Q384 66 433 125V469H479V98Q479 72 480.5 49.5Q482 27 486 0H441Q439 14 437.5 36Q436 58 436 75ZM331 566 288 566L171 710H227Z" glyph-name="ugrave" horiz-adv-x="580" unicode="ù" /><glyph d="M436 75 434 75Q393 27 354.5 6.5Q316 -14 267 -14Q181 -14 133.5 35.5Q86 85 86 175V469H135V180Q135 109 172.5 67Q210 25 274 25Q317 25 350.5 45.5Q384 66 433 125V469H479V98Q479 72 480.5 49.5Q482 27 486 0H441Q439 14 437.5 36Q436 58 436 75ZM287 608Q325 608 347 630.5Q369 653 378 700H419Q409 639 374.5 605.5Q340 572 287 572Q234 572 200 606Q166 640 159 700H200Q206 657 229.5 632.5Q253 608 287 608Z" glyph-name="ubreve" horiz-adv-x="580" unicode="ŭ" /><glyph d="M436 75 434 75Q393 27 354.5 6.5Q316 -14 267 -14Q181 -14 133.5 35.5Q86 85 86 175V469H135V180Q135 109 172.5 67Q210 25 274 25Q317 25 350.5 45.5Q384 66 433 125V469H479V98Q479 72 480.5 49.5Q482 27 486 0H441Q439 14 437.5 36Q436 58 436 75ZM481 710 363 566H323L427 710ZM347 710 229 566H189L293 710Z" glyph-name="uhungarumlaut" horiz-adv-x="580" unicode="ű" /><glyph d="M436 75 434 75Q393 27 354.5 6.5Q316 -14 267 -14Q181 -14 133.5 35.5Q86 85 86 175V469H135V180Q135 109 172.5 67Q210 25 274 25Q317 25 350.5 45.5Q384 66 433 125V469H479V98Q479 72 480.5 49.5Q482 27 486 0H441Q439 14 437.5 36Q436 58 436 75ZM412 617 166 617V652H412Z" glyph-name="umacron" horiz-adv-x="580" unicode="ū" /><glyph d="M344 -143Q344 -112 366.5 -78Q389 -44 441 0Q439 14 437.5 36Q436 58 436 75H434Q393 27 354.5 6.5Q316 -14 267 -14Q181 -14 133.5 35.5Q86 85 86 175V469H135V180Q135 109 172.5 67Q210 25 274 25Q317 25 350.5 45.5Q384 66 433 125V469H481V98Q481 72 482.5 49.5Q484 27 488 0H476Q423 -51 404 -80Q385 -109 385 -137Q385 -165 401 -181Q417 -197 445 -197Q464 -197 481.5 -189.5Q499 -182 512 -169L525 -194Q507 -209 484.5 -217Q462 -225 436 -225Q395 -225 369.5 -203Q344 -181 344 -143Z" glyph-name="uogonek" horiz-adv-x="580" unicode="ų" /><glyph d="M436 75 434 75Q393 27 354.5 6.5Q316 -14 267 -14Q181 -14 133.5 35.5Q86 85 86 175V469H135V180Q135 109 172.5 67Q210 25 274 25Q317 25 350.5 45.5Q384 66 433 125V469H479V98Q479 72 480.5 49.5Q482 27 486 0H441Q439 14 437.5 36Q436 58 436 75ZM391 657Q391 615 361 585.5Q331 556 289 556Q247 556 217 585.5Q187 615 187 657Q187 698 217 727.5Q247 757 289 757Q331 757 361 727.5Q391 698 391 657ZM356 657Q356 684 336 704.5Q316 725 289 725Q262 725 242 704.5Q222 684 222 657Q222 629 242 609Q262 589 289 589Q316 589 336 609Q356 629 356 657Z" glyph-name="uring" horiz-adv-x="580" unicode="ů" /><glyph d="M436 75 434 75Q393 27 354.5 6.5Q316 -14 267 -14Q181 -14 133.5 35.5Q86 85 86 175V469H135V180Q135 109 172.5 67Q210 25 274 25Q317 25 350.5 45.5Q384 66 433 125V469H479V98Q479 72 480.5 49.5Q482 27 486 0H441Q439 14 437.5 36Q436 58 436 75ZM232 697Q251 697 267 688Q283 679 301 658Q316 640 325.5 633Q335 626 345 626Q362 626 371.5 642Q381 658 386 696H420Q415 645 397 619Q379 593 348 593Q329 593 313 602Q297 611 278 632Q262 651 253 657.5Q244 664 235 664Q218 664 208.5 648Q199 632 194 594H160Q164 645 182.5 671Q201 697 232 697Z" glyph-name="utilde" horiz-adv-x="580" unicode="ũ" /><glyph d="M367 414 365 414L224 0H169L28 469H80L198 54H200L339 469H396L537 54H539L657 469H707L565 0H510ZM486 710 368 566H325L429 710Z" glyph-name="wacute" horiz-adv-x="736" unicode="ẃ" /><glyph d="M367 414 365 414L224 0H169L28 469H80L198 54H200L339 469H396L537 54H539L657 469H707L565 0H510ZM503 566 453 566L367 692L281 566H232L336 710H398Z" glyph-name="wcircumflex" horiz-adv-x="736" unicode="ŵ" /><glyph d="M367 414 365 414L224 0H169L28 469H80L198 54H200L339 469H396L537 54H539L657 469H707L565 0H510ZM471 646Q471 631 461 620.5Q451 610 437 610Q423 610 412.5 620.5Q402 631 402 646Q402 660 412.5 670Q423 680 437 680Q451 680 461 670Q471 660 471 646ZM331 646Q331 631 321 620.5Q311 610 298 610Q283 610 273 620.5Q263 631 263 646Q263 660 273.5 670Q284 680 298 680Q311 680 321 670Q331 660 331 646Z" glyph-name="wdieresis" horiz-adv-x="736" unicode="ẅ" /><glyph d="M367 414 365 414L224 0H169L28 469H80L198 54H200L339 469H396L537 54H539L657 469H707L565 0H510ZM409 566 366 566L249 710H305Z" glyph-name="wgrave" horiz-adv-x="736" unicode="ẁ" /><glyph d="M78 -248 78 -202Q120 -185 144 -152Q168 -119 192 -57L200 -35Q205 -22 205 -10.5Q205 1 200 14L21 469H76L234 42L386 469H438L237 -65Q205 -151 170 -192Q135 -233 78 -248ZM348 710 230 566H187L291 710Z" glyph-name="yacute" horiz-adv-x="460" unicode="ý" /><glyph d="M78 -248 78 -202Q120 -185 144 -152Q168 -119 192 -57L200 -35Q205 -22 205 -10.5Q205 1 200 14L21 469H76L234 42L386 469H438L237 -65Q205 -151 170 -192Q135 -233 78 -248ZM333 646Q333 631 323 620.5Q313 610 299 610Q285 610 274.5 620.5Q264 631 264 646Q264 660 274.5 670Q285 680 299 680Q313 680 323 670Q333 660 333 646ZM193 646Q193 631 183 620.5Q173 610 160 610Q145 610 135 620.5Q125 631 125 646Q125 660 135.5 670Q146 680 160 680Q173 680 183 670Q193 660 193 646Z" glyph-name="ydieresis" horiz-adv-x="460" unicode="ÿ" /><glyph d="M78 -248 78 -202Q120 -185 144 -152Q168 -119 192 -57L200 -35Q205 -22 205 -10.5Q205 1 200 14L21 469H76L234 42L386 469H438L237 -65Q205 -151 170 -192Q135 -233 78 -248ZM365 566 315 566L229 692L143 566H94L198 710H260Z" glyph-name="ycircumflex" horiz-adv-x="460" unicode="ŷ" /><glyph d="M78 -248 78 -202Q120 -185 144 -152Q168 -119 192 -57L200 -35Q205 -22 205 -10.5Q205 1 200 14L21 469H76L234 42L386 469H438L237 -65Q205 -151 170 -192Q135 -233 78 -248ZM271 566 228 566L111 710H167Z" glyph-name="ygrave" horiz-adv-x="460" unicode="ỳ" /><glyph d="M402 0 44 0V41L335 428H58V469H391V428L101 40H402ZM89 710 138 710L224 585L310 710H360L254 566H193Z" glyph-name="zcaron" horiz-adv-x="449" unicode="ž" /><glyph d="M402 0 44 0V41L335 428H58V469H391V428L101 40H402ZM343 710 225 566H182L286 710Z" glyph-name="zacute" horiz-adv-x="449" unicode="ź" /><glyph d="M402 0 44 0V41L335 428H58V469H391V428L101 40H402ZM260 646Q260 630 249 619.5Q238 609 224 609Q209 609 198 619.5Q187 630 187 646Q187 661 198 671.5Q209 682 224 682Q238 682 249 671.5Q260 661 260 646Z" glyph-name="zdotaccent" horiz-adv-x="449" unicode="ż" /><glyph d="M343 710 225 566H182L286 710Z" glyph-name="acute" horiz-adv-x="259" unicode="´" /><glyph d="M271 566 228 566L111 710H167Z" glyph-name="grave" horiz-adv-x="259" unicode="`" /><glyph d="M365 566 315 566L229 692L143 566H94L198 710H260Z" glyph-name="circumflex" horiz-adv-x="259" unicode="ˆ" /><glyph d="M89 710 138 710L224 585L310 710H360L254 566H193Z" glyph-name="caron" horiz-adv-x="259" unicode="ˇ" /><glyph d="M232 697Q251 697 267 688Q283 679 301 658Q316 640 325.5 633Q335 626 345 626Q362 626 371.5 642Q381 658 386 696H420Q415 645 397 619Q379 593 348 593Q329 593 313 602Q297 611 278 632Q262 651 253 657.5Q244 664 235 664Q218 664 208.5 648Q199 632 194 594H160Q164 645 182.5 671Q201 697 232 697Z" glyph-name="tilde" horiz-adv-x="259" unicode="˜" /><glyph d="M333 646Q333 631 323 620.5Q313 610 299 610Q285 610 274.5 620.5Q264 631 264 646Q264 660 274.5 670Q285 680 299 680Q313 680 323 670Q333 660 333 646ZM193 646Q193 631 183 620.5Q173 610 160 610Q145 610 135 620.5Q125 631 125 646Q125 660 135.5 670Q146 680 160 680Q173 680 183 670Q193 660 193 646Z" glyph-name="dieresis" horiz-adv-x="259" unicode="¨" /><glyph d="M391 657Q391 615 361 585.5Q331 556 289 556Q247 556 217 585.5Q187 615 187 657Q187 698 217 727.5Q247 757 289 757Q331 757 361 727.5Q391 698 391 657ZM356 657Q356 684 336 704.5Q316 725 289 725Q262 725 242 704.5Q222 684 222 657Q222 629 242 609Q262 589 289 589Q316 589 336 609Q356 629 356 657Z" glyph-name="ring" horiz-adv-x="259" unicode="˚" /><glyph d="M146 -74Q187 -74 211 -92.5Q235 -111 235 -144Q235 -183 201.5 -205Q168 -227 115 -227Q92 -227 65.5 -221.5Q39 -216 18 -207L28 -181Q44 -189 68 -194Q92 -199 113 -199Q151 -199 173 -184.5Q195 -170 195 -143Q195 -121 177.5 -109Q160 -97 129 -97Q115 -97 95 -101Q75 -105 64 -111L49 -98L119 0H153L95 -80Q107 -77 118.5 -75.5Q130 -74 146 -74Z" glyph-name="cedilla" horiz-adv-x="259" unicode="¸" /><glyph d="M481 710 363 566H323L427 710ZM347 710 229 566H189L293 710Z" glyph-name="hungarumlaut" horiz-adv-x="259" unicode="˝" /><glyph d="M287 608Q325 608 347 630.5Q369 653 378 700H419Q409 639 374.5 605.5Q340 572 287 572Q234 572 200 606Q166 640 159 700H200Q206 657 229.5 632.5Q253 608 287 608Z" glyph-name="breve" horiz-adv-x="259" unicode="˘" /><glyph d="M412 617 166 617V652H412Z" glyph-name="macron" horiz-adv-x="259" unicode="¯" /><glyph d="M260 646Q260 630 249 619.5Q238 609 224 609Q209 609 198 619.5Q187 630 187 646Q187 661 198 671.5Q209 682 224 682Q238 682 249 671.5Q260 661 260 646Z" glyph-name="dotaccent" horiz-adv-x="259" unicode="˙" /><glyph d="M270 327Q270 311 259.5 300.5Q249 290 235 290Q220 290 209.5 300.5Q199 311 199 327Q199 342 209.5 352.5Q220 363 235 363Q250 363 260 352.5Q270 342 270 327Z" glyph-name="periodcentered" horiz-adv-x="259" unicode="·" /><glyph d="M136 -197Q155 -197 172.5 -189.5Q190 -182 202 -169L216 -194Q198 -209 175.5 -217Q153 -225 127 -225Q85 -225 60 -203Q35 -181 35 -143Q35 -111 58 -77Q81 -43 132 0H167Q113 -53 94.5 -81.5Q76 -110 76 -137Q76 -165 92 -181Q108 -197 136 -197Z" glyph-name="ogonek" horiz-adv-x="259" unicode="˛" /><glyph d="M97 -231 149 -47H200L139 -231Z" glyph-name="commaaccent" horiz-adv-x="259" unicode="" /><glyph d="M204 528 253 710H303L245 528Z" glyph-name="caron.alt" horiz-adv-x="259" unicode="" /><glyph d="M327 710 286 566H235L287 710Z" glyph-name="revcommaaccent" horiz-adv-x="259" unicode="" /><glyph d="M167 32Q167 15 156 4Q145 -7 129 -7Q113 -7 102 4Q91 15 91 32Q91 48 102.5 59.5Q114 71 129 71Q144 71 155.5 59.5Q167 48 167 32Z" glyph-name="period" horiz-adv-x="258" unicode="." /><glyph d="M165 64 93 -153H53L114 64Z" glyph-name="comma" horiz-adv-x="258" unicode="," /><glyph d="M184 442Q184 425 172.5 413.5Q161 402 146 402Q130 402 119 413.5Q108 425 108 442Q108 458 119 469.5Q130 481 146 481Q161 481 172.5 469.5Q184 458 184 442ZM184 32Q184 15 173 4Q162 -7 146 -7Q129 -7 118.5 4Q108 15 108 32Q108 48 119 59.5Q130 71 146 71Q161 71 172.5 59.5Q184 48 184 32Z" glyph-name="colon" horiz-adv-x="292" unicode=":" /><glyph d="M184 442Q184 425 172.5 413.5Q161 402 146 402Q130 402 119 413.5Q108 425 108 442Q108 458 119 469.5Q130 481 146 481Q161 481 172.5 469.5Q184 458 184 442ZM172 64 100 -153H60L120 64Z" glyph-name="semicolon" horiz-adv-x="292" unicode=";" /><glyph d="M681 31Q681 14 670 3.5Q659 -7 643 -7Q627 -7 616 3.5Q605 14 605 31Q605 46 616.5 57.5Q628 69 643 69Q659 69 670 58Q681 47 681 31ZM424 31Q424 14 413 3.5Q402 -7 386 -7Q370 -7 359 3.5Q348 14 348 31Q348 46 359.5 57.5Q371 69 386 69Q401 69 412.5 57.5Q424 46 424 31ZM167 31Q167 14 156 3.5Q145 -7 129 -7Q113 -7 102 3.5Q91 14 91 31Q91 46 102.5 57.5Q114 69 129 69Q144 69 155.5 57.5Q167 46 167 31Z" glyph-name="ellipsis" horiz-adv-x="773" unicode="…" /><glyph d="M447 551Q447 504 428 468.5Q409 433 350 385L274 321V200H224V336L322 418Q365 454 379.5 482.5Q394 511 394 548Q394 610 354.5 646Q315 682 250 682Q190 682 149.5 647.5Q109 613 99 554H49Q62 635 116 680.5Q170 726 252 726Q340 726 393.5 678.5Q447 631 447 551ZM250 70Q266 70 277.5 58.5Q289 47 289 30Q289 15 277.5 4Q266 -7 250 -7Q234 -7 222.5 4Q211 15 211 30Q211 47 222.5 58.5Q234 70 250 70Z" glyph-name="question" horiz-adv-x="492" unicode="?" /><glyph d="M174 196 128 196L121 708H181ZM151 70Q167 70 178.5 58.5Q190 47 190 30Q190 15 178.5 4Q167 -7 151 -7Q135 -7 123.5 4Q112 15 112 30Q112 47 123.5 58.5Q135 70 151 70Z" glyph-name="exclam" horiz-adv-x="302" unicode="!" /><glyph d="M242 344Q226 344 214.5 355.5Q203 367 203 383Q203 399 214.5 410.5Q226 422 242 422Q258 422 269.5 410.5Q281 399 281 383Q281 366 269.5 355Q258 344 242 344ZM45 -136Q45 -90 63 -55Q81 -20 142 29L218 93V214H268V78L170 -4Q129 -37 113.5 -66Q98 -95 98 -132Q98 -194 137.5 -230.5Q177 -267 242 -267Q301 -267 342 -232Q383 -197 393 -139H443Q430 -219 376 -264.5Q322 -310 240 -310Q152 -310 98.5 -263Q45 -216 45 -136Z" glyph-name="questiondown" horiz-adv-x="492" unicode="¿" /><glyph d="M151 344Q135 344 123.5 355.5Q112 367 112 383Q112 399 123.5 410.5Q135 422 151 422Q167 422 178.5 410.5Q190 399 190 383Q190 366 178.5 355Q167 344 151 344ZM128 217 174 217L181 -292H121Z" glyph-name="exclamdown" horiz-adv-x="302" unicode="¡" /><glyph d="M240 -144 202 -165Q139 -75 104 43.5Q69 162 69 282Q69 402 104 520.5Q139 639 202 729L240 708Q183 629 149 512Q115 395 115 282Q115 169 149 52Q183 -65 240 -144Z" glyph-name="parenleft" horiz-adv-x="289" unicode="(" /><glyph d="M48 708 86 729Q149 639 184 520.5Q219 402 219 282Q219 162 184 43.5Q149 -75 86 -165L48 -144Q105 -65 139 52Q173 169 173 282Q173 395 139 512Q105 629 48 708Z" glyph-name="parenright" horiz-adv-x="289" unicode=")" /><glyph d="M28 263 28 300Q68 300 85.5 326Q103 352 103 408V593Q103 659 131.5 692.5Q160 726 216 726H271V689H226Q187 689 167 664Q147 639 147 590V403Q147 349 129.5 318.5Q112 288 77 283V281Q112 275 129.5 244.5Q147 214 147 160V-26Q147 -75 167 -100Q187 -125 226 -125H271V-162H216Q160 -162 131.5 -128.5Q103 -95 103 -30V155Q103 211 85 237Q67 263 28 263Z" glyph-name="braceleft" horiz-adv-x="316" unicode="{" /><glyph d="M287 300 287 263Q248 263 230 237Q212 211 212 155V-30Q212 -95 183.5 -128.5Q155 -162 99 -162H44V-125H89Q128 -125 148 -100Q168 -75 168 -26V160Q168 214 185.5 244.5Q203 275 238 281V283Q203 288 185.5 318.5Q168 349 168 403V590Q168 639 148 664Q128 689 89 689H44V726H99Q155 726 183.5 692.5Q212 659 212 593V408Q212 352 229.5 326Q247 300 287 300Z" glyph-name="braceright" horiz-adv-x="316" unicode="}" /><glyph d="M232 -162 74 -162V726H232V689H120V-125H232Z" glyph-name="bracketleft" horiz-adv-x="278" unicode="[" /><glyph d="M202 726 202 -162H44V-126H158V690H44V726Z" glyph-name="bracketright" horiz-adv-x="277" unicode="]" /><glyph d="M364 708 63 0H16L316 708Z" glyph-name="slash" horiz-adv-x="380" unicode="/" /><glyph d="M364 0 316 0L16 708H63Z" glyph-name="backslash" horiz-adv-x="380" unicode="\" /><glyph d="M500 -124 0 -124V-88H500Z" glyph-name="underscore" horiz-adv-x="500" unicode="_" /><glyph d="M250 228 54 228V272H250Z" glyph-name="hyphen" horiz-adv-x="305" unicode="-" /><glyph d="" glyph-name="uni00AD" horiz-adv-x="0" unicode="­" /><glyph d="M470 240 30 240V278H470Z" glyph-name="endash" horiz-adv-x="500" unicode="–" /><glyph d="M970 240 30 240V278H970Z" glyph-name="emdash" horiz-adv-x="1000" unicode="—" /><glyph d="M91 338 91 750H137V338ZM91 -250 91 162H137V-250Z" glyph-name="brokenbar" horiz-adv-x="229" unicode="¦" /><glyph d="M137 -250 91 -250V750H137Z" glyph-name="bar" horiz-adv-x="229" unicode="|" /><glyph d="M90 566 124 710H175L134 566Z" glyph-name="apostrophe" horiz-adv-x="95" unicode="ʼ" /><glyph d="M237 60 202 37L71 242L201 445L236 424L122 242ZM418 60 383 37L252 242L382 445L417 424L304 242Z" glyph-name="guillemotleft" horiz-adv-x="501" unicode="«" /><glyph d="M248 242 118 38L83 60L197 242L82 424L117 446ZM430 242 299 38L264 60L378 242L264 424L299 446Z" glyph-name="guillemotright" horiz-adv-x="501" unicode="»" /><glyph d="M237 60 202 37L71 242L201 445L236 424L122 242Z" glyph-name="guilsinglleft" horiz-adv-x="320" unicode="‹" /><glyph d="M248 242 118 38L83 60L197 242L82 424L117 446Z" glyph-name="guilsinglright" horiz-adv-x="320" unicode="›" /><glyph d="M64 -135 123 99H174L105 -135Z" glyph-name="quotesinglbase" horiz-adv-x="239" unicode="‚" /><glyph d="M208 -135 269 99H319L249 -135ZM64 -135 123 99H173L105 -135Z" glyph-name="quotedblbase" horiz-adv-x="385" unicode="„" /><glyph d="M174 708 115 471H64L134 708Z" glyph-name="quoteleft" horiz-adv-x="239" unicode="‘" /><glyph d="M176 708 115 471H64L135 708ZM320 708 261 471H211L279 708Z" glyph-name="quotedblleft" horiz-adv-x="385" unicode="“" /><glyph d="M64 471 123 708H174L105 471Z" glyph-name="quoteright" horiz-adv-x="239" unicode="’" /><glyph d="M208 471 269 708H319L249 471ZM64 471 123 708H173L105 471Z" glyph-name="quotedblright" horiz-adv-x="385" unicode="”" /><glyph d="M159 471 112 471V708H159Z" glyph-name="quotesingle" horiz-adv-x="271" unicode="'" /><glyph d="M159 471 112 471V708H159ZM315 471 269 471V708H315Z" glyph-name="quotedbl" horiz-adv-x="428" unicode="&quot;" /><glyph d="M427 354Q427 281 375.5 229Q324 177 250 177Q177 177 125 229Q73 281 73 354Q73 428 125 479.5Q177 531 250 531Q324 531 375.5 479.5Q427 428 427 354Z" glyph-name="bullet" horiz-adv-x="500" unicode="•" /><glyph d="M280 411Q363 454 395.5 491Q428 528 428 573Q428 622 395.5 654Q363 686 314 686Q263 686 229.5 652Q196 618 196 567Q196 532 214.5 496.5Q233 461 280 411ZM283 24Q339 24 386.5 55Q434 86 469 145L265 361Q190 325 154.5 281.5Q119 238 119 182Q119 113 166 68.5Q213 24 283 24ZM673 0 608 0L502 112Q457 47 402.5 15.5Q348 -16 280 -16Q187 -16 128 38.5Q69 93 69 182Q69 247 107.5 296.5Q146 346 237 393Q187 447 167 486Q147 525 147 567Q147 638 194.5 682Q242 726 315 726Q384 726 429.5 683.5Q475 641 475 576Q475 520 439.5 476.5Q404 433 308 382L496 182L602 372H657L529 152Z" glyph-name="ampersand" horiz-adv-x="725" unicode="&amp;" /><glyph d="M504 -126 461 -126V672H322V-126H279V339Q184 339 124.5 389Q65 439 65 517Q65 610 124 659Q183 708 293 708H504Z" glyph-name="paragraph" horiz-adv-x="607" unicode="¶" /><glyph d="M485 460 292 460V-126H244V460H50V502H243V708H292V502H485Z" glyph-name="dagger" horiz-adv-x="535" unicode="†" /><glyph d="M485 74 292 74V-126H244V74H50V115H244V465H50V506H243V708H292V506H485V465H292V115H485Z" glyph-name="daggerdbl" horiz-adv-x="535" unicode="‡" /><glyph d="M431 281Q431 320 403 348.5Q375 377 304 404L257 422Q204 413 172.5 383Q141 353 141 307Q141 269 165 242.5Q189 216 261 188L311 169Q365 173 398 203.5Q431 234 431 281ZM353 148Q404 126 428 94.5Q452 63 452 20Q452 -51 399 -93.5Q346 -136 263 -136Q210 -136 161 -116Q112 -96 80 -61L102 -12Q136 -52 177.5 -73Q219 -94 266 -94Q325 -94 362 -64Q399 -34 399 17Q399 55 372.5 82.5Q346 110 273 138L238 152Q151 186 122.5 218.5Q94 251 94 306Q94 356 127.5 392.5Q161 429 216 443Q162 469 142 498Q122 527 122 573Q122 642 174 684.5Q226 727 306 727Q358 727 400 710Q442 693 470 661L447 619Q420 652 384 669Q348 686 305 686Q249 686 211.5 654Q174 622 174 570Q174 532 195.5 507.5Q217 483 294 452L326 440Q412 406 445 371Q478 336 478 285Q478 231 444 195Q410 159 353 148Z" glyph-name="section" horiz-adv-x="578" unicode="§" /><glyph d="M415 561 259 513L356 378L324 358L228 493L132 358L100 379L198 513L41 561L53 595L209 545V708H248V545L403 595Z" glyph-name="asterisk" horiz-adv-x="457" unicode="*" /><glyph d="M339 672 210 672V299H164V672H35V708H339ZM478 660 479 299H433V708H498L644 356H646L792 708H857V299H811L812 660H810L656 299H632L480 660Z" glyph-name="trademark" horiz-adv-x="955" unicode="™" /><glyph d="M189 715Q224 715 254.5 703Q285 691 304 669V624Q280 651 251 665Q222 679 190 679Q148 679 118.5 658Q89 637 89 604Q89 576 108.5 557.5Q128 539 183 522Q254 500 283.5 473Q313 446 313 406Q313 357 272 324.5Q231 292 177 292Q138 292 103 305.5Q68 319 45 343V389Q73 359 106 343.5Q139 328 175 328Q217 328 246 349.5Q275 371 275 404Q275 431 254.5 449.5Q234 468 172 486Q107 506 79 533.5Q51 561 51 604Q51 652 90.5 683.5Q130 715 189 715ZM444 660 446 299H400V708H465L611 356H613L759 708H824V299H778L780 660H778L623 299H599L446 660Z" glyph-name="servicemark" horiz-adv-x="922" unicode="℠" /><glyph d="M528 493Q528 399 461.5 333.5Q395 268 301 268Q206 268 139 333.5Q72 399 72 493Q72 587 139 653Q206 719 301 719Q395 719 461.5 653Q528 587 528 493ZM504 493Q504 577 444 637Q384 697 301 697Q216 697 155.5 637Q95 577 95 493Q95 409 155.5 349Q216 289 301 289Q384 289 444 349.5Q504 410 504 493ZM250 596 250 501H294Q329 501 345.5 513Q362 525 362 551Q362 573 347.5 584.5Q333 596 307 596ZM331 481 406 369H368L298 477H250V369H218V623H307Q349 623 372 604Q395 585 395 550Q395 522 377 503Q359 484 331 481Z" glyph-name="registered" horiz-adv-x="600" unicode="®" /><glyph d="M401 -22Q243 -22 131.5 87.5Q20 197 20 353Q20 429 49 498Q78 567 132 620Q185 673 255 701.5Q325 730 401 730Q477 730 546.5 701.5Q616 673 669 620Q722 567 751 498Q780 429 780 353Q780 197 669 87.5Q558 -22 401 -22ZM401 702Q255 702 151.5 600Q48 498 48 353Q48 208 151 106Q254 4 399 4Q545 4 648 106Q751 208 751 353Q751 497 648 599.5Q545 702 401 702ZM418 159Q456 159 492.5 174.5Q529 190 557 218V174Q531 150 494 136.5Q457 123 416 123Q320 123 257.5 187Q195 251 195 351Q195 450 257.5 514.5Q320 579 415 579Q454 579 491 564.5Q528 550 555 525V481Q526 510 489.5 526.5Q453 543 418 543Q340 543 289 488Q238 433 238 351Q238 269 288.5 214Q339 159 418 159Z" glyph-name="copyright" horiz-adv-x="800" unicode="©" /><glyph d="M529 294 547 360H586L526 142Q521 121 518 103Q515 85 515 74Q515 48 529.5 34Q544 20 571 20Q642 20 684 80Q726 140 726 237Q726 360 638 440Q550 520 415 520Q275 520 178.5 420Q82 320 82 180Q82 34 178 -63.5Q274 -161 422 -161Q498 -161 570 -128Q642 -95 691 -38L716 -61Q659 -125 583 -159Q507 -193 419 -193Q255 -193 149 -87Q43 19 43 180Q43 337 151 445Q259 553 415 553Q566 553 664.5 463.5Q763 374 763 237Q763 123 709.5 54.5Q656 -14 565 -14Q522 -14 499.5 8Q477 30 480 70H478Q457 32 422 9Q387 -14 346 -14Q291 -14 258.5 23Q226 60 226 120Q226 220 284 300Q342 380 423 380Q466 380 493 357Q520 334 525 294ZM470 107Q488 140 499 180.5Q510 221 510 250Q510 294 488 319.5Q466 345 427 345Q361 345 315 275Q269 205 269 120Q269 74 292.5 47Q316 20 357 20Q390 20 418.5 42Q447 64 470 107Z" glyph-name="at" horiz-adv-x="800" unicode="@" /><glyph d="M259 493 259 581L175 570Q119 562 100.5 548Q82 534 82 506Q82 479 101 464.5Q120 450 155 450Q186 450 214.5 462Q243 474 259 493ZM46 505Q46 544 72 563.5Q98 583 164 592L248 604Q253 605 255.5 607Q258 609 258 614V615Q258 653 237.5 672.5Q217 692 177 692Q143 692 115.5 680.5Q88 669 63 645V682Q82 699 113 709.5Q144 720 178 720Q234 720 264.5 692Q295 664 295 613V497Q295 480 296.5 462Q298 444 300 430H264Q262 442 261 449.5Q260 457 260 465Q241 446 208 434.5Q175 423 145 423Q99 423 72.5 444.5Q46 466 46 505ZM311 351 311 322H41V351Z" glyph-name="ordfeminine" horiz-adv-x="356" unicode="ª" /><glyph d="M33 573Q33 639 73.5 680Q114 721 177 721Q241 721 282 679.5Q323 638 323 573Q323 507 282 465Q241 423 177 423Q114 423 73.5 465Q33 507 33 573ZM178 451Q227 451 257.5 485.5Q288 520 288 573Q288 625 257 658.5Q226 692 177 692Q128 692 98 658.5Q68 625 68 573Q68 520 98.5 485.5Q129 451 178 451ZM312 351 312 323H42V351Z" glyph-name="ordmasculine" horiz-adv-x="356" unicode="º" /><glyph d="M356 442 203 442L180 266H333ZM505 442 394 442L371 266H477V231H366L336 0H299L328 231H174L145 0H107L136 231H31V266H141L165 442H60V477H170L199 708H237L207 477H361L391 708H429L399 477H505Z" glyph-name="numbersign" horiz-adv-x="561" unicode="#" /><glyph d="M531 80 531 24Q497 2 456 -9Q415 -20 368 -20Q261 -20 185 53.5Q109 127 85 251H14L29 289H79Q78 303 77 318Q76 333 76 348Q76 369 77 386Q78 403 80 418H17L30 456H86Q112 580 190.5 654Q269 728 375 728Q413 728 451 717.5Q489 707 520 688V632Q477 660 443.5 671Q410 682 373 682Q290 682 226 621Q162 560 138 456H454L441 418H132Q129 399 128 382Q127 365 127 348Q127 331 128 316.5Q129 302 131 289H403L390 251H137Q159 148 222.5 86Q286 24 371 24Q415 24 454 37.5Q493 51 531 80Z" glyph-name="Euro" horiz-adv-x="560" unicode="€" /><glyph d="M119 537Q119 484 151 449.5Q183 415 265 387V678Q199 670 159 632.5Q119 595 119 537ZM449 175Q449 226 416 261Q383 296 302 324V29Q369 36 409 75.5Q449 115 449 175ZM302 -14 302 -85H265V-15Q205 -14 151.5 6Q98 26 56 62V127Q106 79 158 54Q210 29 265 27V336Q155 368 111 414.5Q67 461 67 536Q67 613 121 663Q175 713 265 722V792H302V723Q356 722 404 703.5Q452 685 488 651V588Q446 633 400 655.5Q354 678 302 680V375Q416 337 459 292.5Q502 248 502 178Q502 98 447 46Q392 -6 302 -14Z" glyph-name="dollar" horiz-adv-x="560" unicode="$" /><glyph d="M487 229 487 192H304V0H253V192H73V229H253V348H73V385H230L16 708H75L281 397L484 708H542L327 385H487V348H304V229Z" glyph-name="yen" horiz-adv-x="560" unicode="¥" /><glyph d="M367 726Q403 726 435.5 716Q468 706 495 686V631Q464 656 433 668.5Q402 681 371 681Q300 681 262.5 635Q225 589 225 502V388H387V347H225V44H477V0H66V44H174V347H75V388H174V508Q174 611 224.5 668.5Q275 726 367 726Z" glyph-name="sterling" horiz-adv-x="560" unicode="£" /><glyph d="M126 233Q126 153 171.5 96Q217 39 290 27V442Q217 430 171.5 371.5Q126 313 126 233ZM472 431 472 375Q436 409 401.5 425.5Q367 442 330 444V24Q368 25 403 40Q438 55 475 87V35Q446 12 408.5 -0.5Q371 -13 330 -14V-74H290V-12Q195 -1 136 66.5Q77 134 77 233Q77 333 136.5 401.5Q196 470 290 481V552H330V483Q371 481 408 467.5Q445 454 472 431Z" glyph-name="cent" horiz-adv-x="560" unicode="¢" /><glyph d="M87 -144Q70 -144 54 -140.5Q38 -137 25 -130V-83Q42 -92 57 -96Q72 -100 87 -100Q128 -100 151 -73Q174 -46 187 25L246 380H140V415H251L276 565Q287 641 325 680.5Q363 720 426 720Q448 720 466 715Q484 710 496 701V652Q480 664 462.5 670Q445 676 427 676Q385 676 360 648.5Q335 621 326 564L301 415H415V380H295L230 -1Q219 -74 184 -109Q149 -144 87 -144Z" glyph-name="florin" horiz-adv-x="566" unicode="ƒ" /><glyph d="M530 580 558 553L471 466Q497 434 510 394.5Q523 355 523 309Q523 262 508.5 220.5Q494 179 467 146L558 55L531 29L439 121Q408 94 368 80Q328 66 284 66Q240 66 200.5 80Q161 94 128 122L34 29L7 55L100 149Q73 180 59 220.5Q45 261 45 309Q45 354 58 393.5Q71 433 97 465L7 553L35 580L123 491Q155 519 196 534Q237 549 284 549Q330 549 370.5 534.5Q411 520 443 492ZM284 104Q370 104 424.5 162Q479 220 479 309Q479 397 424.5 454.5Q370 512 284 512Q197 512 142.5 454.5Q88 397 88 309Q88 220 142.5 162Q197 104 284 104Z" glyph-name="currency" horiz-adv-x="566" unicode="¤" /><glyph d="M280 721Q390 721 448 624.5Q506 528 506 354Q506 180 448 83.5Q390 -13 280 -13Q169 -13 111 83Q53 179 53 354Q53 529 111 625Q169 721 280 721ZM280 31Q365 31 409.5 114.5Q454 198 454 354Q454 509 409.5 592.5Q365 676 280 676Q194 676 149.5 592.5Q105 509 105 354Q105 198 149.5 114.5Q194 31 280 31Z" glyph-name="zero" horiz-adv-x="560" unicode="0" /><glyph d="M333 0 282 0V648Q253 614 218.5 586.5Q184 559 143 537L122 578Q163 599 202.5 630.5Q242 662 284 708H333Z" glyph-name="one" horiz-adv-x="560" unicode="1" /><glyph d="M55 0 55 47L301 321Q367 394 392 440Q417 486 417 530Q417 596 376.5 636.5Q336 677 271 677Q213 677 165.5 649Q118 621 72 560V626Q112 674 162 697.5Q212 721 275 721Q361 721 415 670.5Q469 620 469 540Q469 485 444 434.5Q419 384 333 289L115 45H474V0Z" glyph-name="two" horiz-adv-x="560" unicode="2" /><glyph d="M262 677Q210 677 167 655.5Q124 634 84 588V650Q120 686 164.5 703.5Q209 721 264 721Q350 721 402 672.5Q454 624 454 542Q454 478 416 432Q378 386 312 374V371Q390 357 434 307.5Q478 258 478 189Q478 97 420 42Q362 -13 262 -13Q200 -13 145 11.5Q90 36 54 78V150Q95 91 147.5 61.5Q200 32 265 31Q338 29 382 74Q426 119 426 192Q426 263 372.5 305.5Q319 348 240 348H189V392H241Q312 392 357.5 431.5Q403 471 403 538Q403 600 363.5 638.5Q324 677 262 677Z" glyph-name="three" horiz-adv-x="560" unicode="3" /><glyph d="M523 175 414 175V0H363V175H37V222Q88 330 167 454Q246 578 346 708H413V216H523ZM363 216 363 658H360Q275 545 202.5 430Q130 315 82 216Z" glyph-name="four" horiz-adv-x="560" unicode="4" /><glyph d="M262 -13Q203 -13 155.5 6Q108 25 71 64V127Q112 76 157.5 52.5Q203 29 260 29Q335 29 385.5 81Q436 133 436 217Q436 300 384.5 350.5Q333 401 246 401Q211 401 172 391Q133 381 96 363V708H456V663H144V420Q166 430 196.5 435.5Q227 441 259 441Q362 441 425 379.5Q488 318 488 217Q488 113 423.5 50Q359 -13 262 -13Z" glyph-name="five" horiz-adv-x="560" unicode="5" /><glyph d="M123 396 309 708H367L162 375L164 373Q186 396 222 410.5Q258 425 295 425Q384 425 444 362.5Q504 300 504 207Q504 110 441 48Q378 -14 281 -14Q184 -14 121.5 48Q59 110 59 206Q59 250 74 294.5Q89 339 123 396ZM286 385Q211 385 160 333.5Q109 282 109 205Q109 128 158 77.5Q207 27 282 27Q358 27 406.5 77Q455 127 455 206Q455 283 407 334Q359 385 286 385Z" glyph-name="six" horiz-adv-x="560" unicode="6" /><glyph d="M473 658 182 0H127L425 663H65V708H473Z" glyph-name="seven" horiz-adv-x="560" unicode="7" /><glyph d="M474 542Q474 487 443 442.5Q412 398 359 379V377Q426 356 462.5 306.5Q499 257 499 190Q499 99 438 43Q377 -13 280 -13Q183 -13 121.5 42.5Q60 98 60 189Q60 257 97 307Q134 357 200 376V379Q146 400 115.5 443.5Q85 487 85 542Q85 621 140 671Q195 721 280 721Q364 721 419 671Q474 621 474 542ZM280 393Q341 393 382.5 436Q424 479 424 540Q424 601 383 641Q342 681 280 681Q217 681 176 641Q135 601 135 540Q135 479 177 436Q219 393 280 393ZM280 26Q353 26 400 72.5Q447 119 447 190Q447 262 399 310Q351 358 280 358Q208 358 160 310Q112 262 112 190Q112 118 158.5 72Q205 26 280 26Z" glyph-name="eight" horiz-adv-x="560" unicode="8" /><glyph d="M439 315 252 0H194L399 337L398 338Q376 315 339.5 300.5Q303 286 266 286Q176 286 116.5 347.5Q57 409 57 502Q57 598 120 660Q183 722 280 722Q377 722 439.5 660.5Q502 599 502 503Q502 460 487.5 416Q473 372 439 315ZM276 326Q352 326 402.5 376.5Q453 427 453 503Q453 580 404.5 630Q356 680 280 680Q204 680 155 630Q106 580 106 503Q106 425 153.5 375.5Q201 326 276 326Z" glyph-name="nine" horiz-adv-x="560" unicode="9" /><glyph d="M302 721Q423 721 486.5 625Q550 529 550 354Q550 179 486.5 83Q423 -13 302 -13Q182 -13 118 83.5Q54 180 54 354Q54 527 118 624Q182 721 302 721ZM302 32Q398 32 448 116Q498 200 498 354Q498 508 448 591.5Q398 675 302 675Q207 675 156.5 590Q106 505 106 354Q106 202 156 117Q206 32 302 32Z" glyph-name="zero.plf" horiz-adv-x="606" unicode="" /><glyph d="M209 0 158 0V649Q126 612 96.5 587Q67 562 35 545L10 585Q45 604 81 633Q117 662 160 708H209Z" glyph-name="one.plf" horiz-adv-x="301" unicode="" /><glyph d="M58 0 58 46L306 313Q380 392 407 439Q434 486 434 530Q434 596 391.5 636Q349 676 280 676Q220 676 169.5 647.5Q119 619 75 560V626Q114 673 166.5 697Q219 721 283 721Q371 721 428 670Q485 619 485 539Q485 482 458 431Q431 380 338 280L120 45H491V0Z" glyph-name="two.plf" horiz-adv-x="562" unicode="" /><glyph d="M274 676Q219 676 174 654.5Q129 633 90 588V650Q124 685 171 703Q218 721 275 721Q364 721 419 672Q474 623 474 542Q474 477 434.5 432Q395 387 324 374V371Q406 356 452 307Q498 258 498 189Q498 97 438 42Q378 -13 274 -13Q209 -13 152 11.5Q95 36 61 77V150Q101 92 154.5 62.5Q208 33 276 31Q353 30 399.5 74.5Q446 119 446 192Q446 263 390 305.5Q334 348 251 348H195V392H252Q328 392 375.5 431Q423 470 423 538Q423 600 381.5 638Q340 676 274 676Z" glyph-name="three.plf" horiz-adv-x="566" unicode="" /><glyph d="M537 175 428 175V0H377V175H33V222Q88 341 171.5 465Q255 589 360 708H428V216H537ZM378 216 378 657H375Q286 557 210 443Q134 329 80 216Z" glyph-name="four.plf" horiz-adv-x="566" unicode="" /><glyph d="M264 -13Q200 -13 150.5 6Q101 25 66 63V127Q104 78 152.5 54Q201 30 262 30Q339 30 391.5 81.5Q444 133 444 217Q444 301 390.5 351Q337 401 245 401Q208 401 167 391Q126 381 91 363V708H464V664H138V419Q161 429 194.5 435Q228 441 262 441Q366 441 431 379Q496 317 496 218Q496 113 430.5 50Q365 -13 264 -13Z" glyph-name="five.plf" horiz-adv-x="547" unicode="" /><glyph d="M119 396 305 708H363L158 375L160 373Q182 396 218 410.5Q254 425 291 425Q380 425 440 362.5Q500 300 500 207Q500 110 437 48Q374 -14 277 -14Q180 -14 117.5 48Q55 110 55 206Q55 250 70 294.5Q85 339 119 396ZM282 385Q207 385 156 333.5Q105 282 105 205Q105 128 154 77.5Q203 27 278 27Q354 27 402.5 77Q451 127 451 206Q451 283 403 334Q355 385 282 385Z" glyph-name="six.plf" horiz-adv-x="551" unicode="" /><glyph d="M442 658 157 0H102L393 663H28V708H442Z" glyph-name="seven.plf" horiz-adv-x="478" unicode="" /><glyph d="M469 542Q469 487 438 442.5Q407 398 354 379V377Q421 356 457.5 306.5Q494 257 494 190Q494 99 433 43Q372 -13 275 -13Q178 -13 116.5 42.5Q55 98 55 189Q55 257 92 307Q129 357 195 376V379Q141 400 110.5 443.5Q80 487 80 542Q80 621 135 671Q190 721 275 721Q359 721 414 671Q469 621 469 542ZM275 393Q336 393 377.5 436Q419 479 419 540Q419 601 378 641Q337 681 275 681Q212 681 171 641Q130 601 130 540Q130 479 172 436Q214 393 275 393ZM275 26Q348 26 395 72.5Q442 119 442 190Q442 262 394 310Q346 358 275 358Q203 358 155 310Q107 262 107 190Q107 118 153.5 72Q200 26 275 26Z" glyph-name="eight.plf" horiz-adv-x="549" unicode="" /><glyph d="M435 315 248 0H190L395 337L394 338Q372 315 335.5 300.5Q299 286 262 286Q172 286 112.5 347.5Q53 409 53 502Q53 598 116 660Q179 722 276 722Q373 722 435.5 660.5Q498 599 498 503Q498 460 483.5 416Q469 372 435 315ZM272 326Q348 326 398.5 376.5Q449 427 449 503Q449 580 400.5 630Q352 680 276 680Q200 680 151 630Q102 580 102 503Q102 425 149.5 375.5Q197 326 272 326Z" glyph-name="nine.plf" horiz-adv-x="551" unicode="" /><glyph d="M280 721Q390 721 448 624.5Q506 528 506 354Q506 180 448 83.5Q390 -13 280 -13Q169 -13 111 83Q53 179 53 354Q53 529 111 625Q169 721 280 721ZM280 31Q365 31 409.5 114.5Q454 198 454 354Q454 509 409.5 592.5Q365 676 280 676Q194 676 149.5 592.5Q105 509 105 354Q105 198 149.5 114.5Q194 31 280 31Z" glyph-name="zero.tlf" horiz-adv-x="560" unicode="" /><glyph d="M333 0 282 0V648Q253 614 218.5 586.5Q184 559 143 537L122 578Q163 599 202.5 630.5Q242 662 284 708H333Z" glyph-name="one.tlf" horiz-adv-x="560" unicode="" /><glyph d="M55 0 55 47L301 321Q367 394 392 440Q417 486 417 530Q417 596 376.5 636.5Q336 677 271 677Q213 677 165.5 649Q118 621 72 560V626Q112 674 162 697.5Q212 721 275 721Q361 721 415 670.5Q469 620 469 540Q469 485 444 434.5Q419 384 333 289L115 45H474V0Z" glyph-name="two.tlf" horiz-adv-x="560" unicode="" /><glyph d="M262 677Q210 677 167 655.5Q124 634 84 588V650Q120 686 164.5 703.5Q209 721 264 721Q350 721 402 672.5Q454 624 454 542Q454 478 416 432Q378 386 312 374V371Q390 357 434 307.5Q478 258 478 189Q478 97 420 42Q362 -13 262 -13Q200 -13 145 11.5Q90 36 54 78V150Q95 91 147.5 61.5Q200 32 265 31Q338 29 382 74Q426 119 426 192Q426 263 372.5 305.5Q319 348 240 348H189V392H241Q312 392 357.5 431.5Q403 471 403 538Q403 600 363.5 638.5Q324 677 262 677Z" glyph-name="three.tlf" horiz-adv-x="560" unicode="" /><glyph d="M523 175 414 175V0H363V175H37V222Q88 330 167 454Q246 578 346 708H413V216H523ZM363 216 363 658H360Q275 545 202.5 430Q130 315 82 216Z" glyph-name="four.tlf" horiz-adv-x="560" unicode="" /><glyph d="M262 -13Q203 -13 155.5 6Q108 25 71 64V127Q112 76 157.5 52.5Q203 29 260 29Q335 29 385.5 81Q436 133 436 217Q436 300 384.5 350.5Q333 401 246 401Q211 401 172 391Q133 381 96 363V708H456V663H144V420Q166 430 196.5 435.5Q227 441 259 441Q362 441 425 379.5Q488 318 488 217Q488 113 423.5 50Q359 -13 262 -13Z" glyph-name="five.tlf" horiz-adv-x="560" unicode="" /><glyph d="M123 396 309 708H367L162 375L164 373Q186 396 222 410.5Q258 425 295 425Q384 425 444 362.5Q504 300 504 207Q504 110 441 48Q378 -14 281 -14Q184 -14 121.5 48Q59 110 59 206Q59 250 74 294.5Q89 339 123 396ZM286 385Q211 385 160 333.5Q109 282 109 205Q109 128 158 77.5Q207 27 282 27Q358 27 406.5 77Q455 127 455 206Q455 283 407 334Q359 385 286 385Z" glyph-name="six.tlf" horiz-adv-x="560" unicode="" /><glyph d="M473 658 182 0H127L425 663H65V708H473Z" glyph-name="seven.tlf" horiz-adv-x="560" unicode="" /><glyph d="M474 542Q474 487 443 442.5Q412 398 359 379V377Q426 356 462.5 306.5Q499 257 499 190Q499 99 438 43Q377 -13 280 -13Q183 -13 121.5 42.5Q60 98 60 189Q60 257 97 307Q134 357 200 376V379Q146 400 115.5 443.5Q85 487 85 542Q85 621 140 671Q195 721 280 721Q364 721 419 671Q474 621 474 542ZM280 393Q341 393 382.5 436Q424 479 424 540Q424 601 383 641Q342 681 280 681Q217 681 176 641Q135 601 135 540Q135 479 177 436Q219 393 280 393ZM280 26Q353 26 400 72.5Q447 119 447 190Q447 262 399 310Q351 358 280 358Q208 358 160 310Q112 262 112 190Q112 118 158.5 72Q205 26 280 26Z" glyph-name="eight.tlf" horiz-adv-x="560" unicode="" /><glyph d="M439 315 252 0H194L399 337L398 338Q376 315 339.5 300.5Q303 286 266 286Q176 286 116.5 347.5Q57 409 57 502Q57 598 120 660Q183 722 280 722Q377 722 439.5 660.5Q502 599 502 503Q502 460 487.5 416Q473 372 439 315ZM276 326Q352 326 402.5 376.5Q453 427 453 503Q453 580 404.5 630Q356 680 280 680Q204 680 155 630Q106 580 106 503Q106 425 153.5 375.5Q201 326 276 326Z" glyph-name="nine.tlf" horiz-adv-x="560" unicode="" /><glyph d="M297 505Q406 505 473 434Q540 363 540 248Q540 134 472 60Q404 -14 297 -14Q189 -14 121.5 58Q54 130 54 244Q54 358 122 431.5Q190 505 297 505ZM297 30Q382 30 435 91.5Q488 153 488 246Q488 339 435 400Q382 461 297 461Q212 461 159 400Q106 339 106 246Q106 153 159 91.5Q212 30 297 30Z" glyph-name="zero.posf" horiz-adv-x="595" unicode="" /><glyph d="M213 494 213 0H162V440Q131 404 100 377Q69 350 35 331L10 368Q45 387 81.5 417Q118 447 162 494Z" glyph-name="one.posf" horiz-adv-x="305" unicode="" /><glyph d="M236 461Q186 461 140.5 437.5Q95 414 48 363V422Q88 463 137 484Q186 505 242 505Q320 505 366 466Q412 427 412 357Q412 305 379.5 262Q347 219 218 125L110 47V44H427V0H36V49L178 151Q301 240 330.5 276.5Q360 313 360 355Q360 406 326.5 433.5Q293 461 236 461Z" glyph-name="two.posf" horiz-adv-x="479" unicode="" /><glyph d="M445 -32Q445 -125 388 -181.5Q331 -238 233 -238Q170 -238 114.5 -211Q59 -184 30 -140V-64Q64 -126 115.5 -159Q167 -192 229 -192Q305 -192 350 -147Q395 -102 395 -28Q395 42 340.5 85.5Q286 129 208 129H165V173H207Q279 173 324.5 213Q370 253 370 321Q370 383 330 422Q290 461 229 461Q178 461 136.5 437.5Q95 414 60 366V429Q90 466 134.5 485.5Q179 505 234 505Q315 505 367 455.5Q419 406 419 327Q419 259 381.5 212.5Q344 166 276 153V151Q355 137 400 88Q445 39 445 -32Z" glyph-name="three.posf" horiz-adv-x="491" unicode="" /><glyph d="M504 42 504 0H396V-226H346V0H19V51Q69 149 144.5 255.5Q220 362 333 493H396V42ZM67 42 346 42V435H343Q241 313 175 218.5Q109 124 67 42Z" glyph-name="four.posf" horiz-adv-x="493" unicode="" /><glyph d="M246 224Q346 224 408.5 161Q471 98 471 -2Q471 -107 405.5 -172.5Q340 -238 243 -238Q182 -238 133.5 -215.5Q85 -193 49 -149V-85Q84 -140 131 -166.5Q178 -193 239 -193Q315 -193 367 -140.5Q419 -88 419 -3Q419 80 366.5 131Q314 182 226 182Q191 182 152 171.5Q113 161 81 143V493H441V449H129V202Q151 212 183 218Q215 224 246 224Z" glyph-name="five.posf" horiz-adv-x="519" unicode="" /><glyph d="M495 206Q495 111 432.5 49.5Q370 -12 273 -12Q176 -12 115 48.5Q54 109 54 206Q54 252 69.5 298Q85 344 119 399L299 708H359L172 396Q197 412 225 420Q253 428 282 428Q373 428 434 364.5Q495 301 495 206ZM278 386Q206 386 155 333.5Q104 281 104 206Q104 129 152 79Q200 29 274 29Q348 29 396 79Q444 129 444 206Q444 283 396.5 334.5Q349 386 278 386Z" glyph-name="six.posf" horiz-adv-x="540" unicode="" /><glyph d="M13 493 414 493V444L122 -226H66L363 451H13Z" glyph-name="seven.posf" horiz-adv-x="450" unicode="" /><glyph d="M466 542Q466 487 435 442.5Q404 398 351 379V377Q418 356 454.5 306.5Q491 257 491 190Q491 99 430 43Q369 -13 272 -13Q175 -13 113.5 42.5Q52 98 52 189Q52 257 89 307Q126 357 192 376V379Q138 400 107.5 443.5Q77 487 77 542Q77 621 132 671Q187 721 272 721Q356 721 411 671Q466 621 466 542ZM272 393Q333 393 374.5 436Q416 479 416 540Q416 601 375 641Q334 681 272 681Q209 681 168 641Q127 601 127 540Q127 479 169 436Q211 393 272 393ZM272 26Q345 26 392 72.5Q439 119 439 190Q439 262 391 310Q343 358 272 358Q200 358 152 310Q104 262 104 190Q104 118 150.5 72Q197 26 272 26Z" glyph-name="eight.posf" horiz-adv-x="548" unicode="" /><glyph d="M420 98 231 -226H172L368 102Q343 86 314.5 77Q286 68 257 68Q166 68 105 130Q44 192 44 287Q44 382 106.5 443.5Q169 505 266 505Q363 505 424 444.5Q485 384 485 287Q485 243 470 199.5Q455 156 420 98ZM262 109Q333 109 384 160.5Q435 212 435 287Q435 364 387 413.5Q339 463 265 463Q190 463 142.5 413.5Q95 364 95 287Q95 210 142 159.5Q189 109 262 109Z" glyph-name="nine.posf" horiz-adv-x="540" unicode="" /><glyph d="M280 505Q387 505 453 433.5Q519 362 519 248Q519 134 452 60Q385 -14 280 -14Q173 -14 106.5 57.5Q40 129 40 244Q40 358 107 431.5Q174 505 280 505ZM280 30Q363 30 415 91.5Q467 153 467 246Q467 339 415.5 400Q364 461 280 461Q196 461 144 400Q92 339 92 246Q92 152 144 91Q196 30 280 30Z" glyph-name="zero.tosf" horiz-adv-x="560" unicode="" /><glyph d="M330 494 330 0H279V440Q248 404 217 377Q186 350 152 331L127 368Q162 387 198.5 417Q235 447 279 494Z" glyph-name="one.tosf" horiz-adv-x="560" unicode="" /><glyph d="M283 461Q233 461 187.5 437.5Q142 414 95 363V422Q135 463 184 484Q233 505 289 505Q367 505 413 466Q459 427 459 357Q459 305 426.5 262Q394 219 265 125L157 47V44H474V0H83V49L225 151Q348 240 377.5 276.5Q407 313 407 355Q407 406 373.5 433.5Q340 461 283 461Z" glyph-name="two.tosf" horiz-adv-x="560" unicode="" /><glyph d="M474 -32Q474 -125 417 -181.5Q360 -238 262 -238Q199 -238 143.5 -211Q88 -184 59 -140V-64Q93 -126 144.5 -159Q196 -192 258 -192Q334 -192 379 -147Q424 -102 424 -28Q424 42 369.5 85.5Q315 129 237 129H194V173H236Q308 173 353.5 213Q399 253 399 321Q399 383 359 422Q319 461 258 461Q207 461 165.5 437.5Q124 414 89 366V429Q119 466 163.5 485.5Q208 505 263 505Q344 505 396 455.5Q448 406 448 327Q448 259 410.5 212.5Q373 166 305 153V151Q384 137 429 88Q474 39 474 -32Z" glyph-name="three.tosf" horiz-adv-x="560" unicode="" /><glyph d="M519 42 519 0H411V-226H361V0H34V51Q84 149 159.5 255.5Q235 362 348 493H411V42ZM82 42 361 42V435H358Q256 313 190 218.5Q124 124 82 42Z" glyph-name="four.tosf" horiz-adv-x="560" unicode="" /><glyph d="M259 224Q359 224 421.5 161Q484 98 484 -2Q484 -107 418.5 -172.5Q353 -238 256 -238Q195 -238 146.5 -215.5Q98 -193 62 -149V-85Q97 -140 144 -166.5Q191 -193 252 -193Q328 -193 380 -140.5Q432 -88 432 -3Q432 80 379.5 131Q327 182 239 182Q204 182 165 171.5Q126 161 94 143V493H454V449H142V202Q164 212 196 218Q228 224 259 224Z" glyph-name="five.tosf" horiz-adv-x="560" unicode="" /><glyph d="M500 206Q500 111 437.5 49.5Q375 -12 278 -12Q181 -12 120 48.5Q59 109 59 206Q59 252 74.5 298Q90 344 124 399L304 708H364L177 396Q202 412 230 420Q258 428 287 428Q378 428 439 364.5Q500 301 500 206ZM283 386Q211 386 160 333.5Q109 281 109 206Q109 129 157 79Q205 29 279 29Q353 29 401 79Q449 129 449 206Q449 283 401.5 334.5Q354 386 283 386Z" glyph-name="six.tosf" horiz-adv-x="560" unicode="" /><glyph d="M70 493 471 493V444L179 -226H123L420 451H70Z" glyph-name="seven.tosf" horiz-adv-x="560" unicode="" /><glyph d="M474 542Q474 487 443 442.5Q412 398 359 379V377Q426 356 462.5 306.5Q499 257 499 190Q499 99 438 43Q377 -13 280 -13Q183 -13 121.5 42.5Q60 98 60 189Q60 257 97 307Q134 357 200 376V379Q146 400 115.5 443.5Q85 487 85 542Q85 621 140 671Q195 721 280 721Q364 721 419 671Q474 621 474 542ZM280 393Q341 393 382.5 436Q424 479 424 540Q424 601 383 641Q342 681 280 681Q217 681 176 641Q135 601 135 540Q135 479 177 436Q219 393 280 393ZM280 26Q353 26 400 72.5Q447 119 447 190Q447 262 399 310Q351 358 280 358Q208 358 160 310Q112 262 112 190Q112 118 158.5 72Q205 26 280 26Z" glyph-name="eight.tosf" horiz-adv-x="560" unicode="" /><glyph d="M434 98 245 -226H186L382 102Q357 86 328.5 77Q300 68 271 68Q180 68 119 130Q58 192 58 287Q58 382 120.5 443.5Q183 505 280 505Q377 505 438 444.5Q499 384 499 287Q499 243 484 199.5Q469 156 434 98ZM276 109Q347 109 398 160.5Q449 212 449 287Q449 364 401 413.5Q353 463 279 463Q204 463 156.5 413.5Q109 364 109 287Q109 210 156 159.5Q203 109 276 109Z" glyph-name="nine.tosf" horiz-adv-x="560" unicode="" /><glyph d="M280 721Q390 721 448 624.5Q506 528 506 354Q506 180 448 83.5Q390 -13 280 -13Q169 -13 111 83Q53 179 53 354Q53 529 111 625Q169 721 280 721ZM280 31Q365 31 409.5 114.5Q454 198 454 354Q454 509 409.5 592.5Q365 676 280 676Q194 676 149.5 592.5Q105 509 105 354Q105 198 149.5 114.5Q194 31 280 31Z" glyph-name="zero.alt" horiz-adv-x="560" unicode="" /><glyph d="M333 0 282 0V648Q253 614 218.5 586.5Q184 559 143 537L122 578Q163 599 202.5 630.5Q242 662 284 708H333Z" glyph-name="one.alt" horiz-adv-x="560" unicode="" /><glyph d="M271 677Q213 677 164 648.5Q115 620 70 560V626Q106 672 158 696.5Q210 721 273 721Q360 721 414.5 671Q469 621 469 542Q469 494 451.5 450Q434 406 398 365Q379 343 354.5 321Q330 299 250 238Q161 169 136 134.5Q111 100 111 45H475V0H57V27Q57 103 87.5 149Q118 195 217 269Q336 358 376 414Q416 470 416 532Q416 598 376 637.5Q336 677 271 677Z" glyph-name="two.alt" horiz-adv-x="560" unicode="" /><glyph d="M262 677Q210 677 167 655.5Q124 634 84 588V650Q120 686 164.5 703.5Q209 721 264 721Q350 721 402 672.5Q454 624 454 542Q454 478 416 432Q378 386 312 374V371Q390 357 434 307.5Q478 258 478 189Q478 97 420 42Q362 -13 262 -13Q200 -13 145 11.5Q90 36 54 78V150Q95 91 147.5 61.5Q200 32 265 31Q338 29 382 74Q426 119 426 192Q426 263 372.5 305.5Q319 348 240 348H189V392H241Q312 392 357.5 431.5Q403 471 403 538Q403 600 363.5 638.5Q324 677 262 677Z" glyph-name="three.alt" horiz-adv-x="560" unicode="" /><glyph d="M523 175 414 175V0H363V175H37V222Q88 330 167 454Q246 578 346 708H413V216H523ZM363 216 363 658H360Q275 545 202.5 430Q130 315 82 216Z" glyph-name="four.alt" horiz-adv-x="560" unicode="" /><glyph d="M262 -13Q203 -13 155.5 6Q108 25 71 64V127Q112 76 157.5 52.5Q203 29 260 29Q335 29 385.5 81Q436 133 436 217Q436 300 384.5 350.5Q333 401 246 401Q211 401 172 391Q133 381 96 363V708H456V663H144V420Q166 430 196.5 435.5Q227 441 259 441Q362 441 425 379.5Q488 318 488 217Q488 113 423.5 50Q359 -13 262 -13Z" glyph-name="five.alt" horiz-adv-x="560" unicode="" /><glyph d="M501 210Q501 112 438.5 49.5Q376 -13 278 -13Q180 -13 119 50.5Q58 114 58 217Q58 350 146.5 477Q235 604 410 720L437 684Q331 613 258.5 537.5Q186 462 149 384Q183 405 217.5 415.5Q252 426 286 426Q379 426 440 366Q501 306 501 210ZM110 220Q110 133 156.5 81.5Q203 30 279 30Q354 30 401.5 80.5Q449 131 449 209Q449 286 400 334.5Q351 383 276 383Q238 383 202.5 370.5Q167 358 127 329Q118 300 114 273Q110 246 110 220Z" glyph-name="six.alt" horiz-adv-x="560" unicode="" /><glyph d="M362 387Q296 260 258 164.5Q220 69 208 0H155Q166 69 202.5 160.5Q239 252 321 408Q375 509 398.5 569Q422 629 422 663H65V708H474V683Q474 637 451 573.5Q428 510 362 387Z" glyph-name="seven.alt" horiz-adv-x="560" unicode="" /><glyph d="M499 190Q499 99 438 43Q377 -13 280 -13Q183 -13 121.5 42.5Q60 98 60 188Q60 250 97.5 301.5Q135 353 200 380Q141 405 113 445Q85 485 85 542Q85 621 140 671Q195 721 280 721Q364 721 419 671.5Q474 622 474 544Q474 492 443.5 448.5Q413 405 357 376Q429 347 464 301Q499 255 499 190ZM135 541Q135 486 172 451.5Q209 417 290 397Q299 395 304.5 393.5Q310 392 315 390Q365 412 394.5 452Q424 492 424 541Q424 601 383 640.5Q342 680 280 680Q217 680 176 640.5Q135 601 135 541ZM112 190Q112 118 158.5 72.5Q205 27 280 27Q354 27 400.5 73Q447 119 447 189Q447 251 401 294.5Q355 338 266 359Q262 360 257.5 361.5Q253 363 244 365Q183 342 147.5 296Q112 250 112 190Z" glyph-name="eight.alt" horiz-adv-x="560" unicode="" /><glyph d="M501 495Q501 356 416.5 227.5Q332 99 168 -12L141 23Q243 92 312 168.5Q381 245 415 326Q386 305 349.5 294Q313 283 273 283Q180 283 119 342.5Q58 402 58 497Q58 595 121 658Q184 721 281 721Q378 721 439.5 658Q501 595 501 495ZM110 498Q110 421 158.5 373.5Q207 326 283 326Q323 326 358.5 339Q394 352 435 383Q442 410 445.5 436Q449 462 449 486Q449 573 402.5 625Q356 677 281 677Q206 677 158 626.5Q110 576 110 498Z" glyph-name="nine.alt" horiz-adv-x="560" unicode="" /><glyph d="M280 505Q387 505 453 433.5Q519 362 519 248Q519 134 452 60Q385 -14 280 -14Q173 -14 106.5 57.5Q40 129 40 244Q40 358 107 431.5Q174 505 280 505ZM280 30Q363 30 415 91.5Q467 153 467 246Q467 339 415.5 400Q364 461 280 461Q196 461 144 400Q92 339 92 246Q92 152 144 91Q196 30 280 30Z" glyph-name="zero.tosf.alt" horiz-adv-x="560" unicode="" /><glyph d="M330 494 330 0H279V440Q248 404 217 377Q186 350 152 331L127 368Q162 387 198.5 417Q235 447 279 494Z" glyph-name="one.tosf.alt" horiz-adv-x="560" unicode="" /><glyph d="M136 46 136 44H473V0H81V21Q81 70 107.5 104.5Q134 139 193 167L274 205Q345 239 375.5 272Q406 305 406 352Q406 405 373.5 433Q341 461 283 461Q233 461 187.5 438Q142 415 93 363V421Q136 464 184 484.5Q232 505 289 505Q369 505 413.5 465.5Q458 426 458 353Q458 293 421.5 250Q385 207 304 170L230 136Q180 113 158 92.5Q136 72 136 46Z" glyph-name="two.tosf.alt" horiz-adv-x="560" unicode="" /><glyph d="M474 -32Q474 -125 417 -181.5Q360 -238 262 -238Q199 -238 143.5 -211Q88 -184 59 -140V-64Q93 -126 144.5 -159Q196 -192 258 -192Q334 -192 379 -147Q424 -102 424 -28Q424 42 369.5 85.5Q315 129 237 129H194V173H236Q308 173 353.5 213Q399 253 399 321Q399 383 359 422Q319 461 258 461Q207 461 165.5 437.5Q124 414 89 366V429Q119 466 163.5 485.5Q208 505 263 505Q344 505 396 455.5Q448 406 448 327Q448 259 410.5 212.5Q373 166 305 153V151Q384 137 429 88Q474 39 474 -32Z" glyph-name="three.tosf.alt" horiz-adv-x="560" unicode="" /><glyph d="M519 42 519 0H411V-226H361V0H34V51Q84 149 159.5 255.5Q235 362 348 493H411V42ZM82 42 361 42V435H358Q256 313 190 218.5Q124 124 82 42Z" glyph-name="four.tosf.alt" horiz-adv-x="560" unicode="" /><glyph d="M259 224Q359 224 421.5 161Q484 98 484 -2Q484 -107 418.5 -172.5Q353 -238 256 -238Q195 -238 146.5 -215.5Q98 -193 62 -149V-85Q97 -140 144 -166.5Q191 -193 252 -193Q328 -193 380 -140.5Q432 -88 432 -3Q432 80 379.5 131Q327 182 239 182Q204 182 165 171.5Q126 161 94 143V493H454V449H142V202Q164 212 196 218Q228 224 259 224Z" glyph-name="five.tosf.alt" horiz-adv-x="560" unicode="" /><glyph d="M501 210Q501 112 438.5 49.5Q376 -13 278 -13Q180 -13 119 50.5Q58 114 58 217Q58 350 146.5 477Q235 604 410 720L437 684Q331 613 258.5 537.5Q186 462 149 384Q183 405 217.5 415.5Q252 426 286 426Q379 426 440 366Q501 306 501 210ZM110 220Q110 133 156.5 81.5Q203 30 279 30Q354 30 401.5 80.5Q449 131 449 209Q449 286 400 334.5Q351 383 276 383Q238 383 202.5 370.5Q167 358 127 329Q118 300 114 273Q110 246 110 220Z" glyph-name="six.tosf.alt" horiz-adv-x="560" unicode="" /><glyph d="M359 168Q293 41 255 -56Q217 -153 205 -226H150Q162 -151 199.5 -55.5Q237 40 316 190Q370 289 394.5 351Q419 413 419 448H65V492H474V466Q474 421 451.5 359Q429 297 359 168Z" glyph-name="seven.tosf.alt" horiz-adv-x="560" unicode="" /><glyph d="M499 190Q499 99 438 43Q377 -13 280 -13Q183 -13 121.5 42.5Q60 98 60 188Q60 250 97.5 301.5Q135 353 200 380Q141 405 113 445Q85 485 85 542Q85 621 140 671Q195 721 280 721Q364 721 419 671.5Q474 622 474 544Q474 492 443.5 448.5Q413 405 357 376Q429 347 464 301Q499 255 499 190ZM135 541Q135 486 172 451.5Q209 417 290 397Q299 395 304.5 393.5Q310 392 315 390Q365 412 394.5 452Q424 492 424 541Q424 601 383 640.5Q342 680 280 680Q217 680 176 640.5Q135 601 135 541ZM112 190Q112 118 158.5 72.5Q205 27 280 27Q354 27 400.5 73Q447 119 447 189Q447 251 401 294.5Q355 338 266 359Q262 360 257.5 361.5Q253 363 244 365Q183 342 147.5 296Q112 250 112 190Z" glyph-name="eight.tosf.alt" horiz-adv-x="560" unicode="" /><glyph d="M500 279Q500 135 416 5Q332 -125 168 -237L133 -203Q240 -132 312 -51.5Q384 29 419 116Q385 94 348 82.5Q311 71 273 71Q179 71 118.5 129.5Q58 188 58 282Q58 380 120.5 442.5Q183 505 281 505Q378 505 439 442.5Q500 380 500 279ZM110 282Q110 205 158.5 157Q207 109 283 109Q322 109 358 122.5Q394 136 436 168Q442 192 445.5 217.5Q449 243 449 269Q449 357 402.5 409Q356 461 281 461Q206 461 158 410.5Q110 360 110 282Z" glyph-name="nine.tosf.alt" horiz-adv-x="560" unicode="" /><glyph d="M52 568Q52 630 96 674Q140 718 202 718Q265 718 309 674Q353 630 353 568Q353 505 309 461.5Q265 418 202 418Q139 418 95.5 461.5Q52 505 52 568ZM82 568Q82 518 117 482.5Q152 447 202 447Q252 447 287.5 482.5Q323 518 323 568Q323 618 287.5 653.5Q252 689 202 689Q153 689 117.5 653.5Q82 618 82 568Z" glyph-name="degree" horiz-adv-x="406" unicode="°" /><glyph d="M653 718 215 -28L181 -9L619 737ZM212 716Q280 716 328 668Q376 620 376 551Q376 482 328 434Q280 386 212 386Q143 386 95.5 434Q48 482 48 551Q48 620 96 668Q144 716 212 716ZM212 428Q262 428 297 464Q332 500 332 551Q332 602 297 638Q262 674 212 674Q162 674 127 638Q92 602 92 551Q92 500 127 464Q162 428 212 428ZM625 320Q693 320 741 272Q789 224 789 155Q789 86 741 38.5Q693 -9 625 -9Q556 -9 508.5 38.5Q461 86 461 155Q461 224 509 272Q557 320 625 320ZM625 32Q675 32 710 68Q745 104 745 155Q745 206 710 242Q675 278 625 278Q575 278 540 242Q505 206 505 155Q505 104 540 68Q575 32 625 32Z" glyph-name="percent" horiz-adv-x="838" unicode="%" /><glyph d="M579 715 121 -26L90 -8L549 734ZM192 719Q255 719 299 674.5Q343 630 343 567Q343 504 299 460Q255 416 192 416Q129 416 85.5 460Q42 504 42 567Q42 630 85.5 674.5Q129 719 192 719ZM192 455Q238 455 270 487.5Q302 520 302 567Q302 614 270 646.5Q238 679 192 679Q146 679 115 646.5Q84 614 84 567Q84 520 115 487.5Q146 455 192 455ZM832 295Q895 295 939 250.5Q983 206 983 143Q983 80 939 36.5Q895 -7 832 -7Q769 -7 725.5 36.5Q682 80 682 143Q682 206 725.5 250.5Q769 295 832 295ZM487 295Q550 295 594 250.5Q638 206 638 143Q638 80 594 36.5Q550 -7 487 -7Q424 -7 380.5 36.5Q337 80 337 143Q337 206 380.5 250.5Q424 295 487 295ZM832 31Q878 31 910 63.5Q942 96 942 143Q942 190 910 222.5Q878 255 832 255Q786 255 755 222.5Q724 190 724 143Q724 96 755 63.5Q786 31 832 31ZM487 31Q533 31 565 63.5Q597 96 597 143Q597 190 565 222.5Q533 255 487 255Q441 255 409.5 222.5Q378 190 378 143Q378 96 409.5 63.5Q441 31 487 31Z" glyph-name="perthousand" horiz-adv-x="1021" unicode="‰" /><glyph d="M282 720 -142 -27L-171 -11L252 736Z" glyph-name="fraction" horiz-adv-x="110" unicode="⁄" /><glyph d="M282 720 -142 -27L-171 -11L252 736Z" glyph-name="uni2215" horiz-adv-x="110" unicode="∕" /><glyph d="M171 721Q239 721 275.5 662Q312 603 312 498Q312 394 275.5 335.5Q239 277 171 277Q103 277 66.5 335.5Q30 394 30 498Q30 603 66.5 662Q103 721 171 721ZM171 313Q219 313 244 361Q269 409 269 498Q269 588 244 635.5Q219 683 171 683Q123 683 98 636Q73 589 73 498Q73 408 98 360.5Q123 313 171 313Z" glyph-name="zerosuperior" horiz-adv-x="343" unicode="⁰" /><glyph d="M212 285 169 285V667Q149 644 129 627.5Q109 611 88 601L67 630Q94 645 120 665Q146 685 172 712H212Z" glyph-name="onesuperior" horiz-adv-x="343" unicode="¹" /><glyph d="M32 285 32 320L181 481Q220 524 234.5 550Q249 576 249 601Q249 638 226 660.5Q203 683 166 683Q130 683 99 665.5Q68 648 42 613V661Q64 690 96.5 705.5Q129 721 167 721Q221 721 256 689Q291 657 291 607Q291 574 276.5 545Q262 516 209 456L88 320H295V285Z" glyph-name="twosuperior" horiz-adv-x="343" unicode="²" /><glyph d="M161 684Q128 684 100 671Q72 658 48 633V678Q69 698 99 709.5Q129 721 162 721Q217 721 249.5 691Q282 661 282 610Q282 571 260.5 544.5Q239 518 200 510V509Q245 501 271 471Q297 441 297 400Q297 344 260 310.5Q223 277 161 277Q123 277 88.5 291Q54 305 32 329V381Q57 348 90 330.5Q123 313 163 312Q204 312 229 337Q254 362 254 403Q254 444 223.5 468Q193 492 147 492H112V523H148Q189 523 215 545.5Q241 568 241 606Q241 641 218.5 662.5Q196 684 161 684Z" glyph-name="threesuperior" horiz-adv-x="343" unicode="³" /><glyph d="M321 386 259 386V285H217V386H19V424Q49 488 98 564Q147 640 205 712H259V421H321ZM217 421 217 671H215Q165 605 124 540Q83 475 57 421Z" glyph-name="foursuperior" horiz-adv-x="343" unicode="⁴" /><glyph d="M162 277Q124 277 92 289Q60 301 37 324V370Q62 341 92 326.5Q122 312 159 312Q203 312 231.5 341Q260 370 260 417Q260 465 230.5 493.5Q201 522 150 522Q127 522 101.5 517Q76 512 56 503V712H282V677H95V538Q108 544 127 547.5Q146 551 166 551Q227 551 264.5 514Q302 477 302 417Q302 353 262.5 315Q223 277 162 277Z" glyph-name="fivesuperior" horiz-adv-x="343" unicode="⁵" /><glyph d="M75 533 183 712H233L112 516L113 515Q124 529 144.5 538Q165 547 187 547Q238 547 273.5 508.5Q309 470 309 413Q309 352 270.5 314.5Q232 277 171 277Q109 277 71 314.5Q33 352 33 413Q33 440 43.5 469.5Q54 499 75 533ZM173 514Q132 514 104 485Q76 456 76 413Q76 369 102.5 340.5Q129 312 171 312Q213 312 239.5 340.5Q266 369 266 413Q266 457 239.5 485.5Q213 514 173 514Z" glyph-name="sixsuperior" horiz-adv-x="343" unicode="⁶" /><glyph d="M294 678 126 285H80L252 676H37V712H294Z" glyph-name="sevensuperior" horiz-adv-x="343" unicode="⁷" /><glyph d="M293 610Q293 577 274.5 550.5Q256 524 225 512V511Q264 499 286 469.5Q308 440 308 400Q308 344 270 310.5Q232 277 171 277Q110 277 72 310.5Q34 344 34 400Q34 440 56.5 469.5Q79 499 118 511V512Q86 525 67 551.5Q48 578 48 610Q48 659 82.5 690Q117 721 171 721Q224 721 258.5 690Q293 659 293 610ZM171 525Q205 525 229 549.5Q253 574 253 608Q253 642 229.5 664.5Q206 687 171 687Q136 687 113 665Q90 643 90 608Q90 574 113.5 549.5Q137 525 171 525ZM171 308Q213 308 239.5 334.5Q266 361 266 401Q266 441 238.5 468Q211 495 171 495Q131 495 104 468.5Q77 442 77 401Q77 361 103.5 334.5Q130 308 171 308Z" glyph-name="eightsuperior" horiz-adv-x="343" unicode="⁸" /><glyph d="M268 465 158 285H109L231 483L229 484Q218 469 198 460.5Q178 452 157 452Q105 452 69 489.5Q33 527 33 583Q33 644 72 682.5Q111 721 171 721Q232 721 270.5 683.5Q309 646 309 584Q309 557 299.5 528.5Q290 500 268 465ZM169 484Q210 484 238 512.5Q266 541 266 584Q266 628 239.5 656Q213 684 171 684Q129 684 102.5 656Q76 628 76 584Q76 540 102.5 512Q129 484 169 484Z" glyph-name="ninesuperior" horiz-adv-x="343" unicode="⁹" /><glyph d="M212 285 169 285V667Q149 644 129 627.5Q109 611 88 601L67 630Q94 645 120 665Q146 685 172 712H212ZM614 720 190 -27L161 -11L584 736ZM486 0 486 35L635 196Q674 239 688.5 265Q703 291 703 316Q703 353 680 375.5Q657 398 620 398Q584 398 553 380.5Q522 363 496 328V376Q518 405 550.5 420.5Q583 436 621 436Q675 436 710 404Q745 372 745 322Q745 289 730.5 260Q716 231 663 171L542 35H749V0Z" glyph-name="onehalf" horiz-adv-x="797" unicode="½" /><glyph d="M212 285 169 285V667Q149 644 129 627.5Q109 611 88 601L67 630Q94 645 120 665Q146 685 172 712H212ZM629 720 205 -27L176 -11L599 736ZM775 101 713 101V0H671V101H473V139Q503 203 552 279Q601 355 659 427H713V136H775ZM671 136 671 386H669Q619 320 578 255Q537 190 511 136Z" glyph-name="onequarter" horiz-adv-x="797" unicode="¼" /><glyph d="M161 684Q128 684 100 671Q72 658 48 633V678Q69 698 99 709.5Q129 721 162 721Q217 721 249.5 691Q282 661 282 610Q282 571 260.5 544.5Q239 518 200 510V509Q245 501 271 471Q297 441 297 400Q297 344 260 310.5Q223 277 161 277Q123 277 88.5 291Q54 305 32 329V381Q57 348 90 330.5Q123 313 163 312Q204 312 229 337Q254 362 254 403Q254 444 223.5 468Q193 492 147 492H112V523H148Q189 523 215 545.5Q241 568 241 606Q241 641 218.5 662.5Q196 684 161 684ZM649 720 225 -27L196 -11L619 736ZM775 101 713 101V0H671V101H473V139Q503 203 552 279Q601 355 659 427H713V136H775ZM671 136 671 386H669Q619 320 578 255Q537 190 511 136Z" glyph-name="threequarters" horiz-adv-x="797" unicode="¾" /><glyph d="M212 285 169 285V667Q149 644 129 627.5Q109 611 88 601L67 630Q94 645 120 665Q146 685 172 712H212ZM618 720 194 -27L165 -11L588 736ZM615 399Q582 399 554 386Q526 373 502 348V393Q523 413 553 424.5Q583 436 616 436Q671 436 703.5 406Q736 376 736 325Q736 286 714.5 259.5Q693 233 654 225V224Q699 216 725 186Q751 156 751 115Q751 59 714 25.5Q677 -8 615 -8Q577 -8 542.5 6Q508 20 486 44V96Q511 63 544 45.5Q577 28 617 27Q658 27 683 52Q708 77 708 118Q708 159 677.5 183Q647 207 601 207H566V238H602Q643 238 669 260.5Q695 283 695 321Q695 356 672.5 377.5Q650 399 615 399Z" glyph-name="onethird" horiz-adv-x="797" unicode="⅓" /><glyph d="M32 285 32 320L181 481Q220 524 234.5 550Q249 576 249 601Q249 638 226 660.5Q203 683 166 683Q130 683 99 665.5Q68 648 42 613V661Q64 690 96.5 705.5Q129 721 167 721Q221 721 256 689Q291 657 291 607Q291 574 276.5 545Q262 516 209 456L88 320H295V285ZM635 720 211 -27L182 -11L605 736ZM615 399Q582 399 554 386Q526 373 502 348V393Q523 413 553 424.5Q583 436 616 436Q671 436 703.5 406Q736 376 736 325Q736 286 714.5 259.5Q693 233 654 225V224Q699 216 725 186Q751 156 751 115Q751 59 714 25.5Q677 -8 615 -8Q577 -8 542.5 6Q508 20 486 44V96Q511 63 544 45.5Q577 28 617 27Q658 27 683 52Q708 77 708 118Q708 159 677.5 183Q647 207 601 207H566V238H602Q643 238 669 260.5Q695 283 695 321Q695 356 672.5 377.5Q650 399 615 399Z" glyph-name="twothirds" horiz-adv-x="797" unicode="⅔" /><glyph d="M212 285 169 285V667Q149 644 129 627.5Q109 611 88 601L67 630Q94 645 120 665Q146 685 172 712H212ZM614 720 190 -27L161 -11L584 736ZM747 325Q747 292 728.5 265.5Q710 239 679 227V226Q718 214 740 184.5Q762 155 762 115Q762 59 724 25.5Q686 -8 625 -8Q564 -8 526 25.5Q488 59 488 115Q488 155 510.5 184.5Q533 214 572 226V227Q540 240 521 266.5Q502 293 502 325Q502 374 536.5 405Q571 436 625 436Q678 436 712.5 405Q747 374 747 325ZM625 240Q659 240 683 264.5Q707 289 707 323Q707 357 683.5 379.5Q660 402 625 402Q590 402 567 380Q544 358 544 323Q544 289 567.5 264.5Q591 240 625 240ZM625 23Q667 23 693.5 49.5Q720 76 720 116Q720 156 692.5 183Q665 210 625 210Q585 210 558 183.5Q531 157 531 116Q531 76 557.5 49.5Q584 23 625 23Z" glyph-name="oneeighth" horiz-adv-x="797" unicode="⅛" /><glyph d="M161 684Q128 684 100 671Q72 658 48 633V678Q69 698 99 709.5Q129 721 162 721Q217 721 249.5 691Q282 661 282 610Q282 571 260.5 544.5Q239 518 200 510V509Q245 501 271 471Q297 441 297 400Q297 344 260 310.5Q223 277 161 277Q123 277 88.5 291Q54 305 32 329V381Q57 348 90 330.5Q123 313 163 312Q204 312 229 337Q254 362 254 403Q254 444 223.5 468Q193 492 147 492H112V523H148Q189 523 215 545.5Q241 568 241 606Q241 641 218.5 662.5Q196 684 161 684ZM625 720 201 -27L172 -11L595 736ZM747 325Q747 292 728.5 265.5Q710 239 679 227V226Q718 214 740 184.5Q762 155 762 115Q762 59 724 25.5Q686 -8 625 -8Q564 -8 526 25.5Q488 59 488 115Q488 155 510.5 184.5Q533 214 572 226V227Q540 240 521 266.5Q502 293 502 325Q502 374 536.5 405Q571 436 625 436Q678 436 712.5 405Q747 374 747 325ZM625 240Q659 240 683 264.5Q707 289 707 323Q707 357 683.5 379.5Q660 402 625 402Q590 402 567 380Q544 358 544 323Q544 289 567.5 264.5Q591 240 625 240ZM625 23Q667 23 693.5 49.5Q720 76 720 116Q720 156 692.5 183Q665 210 625 210Q585 210 558 183.5Q531 157 531 116Q531 76 557.5 49.5Q584 23 625 23Z" glyph-name="threeeighths" horiz-adv-x="797" unicode="⅜" /><glyph d="M162 277Q124 277 92 289Q60 301 37 324V370Q62 341 92 326.5Q122 312 159 312Q203 312 231.5 341Q260 370 260 417Q260 465 230.5 493.5Q201 522 150 522Q127 522 101.5 517Q76 512 56 503V712H282V677H95V538Q108 544 127 547.5Q146 551 166 551Q227 551 264.5 514Q302 477 302 417Q302 353 262.5 315Q223 277 162 277ZM625 720 201 -27L172 -11L595 736ZM747 325Q747 292 728.5 265.5Q710 239 679 227V226Q718 214 740 184.5Q762 155 762 115Q762 59 724 25.5Q686 -8 625 -8Q564 -8 526 25.5Q488 59 488 115Q488 155 510.5 184.5Q533 214 572 226V227Q540 240 521 266.5Q502 293 502 325Q502 374 536.5 405Q571 436 625 436Q678 436 712.5 405Q747 374 747 325ZM625 240Q659 240 683 264.5Q707 289 707 323Q707 357 683.5 379.5Q660 402 625 402Q590 402 567 380Q544 358 544 323Q544 289 567.5 264.5Q591 240 625 240ZM625 23Q667 23 693.5 49.5Q720 76 720 116Q720 156 692.5 183Q665 210 625 210Q585 210 558 183.5Q531 157 531 116Q531 76 557.5 49.5Q584 23 625 23Z" glyph-name="fiveeighths" horiz-adv-x="797" unicode="⅝" /><glyph d="M294 678 126 285H80L252 676H37V712H294ZM594 720 170 -27L141 -11L564 736ZM747 325Q747 292 728.5 265.5Q710 239 679 227V226Q718 214 740 184.5Q762 155 762 115Q762 59 724 25.5Q686 -8 625 -8Q564 -8 526 25.5Q488 59 488 115Q488 155 510.5 184.5Q533 214 572 226V227Q540 240 521 266.5Q502 293 502 325Q502 374 536.5 405Q571 436 625 436Q678 436 712.5 405Q747 374 747 325ZM625 240Q659 240 683 264.5Q707 289 707 323Q707 357 683.5 379.5Q660 402 625 402Q590 402 567 380Q544 358 544 323Q544 289 567.5 264.5Q591 240 625 240ZM625 23Q667 23 693.5 49.5Q720 76 720 116Q720 156 692.5 183Q665 210 625 210Q585 210 558 183.5Q531 157 531 116Q531 76 557.5 49.5Q584 23 625 23Z" glyph-name="seveneighths" horiz-adv-x="797" unicode="⅞" /><glyph d="M212 285 169 285V667Q149 644 129 627.5Q109 611 88 601L67 630Q94 645 120 665Q146 685 172 712H212ZM597 720 173 -27L144 -11L567 736ZM616 -8Q578 -8 546 4Q514 16 491 39V85Q516 56 546 41.5Q576 27 613 27Q657 27 685.5 56Q714 85 714 132Q714 180 684.5 208.5Q655 237 604 237Q581 237 555.5 232Q530 227 510 218V427H736V392H549V253Q562 259 581 262.5Q600 266 620 266Q681 266 718.5 229Q756 192 756 132Q756 68 716.5 30Q677 -8 616 -8Z" glyph-name="onefifth" horiz-adv-x="797" unicode="" /><glyph d="M32 285 32 320L181 481Q220 524 234.5 550Q249 576 249 601Q249 638 226 660.5Q203 683 166 683Q130 683 99 665.5Q68 648 42 613V661Q64 690 96.5 705.5Q129 721 167 721Q221 721 256 689Q291 657 291 607Q291 574 276.5 545Q262 516 209 456L88 320H295V285ZM634 720 210 -27L181 -11L604 736ZM616 -8Q578 -8 546 4Q514 16 491 39V85Q516 56 546 41.5Q576 27 613 27Q657 27 685.5 56Q714 85 714 132Q714 180 684.5 208.5Q655 237 604 237Q581 237 555.5 232Q530 227 510 218V427H736V392H549V253Q562 259 581 262.5Q600 266 620 266Q681 266 718.5 229Q756 192 756 132Q756 68 716.5 30Q677 -8 616 -8Z" glyph-name="twofifths" horiz-adv-x="797" unicode="" /><glyph d="M161 684Q128 684 100 671Q72 658 48 633V678Q69 698 99 709.5Q129 721 162 721Q217 721 249.5 691Q282 661 282 610Q282 571 260.5 544.5Q239 518 200 510V509Q245 501 271 471Q297 441 297 400Q297 344 260 310.5Q223 277 161 277Q123 277 88.5 291Q54 305 32 329V381Q57 348 90 330.5Q123 313 163 312Q204 312 229 337Q254 362 254 403Q254 444 223.5 468Q193 492 147 492H112V523H148Q189 523 215 545.5Q241 568 241 606Q241 641 218.5 662.5Q196 684 161 684ZM615 720 191 -27L162 -11L585 736ZM616 -8Q578 -8 546 4Q514 16 491 39V85Q516 56 546 41.5Q576 27 613 27Q657 27 685.5 56Q714 85 714 132Q714 180 684.5 208.5Q655 237 604 237Q581 237 555.5 232Q530 227 510 218V427H736V392H549V253Q562 259 581 262.5Q600 266 620 266Q681 266 718.5 229Q756 192 756 132Q756 68 716.5 30Q677 -8 616 -8Z" glyph-name="threefifths" horiz-adv-x="797" unicode="" /><glyph d="M321 386 259 386V285H217V386H19V424Q49 488 98 564Q147 640 205 712H259V421H321ZM217 421 217 671H215Q165 605 124 540Q83 475 57 421ZM621 720 197 -27L168 -11L591 736ZM616 -8Q578 -8 546 4Q514 16 491 39V85Q516 56 546 41.5Q576 27 613 27Q657 27 685.5 56Q714 85 714 132Q714 180 684.5 208.5Q655 237 604 237Q581 237 555.5 232Q530 227 510 218V427H736V392H549V253Q562 259 581 262.5Q600 266 620 266Q681 266 718.5 229Q756 192 756 132Q756 68 716.5 30Q677 -8 616 -8Z" glyph-name="fourfifths" horiz-adv-x="797" unicode="" /><glyph d="M212 285 169 285V667Q149 644 129 627.5Q109 611 88 601L67 630Q94 645 120 665Q146 685 172 712H212ZM625 720 201 -27L172 -11L595 736ZM529 248 637 427H687L566 231L567 230Q578 244 598.5 253Q619 262 641 262Q692 262 727.5 223.5Q763 185 763 128Q763 67 724.5 29.5Q686 -8 625 -8Q563 -8 525 29.5Q487 67 487 128Q487 155 497.5 184.5Q508 214 529 248ZM627 229Q586 229 558 200Q530 171 530 128Q530 84 556.5 55.5Q583 27 625 27Q667 27 693.5 55.5Q720 84 720 128Q720 172 693.5 200.5Q667 229 627 229Z" glyph-name="onesixth" horiz-adv-x="797" unicode="" /><glyph d="M162 277Q124 277 92 289Q60 301 37 324V370Q62 341 92 326.5Q122 312 159 312Q203 312 231.5 341Q260 370 260 417Q260 465 230.5 493.5Q201 522 150 522Q127 522 101.5 517Q76 512 56 503V712H282V677H95V538Q108 544 127 547.5Q146 551 166 551Q227 551 264.5 514Q302 477 302 417Q302 353 262.5 315Q223 277 162 277ZM652 720 228 -27L199 -11L622 736ZM529 248 637 427H687L566 231L567 230Q578 244 598.5 253Q619 262 641 262Q692 262 727.5 223.5Q763 185 763 128Q763 67 724.5 29.5Q686 -8 625 -8Q563 -8 525 29.5Q487 67 487 128Q487 155 497.5 184.5Q508 214 529 248ZM627 229Q586 229 558 200Q530 171 530 128Q530 84 556.5 55.5Q583 27 625 27Q667 27 693.5 55.5Q720 84 720 128Q720 172 693.5 200.5Q667 229 627 229Z" glyph-name="fivesixths" horiz-adv-x="797" unicode="" /><glyph d="M212 285 169 285V667Q149 644 129 627.5Q109 611 88 601L67 630Q94 645 120 665Q146 685 172 712H212ZM595 720 171 -27L142 -11L565 736ZM748 393 580 0H534L706 391H491V427H748Z" glyph-name="oneseventh" horiz-adv-x="797" unicode="" /><glyph d="M32 285 32 320L181 481Q220 524 234.5 550Q249 576 249 601Q249 638 226 660.5Q203 683 166 683Q130 683 99 665.5Q68 648 42 613V661Q64 690 96.5 705.5Q129 721 167 721Q221 721 256 689Q291 657 291 607Q291 574 276.5 545Q262 516 209 456L88 320H295V285ZM625 720 201 -27L172 -11L595 736ZM748 393 580 0H534L706 391H491V427H748Z" glyph-name="twosevenths" horiz-adv-x="797" unicode="" /><glyph d="M161 684Q128 684 100 671Q72 658 48 633V678Q69 698 99 709.5Q129 721 162 721Q217 721 249.5 691Q282 661 282 610Q282 571 260.5 544.5Q239 518 200 510V509Q245 501 271 471Q297 441 297 400Q297 344 260 310.5Q223 277 161 277Q123 277 88.5 291Q54 305 32 329V381Q57 348 90 330.5Q123 313 163 312Q204 312 229 337Q254 362 254 403Q254 444 223.5 468Q193 492 147 492H112V523H148Q189 523 215 545.5Q241 568 241 606Q241 641 218.5 662.5Q196 684 161 684ZM605 720 181 -27L152 -11L575 736ZM748 393 580 0H534L706 391H491V427H748Z" glyph-name="threesevenths" horiz-adv-x="797" unicode="" /><glyph d="M321 386 259 386V285H217V386H19V424Q49 488 98 564Q147 640 205 712H259V421H321ZM217 421 217 671H215Q165 605 124 540Q83 475 57 421ZM619 720 195 -27L166 -11L589 736ZM748 393 580 0H534L706 391H491V427H748Z" glyph-name="foursevenths" horiz-adv-x="797" unicode="" /><glyph d="M162 277Q124 277 92 289Q60 301 37 324V370Q62 341 92 326.5Q122 312 159 312Q203 312 231.5 341Q260 370 260 417Q260 465 230.5 493.5Q201 522 150 522Q127 522 101.5 517Q76 512 56 503V712H282V677H95V538Q108 544 127 547.5Q146 551 166 551Q227 551 264.5 514Q302 477 302 417Q302 353 262.5 315Q223 277 162 277ZM614 720 190 -27L161 -11L584 736ZM748 393 580 0H534L706 391H491V427H748Z" glyph-name="fivesevenths" horiz-adv-x="797" unicode="" /><glyph d="M75 533 183 712H233L112 516L113 515Q124 529 144.5 538Q165 547 187 547Q238 547 273.5 508.5Q309 470 309 413Q309 352 270.5 314.5Q232 277 171 277Q109 277 71 314.5Q33 352 33 413Q33 440 43.5 469.5Q54 499 75 533ZM173 514Q132 514 104 485Q76 456 76 413Q76 369 102.5 340.5Q129 312 171 312Q213 312 239.5 340.5Q266 369 266 413Q266 457 239.5 485.5Q213 514 173 514ZM613 720 189 -27L160 -11L583 736ZM748 393 580 0H534L706 391H491V427H748Z" glyph-name="sixsevenths" horiz-adv-x="797" unicode="" /><glyph d="M212 285 169 285V667Q149 644 129 627.5Q109 611 88 601L67 630Q94 645 120 665Q146 685 172 712H212ZM609 720 185 -27L156 -11L579 736ZM722 180 612 0H563L685 198L683 199Q672 184 652 175.5Q632 167 611 167Q559 167 523 204.5Q487 242 487 298Q487 359 526 397.5Q565 436 625 436Q686 436 724.5 398.5Q763 361 763 299Q763 272 753.5 243.5Q744 215 722 180ZM623 199Q664 199 692 227.5Q720 256 720 299Q720 343 693.5 371Q667 399 625 399Q583 399 556.5 371Q530 343 530 299Q530 255 556.5 227Q583 199 623 199Z" glyph-name="oneninth" horiz-adv-x="797" unicode="" /><glyph d="M32 285 32 320L181 481Q220 524 234.5 550Q249 576 249 601Q249 638 226 660.5Q203 683 166 683Q130 683 99 665.5Q68 648 42 613V661Q64 690 96.5 705.5Q129 721 167 721Q221 721 256 689Q291 657 291 607Q291 574 276.5 545Q262 516 209 456L88 320H295V285ZM639 720 215 -27L186 -11L609 736ZM722 180 612 0H563L685 198L683 199Q672 184 652 175.5Q632 167 611 167Q559 167 523 204.5Q487 242 487 298Q487 359 526 397.5Q565 436 625 436Q686 436 724.5 398.5Q763 361 763 299Q763 272 753.5 243.5Q744 215 722 180ZM623 199Q664 199 692 227.5Q720 256 720 299Q720 343 693.5 371Q667 399 625 399Q583 399 556.5 371Q530 343 530 299Q530 255 556.5 227Q583 199 623 199Z" glyph-name="twoninths" horiz-adv-x="797" unicode="" /><glyph d="M321 386 259 386V285H217V386H19V424Q49 488 98 564Q147 640 205 712H259V421H321ZM217 421 217 671H215Q165 605 124 540Q83 475 57 421ZM637 720 213 -27L184 -11L607 736ZM722 180 612 0H563L685 198L683 199Q672 184 652 175.5Q632 167 611 167Q559 167 523 204.5Q487 242 487 298Q487 359 526 397.5Q565 436 625 436Q686 436 724.5 398.5Q763 361 763 299Q763 272 753.5 243.5Q744 215 722 180ZM623 199Q664 199 692 227.5Q720 256 720 299Q720 343 693.5 371Q667 399 625 399Q583 399 556.5 371Q530 343 530 299Q530 255 556.5 227Q583 199 623 199Z" glyph-name="fourninths" horiz-adv-x="797" unicode="" /><glyph d="M162 277Q124 277 92 289Q60 301 37 324V370Q62 341 92 326.5Q122 312 159 312Q203 312 231.5 341Q260 370 260 417Q260 465 230.5 493.5Q201 522 150 522Q127 522 101.5 517Q76 512 56 503V712H282V677H95V538Q108 544 127 547.5Q146 551 166 551Q227 551 264.5 514Q302 477 302 417Q302 353 262.5 315Q223 277 162 277ZM625 720 201 -27L172 -11L595 736ZM722 180 612 0H563L685 198L683 199Q672 184 652 175.5Q632 167 611 167Q559 167 523 204.5Q487 242 487 298Q487 359 526 397.5Q565 436 625 436Q686 436 724.5 398.5Q763 361 763 299Q763 272 753.5 243.5Q744 215 722 180ZM623 199Q664 199 692 227.5Q720 256 720 299Q720 343 693.5 371Q667 399 625 399Q583 399 556.5 371Q530 343 530 299Q530 255 556.5 227Q583 199 623 199Z" glyph-name="fiveninths" horiz-adv-x="797" unicode="" /><glyph d="M294 678 126 285H80L252 676H37V712H294ZM586 720 162 -27L133 -11L556 736ZM722 180 612 0H563L685 198L683 199Q672 184 652 175.5Q632 167 611 167Q559 167 523 204.5Q487 242 487 298Q487 359 526 397.5Q565 436 625 436Q686 436 724.5 398.5Q763 361 763 299Q763 272 753.5 243.5Q744 215 722 180ZM623 199Q664 199 692 227.5Q720 256 720 299Q720 343 693.5 371Q667 399 625 399Q583 399 556.5 371Q530 343 530 299Q530 255 556.5 227Q583 199 623 199Z" glyph-name="sevenninths" horiz-adv-x="797" unicode="" /><glyph d="M293 610Q293 577 274.5 550.5Q256 524 225 512V511Q264 499 286 469.5Q308 440 308 400Q308 344 270 310.5Q232 277 171 277Q110 277 72 310.5Q34 344 34 400Q34 440 56.5 469.5Q79 499 118 511V512Q86 525 67 551.5Q48 578 48 610Q48 659 82.5 690Q117 721 171 721Q224 721 258.5 690Q293 659 293 610ZM171 525Q205 525 229 549.5Q253 574 253 608Q253 642 229.5 664.5Q206 687 171 687Q136 687 113 665Q90 643 90 608Q90 574 113.5 549.5Q137 525 171 525ZM171 308Q213 308 239.5 334.5Q266 361 266 401Q266 441 238.5 468Q211 495 171 495Q131 495 104 468.5Q77 442 77 401Q77 361 103.5 334.5Q130 308 171 308ZM625 720 201 -27L172 -11L595 736ZM722 180 612 0H563L685 198L683 199Q672 184 652 175.5Q632 167 611 167Q559 167 523 204.5Q487 242 487 298Q487 359 526 397.5Q565 436 625 436Q686 436 724.5 398.5Q763 361 763 299Q763 272 753.5 243.5Q744 215 722 180ZM623 199Q664 199 692 227.5Q720 256 720 299Q720 343 693.5 371Q667 399 625 399Q583 399 556.5 371Q530 343 530 299Q530 255 556.5 227Q583 199 623 199Z" glyph-name="eightninths" horiz-adv-x="797" unicode="" /><glyph d="M171 436Q239 436 275.5 377Q312 318 312 213Q312 109 275.5 50.5Q239 -8 171 -8Q103 -8 66.5 50.5Q30 109 30 213Q30 318 66.5 377Q103 436 171 436ZM171 28Q219 28 244 76Q269 124 269 213Q269 303 244 350.5Q219 398 171 398Q123 398 98 351Q73 304 73 213Q73 123 98 75.5Q123 28 171 28Z" glyph-name="zeroinferior" horiz-adv-x="343" unicode="₀" /><glyph d="M212 0 169 0V382Q149 359 129 342.5Q109 326 88 316L67 345Q94 360 120 380Q146 400 172 427H212Z" glyph-name="oneinferior" horiz-adv-x="343" unicode="₁" /><glyph d="M32 0 32 35L181 196Q220 239 234.5 265Q249 291 249 316Q249 353 226 375.5Q203 398 166 398Q130 398 99 380.5Q68 363 42 328V376Q64 405 96.5 420.5Q129 436 167 436Q221 436 256 404Q291 372 291 322Q291 289 276.5 260Q262 231 209 171L88 35H295V0Z" glyph-name="twoinferior" horiz-adv-x="343" unicode="₂" /><glyph d="M161 399Q128 399 100 386Q72 373 48 348V393Q69 413 99 424.5Q129 436 162 436Q217 436 249.5 406Q282 376 282 325Q282 286 260.5 259.5Q239 233 200 225V224Q245 216 271 186Q297 156 297 115Q297 59 260 25.5Q223 -8 161 -8Q123 -8 88.5 6Q54 20 32 44V96Q57 63 90 45.5Q123 28 163 27Q204 27 229 52Q254 77 254 118Q254 159 223.5 183Q193 207 147 207H112V238H148Q189 238 215 260.5Q241 283 241 321Q241 356 218.5 377.5Q196 399 161 399Z" glyph-name="threeinferior" horiz-adv-x="343" unicode="₃" /><glyph d="M321 101 259 101V0H217V101H19V139Q49 203 98 279Q147 355 205 427H259V136H321ZM217 136 217 386H215Q165 320 124 255Q83 190 57 136Z" glyph-name="fourinferior" horiz-adv-x="343" unicode="₄" /><glyph d="M162 -8Q124 -8 92 4Q60 16 37 39V85Q62 56 92 41.5Q122 27 159 27Q203 27 231.5 56Q260 85 260 132Q260 180 230.5 208.5Q201 237 150 237Q127 237 101.5 232Q76 227 56 218V427H282V392H95V253Q108 259 127 262.5Q146 266 166 266Q227 266 264.5 229Q302 192 302 132Q302 68 262.5 30Q223 -8 162 -8Z" glyph-name="fiveinferior" horiz-adv-x="343" unicode="₅" /><glyph d="M75 248 183 427H233L112 231L113 230Q124 244 144.5 253Q165 262 187 262Q238 262 273.5 223.5Q309 185 309 128Q309 67 270.5 29.5Q232 -8 171 -8Q109 -8 71 29.5Q33 67 33 128Q33 155 43.5 184.5Q54 214 75 248ZM173 229Q132 229 104 200Q76 171 76 128Q76 84 102.5 55.5Q129 27 171 27Q213 27 239.5 55.5Q266 84 266 128Q266 172 239.5 200.5Q213 229 173 229Z" glyph-name="sixinferior" horiz-adv-x="343" unicode="₆" /><glyph d="M294 393 126 0H80L252 391H37V427H294Z" glyph-name="seveninferior" horiz-adv-x="343" unicode="₇" /><glyph d="M293 325Q293 292 274.5 265.5Q256 239 225 227V226Q264 214 286 184.5Q308 155 308 115Q308 59 270 25.5Q232 -8 171 -8Q110 -8 72 25.5Q34 59 34 115Q34 155 56.5 184.5Q79 214 118 226V227Q86 240 67 266.5Q48 293 48 325Q48 374 82.5 405Q117 436 171 436Q224 436 258.5 405Q293 374 293 325ZM171 240Q205 240 229 264.5Q253 289 253 323Q253 357 229.5 379.5Q206 402 171 402Q136 402 113 380Q90 358 90 323Q90 289 113.5 264.5Q137 240 171 240ZM171 23Q213 23 239.5 49.5Q266 76 266 116Q266 156 238.5 183Q211 210 171 210Q131 210 104 183.5Q77 157 77 116Q77 76 103.5 49.5Q130 23 171 23Z" glyph-name="eightinferior" horiz-adv-x="343" unicode="₈" /><glyph d="M268 180 158 0H109L231 198L229 199Q218 184 198 175.5Q178 167 157 167Q105 167 69 204.5Q33 242 33 298Q33 359 72 397.5Q111 436 171 436Q232 436 270.5 398.5Q309 361 309 299Q309 272 299.5 243.5Q290 215 268 180ZM169 199Q210 199 238 227.5Q266 256 266 299Q266 343 239.5 371Q213 399 171 399Q129 399 102.5 371Q76 343 76 299Q76 255 102.5 227Q129 199 169 199Z" glyph-name="nineinferior" horiz-adv-x="343" unicode="₉" /><glyph d="M171 854Q239 854 275.5 795Q312 736 312 631Q312 527 275.5 468.5Q239 410 171 410Q103 410 66.5 468.5Q30 527 30 631Q30 736 66.5 795Q103 854 171 854ZM171 446Q219 446 244 494Q269 542 269 631Q269 721 244 768.5Q219 816 171 816Q123 816 98 769Q73 722 73 631Q73 541 98 493.5Q123 446 171 446Z" glyph-name="zero.numerator" horiz-adv-x="343" unicode="" /><glyph d="M212 418 169 418V800Q149 777 129 760.5Q109 744 88 734L67 763Q94 778 120 798Q146 818 172 845H212Z" glyph-name="one.numerator" horiz-adv-x="343" unicode="" /><glyph d="M32 418 32 453L181 614Q220 657 234.5 683Q249 709 249 734Q249 771 226 793.5Q203 816 166 816Q130 816 99 798.5Q68 781 42 746V794Q64 823 96.5 838.5Q129 854 167 854Q221 854 256 822Q291 790 291 740Q291 707 276.5 678Q262 649 209 589L88 453H295V418Z" glyph-name="two.numerator" horiz-adv-x="343" unicode="" /><glyph d="M161 817Q128 817 100 804Q72 791 48 766V811Q69 831 99 842.5Q129 854 162 854Q217 854 249.5 824Q282 794 282 743Q282 704 260.5 677.5Q239 651 200 643V642Q245 634 271 604Q297 574 297 533Q297 477 260 443.5Q223 410 161 410Q123 410 88.5 424Q54 438 32 462V514Q57 481 90 463.5Q123 446 163 445Q204 445 229 470Q254 495 254 536Q254 577 223.5 601Q193 625 147 625H112V656H148Q189 656 215 678.5Q241 701 241 739Q241 774 218.5 795.5Q196 817 161 817Z" glyph-name="three.numerator" horiz-adv-x="343" unicode="" /><glyph d="M321 519 259 519V418H217V519H19V557Q49 621 98 697Q147 773 205 845H259V554H321ZM217 554 217 804H215Q165 738 124 673Q83 608 57 554Z" glyph-name="four.numerator" horiz-adv-x="343" unicode="" /><glyph d="M162 410Q124 410 92 422Q60 434 37 457V503Q62 474 92 459.5Q122 445 159 445Q203 445 231.5 474Q260 503 260 550Q260 598 230.5 626.5Q201 655 150 655Q127 655 101.5 650Q76 645 56 636V845H282V810H95V671Q108 677 127 680.5Q146 684 166 684Q227 684 264.5 647Q302 610 302 550Q302 486 262.5 448Q223 410 162 410Z" glyph-name="five.numerator" horiz-adv-x="343" unicode="" /><glyph d="M75 666 183 845H233L112 649L113 648Q124 662 144.5 671Q165 680 187 680Q238 680 273.5 641.5Q309 603 309 546Q309 485 270.5 447.5Q232 410 171 410Q109 410 71 447.5Q33 485 33 546Q33 573 43.5 602.5Q54 632 75 666ZM173 647Q132 647 104 618Q76 589 76 546Q76 502 102.5 473.5Q129 445 171 445Q213 445 239.5 473.5Q266 502 266 546Q266 590 239.5 618.5Q213 647 173 647Z" glyph-name="six.numerator" horiz-adv-x="343" unicode="" /><glyph d="M294 811 126 418H80L252 809H37V845H294Z" glyph-name="seven.numerator" horiz-adv-x="343" unicode="" /><glyph d="M293 743Q293 710 274.5 683.5Q256 657 225 645V644Q264 632 286 602.5Q308 573 308 533Q308 477 270 443.5Q232 410 171 410Q110 410 72 443.5Q34 477 34 533Q34 573 56.5 602.5Q79 632 118 644V645Q86 658 67 684.5Q48 711 48 743Q48 792 82.5 823Q117 854 171 854Q224 854 258.5 823Q293 792 293 743ZM171 658Q205 658 229 682.5Q253 707 253 741Q253 775 229.5 797.5Q206 820 171 820Q136 820 113 798Q90 776 90 741Q90 707 113.5 682.5Q137 658 171 658ZM171 441Q213 441 239.5 467.5Q266 494 266 534Q266 574 238.5 601Q211 628 171 628Q131 628 104 601.5Q77 575 77 534Q77 494 103.5 467.5Q130 441 171 441Z" glyph-name="eight.numerator" horiz-adv-x="343" unicode="" /><glyph d="M268 598 158 418H109L231 616L229 617Q218 602 198 593.5Q178 585 157 585Q105 585 69 622.5Q33 660 33 716Q33 777 72 815.5Q111 854 171 854Q232 854 270.5 816.5Q309 779 309 717Q309 690 299.5 661.5Q290 633 268 598ZM169 617Q210 617 238 645.5Q266 674 266 717Q266 761 239.5 789Q213 817 171 817Q129 817 102.5 789Q76 761 76 717Q76 673 102.5 645Q129 617 169 617Z" glyph-name="nine.numerator" horiz-adv-x="343" unicode="" /><glyph d="M171 303Q239 303 275.5 244Q312 185 312 80Q312 -24 275.5 -82.5Q239 -141 171 -141Q103 -141 66.5 -82.5Q30 -24 30 80Q30 185 66.5 244Q103 303 171 303ZM171 -105Q219 -105 244 -57Q269 -9 269 80Q269 170 244 217.5Q219 265 171 265Q123 265 98 218Q73 171 73 80Q73 -10 98 -57.5Q123 -105 171 -105Z" glyph-name="zero.denominator" horiz-adv-x="343" unicode="" /><glyph d="M212 -133 169 -133V249Q149 226 129 209.5Q109 193 88 183L67 212Q94 227 120 247Q146 267 172 294H212Z" glyph-name="one.denominator" horiz-adv-x="343" unicode="" /><glyph d="M32 -133 32 -98L181 63Q220 106 234.5 132Q249 158 249 183Q249 220 226 242.5Q203 265 166 265Q130 265 99 247.5Q68 230 42 195V243Q64 272 96.5 287.5Q129 303 167 303Q221 303 256 271Q291 239 291 189Q291 156 276.5 127Q262 98 209 38L88 -98H295V-133Z" glyph-name="two.denominator" horiz-adv-x="343" unicode="" /><glyph d="M161 266Q128 266 100 253Q72 240 48 215V260Q69 280 99 291.5Q129 303 162 303Q217 303 249.5 273Q282 243 282 192Q282 153 260.5 126.5Q239 100 200 92V91Q245 83 271 53Q297 23 297 -18Q297 -74 260 -107.5Q223 -141 161 -141Q123 -141 88.5 -127Q54 -113 32 -89V-37Q57 -70 90 -87.5Q123 -105 163 -106Q204 -106 229 -81Q254 -56 254 -15Q254 26 223.5 50Q193 74 147 74H112V105H148Q189 105 215 127.5Q241 150 241 188Q241 223 218.5 244.5Q196 266 161 266Z" glyph-name="three.denominator" horiz-adv-x="343" unicode="" /><glyph d="M321 -32 259 -32V-133H217V-32H19V6Q49 70 98 146Q147 222 205 294H259V3H321ZM217 3 217 253H215Q165 187 124 122Q83 57 57 3Z" glyph-name="four.denominator" horiz-adv-x="343" unicode="" /><glyph d="M162 -141Q124 -141 92 -129Q60 -117 37 -94V-48Q62 -77 92 -91.5Q122 -106 159 -106Q203 -106 231.5 -77Q260 -48 260 -1Q260 47 230.5 75.5Q201 104 150 104Q127 104 101.5 99Q76 94 56 85V294H282V259H95V120Q108 126 127 129.5Q146 133 166 133Q227 133 264.5 96Q302 59 302 -1Q302 -65 262.5 -103Q223 -141 162 -141Z" glyph-name="five.denominator" horiz-adv-x="343" unicode="" /><glyph d="M75 115 183 294H233L112 98L113 97Q124 111 144.5 120Q165 129 187 129Q238 129 273.5 90.5Q309 52 309 -5Q309 -66 270.5 -103.5Q232 -141 171 -141Q109 -141 71 -103.5Q33 -66 33 -5Q33 22 43.5 51.5Q54 81 75 115ZM173 96Q132 96 104 67Q76 38 76 -5Q76 -49 102.5 -77.5Q129 -106 171 -106Q213 -106 239.5 -77.5Q266 -49 266 -5Q266 39 239.5 67.5Q213 96 173 96Z" glyph-name="six.denominator" horiz-adv-x="343" unicode="" /><glyph d="M294 260 126 -133H80L252 258H37V294H294Z" glyph-name="seven.denominator" horiz-adv-x="343" unicode="" /><glyph d="M293 192Q293 159 274.5 132.5Q256 106 225 94V93Q264 81 286 51.5Q308 22 308 -18Q308 -74 270 -107.5Q232 -141 171 -141Q110 -141 72 -107.5Q34 -74 34 -18Q34 22 56.5 51.5Q79 81 118 93V94Q86 107 67 133.5Q48 160 48 192Q48 241 82.5 272Q117 303 171 303Q224 303 258.5 272Q293 241 293 192ZM171 107Q205 107 229 131.5Q253 156 253 190Q253 224 229.5 246.5Q206 269 171 269Q136 269 113 247Q90 225 90 190Q90 156 113.5 131.5Q137 107 171 107ZM171 -110Q213 -110 239.5 -83.5Q266 -57 266 -17Q266 23 238.5 50Q211 77 171 77Q131 77 104 50.5Q77 24 77 -17Q77 -57 103.5 -83.5Q130 -110 171 -110Z" glyph-name="eight.denominator" horiz-adv-x="343" unicode="" /><glyph d="M268 47 158 -133H109L231 65L229 66Q218 51 198 42.5Q178 34 157 34Q105 34 69 71.5Q33 109 33 165Q33 226 72 264.5Q111 303 171 303Q232 303 270.5 265.5Q309 228 309 166Q309 139 299.5 110.5Q290 82 268 47ZM169 66Q210 66 238 94.5Q266 123 266 166Q266 210 239.5 238Q213 266 171 266Q129 266 102.5 238Q76 210 76 166Q76 122 102.5 94Q129 66 169 66Z" glyph-name="nine.denominator" horiz-adv-x="343" unicode="" /><glyph d="M41 284 41 323H259V546H302V323H518V284H303V61H259V284Z" glyph-name="plus" horiz-adv-x="560" unicode="+" /><glyph d="M41 285 41 325H518V285Z" glyph-name="minus" horiz-adv-x="560" unicode="−" /><glyph d="M108 106 78 134L250 306L78 479L107 507L280 334L451 507L480 479L308 306L480 134L451 106L280 278Z" glyph-name="multiply" horiz-adv-x="560" unicode="×" /><glyph d="M325 477Q325 458 311 444Q297 430 279 430Q260 430 246.5 444Q233 458 233 477Q233 496 246.5 510Q260 524 279 524Q297 524 311 510Q325 496 325 477ZM36 282 36 323H522V282ZM325 128Q325 109 311 95Q297 81 279 81Q260 81 246.5 95Q233 109 233 128Q233 148 246.5 161.5Q260 175 279 175Q297 175 311 161Q325 147 325 128Z" glyph-name="divide" horiz-adv-x="560" unicode="÷" /><glyph d="M41 371 41 410H518V371ZM41 197 41 236H518V197Z" glyph-name="equal" horiz-adv-x="560" unicode="=" /><glyph d="M509 135 465 135V369H41V408H509Z" glyph-name="logicalnot" horiz-adv-x="560" unicode="¬" /><glyph d="M172 366Q200 366 223 358.5Q246 351 276 331Q312 305 338 294Q364 283 390 283Q421 283 448 302.5Q475 322 501 365L526 332Q496 286 462 262.5Q428 239 390 239Q363 239 341.5 246Q320 253 286 274Q242 304 220.5 313Q199 322 174 322Q139 322 111 301.5Q83 281 59 239L33 271Q62 319 96 342.5Q130 366 172 366Z" glyph-name="asciitilde" horiz-adv-x="560" unicode="~" /><glyph d="M518 102 518 61L41 282V322L518 543V502L90 301Z" glyph-name="less" horiz-adv-x="560" unicode="&lt;" /><glyph d="M41 502 41 543L518 322V282L41 61V102L469 301Z" glyph-name="greater" horiz-adv-x="560" unicode="&gt;" /><glyph d="M37 300 37 341H255V533H299V341H523V300H300V113H256V300ZM39 0 39 39H520V0Z" glyph-name="plusminus" horiz-adv-x="560" unicode="±" /><glyph d="M280 672 127 387H82L257 708H302L477 387H431Z" glyph-name="asciicircum" horiz-adv-x="560" unicode="^" /><glyph d="M518 236 518 197H241L158 30L125 46L200 197H41V236H219L286 371H41V410H305L375 552L409 538L346 410H518V371H326L260 236Z" glyph-name="notequal" horiz-adv-x="560" unicode="≠" /><glyph d="M172 471Q200 471 223 463.5Q246 456 276 436Q313 410 339 399Q365 388 390 388Q421 388 448 408Q475 428 501 471L526 437Q496 391 462 367.5Q428 344 390 344Q363 344 341 351Q319 358 286 380Q239 411 218.5 419.5Q198 428 174 428Q139 428 111 407.5Q83 387 59 344L33 376Q61 424 95 447.5Q129 471 172 471ZM172 263Q199 263 222 255Q245 247 276 227Q313 201 339 190Q365 179 390 179Q421 179 448 199Q475 219 501 262L526 228Q496 182 461.5 159Q427 136 390 136Q362 136 340 143Q318 150 286 171Q239 202 218.5 210.5Q198 219 174 219Q139 219 110.5 198.5Q82 178 59 135L33 167Q62 216 96 239.5Q130 263 172 263Z" glyph-name="approxequal" horiz-adv-x="560" unicode="≈" /><glyph d="M518 123 518 82L41 303V343L518 564V523L90 322ZM41 0 41 39H518V0Z" glyph-name="lessequal" horiz-adv-x="560" unicode="≤" /><glyph d="M518 303 41 82V123L469 322L41 523V564L518 343ZM41 39 518 39V0H41Z" glyph-name="greaterequal" horiz-adv-x="560" unicode="≥" /><glyph d="M66 247Q66 307 100.5 345Q135 383 189 383Q225 383 270 352.5Q315 322 361 268Q406 322 452 352.5Q498 383 535 383Q589 383 623.5 345.5Q658 308 658 248Q658 187 624 148.5Q590 110 536 110Q500 110 455.5 140Q411 170 363 225Q318 171 272.5 140.5Q227 110 189 110Q134 110 100 148Q66 186 66 247ZM104 246Q104 201 128.5 172Q153 143 192 143Q221 143 253 165Q285 187 339 246Q286 305 253.5 327.5Q221 350 192 350Q152 350 128 320.5Q104 291 104 246ZM620 246Q620 291 596 320.5Q572 350 532 350Q504 350 471.5 327.5Q439 305 385 246Q438 188 470.5 165.5Q503 143 532 143Q571 143 595.5 172.5Q620 202 620 246Z" glyph-name="infinity" horiz-adv-x="725" unicode="∞" /><glyph d="M309 747 477 356L309 -35H279L113 356L279 747ZM295 12 433 356L295 699L156 356Z" glyph-name="lozenge" horiz-adv-x="593" unicode="◊" /><glyph d="M500 786 293 -215H232L65 153L3 123L-9 152L89 198L259 -179L459 786Z" glyph-name="radical" horiz-adv-x="505" unicode="√" /><glyph d="M127 -208Q174 -208 199.5 -176Q225 -144 225 -87V559Q225 635 263.5 676.5Q302 718 368 718Q382 718 393 717Q404 716 416 713V672Q405 674 394 675.5Q383 677 373 677Q326 677 300.5 645Q275 613 275 556V-90Q275 -166 236.5 -207.5Q198 -249 132 -249Q118 -249 107 -248Q96 -247 84 -244V-203Q95 -205 106 -206.5Q117 -208 127 -208Z" glyph-name="integral" horiz-adv-x="535" unicode="∫" /><glyph d="M538 248Q538 131 471 58.5Q404 -14 297 -14Q190 -14 123 54.5Q56 123 56 234Q56 342 124 411.5Q192 481 297 481Q357 481 400.5 456.5Q444 432 479 381Q446 518 357.5 593.5Q269 669 118 693L133 721Q333 695 435.5 574.5Q538 454 538 248ZM297 442Q212 442 159.5 384Q107 326 107 235Q107 144 160 85.5Q213 27 297 27Q381 27 434.5 85.5Q488 144 488 234Q488 325 434.5 383.5Q381 442 297 442Z" glyph-name="partialdiff" horiz-adv-x="595" unicode="∂" /><glyph d="M617 786 617 -214H565V743H139V-214H87V786Z" glyph-name="product" horiz-adv-x="705" unicode="∏" /><glyph d="M485 30Q493 30 504.5 31.5Q516 33 522 35V-1Q510 -4 499.5 -5Q489 -6 477 -6Q431 -6 413 16Q395 38 395 96V431H158V0H108V431H39V469H519V431H444V97Q444 60 453.5 45Q463 30 485 30Z" glyph-name="pi" horiz-adv-x="573" unicode="π" /><glyph d="M436 70 435 70Q402 28 362 7Q322 -14 275 -14Q228 -14 194 4Q160 22 143 55V-240H93V469H143V180Q143 108 180 67Q217 26 283 26Q329 26 364.5 46.5Q400 67 433 114V469H483V129Q483 100 484.5 59.5Q486 19 488 0H440Z" glyph-name="mu" horiz-adv-x="580" unicode="µ" /><glyph d="M550 -171 550 -214H43V-169L363 289L57 741V786H539V743H114L424 289L102 -171Z" glyph-name="summation" horiz-adv-x="594" unicode="∑" /><glyph d="M78 378Q78 530 175.5 629Q273 728 422 728Q571 728 668.5 629Q766 530 766 378Q766 264 714 184Q662 104 570 72V41H776V0H519V95Q615 126 664 197Q713 268 713 376Q713 506 630.5 593.5Q548 681 422 681Q297 681 214.5 593.5Q132 506 132 376Q132 267 180.5 196Q229 125 325 95V0H68V41H274V72Q182 104 130 184Q78 264 78 378Z" glyph-name="Omega" horiz-adv-x="845" unicode="Ω" /><glyph d="M78 378Q78 530 175.5 629Q273 728 422 728Q571 728 668.5 629Q766 530 766 378Q766 264 714 184Q662 104 570 72V41H776V0H519V95Q615 126 664 197Q713 268 713 376Q713 506 630.5 593.5Q548 681 422 681Q297 681 214.5 593.5Q132 506 132 376Q132 267 180.5 196Q229 125 325 95V0H68V41H274V72Q182 104 130 184Q78 264 78 378Z" glyph-name="uni03A9" horiz-adv-x="845" unicode="Ω" /><glyph d="M367 712 634 0H33L297 712ZM96 41 570 41L331 672Z" glyph-name="Delta" horiz-adv-x="667" unicode="∆" /><glyph d="M367 712 634 0H33L297 712ZM96 41 570 41L331 672Z" glyph-name="uni0394" horiz-adv-x="667" unicode="Δ" /><glyph d="M300 -14Q244 -14 213.5 18Q183 50 183 111V237Q158 213 146.5 202.5Q135 192 125 183L108 211Q126 227 144.5 245Q163 263 183 284V554Q183 632 213.5 676.5Q244 721 294 721Q338 721 364.5 687.5Q391 654 391 597Q391 526 350 448Q309 370 226 281V123Q226 74 246.5 48Q267 22 305 22Q327 22 350 32.5Q373 43 392 62L412 37Q389 12 360.5 -1Q332 -14 300 -14ZM293 686Q263 686 244.5 651.5Q226 617 226 555V332Q288 404 318.5 469.5Q349 535 349 596Q349 635 333 660.5Q317 686 293 686Z" glyph-name="uni2113" horiz-adv-x="523" unicode="ℓ" /><glyph d="M437 12Q508 12 572.5 42Q637 72 687 128H742Q689 62 610 27Q531 -8 437 -8Q362 -8 293 17Q224 42 170 89Q112 139 80.5 204.5Q49 270 49 342Q49 413 80.5 478Q112 543 171 593Q225 639 294 663.5Q363 688 437 688Q514 688 583.5 662.5Q653 637 707 590Q764 540 795 473.5Q826 407 826 333H202Q197 333 195 330.5Q193 328 193 322V150Q193 96 275.5 54Q358 12 437 12ZM682 359 682 533Q682 545 677.5 557Q673 569 665 580Q637 618 571 644Q505 670 437 670Q370 670 306 645Q242 620 212 580Q203 569 198 556.5Q193 544 193 533V359Q193 355 195 353Q197 351 202 351H672Q677 351 679.5 353Q682 355 682 359Z" glyph-name="estimated" horiz-adv-x="862" unicode="℮" /><glyph d="M529 469 547 535H586L526 317Q521 296 518 278Q515 260 515 249Q515 223 529.5 209Q544 195 571 195Q642 195 684 255Q726 315 726 412Q726 535 638 615Q550 695 415 695Q275 695 178.5 595Q82 495 82 355Q82 209 178 111.5Q274 14 422 14Q498 14 570 47Q642 80 691 137L716 114Q659 50 583 16Q507 -18 419 -18Q255 -18 149 88Q43 194 43 355Q43 512 151 620Q259 728 415 728Q566 728 664.5 638.5Q763 549 763 412Q763 298 709.5 229.5Q656 161 565 161Q522 161 499.5 183Q477 205 480 245H478Q457 207 422 184Q387 161 346 161Q291 161 258.5 198Q226 235 226 295Q226 395 284 475Q342 555 423 555Q466 555 493 532Q520 509 525 469ZM470 282Q488 315 499 355.5Q510 396 510 425Q510 469 488 494.5Q466 520 427 520Q361 520 315 450Q269 380 269 295Q269 249 292.5 222Q316 195 357 195Q390 195 418.5 217Q447 239 470 282Z" glyph-name="at.case" horiz-adv-x="800" unicode="" /><glyph d="M137 -180 91 -180V820H137Z" glyph-name="bar.case" horiz-adv-x="229" unicode="" /><glyph d="M240 -74 202 -95Q139 -5 104 113.5Q69 232 69 352Q69 472 104 590.5Q139 709 202 799L240 778Q183 699 149 582Q115 465 115 352Q115 239 149 122Q183 5 240 -74Z" glyph-name="parenleft.case" horiz-adv-x="289" unicode="" /><glyph d="M48 778 86 799Q149 709 184 590.5Q219 472 219 352Q219 232 184 113.5Q149 -5 86 -95L48 -74Q105 5 139 122Q173 239 173 352Q173 465 139 582Q105 699 48 778Z" glyph-name="parenright.case" horiz-adv-x="289" unicode="" /><glyph d="M28 333 28 370Q68 370 85.5 396Q103 422 103 478V663Q103 729 131.5 762.5Q160 796 216 796H271V759H226Q187 759 167 734Q147 709 147 660V473Q147 419 129.5 388.5Q112 358 77 353V351Q112 345 129.5 314.5Q147 284 147 230V44Q147 -5 167 -30Q187 -55 226 -55H271V-92H216Q160 -92 131.5 -58.5Q103 -25 103 40V225Q103 281 85 307Q67 333 28 333Z" glyph-name="braceleft.case" horiz-adv-x="316" unicode="" /><glyph d="M287 370 287 333Q248 333 230 307Q212 281 212 225V40Q212 -25 183.5 -58.5Q155 -92 99 -92H44V-55H89Q128 -55 148 -30Q168 -5 168 44V230Q168 284 185.5 314.5Q203 345 238 351V353Q203 358 185.5 388.5Q168 419 168 473V660Q168 709 148 734Q128 759 89 759H44V796H99Q155 796 183.5 762.5Q212 729 212 663V478Q212 422 229.5 396Q247 370 287 370Z" glyph-name="braceright.case" horiz-adv-x="316" unicode="" /><glyph d="M232 -92 74 -92V796H232V759H120V-55H232Z" glyph-name="bracketleft.case" horiz-adv-x="278" unicode="" /><glyph d="M202 796 202 -92H44V-56H158V760H44V796Z" glyph-name="bracketright.case" horiz-adv-x="277" unicode="" /><glyph d="M250 298 54 298V342H250Z" glyph-name="hyphen.case" horiz-adv-x="305" unicode="" /><glyph d="M470 310 30 310V348H470Z" glyph-name="endash.case" horiz-adv-x="500" unicode="" /><glyph d="M970 310 30 310V348H970Z" glyph-name="emdash.case" horiz-adv-x="1000" unicode="" /><glyph d="M151 636Q135 636 123.5 647.5Q112 659 112 675Q112 691 123.5 702.5Q135 714 151 714Q167 714 178.5 702.5Q190 691 190 675Q190 658 178.5 647Q167 636 151 636ZM128 509 174 509L181 0H121Z" glyph-name="exclamdown.case" horiz-adv-x="302" unicode="" /><glyph d="M242 636Q226 636 214.5 647.5Q203 659 203 675Q203 691 214.5 702.5Q226 714 242 714Q258 714 269.5 702.5Q281 691 281 675Q281 658 269.5 647Q258 636 242 636ZM45 156Q45 202 63 237Q81 272 142 321L218 385V506H268V370L170 288Q129 255 113.5 226Q98 197 98 160Q98 98 137.5 61.5Q177 25 242 25Q301 25 342 60Q383 95 393 153H443Q430 73 376 27.5Q322 -18 240 -18Q152 -18 98.5 29Q45 76 45 156Z" glyph-name="questiondown.case" horiz-adv-x="492" unicode="" /><glyph d="M237 130 202 107L71 312L201 515L236 494L122 312ZM418 130 383 107L252 312L382 515L417 494L304 312Z" glyph-name="guillemotleft.case" horiz-adv-x="501" unicode="" /><glyph d="M248 312 118 108L83 130L197 312L82 494L117 516ZM430 312 299 108L264 130L378 312L264 494L299 516Z" glyph-name="guillemotright.case" horiz-adv-x="501" unicode="" /><glyph d="M237 130 202 107L71 312L201 515L236 494L122 312Z" glyph-name="guilsinglleft.case" horiz-adv-x="320" unicode="" /><glyph d="M248 312 118 108L83 130L197 312L82 494L117 516Z" glyph-name="guilsinglright.case" horiz-adv-x="320" unicode="" /><glyph d="M41 354 41 393H259V616H302V393H518V354H303V131H259V354Z" glyph-name="plus.case" horiz-adv-x="560" unicode="" /><glyph d="M41 355 41 395H518V355Z" glyph-name="minus.case" horiz-adv-x="560" unicode="" /><glyph d="M108 176 78 204L250 376L78 549L107 577L280 404L451 577L480 549L308 376L480 204L451 176L280 348Z" glyph-name="multiply.case" horiz-adv-x="560" unicode="" /><glyph d="M325 547Q325 528 311 514Q297 500 279 500Q260 500 246.5 514Q233 528 233 547Q233 566 246.5 580Q260 594 279 594Q297 594 311 580Q325 566 325 547ZM36 352 36 393H522V352ZM325 198Q325 179 311 165Q297 151 279 151Q260 151 246.5 165Q233 179 233 198Q233 218 246.5 231.5Q260 245 279 245Q297 245 311 231Q325 217 325 198Z" glyph-name="divide.case" horiz-adv-x="560" unicode="" /><glyph d="M41 441 41 480H518V441ZM41 267 41 306H518V267Z" glyph-name="equal.case" horiz-adv-x="560" unicode="" /><glyph d="M509 205 465 205V439H41V478H509Z" glyph-name="logicalnot.case" horiz-adv-x="560" unicode="" /><glyph d="M518 172 518 131L41 352V392L518 613V572L90 371Z" glyph-name="less.case" horiz-adv-x="560" unicode="" /><glyph d="M41 572 41 613L518 392V352L41 131V172L469 371Z" glyph-name="greater.case" horiz-adv-x="560" unicode="" /><glyph d="M518 306 518 267H241L158 100L125 116L200 267H41V306H219L286 441H41V480H305L375 622L409 608L346 480H518V441H326L260 306Z" glyph-name="notequal.case" horiz-adv-x="560" unicode="" /><glyph d="M172 541Q200 541 223 533.5Q246 526 276 506Q313 480 339 469Q365 458 390 458Q421 458 448 478Q475 498 501 541L526 507Q496 461 462 437.5Q428 414 390 414Q363 414 341 421Q319 428 286 450Q239 481 218.5 489.5Q198 498 174 498Q139 498 111 477.5Q83 457 59 414L33 446Q61 494 95 517.5Q129 541 172 541ZM172 333Q199 333 222 325Q245 317 276 297Q313 271 339 260Q365 249 390 249Q421 249 448 269Q475 289 501 332L526 298Q496 252 461.5 229Q427 206 390 206Q362 206 340 213Q318 220 286 241Q239 272 218.5 280.5Q198 289 174 289Q139 289 110.5 268.5Q82 248 59 205L33 237Q62 286 96 309.5Q130 333 172 333Z" glyph-name="approxequal.case" horiz-adv-x="560" unicode="" /><glyph d="M66 317Q66 377 100.5 415Q135 453 189 453Q225 453 270 422.5Q315 392 361 338Q406 392 452 422.5Q498 453 535 453Q589 453 623.5 415.5Q658 378 658 318Q658 257 624 218.5Q590 180 536 180Q500 180 455.5 210Q411 240 363 295Q318 241 272.5 210.5Q227 180 189 180Q134 180 100 218Q66 256 66 317ZM104 316Q104 271 128.5 242Q153 213 192 213Q221 213 253 235Q285 257 339 316Q286 375 253.5 397.5Q221 420 192 420Q152 420 128 390.5Q104 361 104 316ZM620 316Q620 361 596 390.5Q572 420 532 420Q504 420 471.5 397.5Q439 375 385 316Q438 258 470.5 235.5Q503 213 532 213Q571 213 595.5 242.5Q620 272 620 316Z" glyph-name="infinity.case" horiz-adv-x="725" unicode="" /></font>
</defs>
</svg>
