<?xml version="1.0" standalone="no"?>
<!DOCTYPE svg
  PUBLIC '-//W3C//DTD SVG 1.1//EN'
  'http://www.w3.org/Graphics/SVG/1.1/DTD/svg11.dtd'><svg version="1.1" xmlns="http://www.w3.org/2000/svg"><defs><font horiz-adv-x="0" id="font"><font-face ascent="750" bbox="-147 -255 1238 1009" cap-height="708" descent="-250" font-family="Fidelity Sans" font-stretch="normal" font-style="normal" font-weight="708" units-per-em="1000" x-height="499" /><missing-glyph d="M475 0 25 0V708H475ZM133 490 184 490Q231 490 259 514Q287 538 287 580Q287 623 260 645.5Q233 668 183 668H77V380H133ZM400 375Q410 375 420 376.5Q430 378 436 380V419Q433 418 428 417Q423 416 417 416Q402 416 395.5 423.5Q389 431 389 446V542H438V583H389V634H338V583H304V542H338V437Q338 406 353.5 390.5Q369 375 400 375ZM133 621 182 621Q202 621 214.5 610Q227 599 227 580Q227 560 214.5 548.5Q202 537 182 537H133Z" horiz-adv-x="500" /><glyph d="" glyph-name=".null" horiz-adv-x="0" unicode="" /><glyph d="" glyph-name="CR" horiz-adv-x="0" unicode="" /><glyph d="" glyph-name="space" horiz-adv-x="250" unicode=" " /><glyph d="" glyph-name="uni00A0" horiz-adv-x="250" unicode=" " /><glyph d="M474 262 359 589L241 262ZM719 0 566 0L514 148H200L146 0H0L277 708H446Z" glyph-name="A" horiz-adv-x="718" unicode="A" /><glyph d="M568 524Q568 470 538 429Q508 388 459 372V369Q522 357 560.5 311.5Q599 266 599 201Q599 105 535.5 52.5Q472 0 360 0H79V708H334Q443 708 505.5 659Q568 610 568 524ZM438 505Q438 547 408 571Q378 595 327 595H216V415H332Q378 415 408 439.5Q438 464 438 505ZM458 209Q458 256 425.5 284.5Q393 313 345 313H216V111H342Q395 111 426.5 137.5Q458 164 458 209Z" glyph-name="B" horiz-adv-x="640" unicode="B" /><glyph d="M427 106Q486 106 543 129Q600 152 652 198V53Q604 17 542.5 -1.5Q481 -20 413 -20Q254 -20 150 85Q46 190 46 354Q46 517 149 622.5Q252 728 410 728Q473 728 534 711Q595 694 645 663V518Q589 559 534 579.5Q479 600 425 600Q323 600 258 531Q193 462 193 354Q193 246 259 176Q325 106 427 106Z" glyph-name="C" horiz-adv-x="700" unicode="C" /><glyph d="M720 356Q720 190 616 95Q512 0 334 0H79V708H321Q512 708 616 617Q720 526 720 356ZM573 355Q573 467 507.5 529.5Q442 592 328 592H221V114H322Q444 114 508.5 175.5Q573 237 573 355Z" glyph-name="D" horiz-adv-x="768" unicode="D" /><glyph d="M556 0 79 0V708H544V592H220V419H521V304H220V114H556Z" glyph-name="E" horiz-adv-x="597" unicode="E" /><glyph d="M531 592 220 592V398H503V283H220V0H79V656L57 708H531Z" glyph-name="F" horiz-adv-x="573" unicode="F" /><glyph d="M440 600Q330 600 261.5 531Q193 462 193 354Q193 240 256.5 172.5Q320 105 430 105Q465 105 497 112Q529 119 553 131V286H408V396H692V103L714 53Q657 19 583.5 0.5Q510 -18 432 -18Q257 -18 151.5 84Q46 186 46 354Q46 520 153 624Q260 728 431 728Q499 728 565 712.5Q631 697 677 670V525Q623 560 560 580Q497 600 440 600Z" glyph-name="G" horiz-adv-x="759" unicode="G" /><glyph d="M670 0 529 0V311H220V0H79V708H220V427H529V708H670Z" glyph-name="H" horiz-adv-x="750" unicode="H" /><glyph d="M220 0 79 0V708H220Z" glyph-name="I" horiz-adv-x="300" unicode="I" /><glyph d="M174 -18Q131 -18 94.5 -5.5Q58 7 37 28V174Q65 142 98.5 124.5Q132 107 164 107Q210 107 233 136.5Q256 166 256 223V708H394V223Q394 106 338 44Q282 -18 174 -18Z" glyph-name="J" horiz-adv-x="470" unicode="J" /><glyph d="M650 0 472 0L218 319H216V0H79V708H216V421H217L465 708H636L340 383Z" glyph-name="K" horiz-adv-x="661" unicode="K" /><glyph d="M506 0 79 0V708H216V114H506Z" glyph-name="L" horiz-adv-x="517" unicode="L" /><glyph d="M416 0 216 511H211L216 0H79V708H272L470 193H475L663 708H856V0H719L722 511H717L515 0Z" glyph-name="M" horiz-adv-x="937" unicode="M" /><glyph d="M216 0 79 0V708H232L543 202H546L539 708H678V0H521L214 492H210Z" glyph-name="N" horiz-adv-x="757" unicode="N" /><glyph d="M46 356Q46 520 150.5 624Q255 728 417 728Q579 728 684 622Q789 516 789 350Q789 186 685 83Q581 -20 417 -20Q255 -20 150.5 85.5Q46 191 46 356ZM193 356Q193 249 256.5 177.5Q320 106 417 106Q515 106 579 175Q643 244 643 350Q643 457 578.5 528.5Q514 600 417 600Q320 600 256.5 530.5Q193 461 193 356Z" glyph-name="O" horiz-adv-x="836" unicode="O" /><glyph d="M595 492Q595 389 526 330Q457 271 341 271H216V0H79V708H339Q461 708 528 652.5Q595 597 595 492ZM447 491Q447 538 416.5 565Q386 592 336 592H216V386H337Q386 386 416.5 414.5Q447 443 447 491Z" glyph-name="P" horiz-adv-x="630" unicode="P" /><glyph d="M787 75 787 -41Q742 -41 701 -24.5Q660 -8 613 29Q571 5 521 -7.5Q471 -20 417 -20Q255 -20 150.5 85.5Q46 191 46 356Q46 520 150.5 624Q255 728 417 728Q579 728 684 622Q789 516 789 350Q789 277 767 213.5Q745 150 702 101Q725 88 746 81.5Q767 75 787 75ZM193 356Q193 249 256.5 177.5Q320 106 417 106Q441 106 464.5 111Q488 116 509 125L417 218L495 292L593 192Q617 224 630 264.5Q643 305 643 350Q643 457 578.5 528.5Q514 600 417 600Q320 600 256.5 530.5Q193 461 193 356Z" glyph-name="Q" horiz-adv-x="836" unicode="Q" /><glyph d="M774 76 774 -40Q734 -40 697 -22Q660 -4 622 34Q578 7 526 -6.5Q474 -20 417 -20Q255 -20 150.5 85.5Q46 191 46 356Q46 520 150.5 624Q255 728 417 728Q579 728 684 622Q789 516 789 350Q789 277 767 214Q745 151 703 103Q721 89 738.5 82.5Q756 76 774 76ZM193 356Q193 250 256.5 179.5Q320 109 417 109Q448 109 476.5 116.5Q505 124 529 138Q493 178 466.5 194.5Q440 211 415 211V329Q463 329 506.5 303Q550 277 605 210Q624 240 633.5 276Q643 312 643 350Q643 455 578.5 526Q514 597 417 597Q321 597 257 528Q193 459 193 356Z" glyph-name="Q.alt" horiz-adv-x="836" unicode="" /><glyph d="M333 592 216 592V395H331Q389 395 421.5 421.5Q454 448 454 494Q454 541 422 566.5Q390 592 333 592ZM216 0 79 0V708H350Q468 708 533 654Q598 600 598 498Q598 428 559 379Q520 330 450 309L640 0H479L317 289H216Z" glyph-name="R" horiz-adv-x="658" unicode="R" /><glyph d="M314 728Q372 728 425.5 713Q479 698 531 667V526Q478 567 419.5 590.5Q361 614 311 614Q259 614 229.5 589.5Q200 565 200 522Q200 483 227 460Q254 437 332 416Q448 384 498.5 334.5Q549 285 549 206Q549 104 474 42Q399 -20 283 -20Q222 -20 161.5 -4Q101 12 52 41V192Q107 145 169 119Q231 93 286 93Q341 93 373 119.5Q405 146 405 192Q405 232 375 258Q345 284 269 305Q157 334 106.5 384.5Q56 435 56 517Q56 613 127.5 670.5Q199 728 314 728Z" glyph-name="S" horiz-adv-x="591" unicode="S" /><glyph d="M571 592 360 592V0H220V592H10V708H571Z" glyph-name="T" horiz-adv-x="581" unicode="T" /><glyph d="M364 -20Q223 -20 146 58.5Q69 137 69 279V708H206V281Q206 200 248.5 151.5Q291 103 366 103Q442 103 484 151Q526 199 526 281V708H665V279Q665 138 586 59Q507 -20 364 -20Z" glyph-name="U" horiz-adv-x="735" unicode="U" /><glyph d="M0 708 151 708L336 130H339L524 708H672L422 0H247Z" glyph-name="V" horiz-adv-x="672" unicode="V" /><glyph d="M507 544 504 544L356 0H209L8 708H158L291 178H294L430 708H583L724 178H727L860 708H1004L801 0H654Z" glyph-name="W" horiz-adv-x="1014" unicode="W" /><glyph d="M679 0 505 0L339 264L177 0H10L259 369L27 708H197L344 468L488 708H654L424 371Z" glyph-name="X" horiz-adv-x="689" unicode="X" /><glyph d="M634 708 385 296V0H248V296L0 708H162L321 416L476 708Z" glyph-name="Y" horiz-adv-x="633" unicode="Y" /><glyph d="M581 0 40 0V114L402 592H51V708H571V604L198 114H581Z" glyph-name="Z" horiz-adv-x="618" unicode="Z" /><glyph d="M444 591 413 591L261 263H444ZM904 0 444 0V146H207L139 0H-6L326 708H891V590H585V420H868V302H585V117H904Z" glyph-name="AE" horiz-adv-x="944" unicode="Æ" /><glyph d="M946 0 430 0Q257 0 151.5 96.5Q46 193 46 356Q46 517 150 612.5Q254 708 425 708H934V590H632V420H911V303H632V117H946ZM193 356Q193 245 258.5 181Q324 117 435 117H491V590H435Q325 590 259 527Q193 464 193 356Z" glyph-name="OE" horiz-adv-x="986" unicode="Œ" /><glyph d="M506 114 506 0H79V309L15 287V374L79 396V708H216V445L320 481V394L216 358V114Z" glyph-name="Lslash" horiz-adv-x="517" unicode="Ł" /><glyph d="M417 600Q320 600 256.5 530.5Q193 461 193 356Q193 307 208 262.5Q223 218 251 184L512 579Q489 589 465 594.5Q441 600 417 600ZM417 106Q515 106 579 175Q643 244 643 350Q643 401 627 446Q611 491 581 526L318 129Q341 118 366 112Q391 106 417 106ZM789 350Q789 186 685 83Q581 -20 417 -20Q370 -20 326.5 -10.5Q283 -1 245 18L200 -50H96L172 65Q111 117 78.5 192Q46 267 46 356Q46 520 150.5 624Q255 728 417 728Q463 728 505.5 718.5Q548 709 586 691L630 758H734L659 645Q722 593 755.5 516.5Q789 440 789 350Z" glyph-name="Oslash" horiz-adv-x="835" unicode="Ø" /><glyph d="M720 356Q720 190 616 95Q512 0 334 0H79V326H14V412H79V708H321Q512 708 616 617Q720 526 720 356ZM221 326 221 114H322Q444 114 508.5 175.5Q573 237 573 355Q573 467 507.5 529.5Q442 592 328 592H221V412H389V326Z" glyph-name="Eth" horiz-adv-x="768" unicode="Ð" /><glyph d="M216 150 216 0H79V708H216V586H315Q439 586 505 531Q571 476 571 370Q571 267 502.5 208.5Q434 150 317 150ZM424 369Q424 415 393 441.5Q362 468 312 468H216V267H314Q363 267 393.5 294.5Q424 322 424 369Z" glyph-name="Thorn" horiz-adv-x="607" unicode="Þ" /><glyph d="M363 130 363 223L251 214Q210 212 189.5 194Q169 176 169 143Q169 112 190 94.5Q211 77 246 77Q277 77 304 89Q331 101 363 130ZM39 135Q39 195 73.5 230.5Q108 266 179 279L342 309Q351 311 354.5 314Q358 317 358 323V333Q358 372 333.5 392Q309 412 261 412Q215 412 166.5 396Q118 380 76 350V463Q109 487 164 502Q219 517 272 517Q382 517 438.5 461Q495 405 495 295V135Q495 99 497.5 64Q500 29 504 0H374Q371 10 369 24.5Q367 39 366 53H364Q335 21 296 3.5Q257 -14 213 -14Q129 -14 84 24.5Q39 63 39 135Z" glyph-name="a" horiz-adv-x="559" unicode="a" /><glyph d="M200 708 200 451H203Q241 485 275.5 499Q310 513 353 513Q458 513 524.5 440.5Q591 368 591 253Q591 137 524 61.5Q457 -14 355 -14Q315 -14 282 -3Q249 8 216 36Q207 43 203.5 45Q200 47 198 47Q193 47 191 43Q189 39 189 31V0H69V708ZM458 251Q458 318 421 361Q384 404 326 404Q294 404 265.5 390Q237 376 200 341V154Q229 123 259 108.5Q289 94 323 94Q382 94 420 138.5Q458 183 458 251Z" glyph-name="b" horiz-adv-x="634" unicode="b" /><glyph d="M320 -17Q197 -17 119.5 57Q42 131 42 249Q42 366 121 441.5Q200 517 321 517Q358 517 396 506.5Q434 496 469 477V355Q427 384 394.5 396Q362 408 327 408Q262 408 218.5 363Q175 318 175 249Q175 179 218.5 135Q262 91 329 91Q364 91 401 103.5Q438 116 472 139V23Q439 3 400.5 -7Q362 -17 320 -17Z" glyph-name="c" horiz-adv-x="505" unicode="c" /><glyph d="M305 94Q340 94 369.5 108Q399 122 432 156V346Q397 377 367.5 390.5Q338 404 305 404Q247 404 211 361Q175 318 175 251Q175 183 211.5 138.5Q248 94 305 94ZM435 0 435 60H434Q399 20 363 3Q327 -14 278 -14Q173 -14 107.5 58Q42 130 42 248Q42 367 108.5 440Q175 513 279 513Q320 513 356.5 500Q393 487 431 457H432V708H563V0Z" glyph-name="d" horiz-adv-x="634" unicode="d" /><glyph d="M300 415Q251 415 218 383.5Q185 352 177 298H421Q417 353 385 384Q353 415 300 415ZM518 142 518 29Q476 6 428 -5.5Q380 -17 329 -17Q193 -17 117.5 52.5Q42 122 42 249Q42 370 112.5 443.5Q183 517 298 517Q412 517 479.5 446Q547 375 547 260Q547 253 546.5 245Q546 237 544 216H179Q189 151 226.5 119.5Q264 88 332 88Q384 88 432 102Q480 116 518 142Z" glyph-name="e" horiz-adv-x="590" unicode="e" /><glyph d="M337 499 337 398H221V0H90V398H7V499H90V549Q90 636 134.5 679.5Q179 723 268 723Q285 723 305.5 721Q326 719 343 715V615Q332 619 320 621Q308 623 295 623Q257 623 239 604Q221 585 221 544V499Z" glyph-name="f" horiz-adv-x="341" unicode="f" /><glyph d="M301 420Q255 420 227.5 393.5Q200 367 200 321Q200 275 227.5 248.5Q255 222 301 222Q348 222 375.5 248.5Q403 275 403 321Q403 367 375.5 393.5Q348 420 301 420ZM589 -72Q589 -158 514 -206.5Q439 -255 303 -255Q182 -255 114 -217.5Q46 -180 46 -112Q46 -76 68 -48Q90 -20 131 -3V-1Q112 7 98.5 29.5Q85 52 85 75Q85 105 98 129.5Q111 154 140 178Q107 203 90 239Q73 275 73 322Q73 411 135.5 463Q198 515 302 515Q319 515 335.5 513.5Q352 512 381 507Q408 502 422.5 500.5Q437 499 451 499H599V398H505V396Q517 384 524 363.5Q531 343 531 320Q531 232 469 182.5Q407 133 300 133Q277 133 255.5 135.5Q234 138 215 143Q206 133 201.5 124Q197 115 197 106Q197 92 207.5 82.5Q218 73 236 73H406Q496 73 542.5 36Q589 -1 589 -72ZM463 -91Q463 -60 441 -44.5Q419 -29 375 -29H257Q216 -29 193 -48Q170 -67 170 -99Q170 -134 206.5 -153Q243 -172 312 -172Q386 -172 424.5 -151.5Q463 -131 463 -91Z" glyph-name="g" horiz-adv-x="613" unicode="g" /><glyph d="M301 419Q254 419 226 393Q198 367 198 322Q198 278 226 251.5Q254 225 301 225Q349 225 377 251Q405 277 405 322Q405 367 377 393Q349 419 301 419ZM589 -72Q589 -158 514 -206.5Q439 -255 303 -255Q182 -255 114 -217.5Q46 -180 46 -112Q46 -76 68 -48Q90 -20 131 -3V-1Q112 7 98.5 29.5Q85 52 85 75Q85 105 98 129.5Q111 154 139 177Q105 201 87.5 238Q70 275 70 322Q70 412 133 464Q196 516 302 516Q330 516 357.5 511.5Q385 507 409 498Q452 563 497 584.5Q542 606 614 601V500Q569 505 540.5 494.5Q512 484 484 451Q509 427 521.5 394Q534 361 534 321Q534 231 472.5 182Q411 133 300 133Q277 133 255.5 135.5Q234 138 215 143Q206 133 201.5 124Q197 115 197 106Q197 92 207.5 82.5Q218 73 236 73H406Q496 73 542.5 36Q589 -1 589 -72ZM463 -91Q463 -60 441 -44.5Q419 -29 375 -29H257Q216 -29 193 -48Q170 -67 170 -99Q170 -134 206.5 -153Q243 -172 312 -172Q386 -172 424.5 -151.5Q463 -131 463 -91Z" glyph-name="g.alt" horiz-adv-x="613" unicode="" /><glyph d="M202 444 204 444Q243 482 278.5 497.5Q314 513 357 513Q442 513 491.5 460Q541 407 541 315V0H410V306Q410 351 385 377.5Q360 404 317 404Q287 404 259.5 390Q232 376 202 345V0H70V708H202Z" glyph-name="h" horiz-adv-x="606" unicode="h" /><glyph d="M136 579Q105 579 83 600Q61 621 61 651Q61 681 83 702Q105 723 136 723Q166 723 187 702Q208 681 208 651Q208 621 186.5 600Q165 579 136 579ZM200 0 69 0V499H200Z" glyph-name="i" horiz-adv-x="271" unicode="i" /><glyph d="M136 579Q105 579 83 600Q61 621 61 651Q61 681 83 702Q105 723 136 723Q166 723 187 702Q208 681 208 651Q208 621 186.5 600Q165 579 136 579ZM200 499 200 -25Q200 -139 160 -189.5Q120 -240 33 -240Q27 -240 19.5 -239.5Q12 -239 -28 -233V-125Q-21 -127 -12.5 -128.5Q-4 -130 3 -130Q37 -130 53 -109Q69 -88 69 -42V499Z" glyph-name="j" horiz-adv-x="271" unicode="j" /><glyph d="M382 0 203 234H200V0H69V708H200V294H203L375 499H529L325 271L538 0Z" glyph-name="k" horiz-adv-x="550" unicode="k" /><glyph d="M200 708 200 145Q200 123 210.5 111.5Q221 100 242 100H260V0H198Q132 0 100.5 33Q69 66 69 134V708Z" glyph-name="l" horiz-adv-x="272" unicode="l" /><glyph d="M307 404Q278 404 253.5 390Q229 376 202 343V0H70V380Q70 412 67.5 442.5Q65 473 60 499H188Q192 486 194 470Q196 454 197 439H198Q235 478 271 495.5Q307 513 350 513Q401 513 438 492.5Q475 472 496 432Q537 475 575.5 494Q614 513 660 513Q746 513 793 461Q840 409 840 315V0H709V306Q709 351 686.5 377.5Q664 404 626 404Q597 404 572.5 389.5Q548 375 520 341Q521 337 521 331.5Q521 326 521 315V0H390V306Q390 351 367.5 377.5Q345 404 307 404Z" glyph-name="m" horiz-adv-x="906" unicode="m" /><glyph d="M197 439 198 439Q239 479 275.5 496Q312 513 355 513Q441 513 491 460Q541 407 541 315V0H410V306Q410 351 384.5 377.5Q359 404 315 404Q284 404 257 389.5Q230 375 202 343V0H70V380Q70 412 67.5 442.5Q65 473 60 499H188Q192 486 194 470Q196 454 197 439Z" glyph-name="n" horiz-adv-x="606" unicode="n" /><glyph d="M42 250Q42 369 118.5 443Q195 517 313 517Q432 517 508.5 442.5Q585 368 585 249Q585 131 508 57Q431 -17 313 -17Q195 -17 118.5 57Q42 131 42 250ZM175 251Q175 184 214 140Q253 96 313 96Q374 96 413 139Q452 182 452 248Q452 314 412.5 358Q373 402 313 402Q252 402 213.5 359.5Q175 317 175 251Z" glyph-name="o" horiz-adv-x="627" unicode="o" /><glyph d="M461 251Q461 318 423.5 361Q386 404 327 404Q292 404 262.5 389Q233 374 200 337V152Q230 122 261 108Q292 94 328 94Q387 94 424 138Q461 182 461 251ZM351 -14Q307 -14 270 -1Q233 12 202 38H200V-240H69V499H189L195 437H197Q230 475 269.5 494Q309 513 356 513Q461 513 527.5 441Q594 369 594 253Q594 136 525 61Q456 -14 351 -14Z" glyph-name="p" horiz-adv-x="637" unicode="p" /><glyph d="M42 250Q42 367 108.5 440Q175 513 277 513Q314 513 346 502.5Q378 492 414 466Q424 458 428 456Q432 454 434 454Q439 454 441 457Q443 460 443 467V499H563V-111Q563 -139 567 -160.5Q571 -182 580 -200L461 -244Q447 -224 440 -195Q433 -166 433 -129V47Q398 15 363 0.5Q328 -14 286 -14Q178 -14 110 59.5Q42 133 42 250ZM306 94Q343 94 373 109Q403 124 433 157V345Q401 375 369.5 389.5Q338 404 305 404Q248 404 211.5 360Q175 316 175 250Q175 183 211.5 138.5Q248 94 306 94Z" glyph-name="q" horiz-adv-x="634" unicode="q" /><glyph d="M433 -240 433 47Q398 15 363 0.5Q328 -14 286 -14Q178 -14 110 59.5Q42 133 42 250Q42 367 108.5 440Q175 513 277 513Q314 513 346 502.5Q378 492 414 466Q424 458 428 456Q432 454 434 454Q439 454 441 457Q443 460 443 467V499H563V-240ZM306 94Q343 94 373 109Q403 124 433 157V345Q401 375 369.5 389.5Q338 404 305 404Q248 404 211.5 360Q175 316 175 250Q175 183 211.5 138.5Q248 94 306 94Z" glyph-name="q.alt" horiz-adv-x="625" unicode="" /><glyph d="M196 419 198 419Q218 466 256 489.5Q294 513 350 513H369V393Q360 395 348 396Q336 397 323 397Q283 397 253.5 377.5Q224 358 202 318V0H70V380Q70 412 67.5 442.5Q65 473 60 499H188Q192 481 194 462.5Q196 444 196 419Z" glyph-name="r" horiz-adv-x="376" unicode="r" /><glyph d="M236 -16Q184 -16 134.5 -4Q85 8 45 30V154Q83 123 136.5 103Q190 83 235 83Q268 83 287 97Q306 111 306 136Q306 161 284.5 176Q263 191 195 208Q120 226 84 263Q48 300 48 359Q48 430 106 473.5Q164 517 247 517Q298 517 340.5 506.5Q383 496 419 475V355Q382 382 336.5 397.5Q291 413 249 413Q216 413 197.5 400.5Q179 388 179 365Q179 340 199 327Q219 314 279 299Q361 279 400 241.5Q439 204 439 145Q439 71 381 27.5Q323 -16 236 -16Z" glyph-name="s" horiz-adv-x="477" unicode="s" /><glyph d="M243 -12Q167 -12 128 27Q89 66 89 141V398H6V499H89V624H215V499H336V398H215V162Q215 125 232 107Q249 89 285 89Q298 89 310.5 91Q323 93 331 97V1Q313 -5 289.5 -8.5Q266 -12 243 -12Z" glyph-name="t" horiz-adv-x="353" unicode="t" /><glyph d="M407 61 405 61Q372 22 335 4Q298 -14 252 -14Q161 -14 112 41.5Q63 97 63 199V499H195V213Q195 158 221.5 126Q248 94 294 94Q325 94 350.5 108.5Q376 123 403 156V499H534V119Q534 87 536.5 56.5Q539 26 544 0H416Q412 14 410 29.5Q408 45 407 61Z" glyph-name="u" horiz-adv-x="606" unicode="u" /><glyph d="M347 0 201 0L7 499H155L278 137H280L399 499H540Z" glyph-name="v" horiz-adv-x="549" unicode="v" /><glyph d="M426 354 424 354L307 0H175L11 499H153L251 154H255L364 499H495L609 154H611L709 499H843L678 0H545Z" glyph-name="w" horiz-adv-x="855" unicode="w" /><glyph d="M556 0 402 0L283 177L161 0H9L199 258L26 499H179L287 337L393 499H541L368 258Z" glyph-name="x" horiz-adv-x="567" unicode="x" /><glyph d="M116 -245 116 -126Q151 -118 169.5 -98Q188 -78 204 -33L212 -13Q217 -1 216.5 9.5Q216 20 209 36L15 499H163L288 137L405 499H546L336 -46Q297 -150 247 -194.5Q197 -239 116 -245Z" glyph-name="y" horiz-adv-x="563" unicode="y" /><glyph d="M452 0 29 0V95L278 398H38V499H444V410L186 100H452Z" glyph-name="z" horiz-adv-x="484" unicode="z" /><glyph d="M617 414Q569 414 537 384Q505 354 497 302H734Q731 355 700 384.5Q669 414 617 414ZM170 144Q170 113 191.5 95Q213 77 247 77Q281 77 311.5 93.5Q342 110 377 148Q371 166 367.5 183.5Q364 201 363 219L254 214Q212 211 191 194Q170 177 170 144ZM832 143 832 29Q789 6 742 -5.5Q695 -17 646 -17Q567 -17 507 8Q447 33 411 81Q364 30 317.5 8Q271 -14 212 -14Q130 -14 84.5 24.5Q39 63 39 135Q39 196 76.5 232Q114 268 189 280L341 305Q349 306 353 309.5Q357 313 357 319V334Q357 373 332.5 393.5Q308 414 261 414Q215 414 167 397.5Q119 381 76 351V466Q109 489 164.5 504Q220 519 272 519Q330 519 373 503.5Q416 488 444 457Q478 487 521.5 502.5Q565 518 615 518Q728 518 794 448Q860 378 860 263Q860 258 860 252Q860 246 859 235Q859 228 859 224.5Q859 221 859 219H498Q508 153 545 121.5Q582 90 649 90Q699 90 746 103.5Q793 117 832 143Z" glyph-name="ae" horiz-adv-x="903" unicode="æ" /><glyph d="M710 414Q661 414 627.5 383Q594 352 586 299H830Q827 353 795.5 383.5Q764 414 710 414ZM176 252Q176 186 214.5 143Q253 100 313 100Q374 100 412.5 142Q451 184 451 248Q451 314 412.5 357Q374 400 313 400Q253 400 214.5 358Q176 316 176 252ZM928 143 928 29Q885 6 837 -5.5Q789 -17 738 -17Q665 -17 608 5Q551 27 514 70Q478 28 425.5 5.5Q373 -17 313 -17Q194 -17 118 57Q42 131 42 251Q42 370 118.5 444.5Q195 519 313 519Q373 519 425.5 496.5Q478 474 514 432Q549 474 599 496Q649 518 708 518Q822 518 889.5 446.5Q957 375 957 259Q957 248 956.5 237Q956 226 955 215H588Q598 151 636 120.5Q674 90 742 90Q794 90 842 103.5Q890 117 928 143Z" glyph-name="oe" horiz-adv-x="1000" unicode="œ" /><glyph d="M260 100 260 0H198Q132 0 100.5 33Q69 66 69 134V311L15 292V377L69 396V708H200V442L261 464V379L200 357V145Q200 123 210.5 111.5Q221 100 242 100Z" glyph-name="lslash" horiz-adv-x="272" unicode="ł" /><glyph d="M313 402Q252 402 213.5 359.5Q175 317 175 251Q175 220 184 192.5Q193 165 211 144L364 393Q352 398 339.5 400Q327 402 313 402ZM313 97Q374 97 413 140Q452 183 452 248Q452 279 443 306.5Q434 334 416 355L263 106Q274 102 286.5 99.5Q299 97 313 97ZM585 249Q585 131 508 57Q431 -17 313 -17Q283 -17 254.5 -11.5Q226 -6 200 4L173 -40H97L144 36Q95 72 68.5 127Q42 182 42 250Q42 369 118.5 443Q195 517 313 517Q344 517 372.5 511.5Q401 506 427 495L455 541H530L483 464Q532 428 558.5 372.5Q585 317 585 249Z" glyph-name="oslash" horiz-adv-x="628" unicode="ø" /><glyph d="M585 272Q585 140 509.5 61.5Q434 -17 313 -17Q194 -17 117.5 57.5Q41 132 41 251Q41 369 118 443.5Q195 518 313 518Q335 518 358 512.5Q381 507 401 496Q384 526 363.5 554Q343 582 318 608L215 562L194 619L268 652Q250 666 230.5 678.5Q211 691 191 702L289 747Q309 736 329 723.5Q349 711 368 696L467 740L489 684L418 652Q497 574 541 474Q585 374 585 272ZM176 252Q176 186 214.5 142.5Q253 99 313 99Q373 99 412 141.5Q451 184 451 248Q451 314 412 357Q373 400 313 400Q253 400 214.5 358Q176 316 176 252Z" glyph-name="eth" horiz-adv-x="628" unicode="ð" /><glyph d="M461 251Q461 318 423.5 361Q386 404 327 404Q292 404 262.5 389Q233 374 200 337V152Q230 122 261 108Q292 94 328 94Q387 94 424 138Q461 182 461 251ZM351 -14Q307 -14 270 -1Q233 12 202 38H200V-240H69V708H200V438Q232 476 271 494.5Q310 513 356 513Q461 513 527.5 441Q594 369 594 253Q594 136 525 61Q456 -14 351 -14Z" glyph-name="thorn" horiz-adv-x="637" unicode="þ" /><glyph d="M416 514Q416 557 388.5 582Q361 607 314 607Q256 607 226 567Q196 527 196 452V0H64V461Q64 588 131.5 658Q199 728 321 728Q428 728 493 673Q558 618 558 529Q558 475 527.5 434Q497 393 447 379V375Q513 359 550.5 314Q588 269 588 203Q588 104 522 47Q456 -10 348 -10Q330 -10 310.5 -7.5Q291 -5 273 -1V122Q289 119 304 117.5Q319 116 335 116Q386 116 416 141.5Q446 167 446 213Q446 267 416 291.5Q386 316 319 316H301V424H324Q366 424 391 448Q416 472 416 514Z" glyph-name="germandbls" horiz-adv-x="630" unicode="ß" /><glyph d="M200 0 69 0V499H200Z" glyph-name="dotlessi" horiz-adv-x="271" unicode="ı" /><glyph d="M200 499 200 -25Q200 -139 160 -189.5Q120 -240 33 -240Q27 -240 19.5 -239.5Q12 -239 -28 -233V-125Q-21 -127 -12.5 -128.5Q-4 -130 3 -130Q37 -130 53 -109Q69 -88 69 -42V499Z" glyph-name="dotlessj" horiz-adv-x="271" unicode="ȷ" /><glyph d="M470 579Q439 579 417 600Q395 621 395 651Q395 681 417 702Q439 723 470 723Q500 723 521 702Q542 681 542 651Q542 621 520.5 600Q499 579 470 579ZM534 0 403 0V398H221V0H90V398H7V499H90V549Q90 636 134.5 679.5Q179 723 268 723Q285 723 305.5 721Q326 719 343 715V615Q332 619 320 621Q308 623 295 623Q257 623 239 604Q221 585 221 544V499H534Z" glyph-name="fi" horiz-adv-x="604" unicode="ﬁ" /><glyph d="M534 708 534 145Q534 123 544.5 111.5Q555 100 576 100H594V0H532Q466 0 434.5 33Q403 66 403 134V708ZM337 499 337 398H221V0H90V398H7V499H90V549Q90 636 134.5 679.5Q179 723 268 723Q285 723 305.5 721Q326 719 343 715V615Q332 619 320 621Q308 623 295 623Q257 623 239 604Q221 585 221 544V499Z" glyph-name="fl" horiz-adv-x="606" unicode="ﬂ" /><glyph d="M534 708 534 451H537Q575 485 609.5 499Q644 513 687 513Q792 513 858.5 440.5Q925 368 925 253Q925 137 858 61.5Q791 -14 689 -14Q649 -14 616 -3Q583 8 550 36Q541 43 537.5 45Q534 47 532 47Q527 47 525 43Q523 39 523 31V0H403V708ZM792 251Q792 318 755 361Q718 404 660 404Q628 404 599.5 390Q571 376 534 341V154Q563 123 593 108.5Q623 94 657 94Q716 94 754 138.5Q792 183 792 251ZM337 499 337 398H221V0H90V398H7V499H90V549Q90 636 134.5 679.5Q179 723 268 723Q285 723 305.5 721Q326 719 343 715V615Q332 619 320 621Q308 623 295 623Q257 623 239 604Q221 585 221 544V499Z" glyph-name="f_b" horiz-adv-x="968" unicode="" /><glyph d="M535 444 537 444Q576 482 611.5 497.5Q647 513 690 513Q775 513 824.5 460Q874 407 874 315V0H743V306Q743 351 718 377.5Q693 404 650 404Q620 404 592.5 390Q565 376 535 345V0H403V708H535ZM337 499 337 398H221V0H90V398H7V499H90V549Q90 636 134.5 679.5Q179 723 268 723Q285 723 305.5 721Q326 719 343 715V615Q332 619 320 621Q308 623 295 623Q257 623 239 604Q221 585 221 544V499Z" glyph-name="f_h" horiz-adv-x="939" unicode="" /><glyph d="M470 579Q439 579 417 600Q395 621 395 651Q395 681 417 702Q439 723 470 723Q500 723 521 702Q542 681 542 651Q542 621 520.5 600Q499 579 470 579ZM367 -240Q361 -240 353.5 -239.5Q346 -239 306 -233V-125Q313 -127 321.5 -128.5Q330 -130 337 -130Q371 -130 387 -109Q403 -88 403 -42V398H221V0H90V398H7V499H90V549Q90 636 134.5 679.5Q179 723 268 723Q285 723 305.5 721Q326 719 343 715V615Q332 619 320 621Q308 623 295 623Q257 623 239 604Q221 585 221 544V499H534V-25Q534 -139 494 -189.5Q454 -240 367 -240Z" glyph-name="f_j" horiz-adv-x="605" unicode="" /><glyph d="M337 499 337 398H221V0H90V398H7V499H90V549Q90 636 134.5 679.5Q179 723 268 723Q285 723 305.5 721Q326 719 343 715V615Q332 619 320 621Q308 623 295 623Q257 623 239 604Q221 585 221 544V499ZM716 0 537 234H534V0H403V708H534V294H537L709 499H863L659 271L872 0Z" glyph-name="f_k" horiz-adv-x="884" unicode="" /><glyph d="M562 -12Q486 -12 447 27Q408 66 408 141V398H221V0H90V398H7V499H90V549Q90 636 134.5 679.5Q179 723 268 723Q285 723 305.5 721Q326 719 343 715V615Q332 619 320 621Q308 623 295 623Q257 623 239 604Q221 585 221 544V499H408V624H534V499H655V398H534V162Q534 125 551 107Q568 89 604 89Q617 89 629.5 91Q642 93 650 97V1Q632 -5 608.5 -8.5Q585 -12 562 -12Z" glyph-name="f_t" horiz-adv-x="672" unicode="" /><glyph d="M534 0 403 0V398H221V0H90V398H7V499H90V549Q90 636 134.5 679.5Q179 723 268 723Q285 723 305.5 721Q326 719 343 715V615Q332 619 320 621Q308 623 295 623Q257 623 239 604Q221 585 221 544V499H403V549Q403 636 447.5 679.5Q492 723 581 723Q598 723 618.5 721Q639 719 656 715V615Q645 619 633 621Q621 623 608 623Q570 623 552 604Q534 585 534 544V499H650V398H534Z" glyph-name="f_f" horiz-adv-x="654" unicode="ﬀ" /><glyph d="M783 579Q752 579 730 600Q708 621 708 651Q708 681 730 702Q752 723 783 723Q813 723 834 702Q855 681 855 651Q855 621 833.5 600Q812 579 783 579ZM534 0 403 0V398H221V0H90V398H7V499H90V549Q90 636 134.5 679.5Q179 723 268 723Q285 723 305.5 721Q326 719 343 715V615Q332 619 320 621Q308 623 295 623Q257 623 239 604Q221 585 221 544V499H403V549Q403 636 447.5 679.5Q492 723 581 723Q598 723 618.5 721Q639 719 656 715V615Q645 619 633 621Q621 623 608 623Q570 623 552 604Q534 585 534 544V499H847V0H716V398H534Z" glyph-name="f_f_i" horiz-adv-x="918" unicode="ﬃ" /><glyph d="M847 708 847 145Q847 123 857.5 111.5Q868 100 889 100H907V0H845Q779 0 747.5 33Q716 66 716 134V708ZM534 0 403 0V398H221V0H90V398H7V499H90V549Q90 636 134.5 679.5Q179 723 268 723Q285 723 305.5 721Q326 719 343 715V615Q332 619 320 621Q308 623 295 623Q257 623 239 604Q221 585 221 544V499H403V549Q403 636 447.5 679.5Q492 723 581 723Q598 723 618.5 721Q639 719 656 715V615Q645 619 633 621Q621 623 608 623Q570 623 552 604Q534 585 534 544V499H650V398H534Z" glyph-name="f_f_l" horiz-adv-x="919" unicode="ﬄ" /><glyph d="M847 708 847 451H850Q888 485 922.5 499Q957 513 1000 513Q1105 513 1171.5 440.5Q1238 368 1238 253Q1238 137 1171 61.5Q1104 -14 1002 -14Q962 -14 929 -3Q896 8 863 36Q854 43 850.5 45Q847 47 845 47Q840 47 838 43Q836 39 836 31V0H716V708ZM1105 251Q1105 318 1068 361Q1031 404 973 404Q941 404 912.5 390Q884 376 847 341V154Q876 123 906 108.5Q936 94 970 94Q1029 94 1067 138.5Q1105 183 1105 251ZM534 0 403 0V398H221V0H90V398H7V499H90V549Q90 636 134.5 679.5Q179 723 268 723Q285 723 305.5 721Q326 719 343 715V615Q332 619 320 621Q308 623 295 623Q257 623 239 604Q221 585 221 544V499H403V549Q403 636 447.5 679.5Q492 723 581 723Q598 723 618.5 721Q639 719 656 715V615Q645 619 633 621Q621 623 608 623Q570 623 552 604Q534 585 534 544V499H650V398H534Z" glyph-name="f_f_b" horiz-adv-x="1281" unicode="" /><glyph d="M848 444 850 444Q889 482 924.5 497.5Q960 513 1003 513Q1088 513 1137.5 460Q1187 407 1187 315V0H1056V306Q1056 351 1031 377.5Q1006 404 963 404Q933 404 905.5 390Q878 376 848 345V0H716V708H848ZM534 0 403 0V398H221V0H90V398H7V499H90V549Q90 636 134.5 679.5Q179 723 268 723Q285 723 305.5 721Q326 719 343 715V615Q332 619 320 621Q308 623 295 623Q257 623 239 604Q221 585 221 544V499H403V549Q403 636 447.5 679.5Q492 723 581 723Q598 723 618.5 721Q639 719 656 715V615Q645 619 633 621Q621 623 608 623Q570 623 552 604Q534 585 534 544V499H650V398H534Z" glyph-name="f_f_h" horiz-adv-x="1252" unicode="" /><glyph d="M783 579Q752 579 730 600Q708 621 708 651Q708 681 730 702Q752 723 783 723Q813 723 834 702Q855 681 855 651Q855 621 833.5 600Q812 579 783 579ZM680 -240Q674 -240 666.5 -239.5Q659 -239 619 -233V-125Q626 -127 634.5 -128.5Q643 -130 650 -130Q684 -130 700 -109Q716 -88 716 -42V398H534V0H403V398H221V0H90V398H7V499H90V549Q90 636 134.5 679.5Q179 723 268 723Q285 723 305.5 721Q326 719 343 715V615Q332 619 320 621Q308 623 295 623Q257 623 239 604Q221 585 221 544V499H403V549Q403 636 447.5 679.5Q492 723 581 723Q598 723 618.5 721Q639 719 656 715V615Q645 619 633 621Q621 623 608 623Q570 623 552 604Q534 585 534 544V499H847V-25Q847 -139 807 -189.5Q767 -240 680 -240Z" glyph-name="f_f_j" horiz-adv-x="918" unicode="" /><glyph d="M534 0 403 0V398H221V0H90V398H7V499H90V549Q90 636 134.5 679.5Q179 723 268 723Q285 723 305.5 721Q326 719 343 715V615Q332 619 320 621Q308 623 295 623Q257 623 239 604Q221 585 221 544V499H403V549Q403 636 447.5 679.5Q492 723 581 723Q598 723 618.5 721Q639 719 656 715V615Q645 619 633 621Q621 623 608 623Q570 623 552 604Q534 585 534 544V499H650V398H534ZM1029 0 850 234H847V0H716V708H847V294H850L1022 499H1176L972 271L1185 0Z" glyph-name="f_f_k" horiz-adv-x="1197" unicode="" /><glyph d="M875 -12Q799 -12 760 27Q721 66 721 141V398H534V0H403V398H221V0H90V398H7V499H90V549Q90 636 134.5 679.5Q179 723 268 723Q285 723 305.5 721Q326 719 343 715V615Q332 619 320 621Q308 623 295 623Q257 623 239 604Q221 585 221 544V499H403V549Q403 636 447.5 679.5Q492 723 581 723Q598 723 618.5 721Q639 719 656 715V615Q645 619 633 621Q621 623 608 623Q570 623 552 604Q534 585 534 544V499H721V624H847V499H968V398H847V162Q847 125 864 107Q881 89 917 89Q930 89 942.5 91Q955 93 963 97V1Q945 -5 921.5 -8.5Q898 -12 875 -12Z" glyph-name="f_f_t" horiz-adv-x="985" unicode="" /><glyph d="M474 262 359 589L241 262ZM719 0 566 0L514 148H200L146 0H0L277 708H446ZM534 929 394 785H278L386 929Z" glyph-name="Aacute" horiz-adv-x="718" unicode="Á" /><glyph d="M474 262 359 589L241 262ZM719 0 566 0L514 148H200L146 0H0L277 708H446ZM551 785 421 785L359 889L296 785H167L277 929H440Z" glyph-name="Acircumflex" horiz-adv-x="718" unicode="Â" /><glyph d="M474 262 359 589L241 262ZM719 0 566 0L514 148H200L146 0H0L277 708H446ZM458 801Q430 801 409.5 820.5Q389 840 389 867Q389 894 409.5 914Q430 934 458 934Q485 934 504.5 914Q524 894 524 867Q524 840 504.5 820.5Q485 801 458 801ZM260 801Q232 801 212.5 820Q193 839 193 867Q193 895 212.5 914.5Q232 934 260 934Q287 934 306.5 914Q326 894 326 867Q326 840 306.5 820.5Q287 801 260 801Z" glyph-name="Adieresis" horiz-adv-x="718" unicode="Ä" /><glyph d="M474 262 359 589L241 262ZM719 0 566 0L514 148H200L146 0H0L277 708H446ZM438 785 321 785L185 929H330Z" glyph-name="Agrave" horiz-adv-x="718" unicode="À" /><glyph d="M362 849Q338 849 321.5 833Q305 817 305 793Q305 769 321.5 753Q338 737 362 737Q385 737 400 753Q415 769 415 793Q415 817 400 833Q385 849 362 849ZM474 262 359 589L241 262ZM719 0 566 0L514 148H200L146 0H0L268 685Q243 704 229.5 732.5Q216 761 216 793Q216 851 259 893Q302 935 362 935Q421 935 463 893Q505 851 505 793Q505 762 492 734Q479 706 455 685Z" glyph-name="Aring" horiz-adv-x="718" unicode="Å" /><glyph d="M474 262 359 589L241 262ZM719 0 566 0L514 148H200L146 0H0L277 708H446ZM293 923Q309 923 326 916Q343 909 362 894Q378 881 388 875.5Q398 870 409 870Q423 870 430 880.5Q437 891 440 919H513Q509 856 487 825Q465 794 423 794Q406 794 388 801.5Q370 809 351 824Q336 836 326 841.5Q316 847 307 847Q293 847 286 836.5Q279 826 275 798H202Q206 861 229 892Q252 923 293 923Z" glyph-name="Atilde" horiz-adv-x="718" unicode="Ã" /><glyph d="M474 262 359 589L241 262ZM719 0 566 0L514 148H200L146 0H0L277 708H446ZM422 919 502 919Q492 854 453.5 818Q415 782 356 782Q297 782 259 818.5Q221 855 212 919H294Q297 888 314 870.5Q331 853 356 853Q385 853 400.5 869Q416 885 422 919Z" glyph-name="Abreve" horiz-adv-x="718" unicode="Ă" /><glyph d="M474 262 359 589L241 262ZM719 0 566 0L514 148H200L146 0H0L277 708H446ZM502 822 213 822V894H502Z" glyph-name="Amacron" horiz-adv-x="718" unicode="Ā" /><glyph d="M474 262 359 589L241 262ZM457 -146Q457 -110 486 -71.5Q515 -33 566 0L514 148H200L146 0H0L277 708H446L719 0H640Q595 -41 574.5 -70.5Q554 -100 554 -127Q554 -148 565.5 -159.5Q577 -171 599 -171Q618 -171 633 -165.5Q648 -160 658 -150L681 -202Q662 -218 635.5 -225.5Q609 -233 573 -233Q518 -233 487.5 -210Q457 -187 457 -146Z" glyph-name="Aogonek" horiz-adv-x="718" unicode="Ą" /><glyph d="M521 -139Q521 -184 481 -209Q441 -234 376 -234Q348 -234 315 -228Q282 -222 258 -212L282 -156Q298 -164 322 -168.5Q346 -173 367 -173Q395 -173 409.5 -164Q424 -155 424 -137Q424 -122 411 -114.5Q398 -107 375 -107Q364 -107 349.5 -109.5Q335 -112 324 -116L292 -92L353 -16Q215 5 130.5 106.5Q46 208 46 354Q46 517 149 622.5Q252 728 410 728Q473 728 534 711Q595 694 645 663V518Q589 559 534 579.5Q479 600 425 600Q323 600 258 531Q193 462 193 354Q193 246 259 176Q325 106 427 106Q486 106 543 129Q600 152 652 198V53Q607 20 549.5 1Q492 -18 428 -20L391 -64Q397 -62 404 -61.5Q411 -61 424 -61Q470 -61 495.5 -81Q521 -101 521 -139Z" glyph-name="Ccedilla" horiz-adv-x="700" unicode="Ç" /><glyph d="M427 106Q486 106 543 129Q600 152 652 198V53Q604 17 542.5 -1.5Q481 -20 413 -20Q254 -20 150 85Q46 190 46 354Q46 517 149 622.5Q252 728 410 728Q473 728 534 711Q595 694 645 663V518Q589 559 534 579.5Q479 600 425 600Q323 600 258 531Q193 462 193 354Q193 246 259 176Q325 106 427 106ZM571 929 431 785H315L423 929Z" glyph-name="Cacute" horiz-adv-x="700" unicode="Ć" /><glyph d="M427 106Q486 106 543 129Q600 152 652 198V53Q604 17 542.5 -1.5Q481 -20 413 -20Q254 -20 150 85Q46 190 46 354Q46 517 149 622.5Q252 728 410 728Q473 728 534 711Q595 694 645 663V518Q589 559 534 579.5Q479 600 425 600Q323 600 258 531Q193 462 193 354Q193 246 259 176Q325 106 427 106ZM204 929 332 929L394 826L457 929H588L475 785H313Z" glyph-name="Ccaron" horiz-adv-x="700" unicode="Č" /><glyph d="M427 106Q486 106 543 129Q600 152 652 198V53Q604 17 542.5 -1.5Q481 -20 413 -20Q254 -20 150 85Q46 190 46 354Q46 517 149 622.5Q252 728 410 728Q473 728 534 711Q595 694 645 663V518Q589 559 534 579.5Q479 600 425 600Q323 600 258 531Q193 462 193 354Q193 246 259 176Q325 106 427 106ZM588 785 458 785L396 889L333 785H204L314 929H477Z" glyph-name="Ccircumflex" horiz-adv-x="700" unicode="Ĉ" /><glyph d="M427 106Q486 106 543 129Q600 152 652 198V53Q604 17 542.5 -1.5Q481 -20 413 -20Q254 -20 150 85Q46 190 46 354Q46 517 149 622.5Q252 728 410 728Q473 728 534 711Q595 694 645 663V518Q589 559 534 579.5Q479 600 425 600Q323 600 258 531Q193 462 193 354Q193 246 259 176Q325 106 427 106ZM396 795Q365 795 342.5 816Q320 837 320 867Q320 897 342.5 918.5Q365 940 396 940Q426 940 447 918.5Q468 897 468 867Q468 838 446.5 816.5Q425 795 396 795Z" glyph-name="Cdotaccent" horiz-adv-x="700" unicode="Ċ" /><glyph d="M720 356Q720 190 616 95Q512 0 334 0H79V708H321Q512 708 616 617Q720 526 720 356ZM573 355Q573 467 507.5 529.5Q442 592 328 592H221V114H322Q444 114 508.5 175.5Q573 237 573 355ZM142 929 270 929L332 826L395 929H526L413 785H251Z" glyph-name="Dcaron" horiz-adv-x="768" unicode="Ď" /><glyph d="M720 356Q720 190 616 95Q512 0 334 0H79V326H14V412H79V708H321Q512 708 616 617Q720 526 720 356ZM221 326 221 114H322Q444 114 508.5 175.5Q573 237 573 355Q573 467 507.5 529.5Q442 592 328 592H221V412H389V326Z" glyph-name="Dcroat" horiz-adv-x="768" unicode="Đ" /><glyph d="M556 0 79 0V708H544V592H220V419H521V304H220V114H556ZM498 929 358 785H242L350 929Z" glyph-name="Eacute" horiz-adv-x="597" unicode="É" /><glyph d="M556 0 79 0V708H544V592H220V419H521V304H220V114H556ZM515 785 385 785L323 889L260 785H131L241 929H404Z" glyph-name="Ecircumflex" horiz-adv-x="597" unicode="Ê" /><glyph d="M556 0 79 0V708H544V592H220V419H521V304H220V114H556ZM422 801Q394 801 373.5 820.5Q353 840 353 867Q353 894 373.5 914Q394 934 422 934Q449 934 468.5 914Q488 894 488 867Q488 840 468.5 820.5Q449 801 422 801ZM224 801Q196 801 176.5 820Q157 839 157 867Q157 895 176.5 914.5Q196 934 224 934Q251 934 270.5 914Q290 894 290 867Q290 840 270.5 820.5Q251 801 224 801Z" glyph-name="Edieresis" horiz-adv-x="597" unicode="Ë" /><glyph d="M556 0 79 0V708H544V592H220V419H521V304H220V114H556ZM402 785 285 785L149 929H294Z" glyph-name="Egrave" horiz-adv-x="597" unicode="È" /><glyph d="M556 0 79 0V708H544V592H220V419H521V304H220V114H556ZM386 919 466 919Q456 854 417.5 818Q379 782 320 782Q261 782 223 818.5Q185 855 176 919H258Q261 888 278 870.5Q295 853 320 853Q349 853 364.5 869Q380 885 386 919Z" glyph-name="Ebreve" horiz-adv-x="597" unicode="Ĕ" /><glyph d="M556 0 79 0V708H544V592H220V419H521V304H220V114H556ZM131 929 259 929L321 826L384 929H515L402 785H240Z" glyph-name="Ecaron" horiz-adv-x="597" unicode="Ě" /><glyph d="M556 0 79 0V708H544V592H220V419H521V304H220V114H556ZM323 795Q292 795 269.5 816Q247 837 247 867Q247 897 269.5 918.5Q292 940 323 940Q353 940 374 918.5Q395 897 395 867Q395 838 373.5 816.5Q352 795 323 795Z" glyph-name="Edotaccent" horiz-adv-x="597" unicode="Ė" /><glyph d="M556 0 79 0V708H544V592H220V419H521V304H220V114H556ZM466 822 177 822V894H466Z" glyph-name="Emacron" horiz-adv-x="597" unicode="Ē" /><glyph d="M315 -146Q315 -110 344 -71.5Q373 -33 424 0H79V708H544V592H220V419H521V304H220V114H556V0H498Q453 -41 432.5 -70.5Q412 -100 412 -127Q412 -148 423.5 -159.5Q435 -171 456 -171Q475 -171 490.5 -165.5Q506 -160 515 -150L539 -202Q519 -218 492.5 -225.5Q466 -233 431 -233Q376 -233 345.5 -210Q315 -187 315 -146Z" glyph-name="Eogonek" horiz-adv-x="597" unicode="Ę" /><glyph d="M440 600Q330 600 261.5 531Q193 462 193 354Q193 240 256.5 172.5Q320 105 430 105Q465 105 497 112Q529 119 553 131V286H408V396H692V103L714 53Q657 19 583.5 0.5Q510 -18 432 -18Q257 -18 151.5 84Q46 186 46 354Q46 520 153 624Q260 728 431 728Q499 728 565 712.5Q631 697 677 670V525Q623 560 560 580Q497 600 440 600ZM483 919 563 919Q553 854 514.5 818Q476 782 417 782Q358 782 320 818.5Q282 855 273 919H355Q358 888 375 870.5Q392 853 417 853Q446 853 461.5 869Q477 885 483 919Z" glyph-name="Gbreve" horiz-adv-x="759" unicode="Ğ" /><glyph d="M440 600Q330 600 261.5 531Q193 462 193 354Q193 240 256.5 172.5Q320 105 430 105Q465 105 497 112Q529 119 553 131V286H408V396H692V103L714 53Q657 19 583.5 0.5Q510 -18 432 -18Q257 -18 151.5 84Q46 186 46 354Q46 520 153 624Q260 728 431 728Q499 728 565 712.5Q631 697 677 670V525Q623 560 560 580Q497 600 440 600ZM612 785 482 785L420 889L357 785H228L338 929H501Z" glyph-name="Gcircumflex" horiz-adv-x="759" unicode="Ĝ" /><glyph d="M440 600Q330 600 261.5 531Q193 462 193 354Q193 240 256.5 172.5Q320 105 430 105Q465 105 497 112Q529 119 553 131V286H408V396H692V103L714 53Q657 19 583.5 0.5Q510 -18 432 -18Q257 -18 151.5 84Q46 186 46 354Q46 520 153 624Q260 728 431 728Q499 728 565 712.5Q631 697 677 670V525Q623 560 560 580Q497 600 440 600ZM287 -235 341 -56H472L400 -235Z" glyph-name="Gcommaaccent" horiz-adv-x="759" unicode="Ģ" /><glyph d="M440 600Q330 600 261.5 531Q193 462 193 354Q193 240 256.5 172.5Q320 105 430 105Q465 105 497 112Q529 119 553 131V286H408V396H692V103L714 53Q657 19 583.5 0.5Q510 -18 432 -18Q257 -18 151.5 84Q46 186 46 354Q46 520 153 624Q260 728 431 728Q499 728 565 712.5Q631 697 677 670V525Q623 560 560 580Q497 600 440 600ZM420 795Q389 795 366.5 816Q344 837 344 867Q344 897 366.5 918.5Q389 940 420 940Q450 940 471 918.5Q492 897 492 867Q492 838 470.5 816.5Q449 795 420 795Z" glyph-name="Gdotaccent" horiz-adv-x="759" unicode="Ġ" /><glyph d="M220 552 220 427H529V552ZM529 311 220 311V0H79V552H30V628H79V708H220V628H529V708H670V628H719V552H670V0H529Z" glyph-name="Hbar" horiz-adv-x="750" unicode="Ħ" /><glyph d="M670 0 529 0V311H220V0H79V708H220V427H529V708H670ZM567 785 437 785L375 889L312 785H183L293 929H456Z" glyph-name="Hcircumflex" horiz-adv-x="750" unicode="Ĥ" /><glyph d="M220 0 79 0V708H220ZM326 929 186 785H70L178 929Z" glyph-name="Iacute" horiz-adv-x="300" unicode="Í" /><glyph d="M220 0 79 0V708H220ZM343 785 213 785L151 889L88 785H-41L69 929H232Z" glyph-name="Icircumflex" horiz-adv-x="300" unicode="Î" /><glyph d="M220 0 79 0V708H220ZM250 801Q222 801 201.5 820.5Q181 840 181 867Q181 894 201.5 914Q222 934 250 934Q277 934 296.5 914Q316 894 316 867Q316 840 296.5 820.5Q277 801 250 801ZM52 801Q24 801 4.5 820Q-15 839 -15 867Q-15 895 4.5 914.5Q24 934 52 934Q79 934 98.5 914Q118 894 118 867Q118 840 98.5 820.5Q79 801 52 801Z" glyph-name="Idieresis" horiz-adv-x="300" unicode="Ï" /><glyph d="M220 0 79 0V708H220ZM230 785 113 785L-23 929H122Z" glyph-name="Igrave" horiz-adv-x="300" unicode="Ì" /><glyph d="M220 0 79 0V708H220ZM214 919 294 919Q284 854 245.5 818Q207 782 148 782Q89 782 51 818.5Q13 855 4 919H86Q89 888 106 870.5Q123 853 148 853Q177 853 192.5 869Q208 885 214 919Z" glyph-name="Ibreve" horiz-adv-x="300" unicode="Ĭ" /><glyph d="M220 0 79 0V708H220ZM151 795Q120 795 97.5 816Q75 837 75 867Q75 897 97.5 918.5Q120 940 151 940Q181 940 202 918.5Q223 897 223 867Q223 838 201.5 816.5Q180 795 151 795Z" glyph-name="Idotaccent" horiz-adv-x="300" unicode="İ" /><glyph d="M220 0 79 0V708H220ZM294 822 5 822V894H294Z" glyph-name="Imacron" horiz-adv-x="300" unicode="Ī" /><glyph d="M6 -146Q6 -110 35 -71.5Q64 -33 115 0H79V708H220V0H189Q144 -41 123.5 -70.5Q103 -100 103 -127Q103 -148 114.5 -159.5Q126 -171 147 -171Q166 -171 181.5 -165.5Q197 -160 206 -150L230 -202Q211 -218 184 -225.5Q157 -233 122 -233Q67 -233 36.5 -210Q6 -187 6 -146Z" glyph-name="Iogonek" horiz-adv-x="300" unicode="Į" /><glyph d="M220 0 79 0V708H220ZM85 923Q101 923 118 916Q135 909 154 894Q170 881 180 875.5Q190 870 201 870Q215 870 222 880.5Q229 891 232 919H305Q301 856 279 825Q257 794 215 794Q198 794 180 801.5Q162 809 143 824Q128 836 118 841.5Q108 847 99 847Q85 847 78 836.5Q71 826 67 798H-6Q-2 861 21 892Q44 923 85 923Z" glyph-name="Itilde" horiz-adv-x="300" unicode="Ĩ" /><glyph d="M174 -18Q131 -18 94.5 -5.5Q58 7 37 28V174Q65 142 98.5 124.5Q132 107 164 107Q210 107 233 136.5Q256 166 256 223V708H394V223Q394 106 338 44Q282 -18 174 -18ZM506 785 376 785L314 889L251 785H122L232 929H395Z" glyph-name="Jcircumflex" horiz-adv-x="470" unicode="Ĵ" /><glyph d="M220 0 79 0V708H220ZM474 -18Q431 -18 394.5 -5.5Q358 7 337 28V174Q365 142 398.5 124.5Q432 107 464 107Q510 107 533 136.5Q556 166 556 223V708H694V223Q694 106 638 44Q582 -18 474 -18Z" glyph-name="IJ" horiz-adv-x="770" unicode="Ĳ" /><glyph d="M650 0 472 0L218 319H216V0H79V708H216V421H217L465 708H636L340 383ZM227 -235 281 -56H412L340 -235Z" glyph-name="Kcommaaccent" horiz-adv-x="661" unicode="Ķ" /><glyph d="M650 0 472 0L218 319H216V0H79V708H216V421H217L465 708H636L340 383ZM809 708 766 564H634L696 708Z" glyph-name="kgreenlandic.case" horiz-adv-x="784" unicode="" /><glyph d="M506 0 79 0V708H216V114H506ZM396 929 256 785H140L248 929Z" glyph-name="Lacute" horiz-adv-x="517" unicode="Ĺ" /><glyph d="M506 0 79 0V708H216V114H506ZM278 535 318 707H450L391 535Z" glyph-name="Lcaron" horiz-adv-x="517" unicode="Ľ" /><glyph d="M506 0 79 0V708H216V114H506ZM155 -235 209 -56H340L268 -235Z" glyph-name="Lcommaaccent" horiz-adv-x="517" unicode="Ļ" /><glyph d="M506 0 79 0V708H216V114H506ZM390 271Q359 271 336.5 292.5Q314 314 314 344Q314 374 336.5 395Q359 416 390 416Q420 416 441 395Q462 374 462 344Q462 314 440.5 292.5Q419 271 390 271Z" glyph-name="Ldot" horiz-adv-x="517" unicode="Ŀ" /><glyph d="M216 0 79 0V708H232L543 202H546L539 708H678V0H521L214 492H210ZM313 923Q329 923 346 916Q363 909 382 894Q398 881 408 875.5Q418 870 429 870Q443 870 450 880.5Q457 891 460 919H533Q529 856 507 825Q485 794 443 794Q426 794 408 801.5Q390 809 371 824Q356 836 346 841.5Q336 847 327 847Q313 847 306 836.5Q299 826 295 798H222Q226 861 249 892Q272 923 313 923Z" glyph-name="Ntilde" horiz-adv-x="757" unicode="Ñ" /><glyph d="M216 0 79 0V708H232L543 202H546L539 708H678V0H521L214 492H210ZM554 929 414 785H298L406 929Z" glyph-name="Nacute" horiz-adv-x="757" unicode="Ń" /><glyph d="M216 0 79 0V708H232L543 202H546L539 708H678V0H521L214 492H210ZM187 929 315 929L377 826L440 929H571L458 785H296Z" glyph-name="Ncaron" horiz-adv-x="757" unicode="Ň" /><glyph d="M216 0 79 0V708H232L543 202H546L539 708H678V0H521L214 492H210ZM275 -235 329 -56H460L388 -235Z" glyph-name="Ncommaaccent" horiz-adv-x="757" unicode="Ņ" /><glyph d="M216 0 79 0V708H232L543 202H546L539 708H678V0H521L214 492H210ZM99 785 138 929H269L212 785Z" glyph-name="napostrophe.case" horiz-adv-x="757" unicode="" /><glyph d="M458 -240Q415 -240 378.5 -227.5Q342 -215 321 -194V-58Q349 -90 382.5 -107.5Q416 -125 448 -125Q498 -125 523.5 -93Q549 -61 549 0H521L214 492H210L216 0H79V708H232L543 202H546L539 708H678V0Q678 -117 622 -178.5Q566 -240 458 -240Z" glyph-name="Eng" horiz-adv-x="757" unicode="Ŋ" /><glyph d="M46 356Q46 520 150.5 624Q255 728 417 728Q579 728 684 622Q789 516 789 350Q789 186 685 83Q581 -20 417 -20Q255 -20 150.5 85.5Q46 191 46 356ZM193 356Q193 249 256.5 177.5Q320 106 417 106Q515 106 579 175Q643 244 643 350Q643 457 578.5 528.5Q514 600 417 600Q320 600 256.5 530.5Q193 461 193 356ZM593 929 453 785H337L445 929Z" glyph-name="Oacute" horiz-adv-x="836" unicode="Ó" /><glyph d="M46 356Q46 520 150.5 624Q255 728 417 728Q579 728 684 622Q789 516 789 350Q789 186 685 83Q581 -20 417 -20Q255 -20 150.5 85.5Q46 191 46 356ZM193 356Q193 249 256.5 177.5Q320 106 417 106Q515 106 579 175Q643 244 643 350Q643 457 578.5 528.5Q514 600 417 600Q320 600 256.5 530.5Q193 461 193 356ZM610 785 480 785L418 889L355 785H226L336 929H499Z" glyph-name="Ocircumflex" horiz-adv-x="836" unicode="Ô" /><glyph d="M46 356Q46 520 150.5 624Q255 728 417 728Q579 728 684 622Q789 516 789 350Q789 186 685 83Q581 -20 417 -20Q255 -20 150.5 85.5Q46 191 46 356ZM193 356Q193 249 256.5 177.5Q320 106 417 106Q515 106 579 175Q643 244 643 350Q643 457 578.5 528.5Q514 600 417 600Q320 600 256.5 530.5Q193 461 193 356ZM517 801Q489 801 468.5 820.5Q448 840 448 867Q448 894 468.5 914Q489 934 517 934Q544 934 563.5 914Q583 894 583 867Q583 840 563.5 820.5Q544 801 517 801ZM319 801Q291 801 271.5 820Q252 839 252 867Q252 895 271.5 914.5Q291 934 319 934Q346 934 365.5 914Q385 894 385 867Q385 840 365.5 820.5Q346 801 319 801Z" glyph-name="Odieresis" horiz-adv-x="836" unicode="Ö" /><glyph d="M46 356Q46 520 150.5 624Q255 728 417 728Q579 728 684 622Q789 516 789 350Q789 186 685 83Q581 -20 417 -20Q255 -20 150.5 85.5Q46 191 46 356ZM193 356Q193 249 256.5 177.5Q320 106 417 106Q515 106 579 175Q643 244 643 350Q643 457 578.5 528.5Q514 600 417 600Q320 600 256.5 530.5Q193 461 193 356ZM497 785 380 785L244 929H389Z" glyph-name="Ograve" horiz-adv-x="836" unicode="Ò" /><glyph d="M46 356Q46 520 150.5 624Q255 728 417 728Q579 728 684 622Q789 516 789 350Q789 186 685 83Q581 -20 417 -20Q255 -20 150.5 85.5Q46 191 46 356ZM193 356Q193 249 256.5 177.5Q320 106 417 106Q515 106 579 175Q643 244 643 350Q643 457 578.5 528.5Q514 600 417 600Q320 600 256.5 530.5Q193 461 193 356ZM352 923Q368 923 385 916Q402 909 421 894Q437 881 447 875.5Q457 870 468 870Q482 870 489 880.5Q496 891 499 919H572Q568 856 546 825Q524 794 482 794Q465 794 447 801.5Q429 809 410 824Q395 836 385 841.5Q375 847 366 847Q352 847 345 836.5Q338 826 334 798H261Q265 861 288 892Q311 923 352 923Z" glyph-name="Otilde" horiz-adv-x="836" unicode="Õ" /><glyph d="M46 356Q46 520 150.5 624Q255 728 417 728Q579 728 684 622Q789 516 789 350Q789 186 685 83Q581 -20 417 -20Q255 -20 150.5 85.5Q46 191 46 356ZM193 356Q193 249 256.5 177.5Q320 106 417 106Q515 106 579 175Q643 244 643 350Q643 457 578.5 528.5Q514 600 417 600Q320 600 256.5 530.5Q193 461 193 356ZM481 919 561 919Q551 854 512.5 818Q474 782 415 782Q356 782 318 818.5Q280 855 271 919H353Q356 888 373 870.5Q390 853 415 853Q444 853 459.5 869Q475 885 481 919Z" glyph-name="Obreve" horiz-adv-x="836" unicode="Ŏ" /><glyph d="M46 356Q46 520 150.5 624Q255 728 417 728Q579 728 684 622Q789 516 789 350Q789 186 685 83Q581 -20 417 -20Q255 -20 150.5 85.5Q46 191 46 356ZM193 356Q193 249 256.5 177.5Q320 106 417 106Q515 106 579 175Q643 244 643 350Q643 457 578.5 528.5Q514 600 417 600Q320 600 256.5 530.5Q193 461 193 356ZM681 929 543 785H438L547 929ZM497 929 358 785H256L363 929Z" glyph-name="Ohungarumlaut" horiz-adv-x="836" unicode="Ő" /><glyph d="M46 356Q46 520 150.5 624Q255 728 417 728Q579 728 684 622Q789 516 789 350Q789 186 685 83Q581 -20 417 -20Q255 -20 150.5 85.5Q46 191 46 356ZM193 356Q193 249 256.5 177.5Q320 106 417 106Q515 106 579 175Q643 244 643 350Q643 457 578.5 528.5Q514 600 417 600Q320 600 256.5 530.5Q193 461 193 356ZM561 822 272 822V894H561Z" glyph-name="Omacron" horiz-adv-x="836" unicode="Ō" /><glyph d="M333 592 216 592V395H331Q389 395 421.5 421.5Q454 448 454 494Q454 541 422 566.5Q390 592 333 592ZM216 0 79 0V708H350Q468 708 533 654Q598 600 598 498Q598 428 559 379Q520 330 450 309L640 0H479L317 289H216ZM504 929 364 785H248L356 929Z" glyph-name="Racute" horiz-adv-x="658" unicode="Ŕ" /><glyph d="M333 592 216 592V395H331Q389 395 421.5 421.5Q454 448 454 494Q454 541 422 566.5Q390 592 333 592ZM216 0 79 0V708H350Q468 708 533 654Q598 600 598 498Q598 428 559 379Q520 330 450 309L640 0H479L317 289H216ZM137 929 265 929L327 826L390 929H521L408 785H246Z" glyph-name="Rcaron" horiz-adv-x="658" unicode="Ř" /><glyph d="M333 592 216 592V395H331Q389 395 421.5 421.5Q454 448 454 494Q454 541 422 566.5Q390 592 333 592ZM216 0 79 0V708H350Q468 708 533 654Q598 600 598 498Q598 428 559 379Q520 330 450 309L640 0H479L317 289H216ZM225 -235 279 -56H410L338 -235Z" glyph-name="Rcommaaccent" horiz-adv-x="658" unicode="Ŗ" /><glyph d="M314 728Q372 728 425.5 713Q479 698 531 667V526Q478 567 419.5 590.5Q361 614 311 614Q259 614 229.5 589.5Q200 565 200 522Q200 483 227 460Q254 437 332 416Q448 384 498.5 334.5Q549 285 549 206Q549 104 474 42Q399 -20 283 -20Q222 -20 161.5 -4Q101 12 52 41V192Q107 145 169 119Q231 93 286 93Q341 93 373 119.5Q405 146 405 192Q405 232 375 258Q345 284 269 305Q157 334 106.5 384.5Q56 435 56 517Q56 613 127.5 670.5Q199 728 314 728ZM104 929 232 929L294 826L357 929H488L375 785H213Z" glyph-name="Scaron" horiz-adv-x="591" unicode="Š" /><glyph d="M314 728Q372 728 425.5 713Q479 698 531 667V526Q478 567 419.5 590.5Q361 614 311 614Q259 614 229.5 589.5Q200 565 200 522Q200 483 227 460Q254 437 332 416Q448 384 498.5 334.5Q549 285 549 206Q549 104 474 42Q399 -20 283 -20Q222 -20 161.5 -4Q101 12 52 41V192Q107 145 169 119Q231 93 286 93Q341 93 373 119.5Q405 146 405 192Q405 232 375 258Q345 284 269 305Q157 334 106.5 384.5Q56 435 56 517Q56 613 127.5 670.5Q199 728 314 728ZM471 929 331 785H215L323 929Z" glyph-name="Sacute" horiz-adv-x="591" unicode="Ś" /><glyph d="M425 -139Q425 -184 384.5 -209Q344 -234 279 -234Q252 -234 219 -228Q186 -222 161 -212L185 -156Q201 -164 225 -168.5Q249 -173 270 -173Q298 -173 313 -164Q328 -155 328 -137Q328 -122 315 -114.5Q302 -107 279 -107Q267 -107 252.5 -109.5Q238 -112 228 -116L195 -92L254 -19Q199 -15 146.5 0.5Q94 16 52 41V192Q107 145 169 119Q231 93 286 93Q341 93 373 119.5Q405 146 405 192Q405 232 375 258Q345 284 269 305Q157 334 106.5 384.5Q56 435 56 517Q56 613 127.5 670.5Q199 728 314 728Q372 728 425.5 713Q479 698 531 667V526Q478 567 419.5 590.5Q361 614 311 614Q259 614 229.5 589.5Q200 565 200 522Q200 483 227 460Q254 437 332 416Q448 384 498.5 334.5Q549 285 549 206Q549 116 490.5 57Q432 -2 334 -16L295 -64Q300 -62 307 -61.5Q314 -61 328 -61Q373 -61 399 -81Q425 -101 425 -139Z" glyph-name="Scedilla" horiz-adv-x="591" unicode="Ş" /><glyph d="M314 728Q372 728 425.5 713Q479 698 531 667V526Q478 567 419.5 590.5Q361 614 311 614Q259 614 229.5 589.5Q200 565 200 522Q200 483 227 460Q254 437 332 416Q448 384 498.5 334.5Q549 285 549 206Q549 104 474 42Q399 -20 283 -20Q222 -20 161.5 -4Q101 12 52 41V192Q107 145 169 119Q231 93 286 93Q341 93 373 119.5Q405 146 405 192Q405 232 375 258Q345 284 269 305Q157 334 106.5 384.5Q56 435 56 517Q56 613 127.5 670.5Q199 728 314 728ZM488 785 358 785L296 889L233 785H104L214 929H377Z" glyph-name="Scircumflex" horiz-adv-x="591" unicode="Ŝ" /><glyph d="M314 728Q372 728 425.5 713Q479 698 531 667V526Q478 567 419.5 590.5Q361 614 311 614Q259 614 229.5 589.5Q200 565 200 522Q200 483 227 460Q254 437 332 416Q448 384 498.5 334.5Q549 285 549 206Q549 104 474 42Q399 -20 283 -20Q222 -20 161.5 -4Q101 12 52 41V192Q107 145 169 119Q231 93 286 93Q341 93 373 119.5Q405 146 405 192Q405 232 375 258Q345 284 269 305Q157 334 106.5 384.5Q56 435 56 517Q56 613 127.5 670.5Q199 728 314 728ZM192 -235 246 -56H377L305 -235Z" glyph-name="uni0218" horiz-adv-x="591" unicode="Ș" /><glyph d="M450 402 450 326H360V0H220V326H129V402H220V592H10V708H571V592H360V402Z" glyph-name="Tbar" horiz-adv-x="581" unicode="Ŧ" /><glyph d="M571 592 360 592V0H220V592H10V708H571ZM98 929 226 929L288 826L351 929H482L369 785H207Z" glyph-name="Tcaron" horiz-adv-x="581" unicode="Ť" /><glyph d="M571 592 360 592V0H220V592H10V708H571ZM177 -235 231 -56H362L290 -235Z" glyph-name="uni0162" horiz-adv-x="581" unicode="Ţ" /><glyph d="M571 592 360 592V0H220V592H10V708H571ZM177 -235 231 -56H362L290 -235Z" glyph-name="uni021A" horiz-adv-x="581" unicode="Ț" /><glyph d="M364 -20Q223 -20 146 58.5Q69 137 69 279V708H206V281Q206 200 248.5 151.5Q291 103 366 103Q442 103 484 151Q526 199 526 281V708H665V279Q665 138 586 59Q507 -20 364 -20ZM542 929 402 785H286L394 929Z" glyph-name="Uacute" horiz-adv-x="735" unicode="Ú" /><glyph d="M364 -20Q223 -20 146 58.5Q69 137 69 279V708H206V281Q206 200 248.5 151.5Q291 103 366 103Q442 103 484 151Q526 199 526 281V708H665V279Q665 138 586 59Q507 -20 364 -20ZM559 785 429 785L367 889L304 785H175L285 929H448Z" glyph-name="Ucircumflex" horiz-adv-x="735" unicode="Û" /><glyph d="M364 -20Q223 -20 146 58.5Q69 137 69 279V708H206V281Q206 200 248.5 151.5Q291 103 366 103Q442 103 484 151Q526 199 526 281V708H665V279Q665 138 586 59Q507 -20 364 -20ZM466 801Q438 801 417.5 820.5Q397 840 397 867Q397 894 417.5 914Q438 934 466 934Q493 934 512.5 914Q532 894 532 867Q532 840 512.5 820.5Q493 801 466 801ZM268 801Q240 801 220.5 820Q201 839 201 867Q201 895 220.5 914.5Q240 934 268 934Q295 934 314.5 914Q334 894 334 867Q334 840 314.5 820.5Q295 801 268 801Z" glyph-name="Udieresis" horiz-adv-x="735" unicode="Ü" /><glyph d="M364 -20Q223 -20 146 58.5Q69 137 69 279V708H206V281Q206 200 248.5 151.5Q291 103 366 103Q442 103 484 151Q526 199 526 281V708H665V279Q665 138 586 59Q507 -20 364 -20ZM446 785 329 785L193 929H338Z" glyph-name="Ugrave" horiz-adv-x="735" unicode="Ù" /><glyph d="M364 -20Q223 -20 146 58.5Q69 137 69 279V708H206V281Q206 200 248.5 151.5Q291 103 366 103Q442 103 484 151Q526 199 526 281V708H665V279Q665 138 586 59Q507 -20 364 -20ZM430 919 510 919Q500 854 461.5 818Q423 782 364 782Q305 782 267 818.5Q229 855 220 919H302Q305 888 322 870.5Q339 853 364 853Q393 853 408.5 869Q424 885 430 919Z" glyph-name="Ubreve" horiz-adv-x="735" unicode="Ŭ" /><glyph d="M364 -20Q223 -20 146 58.5Q69 137 69 279V708H206V281Q206 200 248.5 151.5Q291 103 366 103Q442 103 484 151Q526 199 526 281V708H665V279Q665 138 586 59Q507 -20 364 -20ZM630 929 492 785H387L496 929ZM446 929 307 785H205L312 929Z" glyph-name="Uhungarumlaut" horiz-adv-x="735" unicode="Ű" /><glyph d="M364 -20Q223 -20 146 58.5Q69 137 69 279V708H206V281Q206 200 248.5 151.5Q291 103 366 103Q442 103 484 151Q526 199 526 281V708H665V279Q665 138 586 59Q507 -20 364 -20ZM510 822 221 822V894H510Z" glyph-name="Umacron" horiz-adv-x="735" unicode="Ū" /><glyph d="M372 -233Q317 -233 286.5 -210Q256 -187 256 -146Q256 -115 277.5 -82Q299 -49 338 -19Q209 -12 139 66Q69 144 69 279V708H206V281Q206 200 248.5 151.5Q291 103 366 103Q442 103 484 151Q526 199 526 281V708H665V279Q665 153 601.5 76Q538 -1 421 -16Q385 -51 369 -77Q353 -103 353 -127Q353 -148 364.5 -159.5Q376 -171 398 -171Q417 -171 432 -165.5Q447 -160 457 -150L480 -202Q461 -218 434.5 -225.5Q408 -233 372 -233Z" glyph-name="Uogonek" horiz-adv-x="735" unicode="Ų" /><glyph d="M364 -20Q223 -20 146 58.5Q69 137 69 279V708H206V281Q206 200 248.5 151.5Q291 103 366 103Q442 103 484 151Q526 199 526 281V708H665V279Q665 138 586 59Q507 -20 364 -20ZM367 773Q316 773 280.5 807.5Q245 842 245 891Q245 940 281 974.5Q317 1009 367 1009Q416 1009 451 974.5Q486 940 486 891Q486 842 451 807.5Q416 773 367 773ZM367 939Q346 939 332 925Q318 911 318 891Q318 871 332 857Q346 843 367 843Q386 843 399 857Q412 871 412 891Q412 911 399 925Q386 939 367 939Z" glyph-name="Uring" horiz-adv-x="735" unicode="Ů" /><glyph d="M364 -20Q223 -20 146 58.5Q69 137 69 279V708H206V281Q206 200 248.5 151.5Q291 103 366 103Q442 103 484 151Q526 199 526 281V708H665V279Q665 138 586 59Q507 -20 364 -20ZM301 923Q317 923 334 916Q351 909 370 894Q386 881 396 875.5Q406 870 417 870Q431 870 438 880.5Q445 891 448 919H521Q517 856 495 825Q473 794 431 794Q414 794 396 801.5Q378 809 359 824Q344 836 334 841.5Q324 847 315 847Q301 847 294 836.5Q287 826 283 798H210Q214 861 237 892Q260 923 301 923Z" glyph-name="Utilde" horiz-adv-x="735" unicode="Ũ" /><glyph d="M507 544 504 544L356 0H209L8 708H158L291 178H294L430 708H583L724 178H727L860 708H1004L801 0H654ZM682 929 542 785H426L534 929Z" glyph-name="Wacute" horiz-adv-x="1014" unicode="Ẃ" /><glyph d="M507 544 504 544L356 0H209L8 708H158L291 178H294L430 708H583L724 178H727L860 708H1004L801 0H654ZM699 785 569 785L507 889L444 785H315L425 929H588Z" glyph-name="Wcircumflex" horiz-adv-x="1014" unicode="Ŵ" /><glyph d="M507 544 504 544L356 0H209L8 708H158L291 178H294L430 708H583L724 178H727L860 708H1004L801 0H654ZM606 801Q578 801 557.5 820.5Q537 840 537 867Q537 894 557.5 914Q578 934 606 934Q633 934 652.5 914Q672 894 672 867Q672 840 652.5 820.5Q633 801 606 801ZM408 801Q380 801 360.5 820Q341 839 341 867Q341 895 360.5 914.5Q380 934 408 934Q435 934 454.5 914Q474 894 474 867Q474 840 454.5 820.5Q435 801 408 801Z" glyph-name="Wdieresis" horiz-adv-x="1014" unicode="Ẅ" /><glyph d="M507 544 504 544L356 0H209L8 708H158L291 178H294L430 708H583L724 178H727L860 708H1004L801 0H654ZM586 785 469 785L333 929H478Z" glyph-name="Wgrave" horiz-adv-x="1014" unicode="Ẁ" /><glyph d="M634 708 385 296V0H248V296L0 708H162L321 416L476 708ZM492 929 352 785H236L344 929Z" glyph-name="Yacute" horiz-adv-x="633" unicode="Ý" /><glyph d="M634 708 385 296V0H248V296L0 708H162L321 416L476 708ZM416 801Q388 801 367.5 820.5Q347 840 347 867Q347 894 367.5 914Q388 934 416 934Q443 934 462.5 914Q482 894 482 867Q482 840 462.5 820.5Q443 801 416 801ZM218 801Q190 801 170.5 820Q151 839 151 867Q151 895 170.5 914.5Q190 934 218 934Q245 934 264.5 914Q284 894 284 867Q284 840 264.5 820.5Q245 801 218 801Z" glyph-name="Ydieresis" horiz-adv-x="633" unicode="Ÿ" /><glyph d="M634 708 385 296V0H248V296L0 708H162L321 416L476 708ZM509 785 379 785L317 889L254 785H125L235 929H398Z" glyph-name="Ycircumflex" horiz-adv-x="633" unicode="Ŷ" /><glyph d="M634 708 385 296V0H248V296L0 708H162L321 416L476 708ZM396 785 279 785L143 929H288Z" glyph-name="Ygrave" horiz-adv-x="633" unicode="Ỳ" /><glyph d="M581 0 40 0V114L402 592H51V708H571V604L198 114H581ZM117 929 245 929L307 826L370 929H501L388 785H226Z" glyph-name="Zcaron" horiz-adv-x="618" unicode="Ž" /><glyph d="M581 0 40 0V114L402 592H51V708H571V604L198 114H581ZM484 929 344 785H228L336 929Z" glyph-name="Zacute" horiz-adv-x="618" unicode="Ź" /><glyph d="M581 0 40 0V114L402 592H51V708H571V604L198 114H581ZM309 795Q278 795 255.5 816Q233 837 233 867Q233 897 255.5 918.5Q278 940 309 940Q339 940 360 918.5Q381 897 381 867Q381 838 359.5 816.5Q338 795 309 795Z" glyph-name="Zdotaccent" horiz-adv-x="618" unicode="Ż" /><glyph d="M363 130 363 223L251 214Q210 212 189.5 194Q169 176 169 143Q169 112 190 94.5Q211 77 246 77Q277 77 304 89Q331 101 363 130ZM39 135Q39 195 73.5 230.5Q108 266 179 279L342 309Q351 311 354.5 314Q358 317 358 323V333Q358 372 333.5 392Q309 412 261 412Q215 412 166.5 396Q118 380 76 350V463Q109 487 164 502Q219 517 272 517Q382 517 438.5 461Q495 405 495 295V135Q495 99 497.5 64Q500 29 504 0H374Q371 10 369 24.5Q367 39 366 53H364Q335 21 296 3.5Q257 -14 213 -14Q129 -14 84 24.5Q39 63 39 135ZM455 719 315 575H199L307 719Z" glyph-name="aacute" horiz-adv-x="559" unicode="á" /><glyph d="M363 130 363 223L251 214Q210 212 189.5 194Q169 176 169 143Q169 112 190 94.5Q211 77 246 77Q277 77 304 89Q331 101 363 130ZM39 135Q39 195 73.5 230.5Q108 266 179 279L342 309Q351 311 354.5 314Q358 317 358 323V333Q358 372 333.5 392Q309 412 261 412Q215 412 166.5 396Q118 380 76 350V463Q109 487 164 502Q219 517 272 517Q382 517 438.5 461Q495 405 495 295V135Q495 99 497.5 64Q500 29 504 0H374Q371 10 369 24.5Q367 39 366 53H364Q335 21 296 3.5Q257 -14 213 -14Q129 -14 84 24.5Q39 63 39 135ZM472 575 342 575L280 679L217 575H88L198 719H361Z" glyph-name="acircumflex" horiz-adv-x="559" unicode="â" /><glyph d="M363 130 363 223L251 214Q210 212 189.5 194Q169 176 169 143Q169 112 190 94.5Q211 77 246 77Q277 77 304 89Q331 101 363 130ZM39 135Q39 195 73.5 230.5Q108 266 179 279L342 309Q351 311 354.5 314Q358 317 358 323V333Q358 372 333.5 392Q309 412 261 412Q215 412 166.5 396Q118 380 76 350V463Q109 487 164 502Q219 517 272 517Q382 517 438.5 461Q495 405 495 295V135Q495 99 497.5 64Q500 29 504 0H374Q371 10 369 24.5Q367 39 366 53H364Q335 21 296 3.5Q257 -14 213 -14Q129 -14 84 24.5Q39 63 39 135ZM379 591Q351 591 330.5 610.5Q310 630 310 657Q310 684 330.5 704Q351 724 379 724Q406 724 425.5 704Q445 684 445 657Q445 630 425.5 610.5Q406 591 379 591ZM181 591Q153 591 133.5 610Q114 629 114 657Q114 685 133.5 704.5Q153 724 181 724Q208 724 227.5 704Q247 684 247 657Q247 630 227.5 610.5Q208 591 181 591Z" glyph-name="adieresis" horiz-adv-x="559" unicode="ä" /><glyph d="M363 130 363 223L251 214Q210 212 189.5 194Q169 176 169 143Q169 112 190 94.5Q211 77 246 77Q277 77 304 89Q331 101 363 130ZM39 135Q39 195 73.5 230.5Q108 266 179 279L342 309Q351 311 354.5 314Q358 317 358 323V333Q358 372 333.5 392Q309 412 261 412Q215 412 166.5 396Q118 380 76 350V463Q109 487 164 502Q219 517 272 517Q382 517 438.5 461Q495 405 495 295V135Q495 99 497.5 64Q500 29 504 0H374Q371 10 369 24.5Q367 39 366 53H364Q335 21 296 3.5Q257 -14 213 -14Q129 -14 84 24.5Q39 63 39 135ZM359 575 242 575L106 719H251Z" glyph-name="agrave" horiz-adv-x="559" unicode="à" /><glyph d="M363 130 363 223L251 214Q210 212 189.5 194Q169 176 169 143Q169 112 190 94.5Q211 77 246 77Q277 77 304 89Q331 101 363 130ZM39 135Q39 195 73.5 230.5Q108 266 179 279L342 309Q351 311 354.5 314Q358 317 358 323V333Q358 372 333.5 392Q309 412 261 412Q215 412 166.5 396Q118 380 76 350V463Q109 487 164 502Q219 517 272 517Q382 517 438.5 461Q495 405 495 295V135Q495 99 497.5 64Q500 29 504 0H374Q371 10 369 24.5Q367 39 366 53H364Q335 21 296 3.5Q257 -14 213 -14Q129 -14 84 24.5Q39 63 39 135ZM280 563Q229 563 193.5 597.5Q158 632 158 681Q158 730 194 764.5Q230 799 280 799Q329 799 364 764.5Q399 730 399 681Q399 632 364 597.5Q329 563 280 563ZM280 729Q259 729 245 715Q231 701 231 681Q231 661 245 647Q259 633 280 633Q299 633 312 647Q325 661 325 681Q325 701 312 715Q299 729 280 729Z" glyph-name="aring" horiz-adv-x="559" unicode="å" /><glyph d="M363 130 363 223L251 214Q210 212 189.5 194Q169 176 169 143Q169 112 190 94.5Q211 77 246 77Q277 77 304 89Q331 101 363 130ZM39 135Q39 195 73.5 230.5Q108 266 179 279L342 309Q351 311 354.5 314Q358 317 358 323V333Q358 372 333.5 392Q309 412 261 412Q215 412 166.5 396Q118 380 76 350V463Q109 487 164 502Q219 517 272 517Q382 517 438.5 461Q495 405 495 295V135Q495 99 497.5 64Q500 29 504 0H374Q371 10 369 24.5Q367 39 366 53H364Q335 21 296 3.5Q257 -14 213 -14Q129 -14 84 24.5Q39 63 39 135ZM214 713Q230 713 247 706Q264 699 283 684Q299 671 309 665.5Q319 660 330 660Q344 660 351 670.5Q358 681 361 709H434Q430 646 408 615Q386 584 344 584Q327 584 309 591.5Q291 599 272 614Q257 626 247 631.5Q237 637 228 637Q214 637 207 626.5Q200 616 196 588H123Q127 651 150 682Q173 713 214 713Z" glyph-name="atilde" horiz-adv-x="559" unicode="ã" /><glyph d="M363 130 363 223L251 214Q210 212 189.5 194Q169 176 169 143Q169 112 190 94.5Q211 77 246 77Q277 77 304 89Q331 101 363 130ZM39 135Q39 195 73.5 230.5Q108 266 179 279L342 309Q351 311 354.5 314Q358 317 358 323V333Q358 372 333.5 392Q309 412 261 412Q215 412 166.5 396Q118 380 76 350V463Q109 487 164 502Q219 517 272 517Q382 517 438.5 461Q495 405 495 295V135Q495 99 497.5 64Q500 29 504 0H374Q371 10 369 24.5Q367 39 366 53H364Q335 21 296 3.5Q257 -14 213 -14Q129 -14 84 24.5Q39 63 39 135ZM343 709 423 709Q413 644 374.5 608Q336 572 277 572Q218 572 180 608.5Q142 645 133 709H215Q218 678 235 660.5Q252 643 277 643Q306 643 321.5 659Q337 675 343 709Z" glyph-name="abreve" horiz-adv-x="559" unicode="ă" /><glyph d="M363 130 363 223L251 214Q210 212 189.5 194Q169 176 169 143Q169 112 190 94.5Q211 77 246 77Q277 77 304 89Q331 101 363 130ZM39 135Q39 195 73.5 230.5Q108 266 179 279L342 309Q351 311 354.5 314Q358 317 358 323V333Q358 372 333.5 392Q309 412 261 412Q215 412 166.5 396Q118 380 76 350V463Q109 487 164 502Q219 517 272 517Q382 517 438.5 461Q495 405 495 295V135Q495 99 497.5 64Q500 29 504 0H374Q371 10 369 24.5Q367 39 366 53H364Q335 21 296 3.5Q257 -14 213 -14Q129 -14 84 24.5Q39 63 39 135ZM423 612 134 612V684H423Z" glyph-name="amacron" horiz-adv-x="559" unicode="ā" /><glyph d="M363 130 363 223L251 214Q210 212 189.5 194Q169 176 169 143Q169 112 190 94.5Q211 77 246 77Q277 77 304 89Q331 101 363 130ZM266 -146Q266 -110 294.5 -71.5Q323 -33 374 0Q371 10 369 24.5Q367 39 366 53H364Q335 21 296 3.5Q257 -14 213 -14Q129 -14 84 24.5Q39 63 39 135Q39 195 73.5 230.5Q108 266 179 279L342 309Q351 311 354.5 314Q358 317 358 323V333Q358 372 333.5 392Q309 412 261 412Q215 412 166.5 396Q118 380 76 350V463Q109 487 164 502Q219 517 272 517Q382 517 438.5 461Q495 405 495 295V135Q495 99 497.5 64Q500 29 504 0H448Q403 -41 382.5 -70.5Q362 -100 362 -127Q362 -148 373.5 -159.5Q385 -171 407 -171Q426 -171 441 -165.5Q456 -160 466 -150L490 -202Q470 -218 443 -225.5Q416 -233 381 -233Q327 -233 296.5 -210Q266 -187 266 -146Z" glyph-name="aogonek" horiz-adv-x="559" unicode="ą" /><glyph d="M416 -139Q416 -184 375.5 -209Q335 -234 270 -234Q243 -234 210 -228Q177 -222 152 -212L176 -156Q192 -164 216 -168.5Q240 -173 261 -173Q289 -173 303.5 -164Q318 -155 318 -137Q318 -122 305.5 -114.5Q293 -107 269 -107Q258 -107 243.5 -109.5Q229 -112 219 -116L186 -92L251 -10Q155 10 98.5 80Q42 150 42 249Q42 366 121 441.5Q200 517 321 517Q358 517 396 506.5Q434 496 469 477V355Q427 384 394.5 396Q362 408 327 408Q262 408 218.5 363Q175 318 175 249Q175 179 218.5 135Q262 91 329 91Q364 91 401 103.5Q438 116 472 139V23Q440 4 402 -6.5Q364 -17 325 -17L286 -64Q291 -62 298 -61.5Q305 -61 319 -61Q364 -61 390 -81Q416 -101 416 -139Z" glyph-name="ccedilla" horiz-adv-x="505" unicode="ç" /><glyph d="M320 -17Q197 -17 119.5 57Q42 131 42 249Q42 366 121 441.5Q200 517 321 517Q358 517 396 506.5Q434 496 469 477V355Q427 384 394.5 396Q362 408 327 408Q262 408 218.5 363Q175 318 175 249Q175 179 218.5 135Q262 91 329 91Q364 91 401 103.5Q438 116 472 139V23Q439 3 400.5 -7Q362 -17 320 -17ZM478 719 338 575H222L330 719Z" glyph-name="cacute" horiz-adv-x="505" unicode="ć" /><glyph d="M320 -17Q197 -17 119.5 57Q42 131 42 249Q42 366 121 441.5Q200 517 321 517Q358 517 396 506.5Q434 496 469 477V355Q427 384 394.5 396Q362 408 327 408Q262 408 218.5 363Q175 318 175 249Q175 179 218.5 135Q262 91 329 91Q364 91 401 103.5Q438 116 472 139V23Q439 3 400.5 -7Q362 -17 320 -17ZM111 719 239 719L301 616L364 719H495L382 575H220Z" glyph-name="ccaron" horiz-adv-x="505" unicode="č" /><glyph d="M320 -17Q197 -17 119.5 57Q42 131 42 249Q42 366 121 441.5Q200 517 321 517Q358 517 396 506.5Q434 496 469 477V355Q427 384 394.5 396Q362 408 327 408Q262 408 218.5 363Q175 318 175 249Q175 179 218.5 135Q262 91 329 91Q364 91 401 103.5Q438 116 472 139V23Q439 3 400.5 -7Q362 -17 320 -17ZM495 575 365 575L303 679L240 575H111L221 719H384Z" glyph-name="ccircumflex" horiz-adv-x="505" unicode="ĉ" /><glyph d="M320 -17Q197 -17 119.5 57Q42 131 42 249Q42 366 121 441.5Q200 517 321 517Q358 517 396 506.5Q434 496 469 477V355Q427 384 394.5 396Q362 408 327 408Q262 408 218.5 363Q175 318 175 249Q175 179 218.5 135Q262 91 329 91Q364 91 401 103.5Q438 116 472 139V23Q439 3 400.5 -7Q362 -17 320 -17ZM303 585Q272 585 249.5 606Q227 627 227 657Q227 687 249.5 708.5Q272 730 303 730Q333 730 354 708.5Q375 687 375 657Q375 628 353.5 606.5Q332 585 303 585Z" glyph-name="cdotaccent" horiz-adv-x="505" unicode="ċ" /><glyph d="M305 94Q340 94 369.5 108Q399 122 432 156V346Q397 377 367.5 390.5Q338 404 305 404Q247 404 211 361Q175 318 175 251Q175 183 211.5 138.5Q248 94 305 94ZM435 0 435 60H434Q399 20 363 3Q327 -14 278 -14Q173 -14 107.5 58Q42 130 42 248Q42 367 108.5 440Q175 513 279 513Q320 513 356.5 500Q393 487 431 457H432V708H563V0ZM592 535 632 707H764L705 535Z" glyph-name="dcaron" horiz-adv-x="709" unicode="ď" /><glyph d="M305 94Q340 94 369.5 108Q399 122 432 156V346Q397 377 367.5 390.5Q338 404 305 404Q247 404 211 361Q175 318 175 251Q175 183 211.5 138.5Q248 94 305 94ZM435 60 434 60Q399 20 363 3Q327 -14 278 -14Q173 -14 107.5 58Q42 130 42 248Q42 367 108.5 440Q175 513 279 513Q320 513 356.5 500Q393 487 431 457H432V570H321V642H432V708H563V642H611V570H563V0H435Z" glyph-name="dcroat" horiz-adv-x="634" unicode="đ" /><glyph d="M300 415Q251 415 218 383.5Q185 352 177 298H421Q417 353 385 384Q353 415 300 415ZM518 142 518 29Q476 6 428 -5.5Q380 -17 329 -17Q193 -17 117.5 52.5Q42 122 42 249Q42 370 112.5 443.5Q183 517 298 517Q412 517 479.5 446Q547 375 547 260Q547 253 546.5 245Q546 237 544 216H179Q189 151 226.5 119.5Q264 88 332 88Q384 88 432 102Q480 116 518 142ZM470 719 330 575H214L322 719Z" glyph-name="eacute" horiz-adv-x="590" unicode="é" /><glyph d="M300 415Q251 415 218 383.5Q185 352 177 298H421Q417 353 385 384Q353 415 300 415ZM518 142 518 29Q476 6 428 -5.5Q380 -17 329 -17Q193 -17 117.5 52.5Q42 122 42 249Q42 370 112.5 443.5Q183 517 298 517Q412 517 479.5 446Q547 375 547 260Q547 253 546.5 245Q546 237 544 216H179Q189 151 226.5 119.5Q264 88 332 88Q384 88 432 102Q480 116 518 142ZM487 575 357 575L295 679L232 575H103L213 719H376Z" glyph-name="ecircumflex" horiz-adv-x="590" unicode="ê" /><glyph d="M300 415Q251 415 218 383.5Q185 352 177 298H421Q417 353 385 384Q353 415 300 415ZM518 142 518 29Q476 6 428 -5.5Q380 -17 329 -17Q193 -17 117.5 52.5Q42 122 42 249Q42 370 112.5 443.5Q183 517 298 517Q412 517 479.5 446Q547 375 547 260Q547 253 546.5 245Q546 237 544 216H179Q189 151 226.5 119.5Q264 88 332 88Q384 88 432 102Q480 116 518 142ZM394 591Q366 591 345.5 610.5Q325 630 325 657Q325 684 345.5 704Q366 724 394 724Q421 724 440.5 704Q460 684 460 657Q460 630 440.5 610.5Q421 591 394 591ZM196 591Q168 591 148.5 610Q129 629 129 657Q129 685 148.5 704.5Q168 724 196 724Q223 724 242.5 704Q262 684 262 657Q262 630 242.5 610.5Q223 591 196 591Z" glyph-name="edieresis" horiz-adv-x="590" unicode="ë" /><glyph d="M300 415Q251 415 218 383.5Q185 352 177 298H421Q417 353 385 384Q353 415 300 415ZM518 142 518 29Q476 6 428 -5.5Q380 -17 329 -17Q193 -17 117.5 52.5Q42 122 42 249Q42 370 112.5 443.5Q183 517 298 517Q412 517 479.5 446Q547 375 547 260Q547 253 546.5 245Q546 237 544 216H179Q189 151 226.5 119.5Q264 88 332 88Q384 88 432 102Q480 116 518 142ZM374 575 257 575L121 719H266Z" glyph-name="egrave" horiz-adv-x="590" unicode="è" /><glyph d="M300 415Q251 415 218 383.5Q185 352 177 298H421Q417 353 385 384Q353 415 300 415ZM518 142 518 29Q476 6 428 -5.5Q380 -17 329 -17Q193 -17 117.5 52.5Q42 122 42 249Q42 370 112.5 443.5Q183 517 298 517Q412 517 479.5 446Q547 375 547 260Q547 253 546.5 245Q546 237 544 216H179Q189 151 226.5 119.5Q264 88 332 88Q384 88 432 102Q480 116 518 142ZM358 709 438 709Q428 644 389.5 608Q351 572 292 572Q233 572 195 608.5Q157 645 148 709H230Q233 678 250 660.5Q267 643 292 643Q321 643 336.5 659Q352 675 358 709Z" glyph-name="ebreve" horiz-adv-x="590" unicode="ĕ" /><glyph d="M300 415Q251 415 218 383.5Q185 352 177 298H421Q417 353 385 384Q353 415 300 415ZM518 142 518 29Q476 6 428 -5.5Q380 -17 329 -17Q193 -17 117.5 52.5Q42 122 42 249Q42 370 112.5 443.5Q183 517 298 517Q412 517 479.5 446Q547 375 547 260Q547 253 546.5 245Q546 237 544 216H179Q189 151 226.5 119.5Q264 88 332 88Q384 88 432 102Q480 116 518 142ZM103 719 231 719L293 616L356 719H487L374 575H212Z" glyph-name="ecaron" horiz-adv-x="590" unicode="ě" /><glyph d="M300 415Q251 415 218 383.5Q185 352 177 298H421Q417 353 385 384Q353 415 300 415ZM518 142 518 29Q476 6 428 -5.5Q380 -17 329 -17Q193 -17 117.5 52.5Q42 122 42 249Q42 370 112.5 443.5Q183 517 298 517Q412 517 479.5 446Q547 375 547 260Q547 253 546.5 245Q546 237 544 216H179Q189 151 226.5 119.5Q264 88 332 88Q384 88 432 102Q480 116 518 142ZM295 585Q264 585 241.5 606Q219 627 219 657Q219 687 241.5 708.5Q264 730 295 730Q325 730 346 708.5Q367 687 367 657Q367 628 345.5 606.5Q324 585 295 585Z" glyph-name="edotaccent" horiz-adv-x="590" unicode="ė" /><glyph d="M300 415Q251 415 218 383.5Q185 352 177 298H421Q417 353 385 384Q353 415 300 415ZM518 142 518 29Q476 6 428 -5.5Q380 -17 329 -17Q193 -17 117.5 52.5Q42 122 42 249Q42 370 112.5 443.5Q183 517 298 517Q412 517 479.5 446Q547 375 547 260Q547 253 546.5 245Q546 237 544 216H179Q189 151 226.5 119.5Q264 88 332 88Q384 88 432 102Q480 116 518 142ZM438 612 149 612V684H438Z" glyph-name="emacron" horiz-adv-x="590" unicode="ē" /><glyph d="M300 415Q251 415 218 383.5Q185 352 177 298H421Q417 353 385 384Q353 415 300 415ZM446 -150 469 -202Q450 -218 423.5 -225.5Q397 -233 361 -233Q306 -233 275.5 -210Q245 -187 245 -146Q245 -115 267 -81.5Q289 -48 330 -17H329Q193 -17 117.5 52.5Q42 122 42 249Q42 370 112.5 443.5Q183 517 298 517Q412 517 479.5 446Q547 375 547 260Q547 253 546.5 245Q546 237 544 216H179Q189 151 226.5 119.5Q264 88 332 88Q384 88 432 102Q480 116 518 142V29Q495 16 470.5 7Q446 -2 420 -7Q379 -45 360.5 -73Q342 -101 342 -127Q342 -148 353.5 -159.5Q365 -171 387 -171Q406 -171 421 -165.5Q436 -160 446 -150Z" glyph-name="eogonek" horiz-adv-x="590" unicode="ę" /><glyph d="M301 420Q255 420 227.5 393.5Q200 367 200 321Q200 275 227.5 248.5Q255 222 301 222Q348 222 375.5 248.5Q403 275 403 321Q403 367 375.5 393.5Q348 420 301 420ZM589 -72Q589 -158 514 -206.5Q439 -255 303 -255Q182 -255 114 -217.5Q46 -180 46 -112Q46 -76 68 -48Q90 -20 131 -3V-1Q112 7 98.5 29.5Q85 52 85 75Q85 105 98 129.5Q111 154 140 178Q107 203 90 239Q73 275 73 322Q73 411 135.5 463Q198 515 302 515Q319 515 335.5 513.5Q352 512 381 507Q408 502 422.5 500.5Q437 499 451 499H599V398H505V396Q517 384 524 363.5Q531 343 531 320Q531 232 469 182.5Q407 133 300 133Q277 133 255.5 135.5Q234 138 215 143Q206 133 201.5 124Q197 115 197 106Q197 92 207.5 82.5Q218 73 236 73H406Q496 73 542.5 36Q589 -1 589 -72ZM463 -91Q463 -60 441 -44.5Q419 -29 375 -29H257Q216 -29 193 -48Q170 -67 170 -99Q170 -134 206.5 -153Q243 -172 312 -172Q386 -172 424.5 -151.5Q463 -131 463 -91ZM369 709 449 709Q439 644 400.5 608Q362 572 303 572Q244 572 206 608.5Q168 645 159 709H241Q244 678 261 660.5Q278 643 303 643Q332 643 347.5 659Q363 675 369 709Z" glyph-name="gbreve" horiz-adv-x="613" unicode="ğ" /><glyph d="M301 420Q255 420 227.5 393.5Q200 367 200 321Q200 275 227.5 248.5Q255 222 301 222Q348 222 375.5 248.5Q403 275 403 321Q403 367 375.5 393.5Q348 420 301 420ZM589 -72Q589 -158 514 -206.5Q439 -255 303 -255Q182 -255 114 -217.5Q46 -180 46 -112Q46 -76 68 -48Q90 -20 131 -3V-1Q112 7 98.5 29.5Q85 52 85 75Q85 105 98 129.5Q111 154 140 178Q107 203 90 239Q73 275 73 322Q73 411 135.5 463Q198 515 302 515Q319 515 335.5 513.5Q352 512 381 507Q408 502 422.5 500.5Q437 499 451 499H599V398H505V396Q517 384 524 363.5Q531 343 531 320Q531 232 469 182.5Q407 133 300 133Q277 133 255.5 135.5Q234 138 215 143Q206 133 201.5 124Q197 115 197 106Q197 92 207.5 82.5Q218 73 236 73H406Q496 73 542.5 36Q589 -1 589 -72ZM463 -91Q463 -60 441 -44.5Q419 -29 375 -29H257Q216 -29 193 -48Q170 -67 170 -99Q170 -134 206.5 -153Q243 -172 312 -172Q386 -172 424.5 -151.5Q463 -131 463 -91ZM498 575 368 575L306 679L243 575H114L224 719H387Z" glyph-name="gcircumflex" horiz-adv-x="613" unicode="ĝ" /><glyph d="M301 420Q255 420 227.5 393.5Q200 367 200 321Q200 275 227.5 248.5Q255 222 301 222Q348 222 375.5 248.5Q403 275 403 321Q403 367 375.5 393.5Q348 420 301 420ZM589 -72Q589 -158 514 -206.5Q439 -255 303 -255Q182 -255 114 -217.5Q46 -180 46 -112Q46 -76 68 -48Q90 -20 131 -3V-1Q112 7 98.5 29.5Q85 52 85 75Q85 105 98 129.5Q111 154 140 178Q107 203 90 239Q73 275 73 322Q73 411 135.5 463Q198 515 302 515Q319 515 335.5 513.5Q352 512 381 507Q408 502 422.5 500.5Q437 499 451 499H599V398H505V396Q517 384 524 363.5Q531 343 531 320Q531 232 469 182.5Q407 133 300 133Q277 133 255.5 135.5Q234 138 215 143Q206 133 201.5 124Q197 115 197 106Q197 92 207.5 82.5Q218 73 236 73H406Q496 73 542.5 36Q589 -1 589 -72ZM463 -91Q463 -60 441 -44.5Q419 -29 375 -29H257Q216 -29 193 -48Q170 -67 170 -99Q170 -134 206.5 -153Q243 -172 312 -172Q386 -172 424.5 -151.5Q463 -131 463 -91ZM391 719 348 575H216L278 719Z" glyph-name="gcommaaccent" horiz-adv-x="613" unicode="ģ" /><glyph d="M301 420Q255 420 227.5 393.5Q200 367 200 321Q200 275 227.5 248.5Q255 222 301 222Q348 222 375.5 248.5Q403 275 403 321Q403 367 375.5 393.5Q348 420 301 420ZM589 -72Q589 -158 514 -206.5Q439 -255 303 -255Q182 -255 114 -217.5Q46 -180 46 -112Q46 -76 68 -48Q90 -20 131 -3V-1Q112 7 98.5 29.5Q85 52 85 75Q85 105 98 129.5Q111 154 140 178Q107 203 90 239Q73 275 73 322Q73 411 135.5 463Q198 515 302 515Q319 515 335.5 513.5Q352 512 381 507Q408 502 422.5 500.5Q437 499 451 499H599V398H505V396Q517 384 524 363.5Q531 343 531 320Q531 232 469 182.5Q407 133 300 133Q277 133 255.5 135.5Q234 138 215 143Q206 133 201.5 124Q197 115 197 106Q197 92 207.5 82.5Q218 73 236 73H406Q496 73 542.5 36Q589 -1 589 -72ZM463 -91Q463 -60 441 -44.5Q419 -29 375 -29H257Q216 -29 193 -48Q170 -67 170 -99Q170 -134 206.5 -153Q243 -172 312 -172Q386 -172 424.5 -151.5Q463 -131 463 -91ZM306 585Q275 585 252.5 606Q230 627 230 657Q230 687 252.5 708.5Q275 730 306 730Q336 730 357 708.5Q378 687 378 657Q378 628 356.5 606.5Q335 585 306 585Z" glyph-name="gdotaccent" horiz-adv-x="613" unicode="ġ" /><glyph d="M301 419Q254 419 226 393Q198 367 198 322Q198 278 226 251.5Q254 225 301 225Q349 225 377 251Q405 277 405 322Q405 367 377 393Q349 419 301 419ZM589 -72Q589 -158 514 -206.5Q439 -255 303 -255Q182 -255 114 -217.5Q46 -180 46 -112Q46 -76 68 -48Q90 -20 131 -3V-1Q112 7 98.5 29.5Q85 52 85 75Q85 105 98 129.5Q111 154 139 177Q105 201 87.5 238Q70 275 70 322Q70 412 133 464Q196 516 302 516Q330 516 357.5 511.5Q385 507 409 498Q452 563 497 584.5Q542 606 614 601V500Q569 505 540.5 494.5Q512 484 484 451Q509 427 521.5 394Q534 361 534 321Q534 231 472.5 182Q411 133 300 133Q277 133 255.5 135.5Q234 138 215 143Q206 133 201.5 124Q197 115 197 106Q197 92 207.5 82.5Q218 73 236 73H406Q496 73 542.5 36Q589 -1 589 -72ZM463 -91Q463 -60 441 -44.5Q419 -29 375 -29H257Q216 -29 193 -48Q170 -67 170 -99Q170 -134 206.5 -153Q243 -172 312 -172Q386 -172 424.5 -151.5Q463 -131 463 -91ZM369 709 449 709Q439 644 400.5 608Q362 572 303 572Q244 572 206 608.5Q168 645 159 709H241Q244 678 261 660.5Q278 643 303 643Q332 643 347.5 659Q363 675 369 709Z" glyph-name="gbreve.alt" horiz-adv-x="613" unicode="" /><glyph d="M301 419Q254 419 226 393Q198 367 198 322Q198 278 226 251.5Q254 225 301 225Q349 225 377 251Q405 277 405 322Q405 367 377 393Q349 419 301 419ZM589 -72Q589 -158 514 -206.5Q439 -255 303 -255Q182 -255 114 -217.5Q46 -180 46 -112Q46 -76 68 -48Q90 -20 131 -3V-1Q112 7 98.5 29.5Q85 52 85 75Q85 105 98 129.5Q111 154 139 177Q105 201 87.5 238Q70 275 70 322Q70 412 133 464Q196 516 302 516Q330 516 357.5 511.5Q385 507 409 498Q430 529 446.5 546.5Q463 564 480 575H368L306 679L243 575H114L224 719H387L493 582Q516 594 545 598.5Q574 603 614 601V500Q569 505 540.5 494.5Q512 484 484 451Q509 427 521.5 394Q534 361 534 321Q534 231 472.5 182Q411 133 300 133Q277 133 255.5 135.5Q234 138 215 143Q206 133 201.5 124Q197 115 197 106Q197 92 207.5 82.5Q218 73 236 73H406Q496 73 542.5 36Q589 -1 589 -72ZM463 -91Q463 -60 441 -44.5Q419 -29 375 -29H257Q216 -29 193 -48Q170 -67 170 -99Q170 -134 206.5 -153Q243 -172 312 -172Q386 -172 424.5 -151.5Q463 -131 463 -91Z" glyph-name="gcircumflex.alt" horiz-adv-x="613" unicode="" /><glyph d="M301 419Q254 419 226 393Q198 367 198 322Q198 278 226 251.5Q254 225 301 225Q349 225 377 251Q405 277 405 322Q405 367 377 393Q349 419 301 419ZM589 -72Q589 -158 514 -206.5Q439 -255 303 -255Q182 -255 114 -217.5Q46 -180 46 -112Q46 -76 68 -48Q90 -20 131 -3V-1Q112 7 98.5 29.5Q85 52 85 75Q85 105 98 129.5Q111 154 139 177Q105 201 87.5 238Q70 275 70 322Q70 412 133 464Q196 516 302 516Q330 516 357.5 511.5Q385 507 409 498Q452 563 497 584.5Q542 606 614 601V500Q569 505 540.5 494.5Q512 484 484 451Q509 427 521.5 394Q534 361 534 321Q534 231 472.5 182Q411 133 300 133Q277 133 255.5 135.5Q234 138 215 143Q206 133 201.5 124Q197 115 197 106Q197 92 207.5 82.5Q218 73 236 73H406Q496 73 542.5 36Q589 -1 589 -72ZM463 -91Q463 -60 441 -44.5Q419 -29 375 -29H257Q216 -29 193 -48Q170 -67 170 -99Q170 -134 206.5 -153Q243 -172 312 -172Q386 -172 424.5 -151.5Q463 -131 463 -91ZM391 719 348 575H216L278 719Z" glyph-name="gcommaaccent.alt" horiz-adv-x="613" unicode="" /><glyph d="M301 419Q254 419 226 393Q198 367 198 322Q198 278 226 251.5Q254 225 301 225Q349 225 377 251Q405 277 405 322Q405 367 377 393Q349 419 301 419ZM589 -72Q589 -158 514 -206.5Q439 -255 303 -255Q182 -255 114 -217.5Q46 -180 46 -112Q46 -76 68 -48Q90 -20 131 -3V-1Q112 7 98.5 29.5Q85 52 85 75Q85 105 98 129.5Q111 154 139 177Q105 201 87.5 238Q70 275 70 322Q70 412 133 464Q196 516 302 516Q330 516 357.5 511.5Q385 507 409 498Q452 563 497 584.5Q542 606 614 601V500Q569 505 540.5 494.5Q512 484 484 451Q509 427 521.5 394Q534 361 534 321Q534 231 472.5 182Q411 133 300 133Q277 133 255.5 135.5Q234 138 215 143Q206 133 201.5 124Q197 115 197 106Q197 92 207.5 82.5Q218 73 236 73H406Q496 73 542.5 36Q589 -1 589 -72ZM463 -91Q463 -60 441 -44.5Q419 -29 375 -29H257Q216 -29 193 -48Q170 -67 170 -99Q170 -134 206.5 -153Q243 -172 312 -172Q386 -172 424.5 -151.5Q463 -131 463 -91ZM306 585Q275 585 252.5 606Q230 627 230 657Q230 687 252.5 708.5Q275 730 306 730Q336 730 357 708.5Q378 687 378 657Q378 628 356.5 606.5Q335 585 306 585Z" glyph-name="gdotaccent.alt" horiz-adv-x="613" unicode="" /><glyph d="M317 404Q287 404 259.5 390Q232 376 202 345V0H70V578H28V650H70V708H202V650H317V578H202V444H204Q243 482 278.5 497.5Q314 513 357 513Q442 513 491.5 460Q541 407 541 315V0H410V306Q410 351 385 377.5Q360 404 317 404Z" glyph-name="hbar" horiz-adv-x="606" unicode="ħ" /><glyph d="M202 444 204 444Q243 482 278.5 497.5Q314 513 357 513Q442 513 491.5 460Q541 407 541 315V0H410V306Q410 351 385 377.5Q360 404 317 404Q287 404 259.5 390Q232 376 202 345V0H70V708H202ZM467 755 337 755L275 859L212 755H83L193 899H356Z" glyph-name="hcircumflex" horiz-adv-x="606" unicode="ĥ" /><glyph d="M200 0 69 0V499H200ZM311 719 171 575H55L163 719Z" glyph-name="iacute" horiz-adv-x="271" unicode="í" /><glyph d="M200 0 69 0V499H200ZM328 575 198 575L136 679L73 575H-56L54 719H217Z" glyph-name="icircumflex" horiz-adv-x="271" unicode="î" /><glyph d="M200 0 69 0V499H200ZM235 591Q207 591 186.5 610.5Q166 630 166 657Q166 684 186.5 704Q207 724 235 724Q262 724 281.5 704Q301 684 301 657Q301 630 281.5 610.5Q262 591 235 591ZM37 591Q9 591 -10.5 610Q-30 629 -30 657Q-30 685 -10.5 704.5Q9 724 37 724Q64 724 83.5 704Q103 684 103 657Q103 630 83.5 610.5Q64 591 37 591Z" glyph-name="idieresis" horiz-adv-x="271" unicode="ï" /><glyph d="M200 0 69 0V499H200ZM215 575 98 575L-38 719H107Z" glyph-name="igrave" horiz-adv-x="271" unicode="ì" /><glyph d="M200 0 69 0V499H200ZM199 709 279 709Q269 644 230.5 608Q192 572 133 572Q74 572 36 608.5Q-2 645 -11 709H71Q74 678 91 660.5Q108 643 133 643Q162 643 177.5 659Q193 675 199 709Z" glyph-name="ibreve" horiz-adv-x="271" unicode="ĭ" /><glyph d="M136 579Q105 579 83 600Q61 621 61 651Q61 681 83 702Q105 723 136 723Q166 723 187 702Q208 681 208 651Q208 621 186.5 600Q165 579 136 579ZM200 0 69 0V499H200Z" glyph-name="i.dot" horiz-adv-x="271" unicode="" /><glyph d="M200 0 69 0V499H200ZM279 612 -10 612V684H279Z" glyph-name="imacron" horiz-adv-x="271" unicode="ī" /><glyph d="M136 579Q105 579 83 600Q61 621 61 651Q61 681 83 702Q105 723 136 723Q166 723 187 702Q208 681 208 651Q208 621 186.5 600Q165 579 136 579ZM-5 -146Q-5 -109 23.5 -70.5Q52 -32 103 0H69V499H200V0H177Q132 -41 111.5 -70.5Q91 -100 91 -127Q91 -148 102.5 -159.5Q114 -171 135 -171Q154 -171 169.5 -165.5Q185 -160 194 -150L218 -202Q198 -218 171.5 -225.5Q145 -233 110 -233Q56 -233 25.5 -210Q-5 -187 -5 -146Z" glyph-name="iogonek" horiz-adv-x="271" unicode="į" /><glyph d="M200 0 69 0V499H200ZM70 713Q86 713 103 706Q120 699 139 684Q155 671 165 665.5Q175 660 186 660Q200 660 207 670.5Q214 681 217 709H290Q286 646 264 615Q242 584 200 584Q183 584 165 591.5Q147 599 128 614Q113 626 103 631.5Q93 637 84 637Q70 637 63 626.5Q56 616 52 588H-21Q-17 651 6 682Q29 713 70 713Z" glyph-name="itilde" horiz-adv-x="271" unicode="ĩ" /><glyph d="M200 499 200 -25Q200 -139 160 -189.5Q120 -240 33 -240Q27 -240 19.5 -239.5Q12 -239 -28 -233V-125Q-21 -127 -12.5 -128.5Q-4 -130 3 -130Q37 -130 53 -109Q69 -88 69 -42V499ZM328 575 198 575L136 679L73 575H-56L54 719H217Z" glyph-name="jcircumflex" horiz-adv-x="271" unicode="ĵ" /><glyph d="M136 579Q105 579 83 600Q61 621 61 651Q61 681 83 702Q105 723 136 723Q166 723 187 702Q208 681 208 651Q208 621 186.5 600Q165 579 136 579ZM200 0 69 0V499H200ZM407 579Q376 579 354 600Q332 621 332 651Q332 681 354 702Q376 723 407 723Q437 723 458 702Q479 681 479 651Q479 621 457.5 600Q436 579 407 579ZM471 499 471 -25Q471 -139 431 -189.5Q391 -240 304 -240Q298 -240 290.5 -239.5Q283 -239 243 -233V-125Q250 -127 258.5 -128.5Q267 -130 274 -130Q308 -130 324 -109Q340 -88 340 -42V499Z" glyph-name="ij" horiz-adv-x="542" unicode="ĳ" /><glyph d="M382 0 203 234H200V0H69V708H200V294H203L375 499H529L325 271L538 0ZM171 -235 225 -56H356L284 -235Z" glyph-name="kcommaaccent" horiz-adv-x="550" unicode="ķ" /><glyph d="M382 0 203 234H200V0H69V499H200V294H203L375 499H529L325 271L538 0Z" glyph-name="kgreenlandic" horiz-adv-x="550" unicode="ĸ" /><glyph d="M200 708 200 145Q200 123 210.5 111.5Q221 100 242 100H260V0H198Q132 0 100.5 33Q69 66 69 134V708ZM332 899 192 755H76L184 899Z" glyph-name="lacute" horiz-adv-x="272" unicode="ĺ" /><glyph d="M200 708 200 145Q200 123 210.5 111.5Q221 100 242 100H260V0H198Q132 0 100.5 33Q69 66 69 134V708ZM226 535 266 707H398L339 535Z" glyph-name="lcaron" horiz-adv-x="344" unicode="ľ" /><glyph d="M200 708 200 145Q200 123 210.5 111.5Q221 100 242 100H260V0H198Q132 0 100.5 33Q69 66 69 134V708ZM33 -235 87 -56H218L146 -235Z" glyph-name="lcommaaccent" horiz-adv-x="272" unicode="ļ" /><glyph d="M200 708 200 145Q200 123 210.5 111.5Q221 100 242 100H260V0H198Q132 0 100.5 33Q69 66 69 134V708ZM301 271Q270 271 247.5 292.5Q225 314 225 344Q225 374 247.5 395Q270 416 301 416Q331 416 352 395Q373 374 373 344Q373 314 351.5 292.5Q330 271 301 271Z" glyph-name="ldot" horiz-adv-x="324" unicode="ŀ" /><glyph d="M197 439 198 439Q239 479 275.5 496Q312 513 355 513Q441 513 491 460Q541 407 541 315V0H410V306Q410 351 384.5 377.5Q359 404 315 404Q284 404 257 389.5Q230 375 202 343V0H70V380Q70 412 67.5 442.5Q65 473 60 499H188Q192 486 194 470Q196 454 197 439ZM237 713Q253 713 270 706Q287 699 306 684Q322 671 332 665.5Q342 660 353 660Q367 660 374 670.5Q381 681 384 709H457Q453 646 431 615Q409 584 367 584Q350 584 332 591.5Q314 599 295 614Q280 626 270 631.5Q260 637 251 637Q237 637 230 626.5Q223 616 219 588H146Q150 651 173 682Q196 713 237 713Z" glyph-name="ntilde" horiz-adv-x="606" unicode="ñ" /><glyph d="M197 439 198 439Q239 479 275.5 496Q312 513 355 513Q441 513 491 460Q541 407 541 315V0H410V306Q410 351 384.5 377.5Q359 404 315 404Q284 404 257 389.5Q230 375 202 343V0H70V380Q70 412 67.5 442.5Q65 473 60 499H188Q192 486 194 470Q196 454 197 439ZM478 719 338 575H222L330 719Z" glyph-name="nacute" horiz-adv-x="606" unicode="ń" /><glyph d="M197 439 198 439Q239 479 275.5 496Q312 513 355 513Q441 513 491 460Q541 407 541 315V0H410V306Q410 351 384.5 377.5Q359 404 315 404Q284 404 257 389.5Q230 375 202 343V0H70V380Q70 412 67.5 442.5Q65 473 60 499H188Q192 486 194 470Q196 454 197 439ZM111 719 239 719L301 616L364 719H495L382 575H220Z" glyph-name="ncaron" horiz-adv-x="606" unicode="ň" /><glyph d="M197 439 198 439Q239 479 275.5 496Q312 513 355 513Q441 513 491 460Q541 407 541 315V0H410V306Q410 351 384.5 377.5Q359 404 315 404Q284 404 257 389.5Q230 375 202 343V0H70V380Q70 412 67.5 442.5Q65 473 60 499H188Q192 486 194 470Q196 454 197 439ZM199 -235 253 -56H384L312 -235Z" glyph-name="ncommaaccent" horiz-adv-x="606" unicode="ņ" /><glyph d="M197 439 198 439Q239 479 275.5 496Q312 513 355 513Q441 513 491 460Q541 407 541 315V0H410V306Q410 351 384.5 377.5Q359 404 315 404Q284 404 257 389.5Q230 375 202 343V0H70V380Q70 412 67.5 442.5Q65 473 60 499H188Q192 486 194 470Q196 454 197 439ZM69 575 108 719H239L182 575Z" glyph-name="napostrophe" horiz-adv-x="606" unicode="ŉ" /><glyph d="M374 -240Q368 -240 360.5 -239.5Q353 -239 313 -233V-125Q320 -127 328.5 -128.5Q337 -130 344 -130Q378 -130 394 -109Q410 -88 410 -42V306Q410 351 384.5 377.5Q359 404 315 404Q284 404 257 389.5Q230 375 202 343V0H70V380Q70 412 67.5 442.5Q65 473 60 499H188Q192 486 194 470Q196 454 197 439H198Q239 479 275.5 496Q312 513 355 513Q441 513 491 460Q541 407 541 315V-25Q541 -139 501 -189.5Q461 -240 374 -240Z" glyph-name="eng" horiz-adv-x="606" unicode="ŋ" /><glyph d="M42 250Q42 369 118.5 443Q195 517 313 517Q432 517 508.5 442.5Q585 368 585 249Q585 131 508 57Q431 -17 313 -17Q195 -17 118.5 57Q42 131 42 250ZM175 251Q175 184 214 140Q253 96 313 96Q374 96 413 139Q452 182 452 248Q452 314 412.5 358Q373 402 313 402Q252 402 213.5 359.5Q175 317 175 251ZM489 719 349 575H233L341 719Z" glyph-name="oacute" horiz-adv-x="627" unicode="ó" /><glyph d="M42 250Q42 369 118.5 443Q195 517 313 517Q432 517 508.5 442.5Q585 368 585 249Q585 131 508 57Q431 -17 313 -17Q195 -17 118.5 57Q42 131 42 250ZM175 251Q175 184 214 140Q253 96 313 96Q374 96 413 139Q452 182 452 248Q452 314 412.5 358Q373 402 313 402Q252 402 213.5 359.5Q175 317 175 251ZM506 575 376 575L314 679L251 575H122L232 719H395Z" glyph-name="ocircumflex" horiz-adv-x="627" unicode="ô" /><glyph d="M42 250Q42 369 118.5 443Q195 517 313 517Q432 517 508.5 442.5Q585 368 585 249Q585 131 508 57Q431 -17 313 -17Q195 -17 118.5 57Q42 131 42 250ZM175 251Q175 184 214 140Q253 96 313 96Q374 96 413 139Q452 182 452 248Q452 314 412.5 358Q373 402 313 402Q252 402 213.5 359.5Q175 317 175 251ZM413 591Q385 591 364.5 610.5Q344 630 344 657Q344 684 364.5 704Q385 724 413 724Q440 724 459.5 704Q479 684 479 657Q479 630 459.5 610.5Q440 591 413 591ZM215 591Q187 591 167.5 610Q148 629 148 657Q148 685 167.5 704.5Q187 724 215 724Q242 724 261.5 704Q281 684 281 657Q281 630 261.5 610.5Q242 591 215 591Z" glyph-name="odieresis" horiz-adv-x="627" unicode="ö" /><glyph d="M42 250Q42 369 118.5 443Q195 517 313 517Q432 517 508.5 442.5Q585 368 585 249Q585 131 508 57Q431 -17 313 -17Q195 -17 118.5 57Q42 131 42 250ZM175 251Q175 184 214 140Q253 96 313 96Q374 96 413 139Q452 182 452 248Q452 314 412.5 358Q373 402 313 402Q252 402 213.5 359.5Q175 317 175 251ZM393 575 276 575L140 719H285Z" glyph-name="ograve" horiz-adv-x="627" unicode="ò" /><glyph d="M42 250Q42 369 118.5 443Q195 517 313 517Q432 517 508.5 442.5Q585 368 585 249Q585 131 508 57Q431 -17 313 -17Q195 -17 118.5 57Q42 131 42 250ZM175 251Q175 184 214 140Q253 96 313 96Q374 96 413 139Q452 182 452 248Q452 314 412.5 358Q373 402 313 402Q252 402 213.5 359.5Q175 317 175 251ZM248 713Q264 713 281 706Q298 699 317 684Q333 671 343 665.5Q353 660 364 660Q378 660 385 670.5Q392 681 395 709H468Q464 646 442 615Q420 584 378 584Q361 584 343 591.5Q325 599 306 614Q291 626 281 631.5Q271 637 262 637Q248 637 241 626.5Q234 616 230 588H157Q161 651 184 682Q207 713 248 713Z" glyph-name="otilde" horiz-adv-x="627" unicode="õ" /><glyph d="M42 250Q42 369 118.5 443Q195 517 313 517Q432 517 508.5 442.5Q585 368 585 249Q585 131 508 57Q431 -17 313 -17Q195 -17 118.5 57Q42 131 42 250ZM175 251Q175 184 214 140Q253 96 313 96Q374 96 413 139Q452 182 452 248Q452 314 412.5 358Q373 402 313 402Q252 402 213.5 359.5Q175 317 175 251ZM377 709 457 709Q447 644 408.5 608Q370 572 311 572Q252 572 214 608.5Q176 645 167 709H249Q252 678 269 660.5Q286 643 311 643Q340 643 355.5 659Q371 675 377 709Z" glyph-name="obreve" horiz-adv-x="627" unicode="ŏ" /><glyph d="M42 250Q42 369 118.5 443Q195 517 313 517Q432 517 508.5 442.5Q585 368 585 249Q585 131 508 57Q431 -17 313 -17Q195 -17 118.5 57Q42 131 42 250ZM175 251Q175 184 214 140Q253 96 313 96Q374 96 413 139Q452 182 452 248Q452 314 412.5 358Q373 402 313 402Q252 402 213.5 359.5Q175 317 175 251ZM577 719 439 575H334L443 719ZM393 719 254 575H152L259 719Z" glyph-name="ohungarumlaut" horiz-adv-x="627" unicode="ő" /><glyph d="M42 250Q42 369 118.5 443Q195 517 313 517Q432 517 508.5 442.5Q585 368 585 249Q585 131 508 57Q431 -17 313 -17Q195 -17 118.5 57Q42 131 42 250ZM175 251Q175 184 214 140Q253 96 313 96Q374 96 413 139Q452 182 452 248Q452 314 412.5 358Q373 402 313 402Q252 402 213.5 359.5Q175 317 175 251ZM457 612 168 612V684H457Z" glyph-name="omacron" horiz-adv-x="627" unicode="ō" /><glyph d="M196 419 198 419Q218 466 256 489.5Q294 513 350 513H369V393Q360 395 348 396Q336 397 323 397Q283 397 253.5 377.5Q224 358 202 318V0H70V380Q70 412 67.5 442.5Q65 473 60 499H188Q192 481 194 462.5Q196 444 196 419ZM363 719 223 575H107L215 719Z" glyph-name="racute" horiz-adv-x="376" unicode="ŕ" /><glyph d="M196 419 198 419Q218 466 256 489.5Q294 513 350 513H369V393Q360 395 348 396Q336 397 323 397Q283 397 253.5 377.5Q224 358 202 318V0H70V380Q70 412 67.5 442.5Q65 473 60 499H188Q192 481 194 462.5Q196 444 196 419ZM-4 719 124 719L186 616L249 719H380L267 575H105Z" glyph-name="rcaron" horiz-adv-x="376" unicode="ř" /><glyph d="M196 419 198 419Q218 466 256 489.5Q294 513 350 513H369V393Q360 395 348 396Q336 397 323 397Q283 397 253.5 377.5Q224 358 202 318V0H70V380Q70 412 67.5 442.5Q65 473 60 499H188Q192 481 194 462.5Q196 444 196 419ZM29 -235 83 -56H214L142 -235Z" glyph-name="rcommaaccent" horiz-adv-x="376" unicode="ŗ" /><glyph d="M236 -16Q184 -16 134.5 -4Q85 8 45 30V154Q83 123 136.5 103Q190 83 235 83Q268 83 287 97Q306 111 306 136Q306 161 284.5 176Q263 191 195 208Q120 226 84 263Q48 300 48 359Q48 430 106 473.5Q164 517 247 517Q298 517 340.5 506.5Q383 496 419 475V355Q382 382 336.5 397.5Q291 413 249 413Q216 413 197.5 400.5Q179 388 179 365Q179 340 199 327Q219 314 279 299Q361 279 400 241.5Q439 204 439 145Q439 71 381 27.5Q323 -16 236 -16ZM47 719 175 719L237 616L300 719H431L318 575H156Z" glyph-name="scaron" horiz-adv-x="477" unicode="š" /><glyph d="M236 -16Q184 -16 134.5 -4Q85 8 45 30V154Q83 123 136.5 103Q190 83 235 83Q268 83 287 97Q306 111 306 136Q306 161 284.5 176Q263 191 195 208Q120 226 84 263Q48 300 48 359Q48 430 106 473.5Q164 517 247 517Q298 517 340.5 506.5Q383 496 419 475V355Q382 382 336.5 397.5Q291 413 249 413Q216 413 197.5 400.5Q179 388 179 365Q179 340 199 327Q219 314 279 299Q361 279 400 241.5Q439 204 439 145Q439 71 381 27.5Q323 -16 236 -16ZM414 719 274 575H158L266 719Z" glyph-name="sacute" horiz-adv-x="477" unicode="ś" /><glyph d="M354 -139Q354 -184 313.5 -209Q273 -234 209 -234Q181 -234 148 -228Q115 -222 90 -212L115 -156Q131 -164 155 -168.5Q179 -173 200 -173Q227 -173 242 -164Q257 -155 257 -137Q257 -122 244 -114.5Q231 -107 208 -107Q196 -107 181.5 -109.5Q167 -112 157 -116L125 -92L187 -13Q149 -9 112.5 2Q76 13 45 30V154Q83 123 136.5 103Q190 83 235 83Q268 83 287 97Q306 111 306 136Q306 161 284.5 176Q263 191 195 208Q120 226 84 263Q48 300 48 359Q48 430 106 473.5Q164 517 247 517Q298 517 340.5 506.5Q383 496 419 475V355Q382 382 336.5 397.5Q291 413 249 413Q216 413 197.5 400.5Q179 388 179 365Q179 340 199 327Q219 314 279 299Q361 279 400 241.5Q439 204 439 145Q439 78 391 35.5Q343 -7 265 -14L224 -64Q229 -62 236 -61.5Q243 -61 257 -61Q303 -61 328.5 -81Q354 -101 354 -139Z" glyph-name="scedilla" horiz-adv-x="477" unicode="ş" /><glyph d="M236 -16Q184 -16 134.5 -4Q85 8 45 30V154Q83 123 136.5 103Q190 83 235 83Q268 83 287 97Q306 111 306 136Q306 161 284.5 176Q263 191 195 208Q120 226 84 263Q48 300 48 359Q48 430 106 473.5Q164 517 247 517Q298 517 340.5 506.5Q383 496 419 475V355Q382 382 336.5 397.5Q291 413 249 413Q216 413 197.5 400.5Q179 388 179 365Q179 340 199 327Q219 314 279 299Q361 279 400 241.5Q439 204 439 145Q439 71 381 27.5Q323 -16 236 -16ZM431 575 301 575L239 679L176 575H47L157 719H320Z" glyph-name="scircumflex" horiz-adv-x="477" unicode="ŝ" /><glyph d="M236 -16Q184 -16 134.5 -4Q85 8 45 30V154Q83 123 136.5 103Q190 83 235 83Q268 83 287 97Q306 111 306 136Q306 161 284.5 176Q263 191 195 208Q120 226 84 263Q48 300 48 359Q48 430 106 473.5Q164 517 247 517Q298 517 340.5 506.5Q383 496 419 475V355Q382 382 336.5 397.5Q291 413 249 413Q216 413 197.5 400.5Q179 388 179 365Q179 340 199 327Q219 314 279 299Q361 279 400 241.5Q439 204 439 145Q439 71 381 27.5Q323 -16 236 -16ZM135 -235 189 -56H320L248 -235Z" glyph-name="uni0219" horiz-adv-x="477" unicode="ș" /><glyph d="M331 97 331 1Q313 -5 289.5 -8.5Q266 -12 243 -12Q167 -12 128 27Q89 66 89 141V224H21V296H89V398H6V499H89V624H215V499H336V398H215V296H310V224H215V162Q215 125 232 107Q249 89 285 89Q298 89 310.5 91Q323 93 331 97Z" glyph-name="tbar" horiz-adv-x="353" unicode="ŧ" /><glyph d="M243 -12Q167 -12 128 27Q89 66 89 141V398H6V499H89V624H215V499H336V398H215V162Q215 125 232 107Q249 89 285 89Q298 89 310.5 91Q323 93 331 97V1Q313 -5 289.5 -8.5Q266 -12 243 -12ZM241 547 281 719H413L354 547Z" glyph-name="tcaron" horiz-adv-x="378" unicode="ť" /><glyph d="M243 -12Q167 -12 128 27Q89 66 89 141V398H6V499H89V624H215V499H336V398H215V162Q215 125 232 107Q249 89 285 89Q298 89 310.5 91Q323 93 331 97V1Q313 -5 289.5 -8.5Q266 -12 243 -12ZM72 -235 126 -56H257L185 -235Z" glyph-name="uni0163" horiz-adv-x="353" unicode="ţ" /><glyph d="M243 -12Q167 -12 128 27Q89 66 89 141V398H6V499H89V624H215V499H336V398H215V162Q215 125 232 107Q249 89 285 89Q298 89 310.5 91Q323 93 331 97V1Q313 -5 289.5 -8.5Q266 -12 243 -12ZM72 -235 126 -56H257L185 -235Z" glyph-name="uni021B" horiz-adv-x="353" unicode="ț" /><glyph d="M407 61 405 61Q372 22 335 4Q298 -14 252 -14Q161 -14 112 41.5Q63 97 63 199V499H195V213Q195 158 221.5 126Q248 94 294 94Q325 94 350.5 108.5Q376 123 403 156V499H534V119Q534 87 536.5 56.5Q539 26 544 0H416Q412 14 410 29.5Q408 45 407 61ZM478 719 338 575H222L330 719Z" glyph-name="uacute" horiz-adv-x="606" unicode="ú" /><glyph d="M407 61 405 61Q372 22 335 4Q298 -14 252 -14Q161 -14 112 41.5Q63 97 63 199V499H195V213Q195 158 221.5 126Q248 94 294 94Q325 94 350.5 108.5Q376 123 403 156V499H534V119Q534 87 536.5 56.5Q539 26 544 0H416Q412 14 410 29.5Q408 45 407 61ZM495 575 365 575L303 679L240 575H111L221 719H384Z" glyph-name="ucircumflex" horiz-adv-x="606" unicode="û" /><glyph d="M407 61 405 61Q372 22 335 4Q298 -14 252 -14Q161 -14 112 41.5Q63 97 63 199V499H195V213Q195 158 221.5 126Q248 94 294 94Q325 94 350.5 108.5Q376 123 403 156V499H534V119Q534 87 536.5 56.5Q539 26 544 0H416Q412 14 410 29.5Q408 45 407 61ZM402 591Q374 591 353.5 610.5Q333 630 333 657Q333 684 353.5 704Q374 724 402 724Q429 724 448.5 704Q468 684 468 657Q468 630 448.5 610.5Q429 591 402 591ZM204 591Q176 591 156.5 610Q137 629 137 657Q137 685 156.5 704.5Q176 724 204 724Q231 724 250.5 704Q270 684 270 657Q270 630 250.5 610.5Q231 591 204 591Z" glyph-name="udieresis" horiz-adv-x="606" unicode="ü" /><glyph d="M407 61 405 61Q372 22 335 4Q298 -14 252 -14Q161 -14 112 41.5Q63 97 63 199V499H195V213Q195 158 221.5 126Q248 94 294 94Q325 94 350.5 108.5Q376 123 403 156V499H534V119Q534 87 536.5 56.5Q539 26 544 0H416Q412 14 410 29.5Q408 45 407 61ZM382 575 265 575L129 719H274Z" glyph-name="ugrave" horiz-adv-x="606" unicode="ù" /><glyph d="M407 61 405 61Q372 22 335 4Q298 -14 252 -14Q161 -14 112 41.5Q63 97 63 199V499H195V213Q195 158 221.5 126Q248 94 294 94Q325 94 350.5 108.5Q376 123 403 156V499H534V119Q534 87 536.5 56.5Q539 26 544 0H416Q412 14 410 29.5Q408 45 407 61ZM366 709 446 709Q436 644 397.5 608Q359 572 300 572Q241 572 203 608.5Q165 645 156 709H238Q241 678 258 660.5Q275 643 300 643Q329 643 344.5 659Q360 675 366 709Z" glyph-name="ubreve" horiz-adv-x="606" unicode="ŭ" /><glyph d="M407 61 405 61Q372 22 335 4Q298 -14 252 -14Q161 -14 112 41.5Q63 97 63 199V499H195V213Q195 158 221.5 126Q248 94 294 94Q325 94 350.5 108.5Q376 123 403 156V499H534V119Q534 87 536.5 56.5Q539 26 544 0H416Q412 14 410 29.5Q408 45 407 61ZM566 719 428 575H323L432 719ZM382 719 243 575H141L248 719Z" glyph-name="uhungarumlaut" horiz-adv-x="606" unicode="ű" /><glyph d="M407 61 405 61Q372 22 335 4Q298 -14 252 -14Q161 -14 112 41.5Q63 97 63 199V499H195V213Q195 158 221.5 126Q248 94 294 94Q325 94 350.5 108.5Q376 123 403 156V499H534V119Q534 87 536.5 56.5Q539 26 544 0H416Q412 14 410 29.5Q408 45 407 61ZM446 612 157 612V684H446Z" glyph-name="umacron" horiz-adv-x="606" unicode="ū" /><glyph d="M307 -146Q307 -110 336 -71.5Q365 -33 416 0Q412 14 410 29.5Q408 45 407 61H405Q372 22 335 4Q298 -14 252 -14Q161 -14 112 41.5Q63 97 63 199V499H195V213Q195 158 221.5 126Q248 94 294 94Q325 94 350.5 108.5Q376 123 403 156V499H534V119Q534 87 536.5 56.5Q539 26 544 0H490Q445 -41 424.5 -70.5Q404 -100 404 -127Q404 -148 415.5 -159.5Q427 -171 448 -171Q467 -171 482.5 -165.5Q498 -160 507 -150L531 -202Q512 -218 485 -225.5Q458 -233 423 -233Q368 -233 337.5 -210Q307 -187 307 -146Z" glyph-name="uogonek" horiz-adv-x="606" unicode="ų" /><glyph d="M407 61 405 61Q372 22 335 4Q298 -14 252 -14Q161 -14 112 41.5Q63 97 63 199V499H195V213Q195 158 221.5 126Q248 94 294 94Q325 94 350.5 108.5Q376 123 403 156V499H534V119Q534 87 536.5 56.5Q539 26 544 0H416Q412 14 410 29.5Q408 45 407 61ZM303 563Q252 563 216.5 597.5Q181 632 181 681Q181 730 217 764.5Q253 799 303 799Q352 799 387 764.5Q422 730 422 681Q422 632 387 597.5Q352 563 303 563ZM303 729Q282 729 268 715Q254 701 254 681Q254 661 268 647Q282 633 303 633Q322 633 335 647Q348 661 348 681Q348 701 335 715Q322 729 303 729Z" glyph-name="uring" horiz-adv-x="606" unicode="ů" /><glyph d="M407 61 405 61Q372 22 335 4Q298 -14 252 -14Q161 -14 112 41.5Q63 97 63 199V499H195V213Q195 158 221.5 126Q248 94 294 94Q325 94 350.5 108.5Q376 123 403 156V499H534V119Q534 87 536.5 56.5Q539 26 544 0H416Q412 14 410 29.5Q408 45 407 61ZM237 713Q253 713 270 706Q287 699 306 684Q322 671 332 665.5Q342 660 353 660Q367 660 374 670.5Q381 681 384 709H457Q453 646 431 615Q409 584 367 584Q350 584 332 591.5Q314 599 295 614Q280 626 270 631.5Q260 637 251 637Q237 637 230 626.5Q223 616 219 588H146Q150 651 173 682Q196 713 237 713Z" glyph-name="utilde" horiz-adv-x="606" unicode="ũ" /><glyph d="M426 354 424 354L307 0H175L11 499H153L251 154H255L364 499H495L609 154H611L709 499H843L678 0H545ZM603 719 463 575H347L455 719Z" glyph-name="wacute" horiz-adv-x="855" unicode="ẃ" /><glyph d="M426 354 424 354L307 0H175L11 499H153L251 154H255L364 499H495L609 154H611L709 499H843L678 0H545ZM620 575 490 575L428 679L365 575H236L346 719H509Z" glyph-name="wcircumflex" horiz-adv-x="855" unicode="ŵ" /><glyph d="M426 354 424 354L307 0H175L11 499H153L251 154H255L364 499H495L609 154H611L709 499H843L678 0H545ZM527 591Q499 591 478.5 610.5Q458 630 458 657Q458 684 478.5 704Q499 724 527 724Q554 724 573.5 704Q593 684 593 657Q593 630 573.5 610.5Q554 591 527 591ZM329 591Q301 591 281.5 610Q262 629 262 657Q262 685 281.5 704.5Q301 724 329 724Q356 724 375.5 704Q395 684 395 657Q395 630 375.5 610.5Q356 591 329 591Z" glyph-name="wdieresis" horiz-adv-x="855" unicode="ẅ" /><glyph d="M426 354 424 354L307 0H175L11 499H153L251 154H255L364 499H495L609 154H611L709 499H843L678 0H545ZM507 575 390 575L254 719H399Z" glyph-name="wgrave" horiz-adv-x="855" unicode="ẁ" /><glyph d="M116 -245 116 -126Q151 -118 169.5 -98Q188 -78 204 -33L212 -13Q217 -1 216.5 9.5Q216 20 209 36L15 499H163L288 137L405 499H546L336 -46Q297 -150 247 -194.5Q197 -239 116 -245ZM456 719 316 575H200L308 719Z" glyph-name="yacute" horiz-adv-x="563" unicode="ý" /><glyph d="M116 -245 116 -126Q151 -118 169.5 -98Q188 -78 204 -33L212 -13Q217 -1 216.5 9.5Q216 20 209 36L15 499H163L288 137L405 499H546L336 -46Q297 -150 247 -194.5Q197 -239 116 -245ZM380 591Q352 591 331.5 610.5Q311 630 311 657Q311 684 331.5 704Q352 724 380 724Q407 724 426.5 704Q446 684 446 657Q446 630 426.5 610.5Q407 591 380 591ZM182 591Q154 591 134.5 610Q115 629 115 657Q115 685 134.5 704.5Q154 724 182 724Q209 724 228.5 704Q248 684 248 657Q248 630 228.5 610.5Q209 591 182 591Z" glyph-name="ydieresis" horiz-adv-x="563" unicode="ÿ" /><glyph d="M116 -245 116 -126Q151 -118 169.5 -98Q188 -78 204 -33L212 -13Q217 -1 216.5 9.5Q216 20 209 36L15 499H163L288 137L405 499H546L336 -46Q297 -150 247 -194.5Q197 -239 116 -245ZM473 575 343 575L281 679L218 575H89L199 719H362Z" glyph-name="ycircumflex" horiz-adv-x="563" unicode="ŷ" /><glyph d="M116 -245 116 -126Q151 -118 169.5 -98Q188 -78 204 -33L212 -13Q217 -1 216.5 9.5Q216 20 209 36L15 499H163L288 137L405 499H546L336 -46Q297 -150 247 -194.5Q197 -239 116 -245ZM360 575 243 575L107 719H252Z" glyph-name="ygrave" horiz-adv-x="563" unicode="ỳ" /><glyph d="M452 0 29 0V95L278 398H38V499H444V410L186 100H452ZM50 719 178 719L240 616L303 719H434L321 575H159Z" glyph-name="zcaron" horiz-adv-x="484" unicode="ž" /><glyph d="M452 0 29 0V95L278 398H38V499H444V410L186 100H452ZM417 719 277 575H161L269 719Z" glyph-name="zacute" horiz-adv-x="484" unicode="ź" /><glyph d="M452 0 29 0V95L278 398H38V499H444V410L186 100H452ZM242 585Q211 585 188.5 606Q166 627 166 657Q166 687 188.5 708.5Q211 730 242 730Q272 730 293 708.5Q314 687 314 657Q314 628 292.5 606.5Q271 585 242 585Z" glyph-name="zdotaccent" horiz-adv-x="484" unicode="ż" /><glyph d="M417 719 277 575H161L269 719Z" glyph-name="acute" horiz-adv-x="317" unicode="´" /><glyph d="M360 575 243 575L107 719H252Z" glyph-name="grave" horiz-adv-x="317" unicode="`" /><glyph d="M473 575 343 575L281 679L218 575H89L199 719H362Z" glyph-name="circumflex" horiz-adv-x="317" unicode="ˆ" /><glyph d="M50 719 178 719L240 616L303 719H434L321 575H159Z" glyph-name="caron" horiz-adv-x="317" unicode="ˇ" /><glyph d="M237 713Q253 713 270 706Q287 699 306 684Q322 671 332 665.5Q342 660 353 660Q367 660 374 670.5Q381 681 384 709H457Q453 646 431 615Q409 584 367 584Q350 584 332 591.5Q314 599 295 614Q280 626 270 631.5Q260 637 251 637Q237 637 230 626.5Q223 616 219 588H146Q150 651 173 682Q196 713 237 713Z" glyph-name="tilde" horiz-adv-x="317" unicode="˜" /><glyph d="M380 591Q352 591 331.5 610.5Q311 630 311 657Q311 684 331.5 704Q352 724 380 724Q407 724 426.5 704Q446 684 446 657Q446 630 426.5 610.5Q407 591 380 591ZM182 591Q154 591 134.5 610Q115 629 115 657Q115 685 134.5 704.5Q154 724 182 724Q209 724 228.5 704Q248 684 248 657Q248 630 228.5 610.5Q209 591 182 591Z" glyph-name="dieresis" horiz-adv-x="317" unicode="¨" /><glyph d="M303 563Q252 563 216.5 597.5Q181 632 181 681Q181 730 217 764.5Q253 799 303 799Q352 799 387 764.5Q422 730 422 681Q422 632 387 597.5Q352 563 303 563ZM303 729Q282 729 268 715Q254 701 254 681Q254 661 268 647Q282 633 303 633Q322 633 335 647Q348 661 348 681Q348 701 335 715Q322 729 303 729Z" glyph-name="ring" horiz-adv-x="317" unicode="˚" /><glyph d="M285 -139Q285 -184 245 -209Q205 -234 140 -234Q112 -234 79 -228Q46 -222 22 -212L46 -156Q62 -164 86 -168.5Q110 -173 131 -173Q159 -173 173.5 -164Q188 -155 188 -137Q188 -122 175 -114.5Q162 -107 139 -107Q128 -107 113.5 -109.5Q99 -112 88 -116L56 -92L129 0H209L155 -64Q161 -62 168 -61.5Q175 -61 188 -61Q234 -61 259.5 -81Q285 -101 285 -139Z" glyph-name="cedilla" horiz-adv-x="317" unicode="¸" /><glyph d="M566 719 428 575H323L432 719ZM382 719 243 575H141L248 719Z" glyph-name="hungarumlaut" horiz-adv-x="317" unicode="˝" /><glyph d="M366 709 446 709Q436 644 397.5 608Q359 572 300 572Q241 572 203 608.5Q165 645 156 709H238Q241 678 258 660.5Q275 643 300 643Q329 643 344.5 659Q360 675 366 709Z" glyph-name="breve" horiz-adv-x="317" unicode="˘" /><glyph d="M446 612 157 612V684H446Z" glyph-name="macron" horiz-adv-x="317" unicode="¯" /><glyph d="M242 585Q211 585 188.5 606Q166 627 166 657Q166 687 188.5 708.5Q211 730 242 730Q272 730 293 708.5Q314 687 314 657Q314 628 292.5 606.5Q271 585 242 585Z" glyph-name="dotaccent" horiz-adv-x="317" unicode="˙" /><glyph d="M301 271Q270 271 247.5 292.5Q225 314 225 344Q225 374 247.5 395Q270 416 301 416Q331 416 352 395Q373 374 373 344Q373 314 351.5 292.5Q330 271 301 271Z" glyph-name="periodcentered" horiz-adv-x="317" unicode="·" /><glyph d="M164 -171Q183 -171 198 -165.5Q213 -160 223 -150L247 -202Q227 -218 200.5 -225.5Q174 -233 139 -233Q84 -233 53.5 -210Q23 -187 23 -146Q23 -110 52 -71.5Q81 -33 132 0H206Q160 -41 139.5 -70.5Q119 -100 119 -127Q119 -148 131 -159.5Q143 -171 164 -171Z" glyph-name="ogonek" horiz-adv-x="317" unicode="˛" /><glyph d="M72 -235 126 -56H257L185 -235Z" glyph-name="commaaccent" horiz-adv-x="317" unicode="" /><glyph d="M241 547 281 719H413L354 547Z" glyph-name="caron.alt" horiz-adv-x="317" unicode="" /><glyph d="M391 719 348 575H216L278 719Z" glyph-name="revcommaaccent" horiz-adv-x="317" unicode="" /><glyph d="M160 -11Q123 -11 97.5 12.5Q72 36 72 71Q72 106 98 131Q124 156 160 156Q194 156 219 131Q244 106 244 71Q244 36 219.5 12.5Q195 -11 160 -11Z" glyph-name="period" horiz-adv-x="318" unicode="." /><glyph d="M241 112 144 -139H29L102 112Z" glyph-name="comma" horiz-adv-x="318" unicode="," /><glyph d="M167 336Q130 336 104.5 360.5Q79 385 79 420Q79 455 105 480Q131 505 167 505Q201 505 226 480Q251 455 251 420Q251 385 226 360.5Q201 336 167 336ZM167 -11Q130 -11 104.5 12.5Q79 36 79 71Q79 106 105 131Q131 156 167 156Q201 156 226 131Q251 106 251 71Q251 36 226.5 12.5Q202 -11 167 -11Z" glyph-name="colon" horiz-adv-x="331" unicode=":" /><glyph d="M167 336Q130 336 104.5 360.5Q79 385 79 420Q79 455 105 480Q131 505 167 505Q201 505 226 480Q251 455 251 420Q251 385 226 360.5Q201 336 167 336ZM243 112 146 -139H32L105 112Z" glyph-name="semicolon" horiz-adv-x="331" unicode=";" /><glyph d="M784 -11Q747 -11 722 11.5Q697 34 697 69Q697 103 722.5 127.5Q748 152 784 152Q818 152 843 127.5Q868 103 868 69Q868 35 843.5 12Q819 -11 784 -11ZM471 -11Q434 -11 409.5 11.5Q385 34 385 69Q385 103 410.5 127.5Q436 152 471 152Q506 152 531 127.5Q556 103 556 69Q556 35 531.5 12Q507 -11 471 -11ZM160 -11Q123 -11 97.5 11.5Q72 34 72 69Q72 103 98 127.5Q124 152 160 152Q194 152 219 127.5Q244 103 244 69Q244 35 219.5 12Q195 -11 160 -11Z" glyph-name="ellipsis" horiz-adv-x="942" unicode="…" /><glyph d="M523 531Q523 480 500.5 442.5Q478 405 406 353L353 312V223H211V352L316 429Q352 459 363.5 478.5Q375 498 375 521Q375 561 350 583.5Q325 606 283 606Q239 606 211 582.5Q183 559 175 517H41Q52 616 117 671Q182 726 283 726Q395 726 459 674Q523 622 523 531ZM370 72Q370 36 344.5 12.5Q319 -11 281 -11Q243 -11 217.5 13Q192 37 192 72Q192 107 218 132.5Q244 158 281 158Q318 158 344 132.5Q370 107 370 72Z" glyph-name="question" horiz-adv-x="559" unicode="?" /><glyph d="M255 226 131 226L104 708H282ZM282 72Q282 36 256.5 12.5Q231 -11 193 -11Q155 -11 129.5 13Q104 37 104 72Q104 107 130 132.5Q156 158 193 158Q230 158 256 132.5Q282 107 282 72Z" glyph-name="exclam" horiz-adv-x="387" unicode="!" /><glyph d="M188 398Q188 434 214 459Q240 484 277 484Q314 484 340 459Q366 434 366 398Q366 363 340 337.5Q314 312 277 312Q240 312 214 337.5Q188 363 188 398ZM35 -59Q35 -9 58 29Q81 67 152 117L205 158V247H346V119L243 41Q207 13 195 -6.5Q183 -26 183 -49Q183 -89 208 -111.5Q233 -134 276 -134Q320 -134 347.5 -110.5Q375 -87 383 -45H517Q505 -144 440.5 -199Q376 -254 275 -254Q164 -254 99.5 -202Q35 -150 35 -59Z" glyph-name="questiondown" horiz-adv-x="559" unicode="¿" /><glyph d="M104 398Q104 434 130 459Q156 484 193 484Q230 484 256 459Q282 434 282 398Q282 362 256 337Q230 312 193 312Q156 312 130 337.5Q104 363 104 398ZM131 244 255 244L282 -235H104Z" glyph-name="exclamdown" horiz-adv-x="387" unicode="¡" /><glyph d="M52 293Q52 417 89 537.5Q126 658 194 752L297 708Q236 623 202.5 515Q169 407 169 293Q169 179 202 71Q235 -37 297 -122L194 -166Q126 -72 89 48Q52 168 52 293Z" glyph-name="parenleft" horiz-adv-x="331" unicode="(" /><glyph d="M278 293Q278 168 241 48Q204 -72 136 -166L34 -122Q95 -37 128 71Q161 179 161 293Q161 407 128 515Q95 623 34 708L136 752Q204 658 241 537.5Q278 417 278 293Z" glyph-name="parenright" horiz-adv-x="331" unicode=")" /><glyph d="M23 244 23 340Q60 340 75.5 361Q91 382 91 427V582Q91 655 126.5 696Q162 737 226 737H304V642H266Q236 642 220 622Q204 602 204 565V408Q204 359 182 328.5Q160 298 125 294V292Q161 286 182.5 255.5Q204 225 204 176V19Q204 -17 220 -36.5Q236 -56 266 -56H304V-151H226Q162 -151 126.5 -110Q91 -69 91 3V157Q91 202 75.5 223Q60 244 23 244Z" glyph-name="braceleft" horiz-adv-x="335" unicode="{" /><glyph d="M311 340 311 244Q274 244 258 223Q242 202 242 157V3Q242 -69 207 -110Q172 -151 109 -151H30V-56H68Q98 -56 113.5 -36.5Q129 -17 129 19V176Q129 225 151 255.5Q173 286 209 292V294Q173 298 151 328.5Q129 359 129 408V565Q129 602 113.5 622Q98 642 68 642H30V737H109Q172 737 207 696Q242 655 242 582V427Q242 382 258 361Q274 340 311 340Z" glyph-name="braceright" horiz-adv-x="335" unicode="}" /><glyph d="M272 -151 60 -151V737H272V642H174V-56H272Z" glyph-name="bracketleft" horiz-adv-x="303" unicode="[" /><glyph d="M242 737 242 -151H30V-57H128V643H30V737Z" glyph-name="bracketright" horiz-adv-x="303" unicode="]" /><glyph d="M418 708 127 0H4L295 708Z" glyph-name="slash" horiz-adv-x="422" unicode="/" /><glyph d="M418 0 295 0L4 708H127Z" glyph-name="backslash" horiz-adv-x="422" unicode="\" /><glyph d="M500 -158 0 -158V-78H500Z" glyph-name="underscore" horiz-adv-x="500" unicode="_" /><glyph d="M282 204 40 204V323H282Z" glyph-name="hyphen" horiz-adv-x="322" unicode="-" /><glyph d="" glyph-name="uni00AD" horiz-adv-x="0" unicode="­" /><glyph d="M470 230 30 230V317H470Z" glyph-name="endash" horiz-adv-x="500" unicode="–" /><glyph d="M970 230 30 230V317H970Z" glyph-name="emdash" horiz-adv-x="1000" unicode="—" /><glyph d="M66 323 66 750H185V323ZM66 -250 66 183H185V-250Z" glyph-name="brokenbar" horiz-adv-x="252" unicode="¦" /><glyph d="M185 -250 66 -250V750H185Z" glyph-name="bar" horiz-adv-x="252" unicode="|" /><glyph d="M69 575 108 719H239L182 575Z" glyph-name="apostrophe" horiz-adv-x="186" unicode="ʼ" /><glyph d="M286 87 196 30L39 259L196 488L286 432L171 259ZM513 87 423 30L266 259L422 488L513 432L398 259Z" glyph-name="guillemotleft" horiz-adv-x="564" unicode="«" /><glyph d="M297 259 141 31L50 87L165 259L50 432L140 489ZM524 259 368 31L277 87L392 259L277 432L368 489Z" glyph-name="guillemotright" horiz-adv-x="564" unicode="»" /><glyph d="M286 87 196 30L39 259L196 488L286 432L171 259Z" glyph-name="guilsinglleft" horiz-adv-x="336" unicode="‹" /><glyph d="M297 259 141 31L50 87L165 259L50 432L140 489Z" glyph-name="guilsinglright" horiz-adv-x="336" unicode="›" /><glyph d="M47 -129 116 131H247L160 -129Z" glyph-name="quotesinglbase" horiz-adv-x="299" unicode="‚" /><glyph d="M239 -129 311 131H439L352 -129ZM47 -129 116 131H244L160 -129Z" glyph-name="quotedblbase" horiz-adv-x="491" unicode="„" /><glyph d="M250 708 182 445H50L137 708Z" glyph-name="quoteleft" horiz-adv-x="299" unicode="‘" /><glyph d="M250 708 179 445H50L138 708ZM442 708 375 445H247L329 708Z" glyph-name="quotedblleft" horiz-adv-x="491" unicode="“" /><glyph d="M47 445 116 708H247L160 445Z" glyph-name="quoteright" horiz-adv-x="299" unicode="’" /><glyph d="M239 445 311 708H439L352 445ZM47 445 116 708H244L160 445Z" glyph-name="quotedblright" horiz-adv-x="491" unicode="”" /><glyph d="M213 445 93 445V708H213Z" glyph-name="quotesingle" horiz-adv-x="307" unicode="'" /><glyph d="M213 445 93 445V708H213ZM408 445 288 445V708H408Z" glyph-name="quotedbl" horiz-adv-x="502" unicode="&quot;" /><glyph d="M250 177Q177 177 125 229Q73 281 73 354Q73 428 125 479.5Q177 531 250 531Q324 531 375.5 479.5Q427 428 427 354Q427 281 375.5 229Q324 177 250 177Z" glyph-name="bullet" horiz-adv-x="500" unicode="•" /><glyph d="M415 549Q415 582 394.5 603.5Q374 625 342 625Q309 625 287.5 602.5Q266 580 266 546Q266 521 281 494.5Q296 468 324 444Q370 465 392.5 491.5Q415 518 415 549ZM424 166 285 311Q243 292 222 264.5Q201 237 201 201Q201 156 232 127Q263 98 308 98Q344 98 373.5 115.5Q403 133 424 166ZM765 0 583 0L510 76Q471 31 419.5 9Q368 -13 301 -13Q193 -13 125.5 43Q58 99 58 194Q58 258 96.5 308.5Q135 359 209 393Q170 432 151 470Q132 508 132 549Q132 629 191.5 677.5Q251 726 341 726Q429 726 486 678.5Q543 631 543 551Q543 496 508.5 451.5Q474 407 395 366L506 257L581 382H743L592 171Z" glyph-name="ampersand" horiz-adv-x="792" unicode="&amp;" /><glyph d="M552 -129 444 -129V611H355V-129H248V333Q149 336 91.5 385Q34 434 34 515Q34 611 96.5 659.5Q159 708 281 708H552Z" glyph-name="paragraph" horiz-adv-x="629" unicode="¶" /><glyph d="M542 391 354 391V-129H227V391H40V506H226V708H353V506H542Z" glyph-name="dagger" horiz-adv-x="583" unicode="†" /><glyph d="M542 52 354 52V-129H227V52H40V163H227V413H40V524H226V708H353V524H542V413H354V163H542Z" glyph-name="daggerdbl" horiz-adv-x="583" unicode="‡" /><glyph d="M335 353 267 377Q242 371 226 353.5Q210 336 210 312Q210 287 226.5 270Q243 253 305 230L373 205Q398 209 414.5 226.5Q431 244 431 269Q431 294 410.5 313Q390 332 335 353ZM535 40Q535 -46 469.5 -95.5Q404 -145 300 -145Q229 -145 164 -115.5Q99 -86 61 -37L155 56Q184 16 224.5 -6Q265 -28 307 -28Q341 -28 362.5 -11Q384 6 384 34Q384 60 364.5 77Q345 94 288 114L259 124Q156 159 120 196.5Q84 234 84 297Q84 342 108 376Q132 410 176 429Q143 451 128 479Q113 507 113 547Q113 628 177 677.5Q241 727 334 727Q407 727 463.5 700.5Q520 674 552 624L454 543Q432 575 402.5 592.5Q373 610 342 610Q308 610 285.5 592Q263 574 263 544Q263 519 279.5 503.5Q296 488 353 468L383 457Q479 424 518 383.5Q557 343 557 280Q557 236 534 203Q511 170 468 153Q500 136 517.5 107Q535 78 535 40Z" glyph-name="section" horiz-adv-x="634" unicode="§" /><glyph d="M463 526 332 486L414 375L330 319L247 431L165 322L83 379L167 487L33 528L66 617L197 574V708H300V573L433 615Z" glyph-name="asterisk" horiz-adv-x="497" unicode="*" /><glyph d="M372 617 257 617V311H137V617H23V708H372ZM545 574 548 311H430V708H577L685 439H688L790 708H938V311H821L822 574H820L711 311H654L547 574Z" glyph-name="trademark" horiz-adv-x="1002" unicode="™" /><glyph d="M191 717Q229 717 262.5 707.5Q296 698 322 679V577Q296 599 261.5 612.5Q227 626 198 626Q173 626 157.5 617.5Q142 609 142 594Q142 581 152 573.5Q162 566 204 554Q272 536 304 506.5Q336 477 336 433Q336 374 290.5 338Q245 302 177 302Q136 302 98 313Q60 324 35 343V451Q64 424 100.5 409Q137 394 172 394Q198 394 214 402.5Q230 411 230 425Q230 435 223.5 441.5Q217 448 201 454Q194 456 179 460.5Q164 465 158 467Q98 483 67 514.5Q36 546 36 592Q36 649 79 683Q122 717 191 717ZM502 574 505 311H387V708H534L642 439H645L748 708H895V311H778L780 574H778L668 311H611L504 574Z" glyph-name="servicemark" horiz-adv-x="958" unicode="℠" /><glyph d="M301 267Q206 267 139 332.5Q72 398 72 492Q72 586 139 652.5Q206 719 301 719Q395 719 461.5 652.5Q528 586 528 492Q528 398 461.5 332.5Q395 267 301 267ZM301 689Q218 689 159.5 631Q101 573 101 492Q101 410 159.5 352Q218 294 301 294Q381 294 439 352.5Q497 411 497 492Q497 573 439 631Q381 689 301 689ZM266 576 266 512H300Q322 512 333.5 521Q345 530 345 546Q345 560 333.5 568Q322 576 305 576ZM358 475 425 366H351L296 466H266V366H201V627H305Q355 627 383.5 606Q412 585 412 546Q412 519 397.5 500Q383 481 358 475Z" glyph-name="registered" horiz-adv-x="600" unicode="®" /><glyph d="M780 353Q780 197 669 87.5Q558 -22 401 -22Q243 -22 131.5 87.5Q20 197 20 353Q20 429 49 498Q78 567 132 620Q185 673 255 701.5Q325 730 401 730Q477 730 546.5 701.5Q616 673 669 620Q722 567 751 498Q780 429 780 353ZM732 353Q732 490 635 587.5Q538 685 401 685Q262 685 164 587.5Q66 490 66 353Q66 214 162.5 117.5Q259 21 397 21Q535 21 633.5 118Q732 215 732 353ZM423 205Q459 205 493 217.5Q527 230 557 254V157Q531 137 493.5 126Q456 115 415 115Q313 115 246 181.5Q179 248 179 351Q179 454 245 520Q311 586 412 586Q450 586 488 575Q526 564 557 544V446Q526 470 490.5 483Q455 496 422 496Q363 496 324.5 455Q286 414 286 351Q286 287 324.5 246Q363 205 423 205Z" glyph-name="copyright" horiz-adv-x="800" unicode="©" /><glyph d="M498 318 508 360H603L567 204Q556 150 554 134.5Q552 119 552 110Q552 91 562 80.5Q572 70 590 70Q634 70 660.5 112.5Q687 155 687 227Q687 341 612.5 409Q538 477 415 477Q289 477 205.5 391.5Q122 306 122 180Q122 49 207 -34Q292 -117 426 -117Q491 -117 553 -92.5Q615 -68 658 -25L712 -83Q656 -137 582 -164.5Q508 -192 417 -192Q249 -192 140 -87Q31 18 31 179Q31 336 142.5 444Q254 552 414 552Q570 552 671.5 461.5Q773 371 773 227Q773 116 717 51Q661 -14 565 -14Q524 -14 498.5 4Q473 22 468 55H466Q451 25 418.5 5.5Q386 -14 346 -14Q284 -14 246.5 30Q209 74 209 145Q209 241 263.5 312.5Q318 384 399 384Q437 384 463 365.5Q489 347 494 318ZM471 224Q471 261 456 281Q441 301 413 301Q372 301 342 253.5Q312 206 312 147Q312 111 328 90.5Q344 70 373 70Q413 70 442 120Q471 170 471 224Z" glyph-name="at" horiz-adv-x="800" unicode="@" /><glyph d="M239 504 239 560L180 555Q149 552 136 542.5Q123 533 123 513Q123 496 135.5 486Q148 476 170 476Q191 476 209 483.5Q227 491 239 504ZM37 508Q37 544 62 564.5Q87 585 142 593L226 607Q231 608 233.5 610.5Q236 613 236 617V618Q236 640 222 650.5Q208 661 179 661Q146 661 115 651Q84 641 56 622V689Q76 704 112.5 713.5Q149 723 184 723Q254 723 289.5 691.5Q325 660 325 598V508Q325 489 326.5 468.5Q328 448 330 430H245Q243 435 242 441.5Q241 448 240 460Q225 443 199 432.5Q173 422 147 422Q94 422 65.5 444Q37 466 37 508ZM330 360 330 303H41V360Z" glyph-name="ordfeminine" horiz-adv-x="375" unicode="ª" /><glyph d="M187 723Q254 723 298 681.5Q342 640 342 574Q342 507 298 464.5Q254 422 187 422Q120 422 76.5 464.5Q33 507 33 574Q33 640 76.5 681.5Q120 723 187 723ZM260 574Q260 609 239.5 633.5Q219 658 187 658Q156 658 135.5 633.5Q115 609 115 574Q115 537 135.5 512.5Q156 488 188 488Q220 488 240 512.5Q260 537 260 574ZM331 360 331 303H41V360Z" glyph-name="ordmasculine" horiz-adv-x="375" unicode="º" /><glyph d="M349 410 250 410L234 296H334ZM545 410 444 410L428 296H517V205H416L388 0H294L321 205H222L194 0H100L126 205H38V296H140L155 410H66V501H168L195 708H291L262 501H362L391 708H485L456 501H545Z" glyph-name="numbersign" horiz-adv-x="594" unicode="#" /><glyph d="M540 168 540 27Q503 4 458 -8Q413 -20 367 -20Q264 -20 187 45Q110 110 80 221H0L30 306H65Q64 325 63.5 334Q63 343 63 351Q63 360 63.5 371Q64 382 65 401H3L31 487H80Q111 599 187.5 663.5Q264 728 365 728Q408 728 451.5 717.5Q495 707 530 688V546Q485 573 448 586Q411 599 376 599Q328 599 289 569.5Q250 540 228 487H461L432 401H207Q206 389 205 376.5Q204 364 204 351Q204 342 204.5 332Q205 322 206 306H409L381 221H227Q250 166 290.5 136.5Q331 107 382 107Q419 107 457 121.5Q495 136 540 168Z" glyph-name="Euro" horiz-adv-x="560" unicode="€" /><glyph d="M332 -9 332 -89H242V-14Q185 -12 129 4Q73 20 28 46V199Q83 153 146.5 127Q210 101 267 101Q324 101 357 125.5Q390 150 390 193Q390 231 359 256.5Q328 282 250 303Q135 334 84 383.5Q33 433 33 514Q33 597 89.5 652Q146 707 242 720V794H332V721Q381 717 426.5 702.5Q472 688 516 662V521Q463 561 403.5 583.5Q344 606 292 606Q237 606 206.5 583Q176 560 176 519Q176 483 203 461Q230 439 313 417Q428 387 480.5 337Q533 287 533 207Q533 123 479 66Q425 9 332 -9Z" glyph-name="dollar" horiz-adv-x="560" unicode="$" /><glyph d="M509 253 509 156H348V0H210V156H56V253H210V330H56V426H156L-11 708H150L284 456L413 708H572L403 426H509V330H348V253Z" glyph-name="yen" horiz-adv-x="560" unicode="¥" /><glyph d="M526 686 526 542Q485 569 452 581Q419 593 386 593Q334 593 308 562.5Q282 532 282 472V418H420V308H282V128H519V0H37V128H144V308H41V418H144V486Q144 595 204 660.5Q264 726 370 726Q415 726 455 715.5Q495 705 526 686Z" glyph-name="sterling" horiz-adv-x="560" unicode="£" /><glyph d="M493 143 493 24Q466 9 434.5 -0.5Q403 -10 369 -13V-84H276V-8Q178 11 120.5 81Q63 151 63 252Q63 352 121 423Q179 494 276 513V595H369V519Q402 515 433 505Q464 495 490 480V357Q448 385 415 397Q382 409 348 409Q283 409 239 364.5Q195 320 195 252Q195 183 239 139Q283 95 350 95Q385 95 422 107.5Q459 120 493 143Z" glyph-name="cent" horiz-adv-x="560" unicode="¢" /><glyph d="M99 -144Q76 -144 57 -140.5Q38 -137 25 -130V-8Q40 -15 58.5 -19Q77 -23 97 -23Q137 -23 157.5 2Q178 27 187 94L218 350H129V439H229L238 513Q248 611 304.5 665.5Q361 720 455 720Q479 720 499.5 715.5Q520 711 533 703V580Q518 589 498 593.5Q478 598 457 598Q417 598 395.5 572Q374 546 368 486L362 439H468V350H351L314 60Q304 -40 249.5 -92Q195 -144 99 -144Z" glyph-name="florin" horiz-adv-x="585" unicode="ƒ" /><glyph d="M568 519 490 441Q509 413 519 379.5Q529 346 529 308Q529 268 518.5 233.5Q508 199 487 170L568 88L507 28L424 111Q395 92 362 82.5Q329 73 294 73Q260 73 228 82.5Q196 92 162 112L76 28L16 88L99 173Q79 201 69 235Q59 269 59 308Q59 344 68.5 377.5Q78 411 97 439L16 519L77 580L159 499Q189 519 223 529Q257 539 294 539Q331 539 365 529Q399 519 426 500L506 580ZM419 308Q419 365 383.5 403Q348 441 294 441Q239 441 203 403Q167 365 167 308Q167 250 202.5 211.5Q238 173 294 173Q349 173 384 211.5Q419 250 419 308Z" glyph-name="currency" horiz-adv-x="585" unicode="¤" /><glyph d="M527 356Q527 183 462 83.5Q397 -16 280 -16Q162 -16 97 83Q32 182 32 356Q32 527 97.5 625.5Q163 724 280 724Q396 724 461.5 625Q527 526 527 356ZM386 356Q386 472 359 536Q332 600 280 600Q228 600 201 536Q174 472 174 356Q174 237 201 172.5Q228 108 280 108Q332 108 359 172.5Q386 237 386 356Z" glyph-name="zero" horiz-adv-x="560" unicode="0" /><glyph d="M397 0 260 0V552Q233 523 197 498Q161 473 112 450L60 556Q121 587 171.5 624.5Q222 662 267 708H397Z" glyph-name="one" horiz-adv-x="560" unicode="1" /><glyph d="M33 0 33 108L275 339Q332 394 353 427.5Q374 461 374 497Q374 544 346 572Q318 600 269 600Q216 600 163.5 574.5Q111 549 39 486V633Q96 680 154.5 702Q213 724 279 724Q385 724 450.5 667.5Q516 611 516 514Q516 454 490 404Q464 354 379 274L217 115H519V0Z" glyph-name="two" horiz-adv-x="560" unicode="2" /><glyph d="M265 600Q212 600 157 583Q102 566 47 533V672Q98 698 153.5 711Q209 724 271 724Q381 724 441.5 673Q502 622 502 529Q502 472 468.5 429.5Q435 387 380 374V371Q444 354 482 307.5Q520 261 520 202Q520 101 451 42.5Q382 -16 265 -16Q205 -16 143 0.5Q81 17 30 47V196Q92 151 152.5 129Q213 107 275 106Q320 105 349 134Q378 163 378 211Q378 260 343 285.5Q308 311 240 311H161V418H245Q300 418 331 442Q362 466 362 511Q362 552 335.5 576Q309 600 265 600Z" glyph-name="three" horiz-adv-x="560" unicode="3" /><glyph d="M551 147 468 147V0H332V147H20V260Q60 361 139.5 488.5Q219 616 299 708H467V256H551ZM334 256 334 573H331Q280 509 229.5 423.5Q179 338 144 256Z" glyph-name="four" horiz-adv-x="560" unicode="4" /><glyph d="M268 -16Q208 -16 153 -3.5Q98 9 53 32V170Q104 135 154 118.5Q204 102 260 102Q315 102 350 135.5Q385 169 385 227Q385 285 346 318Q307 351 238 351Q198 351 151 342.5Q104 334 62 320V708H488V588H189V441Q209 446 233 449Q257 452 284 452Q394 452 460 391.5Q526 331 526 228Q526 113 455.5 48.5Q385 -16 268 -16Z" glyph-name="five" horiz-adv-x="560" unicode="5" /><glyph d="M106 444 280 708H439L256 442L257 439Q267 447 284 452Q301 457 318 457Q410 457 473 392.5Q536 328 536 229Q536 118 465 50Q394 -18 282 -18Q171 -18 100 49.5Q29 117 29 227Q29 279 47 330.5Q65 382 106 444ZM167 227Q167 173 199.5 137Q232 101 282 101Q333 101 365.5 136.5Q398 172 398 227Q398 282 366 317Q334 352 283 352Q232 352 199.5 316.5Q167 281 167 227Z" glyph-name="six" horiz-adv-x="560" unicode="6" /><glyph d="M520 604 258 0H106L378 592H34V708H520Z" glyph-name="seven" horiz-adv-x="560" unicode="7" /><glyph d="M514 529Q514 475 485.5 433Q457 391 409 374V371Q465 352 498 305Q531 258 531 197Q531 99 461.5 41.5Q392 -16 280 -16Q167 -16 98 41Q29 98 29 196Q29 257 61.5 303.5Q94 350 151 370V373Q103 392 74.5 434Q46 476 46 529Q46 618 111 671Q176 724 280 724Q382 724 448 671Q514 618 514 529ZM373 519Q373 561 346.5 589.5Q320 618 280 618Q240 618 212.5 589.5Q185 561 185 519Q185 477 212.5 447.5Q240 418 280 418Q319 418 346 447.5Q373 477 373 519ZM389 201Q389 250 358.5 282Q328 314 280 314Q231 314 200 282Q169 250 169 201Q169 152 199.5 120.5Q230 89 280 89Q329 89 359 120.5Q389 152 389 201Z" glyph-name="eight" horiz-adv-x="560" unicode="8" /><glyph d="M457 263 282 0H124L306 266L305 268Q295 260 278.5 255.5Q262 251 244 251Q152 251 89 315Q26 379 26 477Q26 588 97.5 657Q169 726 280 726Q391 726 462 658Q533 590 533 480Q533 426 515 374.5Q497 323 457 263ZM395 480Q395 534 362.5 570Q330 606 280 606Q229 606 196.5 570.5Q164 535 164 479Q164 425 196 390Q228 355 279 355Q330 355 362.5 390.5Q395 426 395 480Z" glyph-name="nine" horiz-adv-x="560" unicode="9" /><glyph d="M583 356Q583 182 512 83Q441 -16 312 -16Q183 -16 111.5 83Q40 182 40 356Q40 527 111.5 625.5Q183 724 312 724Q440 724 511.5 625.5Q583 527 583 356ZM442 356Q442 469 408.5 533Q375 597 312 597Q249 597 215.5 533Q182 469 182 356Q182 240 215.5 175.5Q249 111 312 111Q375 111 408.5 175.5Q442 240 442 356Z" glyph-name="zero.plf" horiz-adv-x="625" unicode="" /><glyph d="M327 0 188 0V552Q159 520 130.5 498.5Q102 477 73 464L10 566Q58 591 104 626Q150 661 196 708H327Z" glyph-name="one.plf" horiz-adv-x="394" unicode="" /><glyph d="M45 0 45 109L277 337Q342 401 361.5 432.5Q381 464 381 496Q381 542 353 569.5Q325 597 278 597Q227 597 175 571.5Q123 546 51 483V633Q109 680 165.5 702Q222 724 286 724Q391 724 456.5 667Q522 610 522 513Q522 475 511.5 442Q501 409 479 377Q466 358 447.5 337.5Q429 317 380 270L223 117H525V0Z" glyph-name="two.plf" horiz-adv-x="572" unicode="" /><glyph d="M280 597Q231 597 178.5 580Q126 563 73 530V673Q118 698 172.5 711Q227 724 287 724Q398 724 460 672.5Q522 621 522 528Q522 470 489 429.5Q456 389 396 374V371Q461 354 500 307.5Q539 261 539 203Q539 101 469.5 42.5Q400 -16 280 -16Q223 -16 163.5 0Q104 16 56 45V198Q115 154 173 132Q231 110 290 109Q337 109 367.5 137.5Q398 166 398 212Q398 260 361.5 285Q325 310 255 310H187V419H261Q317 419 349 442.5Q381 466 381 510Q381 551 353.5 574Q326 597 280 597Z" glyph-name="three.plf" horiz-adv-x="585" unicode="" /><glyph d="M566 146 482 146V0H347V146H22V261Q60 360 142 485.5Q224 611 314 708H482V258H566ZM349 258 349 569H346Q287 504 235 420Q183 336 151 258Z" glyph-name="four.plf" horiz-adv-x="585" unicode="" /><glyph d="M272 -16Q211 -16 155.5 -4Q100 8 60 30V171Q106 138 156 121.5Q206 105 263 105Q317 105 351 138Q385 171 385 227Q385 286 346.5 318Q308 350 238 350Q203 350 158.5 342Q114 334 68 319V708H488V587H190V441Q210 447 237 450Q264 453 286 453Q394 453 460 392.5Q526 332 526 229Q526 113 457 48.5Q388 -16 272 -16Z" glyph-name="five.plf" horiz-adv-x="565" unicode="" /><glyph d="M117 444 291 708H450L267 442L268 439Q278 447 295 452Q312 457 329 457Q421 457 484 392.5Q547 328 547 229Q547 118 476 50Q405 -18 293 -18Q182 -18 111 49.5Q40 117 40 227Q40 279 58 330.5Q76 382 117 444ZM178 227Q178 173 210.5 137Q243 101 293 101Q344 101 376.5 136.5Q409 172 409 227Q409 282 377 317Q345 352 294 352Q243 352 210.5 316.5Q178 281 178 227Z" glyph-name="six.plf" horiz-adv-x="584" unicode="" /><glyph d="M496 602 240 0H88L353 589H27V708H496Z" glyph-name="seven.plf" horiz-adv-x="525" unicode="" /><glyph d="M524 529Q524 475 495.5 433Q467 391 419 374V371Q475 352 508 305Q541 258 541 197Q541 99 471.5 41.5Q402 -16 290 -16Q177 -16 108 41Q39 98 39 196Q39 257 71.5 303.5Q104 350 161 370V373Q113 392 84.5 434Q56 476 56 529Q56 618 121 671Q186 724 290 724Q392 724 458 671Q524 618 524 529ZM383 519Q383 561 356.5 589.5Q330 618 290 618Q250 618 222.5 589.5Q195 561 195 519Q195 477 222.5 447.5Q250 418 290 418Q329 418 356 447.5Q383 477 383 519ZM399 201Q399 250 368.5 282Q338 314 290 314Q241 314 210 282Q179 250 179 201Q179 152 209.5 120.5Q240 89 290 89Q339 89 369 120.5Q399 152 399 201Z" glyph-name="eight.plf" horiz-adv-x="582" unicode="" /><glyph d="M468 263 293 0H135L317 266L316 268Q306 260 289.5 255.5Q273 251 255 251Q163 251 100 315Q37 379 37 477Q37 588 108.5 657Q180 726 291 726Q402 726 473 658Q544 590 544 480Q544 426 526 374.5Q508 323 468 263ZM406 480Q406 534 373.5 570Q341 606 291 606Q240 606 207.5 570.5Q175 535 175 479Q175 425 207 390Q239 355 290 355Q341 355 373.5 390.5Q406 426 406 480Z" glyph-name="nine.plf" horiz-adv-x="584" unicode="" /><glyph d="M527 356Q527 183 462 83.5Q397 -16 280 -16Q162 -16 97 83Q32 182 32 356Q32 527 97.5 625.5Q163 724 280 724Q396 724 461.5 625Q527 526 527 356ZM386 356Q386 472 359 536Q332 600 280 600Q228 600 201 536Q174 472 174 356Q174 237 201 172.5Q228 108 280 108Q332 108 359 172.5Q386 237 386 356Z" glyph-name="zero.tlf" horiz-adv-x="560" unicode="" /><glyph d="M397 0 260 0V552Q233 523 197 498Q161 473 112 450L60 556Q121 587 171.5 624.5Q222 662 267 708H397Z" glyph-name="one.tlf" horiz-adv-x="560" unicode="" /><glyph d="M33 0 33 108L275 339Q332 394 353 427.5Q374 461 374 497Q374 544 346 572Q318 600 269 600Q216 600 163.5 574.5Q111 549 39 486V633Q96 680 154.5 702Q213 724 279 724Q385 724 450.5 667.5Q516 611 516 514Q516 454 490 404Q464 354 379 274L217 115H519V0Z" glyph-name="two.tlf" horiz-adv-x="560" unicode="" /><glyph d="M265 600Q212 600 157 583Q102 566 47 533V672Q98 698 153.5 711Q209 724 271 724Q381 724 441.5 673Q502 622 502 529Q502 472 468.5 429.5Q435 387 380 374V371Q444 354 482 307.5Q520 261 520 202Q520 101 451 42.5Q382 -16 265 -16Q205 -16 143 0.5Q81 17 30 47V196Q92 151 152.5 129Q213 107 275 106Q320 105 349 134Q378 163 378 211Q378 260 343 285.5Q308 311 240 311H161V418H245Q300 418 331 442Q362 466 362 511Q362 552 335.5 576Q309 600 265 600Z" glyph-name="three.tlf" horiz-adv-x="560" unicode="" /><glyph d="M551 147 468 147V0H332V147H20V260Q60 361 139.5 488.5Q219 616 299 708H467V256H551ZM334 256 334 573H331Q280 509 229.5 423.5Q179 338 144 256Z" glyph-name="four.tlf" horiz-adv-x="560" unicode="" /><glyph d="M268 -16Q208 -16 153 -3.5Q98 9 53 32V170Q104 135 154 118.5Q204 102 260 102Q315 102 350 135.5Q385 169 385 227Q385 285 346 318Q307 351 238 351Q198 351 151 342.5Q104 334 62 320V708H488V588H189V441Q209 446 233 449Q257 452 284 452Q394 452 460 391.5Q526 331 526 228Q526 113 455.5 48.5Q385 -16 268 -16Z" glyph-name="five.tlf" horiz-adv-x="560" unicode="" /><glyph d="M106 444 280 708H439L256 442L257 439Q267 447 284 452Q301 457 318 457Q410 457 473 392.5Q536 328 536 229Q536 118 465 50Q394 -18 282 -18Q171 -18 100 49.5Q29 117 29 227Q29 279 47 330.5Q65 382 106 444ZM167 227Q167 173 199.5 137Q232 101 282 101Q333 101 365.5 136.5Q398 172 398 227Q398 282 366 317Q334 352 283 352Q232 352 199.5 316.5Q167 281 167 227Z" glyph-name="six.tlf" horiz-adv-x="560" unicode="" /><glyph d="M520 604 258 0H106L378 592H34V708H520Z" glyph-name="seven.tlf" horiz-adv-x="560" unicode="" /><glyph d="M514 529Q514 475 485.5 433Q457 391 409 374V371Q465 352 498 305Q531 258 531 197Q531 99 461.5 41.5Q392 -16 280 -16Q167 -16 98 41Q29 98 29 196Q29 257 61.5 303.5Q94 350 151 370V373Q103 392 74.5 434Q46 476 46 529Q46 618 111 671Q176 724 280 724Q382 724 448 671Q514 618 514 529ZM373 519Q373 561 346.5 589.5Q320 618 280 618Q240 618 212.5 589.5Q185 561 185 519Q185 477 212.5 447.5Q240 418 280 418Q319 418 346 447.5Q373 477 373 519ZM389 201Q389 250 358.5 282Q328 314 280 314Q231 314 200 282Q169 250 169 201Q169 152 199.5 120.5Q230 89 280 89Q329 89 359 120.5Q389 152 389 201Z" glyph-name="eight.tlf" horiz-adv-x="560" unicode="" /><glyph d="M457 263 282 0H124L306 266L305 268Q295 260 278.5 255.5Q262 251 244 251Q152 251 89 315Q26 379 26 477Q26 588 97.5 657Q169 726 280 726Q391 726 462 658Q533 590 533 480Q533 426 515 374.5Q497 323 457 263ZM395 480Q395 534 362.5 570Q330 606 280 606Q229 606 196.5 570.5Q164 535 164 479Q164 425 196 390Q228 355 279 355Q330 355 362.5 390.5Q395 426 395 480Z" glyph-name="nine.tlf" horiz-adv-x="560" unicode="" /><glyph d="M313 543Q437 543 512.5 466.5Q588 390 588 267Q588 145 511 65.5Q434 -14 313 -14Q192 -14 116 63.5Q40 141 40 263Q40 385 116.5 464Q193 543 313 543ZM313 113Q373 113 410 156Q447 199 447 265Q447 330 410 373Q373 416 313 416Q254 416 218 373Q182 330 182 265Q182 199 218 156Q254 113 313 113Z" glyph-name="zero.posf" horiz-adv-x="629" unicode="" /><glyph d="M318 531 318 0H180V382Q154 351 128 328.5Q102 306 74 291L10 394Q53 417 95.5 451Q138 485 180 531Z" glyph-name="one.posf" horiz-adv-x="386" unicode="" /><glyph d="M238 422Q195 422 149.5 398Q104 374 48 323V455Q93 499 146 521Q199 543 261 543Q352 543 406.5 496Q461 449 461 366Q461 308 423 259Q385 210 296 155L230 111V108H476V0H36V113L183 204Q262 254 290.5 285.5Q319 317 319 355Q319 387 298 404.5Q277 422 238 422Z" glyph-name="two.posf" horiz-adv-x="515" unicode="" /><glyph d="M497 -8Q497 -111 433 -174.5Q369 -238 260 -238Q191 -238 133.5 -212Q76 -186 43 -140V17Q85 -43 137 -76Q189 -109 242 -109Q298 -109 332 -78Q366 -47 366 4Q366 56 326 87.5Q286 119 224 119H178V221H220Q276 221 308.5 248.5Q341 276 341 323Q341 364 313 390Q285 416 242 416Q193 416 151 393.5Q109 371 64 321V463Q101 502 151.5 522.5Q202 543 263 543Q353 543 412 489Q471 435 471 351Q471 284 439.5 238.5Q408 193 348 172V170Q417 154 457 106Q497 58 497 -8Z" glyph-name="three.posf" horiz-adv-x="534" unicode="" /><glyph d="M545 112 545 0H469V-226H334V0H18V125Q68 235 143.5 338Q219 441 316 531H469V112ZM142 112 334 112V392H331Q272 329 223.5 257.5Q175 186 142 112Z" glyph-name="four.posf" horiz-adv-x="555" unicode="" /><glyph d="M267 268Q375 268 443 201Q511 134 511 26Q511 -92 435.5 -165Q360 -238 245 -238Q184 -238 132.5 -220Q81 -202 44 -168V-16Q80 -66 126 -90.5Q172 -115 231 -115Q290 -115 330 -76.5Q370 -38 370 22Q370 89 328 128Q286 167 212 167Q176 167 138.5 156Q101 145 57 122V531H481V410H184V256Q200 262 221 265Q242 268 267 268Z" glyph-name="five.posf" horiz-adv-x="555" unicode="" /><glyph d="M542 225Q542 122 470.5 55Q399 -12 289 -12Q179 -12 109.5 54Q40 120 40 225Q40 286 58 335Q76 384 117 446L278 708H438L284 465Q287 466 289.5 466Q292 466 298 466Q402 466 472 397Q542 328 542 225ZM292 349Q244 349 209 313Q174 277 174 226Q174 173 206.5 138.5Q239 104 290 104Q341 104 373.5 138.5Q406 173 406 226Q406 279 373.5 314Q341 349 292 349Z" glyph-name="six.posf" horiz-adv-x="572" unicode="" /><glyph d="M24 531 478 531V408L196 -226H44L332 415H24Z" glyph-name="seven.posf" horiz-adv-x="508" unicode="" /><glyph d="M513 529Q513 475 484.5 433Q456 391 408 374V371Q464 352 497 305Q530 258 530 197Q530 99 460.5 41.5Q391 -16 279 -16Q166 -16 97 41Q28 98 28 196Q28 257 60.5 303.5Q93 350 150 370V373Q102 392 73.5 434Q45 476 45 529Q45 618 110 671Q175 724 279 724Q381 724 447 671Q513 618 513 529ZM372 519Q372 561 345.5 589.5Q319 618 279 618Q239 618 211.5 589.5Q184 561 184 519Q184 477 211.5 447.5Q239 418 279 418Q318 418 345 447.5Q372 477 372 519ZM388 201Q388 250 357.5 282Q327 314 279 314Q230 314 199 282Q168 250 168 201Q168 152 198.5 120.5Q229 89 279 89Q328 89 358 120.5Q388 152 388 201Z" glyph-name="eight.posf" horiz-adv-x="582" unicode="" /><glyph d="M455 87 260 -226H101L287 61Q284 60 281.5 60Q279 60 273 60Q169 60 99.5 129.5Q30 199 30 303Q30 408 101 475.5Q172 543 282 543Q393 543 463 476Q533 409 533 303Q533 248 516 202.5Q499 157 455 87ZM281 177Q329 177 363.5 213Q398 249 398 302Q398 357 365.5 391.5Q333 426 281 426Q230 426 198 391.5Q166 357 166 302Q166 247 198 212Q230 177 281 177Z" glyph-name="nine.posf" horiz-adv-x="572" unicode="" /><glyph d="M280 543Q396 543 468 466.5Q540 390 540 267Q540 145 467 65.5Q394 -14 280 -14Q163 -14 91 63Q19 140 19 263Q19 385 92 464Q165 543 280 543ZM280 113Q333 113 366 156Q399 199 399 265Q399 330 366 373Q333 416 280 416Q226 416 193 373Q160 330 160 265Q160 199 193 156Q226 113 280 113Z" glyph-name="zero.tosf" horiz-adv-x="560" unicode="" /><glyph d="M389 531 389 0H251V382Q225 351 199 328.5Q173 306 145 291L81 394Q124 417 166.5 451Q209 485 251 531Z" glyph-name="one.tosf" horiz-adv-x="560" unicode="" /><glyph d="M271 422Q228 422 182.5 398Q137 374 81 323V455Q126 499 179 521Q232 543 294 543Q385 543 439.5 496Q494 449 494 366Q494 308 456 259Q418 210 329 155L263 111V108H509V0H69V113L216 204Q295 254 323.5 285.5Q352 317 352 355Q352 387 331 404.5Q310 422 271 422Z" glyph-name="two.tosf" horiz-adv-x="560" unicode="" /><glyph d="M506 -8Q506 -111 442 -174.5Q378 -238 269 -238Q200 -238 142.5 -212Q85 -186 52 -140V17Q94 -43 146 -76Q198 -109 251 -109Q307 -109 341 -78Q375 -47 375 4Q375 56 335 87.5Q295 119 233 119H187V221H229Q285 221 317.5 248.5Q350 276 350 323Q350 364 322 390Q294 416 251 416Q202 416 160 393.5Q118 371 73 321V463Q110 502 160.5 522.5Q211 543 272 543Q362 543 421 489Q480 435 480 351Q480 284 448.5 238.5Q417 193 357 172V170Q426 154 466 106Q506 58 506 -8Z" glyph-name="three.tosf" horiz-adv-x="560" unicode="" /><glyph d="M542 112 542 0H466V-226H331V0H15V125Q65 235 140.5 338Q216 441 313 531H466V112ZM139 112 331 112V392H328Q269 329 220.5 257.5Q172 186 139 112Z" glyph-name="four.tosf" horiz-adv-x="560" unicode="" /><glyph d="M269 268Q377 268 445 201Q513 134 513 26Q513 -92 437.5 -165Q362 -238 247 -238Q186 -238 134.5 -220Q83 -202 46 -168V-16Q82 -66 128 -90.5Q174 -115 233 -115Q292 -115 332 -76.5Q372 -38 372 22Q372 89 330 128Q288 167 214 167Q178 167 140.5 156Q103 145 59 122V531H483V410H186V256Q202 262 223 265Q244 268 269 268Z" glyph-name="five.tosf" horiz-adv-x="560" unicode="" /><glyph d="M532 225Q532 122 460.5 55Q389 -12 279 -12Q169 -12 99.5 54Q30 120 30 225Q30 286 48 335Q66 384 107 446L268 708H428L274 465Q277 466 279.5 466Q282 466 288 466Q392 466 462 397Q532 328 532 225ZM282 349Q234 349 199 313Q164 277 164 226Q164 173 196.5 138.5Q229 104 280 104Q331 104 363.5 138.5Q396 173 396 226Q396 279 363.5 314Q331 349 282 349Z" glyph-name="six.tosf" horiz-adv-x="560" unicode="" /><glyph d="M53 531 507 531V408L225 -226H73L361 415H53Z" glyph-name="seven.tosf" horiz-adv-x="560" unicode="" /><glyph d="M514 529Q514 475 485.5 433Q457 391 409 374V371Q465 352 498 305Q531 258 531 197Q531 99 461.5 41.5Q392 -16 280 -16Q167 -16 98 41Q29 98 29 196Q29 257 61.5 303.5Q94 350 151 370V373Q103 392 74.5 434Q46 476 46 529Q46 618 111 671Q176 724 280 724Q382 724 448 671Q514 618 514 529ZM373 519Q373 561 346.5 589.5Q320 618 280 618Q240 618 212.5 589.5Q185 561 185 519Q185 477 212.5 447.5Q240 418 280 418Q319 418 346 447.5Q373 477 373 519ZM389 201Q389 250 358.5 282Q328 314 280 314Q231 314 200 282Q169 250 169 201Q169 152 199.5 120.5Q230 89 280 89Q329 89 359 120.5Q389 152 389 201Z" glyph-name="eight.tosf" horiz-adv-x="560" unicode="" /><glyph d="M453 87 258 -226H99L285 61Q282 60 279.5 60Q277 60 271 60Q167 60 97.5 129.5Q28 199 28 303Q28 408 99 475.5Q170 543 280 543Q391 543 461 476Q531 409 531 303Q531 248 514 202.5Q497 157 453 87ZM279 177Q327 177 361.5 213Q396 249 396 302Q396 357 363.5 391.5Q331 426 279 426Q228 426 196 391.5Q164 357 164 302Q164 247 196 212Q228 177 279 177Z" glyph-name="nine.tosf" horiz-adv-x="560" unicode="" /><glyph d="M527 356Q527 183 462 83.5Q397 -16 280 -16Q162 -16 97 83Q32 182 32 356Q32 527 97.5 625.5Q163 724 280 724Q396 724 461.5 625Q527 526 527 356ZM386 356Q386 472 359 536Q332 600 280 600Q228 600 201 536Q174 472 174 356Q174 237 201 172.5Q228 108 280 108Q332 108 359 172.5Q386 237 386 356Z" glyph-name="zero.alt" horiz-adv-x="560" unicode="" /><glyph d="M397 0 260 0V552Q233 523 197 498Q161 473 112 450L60 556Q121 587 171.5 624.5Q222 662 267 708H397Z" glyph-name="one.alt" horiz-adv-x="560" unicode="" /><glyph d="M269 600Q215 600 160 573Q105 546 39 486V633Q90 678 150 701Q210 724 277 724Q388 724 452 671.5Q516 619 516 526Q516 481 501.5 441.5Q487 402 457 366Q437 342 409.5 319Q382 296 324 258Q271 221 260 213Q249 205 240 198Q211 174 199 155Q187 136 187 115H519V0H33V56Q33 145 75 206Q117 267 224 333Q312 389 343 425.5Q374 462 374 506Q374 550 346.5 575Q319 600 269 600Z" glyph-name="two.alt" horiz-adv-x="560" unicode="" /><glyph d="M265 600Q212 600 157 583Q102 566 47 533V672Q98 698 153.5 711Q209 724 271 724Q381 724 441.5 673Q502 622 502 529Q502 472 468.5 429.5Q435 387 380 374V371Q444 354 482 307.5Q520 261 520 202Q520 101 451 42.5Q382 -16 265 -16Q205 -16 143 0.5Q81 17 30 47V196Q92 151 152.5 129Q213 107 275 106Q320 105 349 134Q378 163 378 211Q378 260 343 285.5Q308 311 240 311H161V418H245Q300 418 331 442Q362 466 362 511Q362 552 335.5 576Q309 600 265 600Z" glyph-name="three.alt" horiz-adv-x="560" unicode="" /><glyph d="M551 147 468 147V0H332V147H20V260Q60 361 139.5 488.5Q219 616 299 708H467V256H551ZM334 256 334 573H331Q280 509 229.5 423.5Q179 338 144 256Z" glyph-name="four.alt" horiz-adv-x="560" unicode="" /><glyph d="M268 -16Q208 -16 153 -3.5Q98 9 53 32V170Q104 135 154 118.5Q204 102 260 102Q315 102 350 135.5Q385 169 385 227Q385 285 346 318Q307 351 238 351Q198 351 151 342.5Q104 334 62 320V708H488V588H189V441Q209 446 233 449Q257 452 284 452Q394 452 460 391.5Q526 331 526 228Q526 113 455.5 48.5Q385 -16 268 -16Z" glyph-name="five.alt" horiz-adv-x="560" unicode="" /><glyph d="M535 232Q535 121 463.5 52.5Q392 -16 279 -16Q164 -16 94.5 55Q25 126 25 249Q25 380 117 505.5Q209 631 374 720L457 635Q373 589 315 540.5Q257 492 222 439Q243 447 264.5 451.5Q286 456 309 456Q407 456 471 394Q535 332 535 232ZM166 244Q166 180 197 142Q228 104 279 104Q330 104 362 139.5Q394 175 394 231Q394 284 361.5 317Q329 350 278 350Q249 350 223.5 341.5Q198 333 172 314Q169 297 167.5 279.5Q166 262 166 244Z" glyph-name="six.alt" horiz-adv-x="560" unicode="" /><glyph d="M400 320Q350 234 321 154.5Q292 75 282 0H135Q146 84 181 175.5Q216 267 279 371Q326 447 349 501.5Q372 556 372 592H34V708H521V650Q521 583 492 504Q463 425 400 320Z" glyph-name="seven.alt" horiz-adv-x="560" unicode="" /><glyph d="M531 197Q531 99 461.5 41.5Q392 -16 280 -16Q168 -16 98.5 40Q29 96 29 191Q29 246 61.5 292.5Q94 339 151 365Q97 394 71.5 434.5Q46 475 46 529Q46 618 111 671Q176 724 280 724Q381 724 447.5 672.5Q514 621 514 538Q514 487 484 445.5Q454 404 398 376Q466 344 498.5 300.5Q531 257 531 197ZM280 616Q239 616 212 589.5Q185 563 185 522Q185 484 212 458Q239 432 300 412Q335 429 354 457.5Q373 486 373 522Q373 563 346.5 589.5Q320 616 280 616ZM169 201Q169 152 199.5 121Q230 90 280 90Q329 90 359 120Q389 150 389 196Q389 240 356 270.5Q323 301 251 325Q212 305 190.5 273Q169 241 169 201Z" glyph-name="eight.alt" horiz-adv-x="560" unicode="" /><glyph d="M535 465Q535 329 444 202.5Q353 76 189 -12L106 71Q188 116 245.5 164Q303 212 337 265Q316 257 294.5 253Q273 249 251 249Q152 249 88 311.5Q24 374 24 475Q24 587 96 655.5Q168 724 281 724Q395 724 465 654Q535 584 535 465ZM165 476Q165 423 197.5 389Q230 355 281 355Q312 355 337 363.5Q362 372 387 392Q390 409 391.5 426.5Q393 444 393 462Q393 526 362 564Q331 602 281 602Q230 602 197.5 566.5Q165 531 165 476Z" glyph-name="nine.alt" horiz-adv-x="560" unicode="" /><glyph d="M280 543Q396 543 468 466.5Q540 390 540 267Q540 145 467 65.5Q394 -14 280 -14Q163 -14 91 63Q19 140 19 263Q19 385 92 464Q165 543 280 543ZM280 113Q333 113 366 156Q399 199 399 265Q399 330 366 373Q333 416 280 416Q226 416 193 373Q160 330 160 265Q160 199 193 156Q226 113 280 113Z" glyph-name="zero.tosf.alt" horiz-adv-x="560" unicode="" /><glyph d="M389 531 389 0H251V382Q225 351 199 328.5Q173 306 145 291L81 394Q124 417 166.5 451Q209 485 251 531Z" glyph-name="one.tosf.alt" horiz-adv-x="560" unicode="" /><glyph d="M244 110 244 108H500V0H59V42Q59 102 82.5 136Q106 170 169 206L250 250Q304 278 324 300Q344 322 344 353Q344 386 322.5 404Q301 422 262 422Q219 422 174 398.5Q129 375 71 323V455Q118 500 170.5 521.5Q223 543 285 543Q377 543 431 496Q485 449 485 366Q485 308 451.5 264Q418 220 347 185L288 156Q264 145 254 135Q244 125 244 110Z" glyph-name="two.tosf.alt" horiz-adv-x="560" unicode="" /><glyph d="M506 -8Q506 -111 442 -174.5Q378 -238 269 -238Q200 -238 142.5 -212Q85 -186 52 -140V17Q94 -43 146 -76Q198 -109 251 -109Q307 -109 341 -78Q375 -47 375 4Q375 56 335 87.5Q295 119 233 119H187V221H229Q285 221 317.5 248.5Q350 276 350 323Q350 364 322 390Q294 416 251 416Q202 416 160 393.5Q118 371 73 321V463Q110 502 160.5 522.5Q211 543 272 543Q362 543 421 489Q480 435 480 351Q480 284 448.5 238.5Q417 193 357 172V170Q426 154 466 106Q506 58 506 -8Z" glyph-name="three.tosf.alt" horiz-adv-x="560" unicode="" /><glyph d="M542 112 542 0H466V-226H331V0H15V125Q65 235 140.5 338Q216 441 313 531H466V112ZM139 112 331 112V392H328Q269 329 220.5 257.5Q172 186 139 112Z" glyph-name="four.tosf.alt" horiz-adv-x="560" unicode="" /><glyph d="M269 268Q377 268 445 201Q513 134 513 26Q513 -92 437.5 -165Q362 -238 247 -238Q186 -238 134.5 -220Q83 -202 46 -168V-16Q82 -66 128 -90.5Q174 -115 233 -115Q292 -115 332 -76.5Q372 -38 372 22Q372 89 330 128Q288 167 214 167Q178 167 140.5 156Q103 145 59 122V531H483V410H186V256Q202 262 223 265Q244 268 269 268Z" glyph-name="five.tosf.alt" horiz-adv-x="560" unicode="" /><glyph d="M535 232Q535 121 463.5 52.5Q392 -16 279 -16Q164 -16 94.5 55Q25 126 25 249Q25 380 117 505.5Q209 631 374 720L457 635Q373 589 315 540.5Q257 492 222 439Q243 447 264.5 451.5Q286 456 309 456Q407 456 471 394Q535 332 535 232ZM166 244Q166 180 197 142Q228 104 279 104Q330 104 362 139.5Q394 175 394 231Q394 284 361.5 317Q329 350 278 350Q249 350 223.5 341.5Q198 333 172 314Q169 297 167.5 279.5Q166 262 166 244Z" glyph-name="six.tosf.alt" horiz-adv-x="560" unicode="" /><glyph d="M390 125Q343 45 314 -42.5Q285 -130 272 -226H122Q134 -125 170.5 -23Q207 79 267 178Q322 267 345.5 322.5Q369 378 369 414H34V530H521V472Q521 402 491 321Q461 240 390 125Z" glyph-name="seven.tosf.alt" horiz-adv-x="560" unicode="" /><glyph d="M531 197Q531 99 461.5 41.5Q392 -16 280 -16Q168 -16 98.5 40Q29 96 29 191Q29 246 61.5 292.5Q94 339 151 365Q97 394 71.5 434.5Q46 475 46 529Q46 618 111 671Q176 724 280 724Q381 724 447.5 672.5Q514 621 514 538Q514 487 484 445.5Q454 404 398 376Q466 344 498.5 300.5Q531 257 531 197ZM280 616Q239 616 212 589.5Q185 563 185 522Q185 484 212 458Q239 432 300 412Q335 429 354 457.5Q373 486 373 522Q373 563 346.5 589.5Q320 616 280 616ZM169 201Q169 152 199.5 121Q230 90 280 90Q329 90 359 120Q389 150 389 196Q389 240 356 270.5Q323 301 251 325Q212 305 190.5 273Q169 241 169 201Z" glyph-name="eight.tosf.alt" horiz-adv-x="560" unicode="" /><glyph d="M535 282Q535 126 444.5 -8.5Q354 -143 188 -235L86 -151Q188 -97 254.5 -36Q321 25 355 95Q327 83 301.5 77Q276 71 251 71Q153 71 88.5 132.5Q24 194 24 293Q24 406 96 474.5Q168 543 281 543Q396 543 465.5 472.5Q535 402 535 282ZM165 294Q165 242 198 208Q231 174 281 174Q310 174 336 183.5Q362 193 389 214Q391 228 392 243.5Q393 259 393 277Q393 342 362 380Q331 418 281 418Q230 418 197.5 383.5Q165 349 165 294Z" glyph-name="nine.tosf.alt" horiz-adv-x="560" unicode="" /><glyph d="M212 726Q283 726 331 678Q379 630 379 559Q379 488 331 440Q283 392 212 392Q141 392 93 440Q45 488 45 559Q45 630 93 678Q141 726 212 726ZM212 452Q256 452 287.5 483.5Q319 515 319 559Q319 604 287.5 635.5Q256 667 212 667Q167 667 136 635.5Q105 604 105 559Q105 514 136 483Q167 452 212 452Z" glyph-name="degree" horiz-adv-x="425" unicode="°" /><glyph d="M697 698 270 -33L194 5L623 738ZM402 536Q402 460 348.5 407Q295 354 219 354Q143 354 89 407.5Q35 461 35 536Q35 612 89 665Q143 718 219 718Q295 718 348.5 665Q402 612 402 536ZM302 536Q302 570 277.5 595Q253 620 219 620Q185 620 160.5 595Q136 570 136 536Q136 502 160.5 477.5Q185 453 219 453Q253 453 277.5 477.5Q302 502 302 536ZM858 170Q858 95 804 42Q750 -11 674 -11Q597 -11 543.5 41.5Q490 94 490 170Q490 246 543.5 300Q597 354 674 354Q750 354 804 300Q858 246 858 170ZM757 170Q757 204 732.5 229Q708 254 674 254Q640 254 615.5 229.5Q591 205 591 170Q591 136 615.5 111.5Q640 87 674 87Q708 87 732.5 111.5Q757 136 757 170Z" glyph-name="percent" horiz-adv-x="894" unicode="%" /><glyph d="M625 702 215 -28L144 4L554 737ZM373 551Q373 482 323.5 433Q274 384 204 384Q133 384 83.5 432.5Q34 481 34 551Q34 621 83.5 670.5Q133 720 204 720Q274 720 323.5 670.5Q373 621 373 551ZM279 551Q279 583 257 605.5Q235 628 204 628Q172 628 150 605.5Q128 583 128 551Q128 520 150 498Q172 476 204 476Q235 476 257 498Q279 520 279 551ZM1111 156Q1111 87 1061.5 38.5Q1012 -10 942 -10Q872 -10 822.5 38.5Q773 87 773 156Q773 226 822.5 275Q872 324 942 324Q1012 324 1061.5 275Q1111 226 1111 156ZM738 156Q738 87 688.5 38.5Q639 -10 568 -10Q498 -10 448.5 38.5Q399 87 399 156Q399 226 448.5 275Q498 324 568 324Q639 324 688.5 275Q738 226 738 156ZM1017 156Q1017 188 995.5 210Q974 232 942 232Q911 232 888.5 210Q866 188 866 156Q866 125 888.5 102.5Q911 80 942 80Q974 80 995.5 102.5Q1017 125 1017 156ZM644 156Q644 188 622 210Q600 232 568 232Q537 232 515 210Q493 188 493 156Q493 125 515 102.5Q537 80 568 80Q600 80 622 102.5Q644 125 644 156Z" glyph-name="perthousand" horiz-adv-x="1146" unicode="‰" /><glyph d="M301 705 -76 -27L-147 2L230 737Z" glyph-name="fraction" horiz-adv-x="152" unicode="⁄" /><glyph d="M301 705 -76 -27L-147 2L230 737Z" glyph-name="uni2215" horiz-adv-x="152" unicode="∕" /><glyph d="M335 501Q335 395 293.5 335Q252 275 177 275Q103 275 61.5 335.5Q20 396 20 501Q20 604 62 664Q104 724 177 724Q251 724 293 664.5Q335 605 335 501ZM233 501Q233 565 219 599Q205 633 177 633Q150 633 136 600Q122 567 122 501Q122 434 136 400Q150 366 177 366Q205 366 219 400.5Q233 435 233 501Z" glyph-name="zerosuperior" horiz-adv-x="356" unicode="⁰" /><glyph d="M262 286 160 286V602Q140 581 119.5 566.5Q99 552 78 543L31 617Q71 638 104.5 661Q138 684 167 713H262Z" glyph-name="onesuperior" horiz-adv-x="356" unicode="¹" /><glyph d="M23 286 23 364L169 495Q203 525 214 542.5Q225 560 225 579Q225 602 210.5 616Q196 630 171 630Q139 630 104.5 614Q70 598 25 561V668Q60 696 98.5 710Q137 724 177 724Q245 724 287 688Q329 652 329 590Q329 552 313.5 522Q298 492 247 446L165 370H332V286Z" glyph-name="twosuperior" horiz-adv-x="356" unicode="²" /><glyph d="M168 633Q136 633 99.5 623.5Q63 614 29 597V695Q59 709 97 716.5Q135 724 174 724Q245 724 283.5 692.5Q322 661 322 602Q322 568 303.5 544Q285 520 253 512V509Q288 500 310 472.5Q332 445 332 411Q332 347 288 311Q244 275 169 275Q133 275 93.5 284.5Q54 294 22 310V413Q61 390 100.5 377.5Q140 365 176 365Q200 365 213.5 379.5Q227 394 227 418Q227 443 207.5 456.5Q188 470 153 470H100V540H158Q187 540 202.5 552Q218 564 218 588Q218 609 204.5 621Q191 633 168 633Z" glyph-name="threesuperior" horiz-adv-x="356" unicode="³" /><glyph d="M345 367 301 367V286H201V367H7V452Q26 507 76 583Q126 659 177 713H301V451H345ZM203 451 203 615H200Q170 581 141.5 535.5Q113 490 97 451Z" glyph-name="foursuperior" horiz-adv-x="356" unicode="⁴" /><glyph d="M172 275Q135 275 96.5 282.5Q58 290 30 303V400Q61 381 94.5 371.5Q128 362 165 362Q197 362 215 379Q233 396 233 426Q233 458 211.5 475Q190 492 150 492Q126 492 95 488Q64 484 39 477V713H310V630H132V549Q145 552 161 554Q177 556 191 556Q256 556 295 521.5Q334 487 334 426Q334 354 290 314.5Q246 275 172 275Z" glyph-name="fivesuperior" horiz-adv-x="356" unicode="⁵" /><glyph d="M70 568 169 713H288L183 564V563Q187 567 194.5 569Q202 571 209 571Q263 571 301 531Q339 491 339 430Q339 360 293.5 317.5Q248 275 177 275Q105 275 60.5 316.5Q16 358 16 430Q16 463 29 496.5Q42 530 70 568ZM118 430Q118 402 135 383.5Q152 365 177 365Q203 365 219.5 383Q236 401 236 430Q236 458 220 476.5Q204 495 178 495Q152 495 135 476.5Q118 458 118 430Z" glyph-name="sixsuperior" horiz-adv-x="356" unicode="⁶" /><glyph d="M333 642 186 286H73L225 627H22V713H333Z" glyph-name="sevensuperior" horiz-adv-x="356" unicode="⁷" /><glyph d="M326 602Q326 570 310 545Q294 520 267 510V509Q298 498 317 470Q336 442 336 407Q336 345 292 310Q248 275 177 275Q106 275 62.5 310Q19 345 19 406Q19 442 37.5 469Q56 496 89 508V510Q61 521 44 546Q27 571 27 602Q27 658 69 691Q111 724 177 724Q243 724 284.5 691Q326 658 326 602ZM225 594Q225 617 212 630.5Q199 644 177 644Q156 644 143 630.5Q130 617 130 594Q130 572 143.5 557Q157 542 177 542Q198 542 211.5 556.5Q225 571 225 594ZM234 410Q234 435 218 451Q202 467 177 467Q153 467 137 451Q121 435 121 410Q121 385 136.5 369Q152 353 177 353Q202 353 218 369Q234 385 234 410Z" glyph-name="eightsuperior" horiz-adv-x="356" unicode="⁸" /><glyph d="M286 429 185 286H67L173 434L171 436Q168 432 161.5 430Q155 428 148 428Q92 428 54 467.5Q16 507 16 568Q16 638 61.5 681Q107 724 177 724Q250 724 294.5 682Q339 640 339 569Q339 536 326.5 502.5Q314 469 286 429ZM236 569Q236 598 219.5 616Q203 634 177 634Q151 634 134.5 615.5Q118 597 118 569Q118 540 134.5 522Q151 504 177 504Q203 504 219.5 522.5Q236 541 236 569Z" glyph-name="ninesuperior" horiz-adv-x="356" unicode="⁹" /><glyph d="M262 286 160 286V602Q140 581 119.5 566.5Q99 552 78 543L31 617Q71 638 104.5 661Q138 684 167 713H262ZM645 705 268 -27L197 2L574 737ZM532 0 532 78L678 209Q712 239 723 256.5Q734 274 734 293Q734 316 719.5 330Q705 344 680 344Q648 344 613.5 328Q579 312 534 275V382Q569 410 607.5 424Q646 438 686 438Q754 438 796 402Q838 366 838 304Q838 266 822.5 236Q807 206 756 160L674 84H841V0Z" glyph-name="onehalf" horiz-adv-x="866" unicode="½" /><glyph d="M262 286 160 286V602Q140 581 119.5 566.5Q99 552 78 543L31 617Q71 638 104.5 661Q138 684 167 713H262ZM668 705 291 -27L220 2L597 737ZM854 81 810 81V0H710V81H516V166Q535 221 585 297Q635 373 686 427H810V165H854ZM712 165 712 329H709Q679 295 650.5 249.5Q622 204 606 165Z" glyph-name="onequarter" horiz-adv-x="866" unicode="¼" /><glyph d="M168 633Q136 633 99.5 623.5Q63 614 29 597V695Q59 709 97 716.5Q135 724 174 724Q245 724 283.5 692.5Q322 661 322 602Q322 568 303.5 544Q285 520 253 512V509Q288 500 310 472.5Q332 445 332 411Q332 347 288 311Q244 275 169 275Q133 275 93.5 284.5Q54 294 22 310V413Q61 390 100.5 377.5Q140 365 176 365Q200 365 213.5 379.5Q227 394 227 418Q227 443 207.5 456.5Q188 470 153 470H100V540H158Q187 540 202.5 552Q218 564 218 588Q218 609 204.5 621Q191 633 168 633ZM677 705 300 -27L229 2L606 737ZM854 81 810 81V0H710V81H516V166Q535 221 585 297Q635 373 686 427H810V165H854ZM712 165 712 329H709Q679 295 650.5 249.5Q622 204 606 165Z" glyph-name="threequarters" horiz-adv-x="866" unicode="¾" /><glyph d="M262 286 160 286V602Q140 581 119.5 566.5Q99 552 78 543L31 617Q71 638 104.5 661Q138 684 167 713H262ZM637 705 260 -27L189 2L566 737ZM677 347Q645 347 608.5 337.5Q572 328 538 311V409Q568 423 606 430.5Q644 438 683 438Q754 438 792.5 406.5Q831 375 831 316Q831 282 812.5 258Q794 234 762 226V223Q797 214 819 186.5Q841 159 841 125Q841 61 797 25Q753 -11 678 -11Q642 -11 602.5 -1.5Q563 8 531 24V127Q570 104 609.5 91.5Q649 79 685 79Q709 79 722.5 93.5Q736 108 736 132Q736 157 716.5 170.5Q697 184 662 184H609V254H667Q696 254 711.5 266Q727 278 727 302Q727 323 713.5 335Q700 347 677 347Z" glyph-name="onethird" horiz-adv-x="866" unicode="⅓" /><glyph d="M23 286 23 364L169 495Q203 525 214 542.5Q225 560 225 579Q225 602 210.5 616Q196 630 171 630Q139 630 104.5 614Q70 598 25 561V668Q60 696 98.5 710Q137 724 177 724Q245 724 287 688Q329 652 329 590Q329 552 313.5 522Q298 492 247 446L165 370H332V286ZM666 705 289 -27L218 2L595 737ZM677 347Q645 347 608.5 337.5Q572 328 538 311V409Q568 423 606 430.5Q644 438 683 438Q754 438 792.5 406.5Q831 375 831 316Q831 282 812.5 258Q794 234 762 226V223Q797 214 819 186.5Q841 159 841 125Q841 61 797 25Q753 -11 678 -11Q642 -11 602.5 -1.5Q563 8 531 24V127Q570 104 609.5 91.5Q649 79 685 79Q709 79 722.5 93.5Q736 108 736 132Q736 157 716.5 170.5Q697 184 662 184H609V254H667Q696 254 711.5 266Q727 278 727 302Q727 323 713.5 335Q700 347 677 347Z" glyph-name="twothirds" horiz-adv-x="866" unicode="⅔" /><glyph d="M262 286 160 286V602Q140 581 119.5 566.5Q99 552 78 543L31 617Q71 638 104.5 661Q138 684 167 713H262ZM645 705 268 -27L197 2L574 737ZM835 316Q835 284 819 259Q803 234 776 224V223Q807 212 826 184Q845 156 845 121Q845 59 801 24Q757 -11 686 -11Q615 -11 571.5 24Q528 59 528 120Q528 156 546.5 183Q565 210 598 222V224Q570 235 553 260Q536 285 536 316Q536 372 578 405Q620 438 686 438Q752 438 793.5 405Q835 372 835 316ZM734 308Q734 331 721 344.5Q708 358 686 358Q665 358 652 344.5Q639 331 639 308Q639 286 652.5 271Q666 256 686 256Q707 256 720.5 270.5Q734 285 734 308ZM743 124Q743 149 727 165Q711 181 686 181Q662 181 646 165Q630 149 630 124Q630 99 645.5 83Q661 67 686 67Q711 67 727 83Q743 99 743 124Z" glyph-name="oneeighth" horiz-adv-x="866" unicode="⅛" /><glyph d="M168 633Q136 633 99.5 623.5Q63 614 29 597V695Q59 709 97 716.5Q135 724 174 724Q245 724 283.5 692.5Q322 661 322 602Q322 568 303.5 544Q285 520 253 512V509Q288 500 310 472.5Q332 445 332 411Q332 347 288 311Q244 275 169 275Q133 275 93.5 284.5Q54 294 22 310V413Q61 390 100.5 377.5Q140 365 176 365Q200 365 213.5 379.5Q227 394 227 418Q227 443 207.5 456.5Q188 470 153 470H100V540H158Q187 540 202.5 552Q218 564 218 588Q218 609 204.5 621Q191 633 168 633ZM657 705 280 -27L209 2L586 737ZM835 316Q835 284 819 259Q803 234 776 224V223Q807 212 826 184Q845 156 845 121Q845 59 801 24Q757 -11 686 -11Q615 -11 571.5 24Q528 59 528 120Q528 156 546.5 183Q565 210 598 222V224Q570 235 553 260Q536 285 536 316Q536 372 578 405Q620 438 686 438Q752 438 793.5 405Q835 372 835 316ZM734 308Q734 331 721 344.5Q708 358 686 358Q665 358 652 344.5Q639 331 639 308Q639 286 652.5 271Q666 256 686 256Q707 256 720.5 270.5Q734 285 734 308ZM743 124Q743 149 727 165Q711 181 686 181Q662 181 646 165Q630 149 630 124Q630 99 645.5 83Q661 67 686 67Q711 67 727 83Q743 99 743 124Z" glyph-name="threeeighths" horiz-adv-x="866" unicode="⅜" /><glyph d="M172 275Q135 275 96.5 282.5Q58 290 30 303V400Q61 381 94.5 371.5Q128 362 165 362Q197 362 215 379Q233 396 233 426Q233 458 211.5 475Q190 492 150 492Q126 492 95 488Q64 484 39 477V713H310V630H132V549Q145 552 161 554Q177 556 191 556Q256 556 295 521.5Q334 487 334 426Q334 354 290 314.5Q246 275 172 275ZM657 705 280 -27L209 2L586 737ZM835 316Q835 284 819 259Q803 234 776 224V223Q807 212 826 184Q845 156 845 121Q845 59 801 24Q757 -11 686 -11Q615 -11 571.5 24Q528 59 528 120Q528 156 546.5 183Q565 210 598 222V224Q570 235 553 260Q536 285 536 316Q536 372 578 405Q620 438 686 438Q752 438 793.5 405Q835 372 835 316ZM734 308Q734 331 721 344.5Q708 358 686 358Q665 358 652 344.5Q639 331 639 308Q639 286 652.5 271Q666 256 686 256Q707 256 720.5 270.5Q734 285 734 308ZM743 124Q743 149 727 165Q711 181 686 181Q662 181 646 165Q630 149 630 124Q630 99 645.5 83Q661 67 686 67Q711 67 727 83Q743 99 743 124Z" glyph-name="fiveeighths" horiz-adv-x="866" unicode="⅝" /><glyph d="M333 642 186 286H73L225 627H22V713H333ZM628 705 251 -27L180 2L557 737ZM835 316Q835 284 819 259Q803 234 776 224V223Q807 212 826 184Q845 156 845 121Q845 59 801 24Q757 -11 686 -11Q615 -11 571.5 24Q528 59 528 120Q528 156 546.5 183Q565 210 598 222V224Q570 235 553 260Q536 285 536 316Q536 372 578 405Q620 438 686 438Q752 438 793.5 405Q835 372 835 316ZM734 308Q734 331 721 344.5Q708 358 686 358Q665 358 652 344.5Q639 331 639 308Q639 286 652.5 271Q666 256 686 256Q707 256 720.5 270.5Q734 285 734 308ZM743 124Q743 149 727 165Q711 181 686 181Q662 181 646 165Q630 149 630 124Q630 99 645.5 83Q661 67 686 67Q711 67 727 83Q743 99 743 124Z" glyph-name="seveneighths" horiz-adv-x="866" unicode="⅞" /><glyph d="M262 286 160 286V602Q140 581 119.5 566.5Q99 552 78 543L31 617Q71 638 104.5 661Q138 684 167 713H262ZM635 705 258 -27L187 2L564 737ZM681 -11Q644 -11 605.5 -3.5Q567 4 539 17V114Q570 95 603.5 85.5Q637 76 674 76Q706 76 724 93Q742 110 742 140Q742 172 720.5 189Q699 206 659 206Q635 206 604 202Q573 198 548 191V427H819V344H641V263Q654 266 670 268Q686 270 700 270Q765 270 804 235.5Q843 201 843 140Q843 68 799 28.5Q755 -11 681 -11Z" glyph-name="onefifth" horiz-adv-x="866" unicode="" /><glyph d="M23 286 23 364L169 495Q203 525 214 542.5Q225 560 225 579Q225 602 210.5 616Q196 630 171 630Q139 630 104.5 614Q70 598 25 561V668Q60 696 98.5 710Q137 724 177 724Q245 724 287 688Q329 652 329 590Q329 552 313.5 522Q298 492 247 446L165 370H332V286ZM665 705 288 -27L217 2L594 737ZM681 -11Q644 -11 605.5 -3.5Q567 4 539 17V114Q570 95 603.5 85.5Q637 76 674 76Q706 76 724 93Q742 110 742 140Q742 172 720.5 189Q699 206 659 206Q635 206 604 202Q573 198 548 191V427H819V344H641V263Q654 266 670 268Q686 270 700 270Q765 270 804 235.5Q843 201 843 140Q843 68 799 28.5Q755 -11 681 -11Z" glyph-name="twofifths" horiz-adv-x="866" unicode="" /><glyph d="M168 633Q136 633 99.5 623.5Q63 614 29 597V695Q59 709 97 716.5Q135 724 174 724Q245 724 283.5 692.5Q322 661 322 602Q322 568 303.5 544Q285 520 253 512V509Q288 500 310 472.5Q332 445 332 411Q332 347 288 311Q244 275 169 275Q133 275 93.5 284.5Q54 294 22 310V413Q61 390 100.5 377.5Q140 365 176 365Q200 365 213.5 379.5Q227 394 227 418Q227 443 207.5 456.5Q188 470 153 470H100V540H158Q187 540 202.5 552Q218 564 218 588Q218 609 204.5 621Q191 633 168 633ZM644 705 267 -27L196 2L573 737ZM681 -11Q644 -11 605.5 -3.5Q567 4 539 17V114Q570 95 603.5 85.5Q637 76 674 76Q706 76 724 93Q742 110 742 140Q742 172 720.5 189Q699 206 659 206Q635 206 604 202Q573 198 548 191V427H819V344H641V263Q654 266 670 268Q686 270 700 270Q765 270 804 235.5Q843 201 843 140Q843 68 799 28.5Q755 -11 681 -11Z" glyph-name="threefifths" horiz-adv-x="866" unicode="" /><glyph d="M345 367 301 367V286H201V367H7V452Q26 507 76 583Q126 659 177 713H301V451H345ZM203 451 203 615H200Q170 581 141.5 535.5Q113 490 97 451ZM650 705 273 -27L202 2L579 737ZM681 -11Q644 -11 605.5 -3.5Q567 4 539 17V114Q570 95 603.5 85.5Q637 76 674 76Q706 76 724 93Q742 110 742 140Q742 172 720.5 189Q699 206 659 206Q635 206 604 202Q573 198 548 191V427H819V344H641V263Q654 266 670 268Q686 270 700 270Q765 270 804 235.5Q843 201 843 140Q843 68 799 28.5Q755 -11 681 -11Z" glyph-name="fourfifths" horiz-adv-x="866" unicode="" /><glyph d="M262 286 160 286V602Q140 581 119.5 566.5Q99 552 78 543L31 617Q71 638 104.5 661Q138 684 167 713H262ZM666 705 289 -27L218 2L595 737ZM579 282 678 427H797L692 278V277Q696 281 703.5 283Q711 285 718 285Q772 285 810 245Q848 205 848 144Q848 74 802.5 31.5Q757 -11 686 -11Q614 -11 569.5 30.5Q525 72 525 144Q525 177 538 210.5Q551 244 579 282ZM627 144Q627 116 644 97.5Q661 79 686 79Q712 79 728.5 97Q745 115 745 144Q745 172 729 190.5Q713 209 687 209Q661 209 644 190.5Q627 172 627 144Z" glyph-name="onesixth" horiz-adv-x="866" unicode="" /><glyph d="M172 275Q135 275 96.5 282.5Q58 290 30 303V400Q61 381 94.5 371.5Q128 362 165 362Q197 362 215 379Q233 396 233 426Q233 458 211.5 475Q190 492 150 492Q126 492 95 488Q64 484 39 477V713H310V630H132V549Q145 552 161 554Q177 556 191 556Q256 556 295 521.5Q334 487 334 426Q334 354 290 314.5Q246 275 172 275ZM679 705 302 -27L231 2L608 737ZM579 282 678 427H797L692 278V277Q696 281 703.5 283Q711 285 718 285Q772 285 810 245Q848 205 848 144Q848 74 802.5 31.5Q757 -11 686 -11Q614 -11 569.5 30.5Q525 72 525 144Q525 177 538 210.5Q551 244 579 282ZM627 144Q627 116 644 97.5Q661 79 686 79Q712 79 728.5 97Q745 115 745 144Q745 172 729 190.5Q713 209 687 209Q661 209 644 190.5Q627 172 627 144Z" glyph-name="fivesixths" horiz-adv-x="866" unicode="" /><glyph d="M262 286 160 286V602Q140 581 119.5 566.5Q99 552 78 543L31 617Q71 638 104.5 661Q138 684 167 713H262ZM633 705 256 -27L185 2L562 737ZM842 356 695 0H582L734 341H531V427H842Z" glyph-name="oneseventh" horiz-adv-x="866" unicode="" /><glyph d="M23 286 23 364L169 495Q203 525 214 542.5Q225 560 225 579Q225 602 210.5 616Q196 630 171 630Q139 630 104.5 614Q70 598 25 561V668Q60 696 98.5 710Q137 724 177 724Q245 724 287 688Q329 652 329 590Q329 552 313.5 522Q298 492 247 446L165 370H332V286ZM657 705 280 -27L209 2L586 737ZM842 356 695 0H582L734 341H531V427H842Z" glyph-name="twosevenths" horiz-adv-x="866" unicode="" /><glyph d="M168 633Q136 633 99.5 623.5Q63 614 29 597V695Q59 709 97 716.5Q135 724 174 724Q245 724 283.5 692.5Q322 661 322 602Q322 568 303.5 544Q285 520 253 512V509Q288 500 310 472.5Q332 445 332 411Q332 347 288 311Q244 275 169 275Q133 275 93.5 284.5Q54 294 22 310V413Q61 390 100.5 377.5Q140 365 176 365Q200 365 213.5 379.5Q227 394 227 418Q227 443 207.5 456.5Q188 470 153 470H100V540H158Q187 540 202.5 552Q218 564 218 588Q218 609 204.5 621Q191 633 168 633ZM638 705 261 -27L190 2L567 737ZM842 356 695 0H582L734 341H531V427H842Z" glyph-name="threesevenths" horiz-adv-x="866" unicode="" /><glyph d="M345 367 301 367V286H201V367H7V452Q26 507 76 583Q126 659 177 713H301V451H345ZM203 451 203 615H200Q170 581 141.5 535.5Q113 490 97 451ZM653 705 276 -27L205 2L582 737ZM842 356 695 0H582L734 341H531V427H842Z" glyph-name="foursevenths" horiz-adv-x="866" unicode="" /><glyph d="M172 275Q135 275 96.5 282.5Q58 290 30 303V400Q61 381 94.5 371.5Q128 362 165 362Q197 362 215 379Q233 396 233 426Q233 458 211.5 475Q190 492 150 492Q126 492 95 488Q64 484 39 477V713H310V630H132V549Q145 552 161 554Q177 556 191 556Q256 556 295 521.5Q334 487 334 426Q334 354 290 314.5Q246 275 172 275ZM639 705 262 -27L191 2L568 737ZM842 356 695 0H582L734 341H531V427H842Z" glyph-name="fivesevenths" horiz-adv-x="866" unicode="" /><glyph d="M70 568 169 713H288L183 564V563Q187 567 194.5 569Q202 571 209 571Q263 571 301 531Q339 491 339 430Q339 360 293.5 317.5Q248 275 177 275Q105 275 60.5 316.5Q16 358 16 430Q16 463 29 496.5Q42 530 70 568ZM118 430Q118 402 135 383.5Q152 365 177 365Q203 365 219.5 383Q236 401 236 430Q236 458 220 476.5Q204 495 178 495Q152 495 135 476.5Q118 458 118 430ZM639 705 262 -27L191 2L568 737ZM842 356 695 0H582L734 341H531V427H842Z" glyph-name="sixsevenths" horiz-adv-x="866" unicode="" /><glyph d="M262 286 160 286V602Q140 581 119.5 566.5Q99 552 78 543L31 617Q71 638 104.5 661Q138 684 167 713H262ZM643 705 266 -27L195 2L572 737ZM795 143 694 0H576L682 148L680 150Q677 146 670.5 144Q664 142 657 142Q601 142 563 181.5Q525 221 525 282Q525 352 570.5 395Q616 438 686 438Q759 438 803.5 396Q848 354 848 283Q848 250 835.5 216.5Q823 183 795 143ZM745 283Q745 312 728.5 330Q712 348 686 348Q660 348 643.5 329.5Q627 311 627 283Q627 254 643.5 236Q660 218 686 218Q712 218 728.5 236.5Q745 255 745 283Z" glyph-name="oneninth" horiz-adv-x="866" unicode="" /><glyph d="M23 286 23 364L169 495Q203 525 214 542.5Q225 560 225 579Q225 602 210.5 616Q196 630 171 630Q139 630 104.5 614Q70 598 25 561V668Q60 696 98.5 710Q137 724 177 724Q245 724 287 688Q329 652 329 590Q329 552 313.5 522Q298 492 247 446L165 370H332V286ZM677 705 300 -27L229 2L606 737ZM795 143 694 0H576L682 148L680 150Q677 146 670.5 144Q664 142 657 142Q601 142 563 181.5Q525 221 525 282Q525 352 570.5 395Q616 438 686 438Q759 438 803.5 396Q848 354 848 283Q848 250 835.5 216.5Q823 183 795 143ZM745 283Q745 312 728.5 330Q712 348 686 348Q660 348 643.5 329.5Q627 311 627 283Q627 254 643.5 236Q660 218 686 218Q712 218 728.5 236.5Q745 255 745 283Z" glyph-name="twoninths" horiz-adv-x="866" unicode="" /><glyph d="M345 367 301 367V286H201V367H7V452Q26 507 76 583Q126 659 177 713H301V451H345ZM203 451 203 615H200Q170 581 141.5 535.5Q113 490 97 451ZM674 705 297 -27L226 2L603 737ZM795 143 694 0H576L682 148L680 150Q677 146 670.5 144Q664 142 657 142Q601 142 563 181.5Q525 221 525 282Q525 352 570.5 395Q616 438 686 438Q759 438 803.5 396Q848 354 848 283Q848 250 835.5 216.5Q823 183 795 143ZM745 283Q745 312 728.5 330Q712 348 686 348Q660 348 643.5 329.5Q627 311 627 283Q627 254 643.5 236Q660 218 686 218Q712 218 728.5 236.5Q745 255 745 283Z" glyph-name="fourninths" horiz-adv-x="866" unicode="" /><glyph d="M172 275Q135 275 96.5 282.5Q58 290 30 303V400Q61 381 94.5 371.5Q128 362 165 362Q197 362 215 379Q233 396 233 426Q233 458 211.5 475Q190 492 150 492Q126 492 95 488Q64 484 39 477V713H310V630H132V549Q145 552 161 554Q177 556 191 556Q256 556 295 521.5Q334 487 334 426Q334 354 290 314.5Q246 275 172 275ZM657 705 280 -27L209 2L586 737ZM795 143 694 0H576L682 148L680 150Q677 146 670.5 144Q664 142 657 142Q601 142 563 181.5Q525 221 525 282Q525 352 570.5 395Q616 438 686 438Q759 438 803.5 396Q848 354 848 283Q848 250 835.5 216.5Q823 183 795 143ZM745 283Q745 312 728.5 330Q712 348 686 348Q660 348 643.5 329.5Q627 311 627 283Q627 254 643.5 236Q660 218 686 218Q712 218 728.5 236.5Q745 255 745 283Z" glyph-name="fiveninths" horiz-adv-x="866" unicode="" /><glyph d="M333 642 186 286H73L225 627H22V713H333ZM629 705 252 -27L181 2L558 737ZM795 143 694 0H576L682 148L680 150Q677 146 670.5 144Q664 142 657 142Q601 142 563 181.5Q525 221 525 282Q525 352 570.5 395Q616 438 686 438Q759 438 803.5 396Q848 354 848 283Q848 250 835.5 216.5Q823 183 795 143ZM745 283Q745 312 728.5 330Q712 348 686 348Q660 348 643.5 329.5Q627 311 627 283Q627 254 643.5 236Q660 218 686 218Q712 218 728.5 236.5Q745 255 745 283Z" glyph-name="sevenninths" horiz-adv-x="866" unicode="" /><glyph d="M326 602Q326 570 310 545Q294 520 267 510V509Q298 498 317 470Q336 442 336 407Q336 345 292 310Q248 275 177 275Q106 275 62.5 310Q19 345 19 406Q19 442 37.5 469Q56 496 89 508V510Q61 521 44 546Q27 571 27 602Q27 658 69 691Q111 724 177 724Q243 724 284.5 691Q326 658 326 602ZM225 594Q225 617 212 630.5Q199 644 177 644Q156 644 143 630.5Q130 617 130 594Q130 572 143.5 557Q157 542 177 542Q198 542 211.5 556.5Q225 571 225 594ZM234 410Q234 435 218 451Q202 467 177 467Q153 467 137 451Q121 435 121 410Q121 385 136.5 369Q152 353 177 353Q202 353 218 369Q234 385 234 410ZM657 705 280 -27L209 2L586 737ZM795 143 694 0H576L682 148L680 150Q677 146 670.5 144Q664 142 657 142Q601 142 563 181.5Q525 221 525 282Q525 352 570.5 395Q616 438 686 438Q759 438 803.5 396Q848 354 848 283Q848 250 835.5 216.5Q823 183 795 143ZM745 283Q745 312 728.5 330Q712 348 686 348Q660 348 643.5 329.5Q627 311 627 283Q627 254 643.5 236Q660 218 686 218Q712 218 728.5 236.5Q745 255 745 283Z" glyph-name="eightninths" horiz-adv-x="866" unicode="" /><glyph d="M335 215Q335 109 293.5 49Q252 -11 177 -11Q103 -11 61.5 49.5Q20 110 20 215Q20 318 62 378Q104 438 177 438Q251 438 293 378.5Q335 319 335 215ZM233 215Q233 279 219 313Q205 347 177 347Q150 347 136 314Q122 281 122 215Q122 148 136 114Q150 80 177 80Q205 80 219 114.5Q233 149 233 215Z" glyph-name="zeroinferior" horiz-adv-x="356" unicode="₀" /><glyph d="M262 0 160 0V316Q140 295 119.5 280.5Q99 266 78 257L31 331Q71 352 104.5 375Q138 398 167 427H262Z" glyph-name="oneinferior" horiz-adv-x="356" unicode="₁" /><glyph d="M23 0 23 78L169 209Q203 239 214 256.5Q225 274 225 293Q225 316 210.5 330Q196 344 171 344Q139 344 104.5 328Q70 312 25 275V382Q60 410 98.5 424Q137 438 177 438Q245 438 287 402Q329 366 329 304Q329 266 313.5 236Q298 206 247 160L165 84H332V0Z" glyph-name="twoinferior" horiz-adv-x="356" unicode="₂" /><glyph d="M168 347Q136 347 99.5 337.5Q63 328 29 311V409Q59 423 97 430.5Q135 438 174 438Q245 438 283.5 406.5Q322 375 322 316Q322 282 303.5 258Q285 234 253 226V223Q288 214 310 186.5Q332 159 332 125Q332 61 288 25Q244 -11 169 -11Q133 -11 93.5 -1.5Q54 8 22 24V127Q61 104 100.5 91.5Q140 79 176 79Q200 79 213.5 93.5Q227 108 227 132Q227 157 207.5 170.5Q188 184 153 184H100V254H158Q187 254 202.5 266Q218 278 218 302Q218 323 204.5 335Q191 347 168 347Z" glyph-name="threeinferior" horiz-adv-x="356" unicode="₃" /><glyph d="M345 81 301 81V0H201V81H7V166Q26 221 76 297Q126 373 177 427H301V165H345ZM203 165 203 329H200Q170 295 141.5 249.5Q113 204 97 165Z" glyph-name="fourinferior" horiz-adv-x="356" unicode="₄" /><glyph d="M172 -11Q135 -11 96.5 -3.5Q58 4 30 17V114Q61 95 94.5 85.5Q128 76 165 76Q197 76 215 93Q233 110 233 140Q233 172 211.5 189Q190 206 150 206Q126 206 95 202Q64 198 39 191V427H310V344H132V263Q145 266 161 268Q177 270 191 270Q256 270 295 235.5Q334 201 334 140Q334 68 290 28.5Q246 -11 172 -11Z" glyph-name="fiveinferior" horiz-adv-x="356" unicode="₅" /><glyph d="M70 282 169 427H288L183 278V277Q187 281 194.5 283Q202 285 209 285Q263 285 301 245Q339 205 339 144Q339 74 293.5 31.5Q248 -11 177 -11Q105 -11 60.5 30.5Q16 72 16 144Q16 177 29 210.5Q42 244 70 282ZM118 144Q118 116 135 97.5Q152 79 177 79Q203 79 219.5 97Q236 115 236 144Q236 172 220 190.5Q204 209 178 209Q152 209 135 190.5Q118 172 118 144Z" glyph-name="sixinferior" horiz-adv-x="356" unicode="₆" /><glyph d="M333 356 186 0H73L225 341H22V427H333Z" glyph-name="seveninferior" horiz-adv-x="356" unicode="₇" /><glyph d="M326 316Q326 284 310 259Q294 234 267 224V223Q298 212 317 184Q336 156 336 121Q336 59 292 24Q248 -11 177 -11Q106 -11 62.5 24Q19 59 19 120Q19 156 37.5 183Q56 210 89 222V224Q61 235 44 260Q27 285 27 316Q27 372 69 405Q111 438 177 438Q243 438 284.5 405Q326 372 326 316ZM225 308Q225 331 212 344.5Q199 358 177 358Q156 358 143 344.5Q130 331 130 308Q130 286 143.5 271Q157 256 177 256Q198 256 211.5 270.5Q225 285 225 308ZM234 124Q234 149 218 165Q202 181 177 181Q153 181 137 165Q121 149 121 124Q121 99 136.5 83Q152 67 177 67Q202 67 218 83Q234 99 234 124Z" glyph-name="eightinferior" horiz-adv-x="356" unicode="₈" /><glyph d="M286 143 185 0H67L173 148L171 150Q168 146 161.5 144Q155 142 148 142Q92 142 54 181.5Q16 221 16 282Q16 352 61.5 395Q107 438 177 438Q250 438 294.5 396Q339 354 339 283Q339 250 326.5 216.5Q314 183 286 143ZM236 283Q236 312 219.5 330Q203 348 177 348Q151 348 134.5 329.5Q118 311 118 283Q118 254 134.5 236Q151 218 177 218Q203 218 219.5 236.5Q236 255 236 283Z" glyph-name="nineinferior" horiz-adv-x="356" unicode="₉" /><glyph d="M335 635Q335 529 293.5 469Q252 409 177 409Q103 409 61.5 469.5Q20 530 20 635Q20 738 62 798Q104 858 177 858Q251 858 293 798.5Q335 739 335 635ZM233 635Q233 699 219 733Q205 767 177 767Q150 767 136 734Q122 701 122 635Q122 568 136 534Q150 500 177 500Q205 500 219 534.5Q233 569 233 635Z" glyph-name="zero.numerator" horiz-adv-x="356" unicode="" /><glyph d="M262 420 160 420V736Q140 715 119.5 700.5Q99 686 78 677L31 751Q71 772 104.5 795Q138 818 167 847H262Z" glyph-name="one.numerator" horiz-adv-x="356" unicode="" /><glyph d="M23 420 23 498L169 629Q203 659 214 676.5Q225 694 225 713Q225 736 210.5 750Q196 764 171 764Q139 764 104.5 748Q70 732 25 695V802Q60 830 98.5 844Q137 858 177 858Q245 858 287 822Q329 786 329 724Q329 686 313.5 656Q298 626 247 580L165 504H332V420Z" glyph-name="two.numerator" horiz-adv-x="356" unicode="" /><glyph d="M168 767Q136 767 99.5 757.5Q63 748 29 731V829Q59 843 97 850.5Q135 858 174 858Q245 858 283.5 826.5Q322 795 322 736Q322 702 303.5 678Q285 654 253 646V643Q288 634 310 606.5Q332 579 332 545Q332 481 288 445Q244 409 169 409Q133 409 93.5 418.5Q54 428 22 444V547Q61 524 100.5 511.5Q140 499 176 499Q200 499 213.5 513.5Q227 528 227 552Q227 577 207.5 590.5Q188 604 153 604H100V674H158Q187 674 202.5 686Q218 698 218 722Q218 743 204.5 755Q191 767 168 767Z" glyph-name="three.numerator" horiz-adv-x="356" unicode="" /><glyph d="M345 501 301 501V420H201V501H7V586Q26 641 76 717Q126 793 177 847H301V585H345ZM203 585 203 749H200Q170 715 141.5 669.5Q113 624 97 585Z" glyph-name="four.numerator" horiz-adv-x="356" unicode="" /><glyph d="M172 409Q135 409 96.5 416.5Q58 424 30 437V534Q61 515 94.5 505.5Q128 496 165 496Q197 496 215 513Q233 530 233 560Q233 592 211.5 609Q190 626 150 626Q126 626 95 622Q64 618 39 611V847H310V764H132V683Q145 686 161 688Q177 690 191 690Q256 690 295 655.5Q334 621 334 560Q334 488 290 448.5Q246 409 172 409Z" glyph-name="five.numerator" horiz-adv-x="356" unicode="" /><glyph d="M70 702 169 847H288L183 698V697Q187 701 194.5 703Q202 705 209 705Q263 705 301 665Q339 625 339 564Q339 494 293.5 451.5Q248 409 177 409Q105 409 60.5 450.5Q16 492 16 564Q16 597 29 630.5Q42 664 70 702ZM118 564Q118 536 135 517.5Q152 499 177 499Q203 499 219.5 517Q236 535 236 564Q236 592 220 610.5Q204 629 178 629Q152 629 135 610.5Q118 592 118 564Z" glyph-name="six.numerator" horiz-adv-x="356" unicode="" /><glyph d="M333 776 186 420H73L225 761H22V847H333Z" glyph-name="seven.numerator" horiz-adv-x="356" unicode="" /><glyph d="M326 736Q326 704 310 679Q294 654 267 644V643Q298 632 317 604Q336 576 336 541Q336 479 292 444Q248 409 177 409Q106 409 62.5 444Q19 479 19 540Q19 576 37.5 603Q56 630 89 642V644Q61 655 44 680Q27 705 27 736Q27 792 69 825Q111 858 177 858Q243 858 284.5 825Q326 792 326 736ZM225 728Q225 751 212 764.5Q199 778 177 778Q156 778 143 764.5Q130 751 130 728Q130 706 143.5 691Q157 676 177 676Q198 676 211.5 690.5Q225 705 225 728ZM234 544Q234 569 218 585Q202 601 177 601Q153 601 137 585Q121 569 121 544Q121 519 136.5 503Q152 487 177 487Q202 487 218 503Q234 519 234 544Z" glyph-name="eight.numerator" horiz-adv-x="356" unicode="" /><glyph d="M286 563 185 420H67L173 568L171 570Q168 566 161.5 564Q155 562 148 562Q92 562 54 601.5Q16 641 16 702Q16 772 61.5 815Q107 858 177 858Q250 858 294.5 816Q339 774 339 703Q339 670 326.5 636.5Q314 603 286 563ZM236 703Q236 732 219.5 750Q203 768 177 768Q151 768 134.5 749.5Q118 731 118 703Q118 674 134.5 656Q151 638 177 638Q203 638 219.5 656.5Q236 675 236 703Z" glyph-name="nine.numerator" horiz-adv-x="356" unicode="" /><glyph d="M335 80Q335 -26 293.5 -86Q252 -146 177 -146Q103 -146 61.5 -85.5Q20 -25 20 80Q20 183 62 243Q104 303 177 303Q251 303 293 243.5Q335 184 335 80ZM233 80Q233 144 219 178Q205 212 177 212Q150 212 136 179Q122 146 122 80Q122 13 136 -21Q150 -55 177 -55Q205 -55 219 -20.5Q233 14 233 80Z" glyph-name="zero.denominator" horiz-adv-x="356" unicode="" /><glyph d="M262 -135 160 -135V181Q140 160 119.5 145.5Q99 131 78 122L31 196Q71 217 104.5 240Q138 263 167 292H262Z" glyph-name="one.denominator" horiz-adv-x="356" unicode="" /><glyph d="M23 -135 23 -57L169 74Q203 104 214 121.5Q225 139 225 158Q225 181 210.5 195Q196 209 171 209Q139 209 104.5 193Q70 177 25 140V247Q60 275 98.5 289Q137 303 177 303Q245 303 287 267Q329 231 329 169Q329 131 313.5 101Q298 71 247 25L165 -51H332V-135Z" glyph-name="two.denominator" horiz-adv-x="356" unicode="" /><glyph d="M168 212Q136 212 99.5 202.5Q63 193 29 176V274Q59 288 97 295.5Q135 303 174 303Q245 303 283.5 271.5Q322 240 322 181Q322 147 303.5 123Q285 99 253 91V88Q288 79 310 51.5Q332 24 332 -10Q332 -74 288 -110Q244 -146 169 -146Q133 -146 93.5 -136.5Q54 -127 22 -111V-8Q61 -31 100.5 -43.5Q140 -56 176 -56Q200 -56 213.5 -41.5Q227 -27 227 -3Q227 22 207.5 35.5Q188 49 153 49H100V119H158Q187 119 202.5 131Q218 143 218 167Q218 188 204.5 200Q191 212 168 212Z" glyph-name="three.denominator" horiz-adv-x="356" unicode="" /><glyph d="M345 -54 301 -54V-135H201V-54H7V31Q26 86 76 162Q126 238 177 292H301V30H345ZM203 30 203 194H200Q170 160 141.5 114.5Q113 69 97 30Z" glyph-name="four.denominator" horiz-adv-x="356" unicode="" /><glyph d="M172 -146Q135 -146 96.5 -138.5Q58 -131 30 -118V-21Q61 -40 94.5 -49.5Q128 -59 165 -59Q197 -59 215 -42Q233 -25 233 5Q233 37 211.5 54Q190 71 150 71Q126 71 95 67Q64 63 39 56V292H310V209H132V128Q145 131 161 133Q177 135 191 135Q256 135 295 100.5Q334 66 334 5Q334 -67 290 -106.5Q246 -146 172 -146Z" glyph-name="five.denominator" horiz-adv-x="356" unicode="" /><glyph d="M70 147 169 292H288L183 143V142Q187 146 194.5 148Q202 150 209 150Q263 150 301 110Q339 70 339 9Q339 -61 293.5 -103.5Q248 -146 177 -146Q105 -146 60.5 -104.5Q16 -63 16 9Q16 42 29 75.5Q42 109 70 147ZM118 9Q118 -19 135 -37.5Q152 -56 177 -56Q203 -56 219.5 -38Q236 -20 236 9Q236 37 220 55.5Q204 74 178 74Q152 74 135 55.5Q118 37 118 9Z" glyph-name="six.denominator" horiz-adv-x="356" unicode="" /><glyph d="M333 221 186 -135H73L225 206H22V292H333Z" glyph-name="seven.denominator" horiz-adv-x="356" unicode="" /><glyph d="M326 181Q326 149 310 124Q294 99 267 89V88Q298 77 317 49Q336 21 336 -14Q336 -76 292 -111Q248 -146 177 -146Q106 -146 62.5 -111Q19 -76 19 -15Q19 21 37.5 48Q56 75 89 87V89Q61 100 44 125Q27 150 27 181Q27 237 69 270Q111 303 177 303Q243 303 284.5 270Q326 237 326 181ZM225 173Q225 196 212 209.5Q199 223 177 223Q156 223 143 209.5Q130 196 130 173Q130 151 143.5 136Q157 121 177 121Q198 121 211.5 135.5Q225 150 225 173ZM234 -11Q234 14 218 30Q202 46 177 46Q153 46 137 30Q121 14 121 -11Q121 -36 136.5 -52Q152 -68 177 -68Q202 -68 218 -52Q234 -36 234 -11Z" glyph-name="eight.denominator" horiz-adv-x="356" unicode="" /><glyph d="M286 8 185 -135H67L173 13L171 15Q168 11 161.5 9Q155 7 148 7Q92 7 54 46.5Q16 86 16 147Q16 217 61.5 260Q107 303 177 303Q250 303 294.5 261Q339 219 339 148Q339 115 326.5 81.5Q314 48 286 8ZM236 148Q236 177 219.5 195Q203 213 177 213Q151 213 134.5 194.5Q118 176 118 148Q118 119 134.5 101Q151 83 177 83Q203 83 219.5 101.5Q236 120 236 148Z" glyph-name="nine.denominator" horiz-adv-x="356" unicode="" /><glyph d="M27 251 27 354H225V557H335V354H533V251H336V48H225V251Z" glyph-name="plus" horiz-adv-x="560" unicode="+" /><glyph d="M27 252 27 355H533V252Z" glyph-name="minus" horiz-adv-x="560" unicode="−" /><glyph d="M132 79 54 155L202 303L54 451L131 527L280 379L427 528L505 453L357 304L505 156L427 80L280 228Z" glyph-name="multiply" horiz-adv-x="560" unicode="×" /><glyph d="M281 426Q248 426 225 448Q202 470 202 501Q202 533 225 555Q248 577 281 577Q311 577 333.5 554.5Q356 532 356 501Q356 471 333.5 448.5Q311 426 281 426ZM24 250 24 354H535V250ZM281 26Q248 26 225 48Q202 70 202 102Q202 134 225 156Q248 178 281 178Q311 178 333.5 155.5Q356 133 356 102Q356 71 333.5 48.5Q311 26 281 26Z" glyph-name="divide" horiz-adv-x="560" unicode="÷" /><glyph d="M27 345 27 445H533V345ZM27 162 27 262H533V162Z" glyph-name="equal" horiz-adv-x="560" unicode="=" /><glyph d="M529 139 418 139V336H27V436H529Z" glyph-name="logicalnot" horiz-adv-x="560" unicode="¬" /><glyph d="M178 397Q209 397 233.5 389Q258 381 291 360Q326 337 346.5 328.5Q367 320 393 320Q420 320 444 338.5Q468 357 489 393L542 302Q511 253 473 227.5Q435 202 393 202Q362 202 336.5 210Q311 218 279 238Q244 261 222.5 270Q201 279 178 279Q147 279 118.5 259Q90 239 72 205L17 296Q47 345 88.5 371Q130 397 178 397Z" glyph-name="asciitilde" horiz-adv-x="560" unicode="~" /><glyph d="M533 155 533 44L27 254V348L533 559V449L184 299Z" glyph-name="less" horiz-adv-x="560" unicode="&lt;" /><glyph d="M27 449 27 559L533 348V254L27 44V155L375 299Z" glyph-name="greater" horiz-adv-x="560" unicode="&gt;" /><glyph d="M25 326 25 431H223V608H333V431H536V326H335V151H225V326ZM25 0 25 103H534V0Z" glyph-name="plusminus" horiz-adv-x="560" unicode="±" /><glyph d="M280 596 169 372H46L226 708H335L514 372H390Z" glyph-name="asciicircum" horiz-adv-x="560" unicode="^" /><glyph d="M533 262 533 162H256L180 8L99 46L157 162H27V262H206L247 345H27V445H297L361 574L442 538L396 445H533V345H347L306 262Z" glyph-name="notequal" horiz-adv-x="560" unicode="≠" /><glyph d="M178 521Q209 521 233.5 513Q258 505 291 484Q326 460 346.5 451.5Q367 443 393 443Q420 443 444 462Q468 481 489 517L542 425Q511 376 473 350.5Q435 325 393 325Q362 325 336.5 333Q311 341 279 362Q244 385 222.5 393.5Q201 402 178 402Q148 402 119 382.5Q90 363 72 329L17 419Q47 469 88.5 495Q130 521 178 521ZM178 283Q209 283 233.5 275Q258 267 291 246Q326 222 346.5 213.5Q367 205 393 205Q420 205 444 224Q468 243 489 279L542 187Q511 138 473 112.5Q435 87 393 87Q362 87 336.5 95Q311 103 279 124Q244 147 222.5 155.5Q201 164 178 164Q147 164 118.5 144Q90 124 72 90L17 181Q47 231 89 257Q131 283 178 283Z" glyph-name="approxequal" horiz-adv-x="560" unicode="≈" /><glyph d="M533 244 533 132L27 343V437L533 647V537L184 388ZM27 0 27 102H533V0Z" glyph-name="lessequal" horiz-adv-x="560" unicode="≤" /><glyph d="M533 343 27 132V244L375 388L27 537V647L533 437ZM27 102 533 102V0H27Z" glyph-name="greaterequal" horiz-adv-x="560" unicode="≥" /><glyph d="M189 392Q225 392 266 367Q307 342 347 297Q381 342 423 367Q465 392 506 392Q567 392 605.5 352Q644 312 644 248Q644 182 607 141Q570 100 512 100Q475 100 433 125.5Q391 151 353 195Q318 150 276 125Q234 100 192 100Q131 100 93.5 140.5Q56 181 56 246Q56 311 93 351.5Q130 392 189 392ZM496 311Q479 311 460 297.5Q441 284 406 246Q439 209 458.5 195.5Q478 182 496 182Q520 182 535 200.5Q550 219 550 246Q550 274 535 292.5Q520 311 496 311ZM203 181Q220 181 239 194.5Q258 208 293 246Q260 282 240.5 296Q221 310 203 310Q179 310 164 291.5Q149 273 149 246Q149 218 164 199.5Q179 181 203 181Z" glyph-name="infinity" horiz-adv-x="701" unicode="∞" /><glyph d="M319 747 501 356L319 -35H269L89 356L269 747ZM295 115 395 356L295 596L193 356Z" glyph-name="lozenge" horiz-adv-x="593" unicode="◊" /><glyph d="M594 786 391 -215H238L75 153L13 123L-13 183L141 257L309 -135L494 786Z" glyph-name="radical" horiz-adv-x="599" unicode="√" /><glyph d="M97 -134Q147 -134 171.5 -106Q196 -78 196 -22V510Q196 609 254.5 663.5Q313 718 409 718Q430 718 443.5 717Q457 716 470 713V598Q459 600 448 601.5Q437 603 427 603Q377 603 352.5 575Q328 547 328 491V-41Q328 -140 269.5 -194.5Q211 -249 115 -249Q94 -249 80.5 -248Q67 -247 54 -244V-129Q65 -131 76 -132.5Q87 -134 97 -134Z" glyph-name="integral" horiz-adv-x="535" unicode="∫" /><glyph d="M585 277Q585 142 510 62.5Q435 -17 313 -17Q194 -17 118 57Q42 131 42 251Q42 364 118.5 435Q195 506 313 506Q343 506 371.5 496.5Q400 487 424 468Q384 542 305.5 588.5Q227 635 118 648L157 725Q357 706 471 586Q585 466 585 277ZM176 252Q176 186 214.5 143Q253 100 313 100Q374 100 412.5 142Q451 184 451 248Q451 314 412.5 357Q374 400 313 400Q253 400 214.5 358Q176 316 176 252Z" glyph-name="partialdiff" horiz-adv-x="628" unicode="∂" /><glyph d="M633 786 633 -214H491V669H216V-214H74V786Z" glyph-name="product" horiz-adv-x="708" unicode="∏" /><glyph d="M545 83Q552 83 560.5 84.5Q569 86 576 88V-6Q563 -9 550 -10Q537 -11 517 -11Q438 -11 406.5 21.5Q375 54 375 135V401H225V0H94V401H29V501H577V401H508V143Q508 109 516 96Q524 83 545 83Z" glyph-name="pi" horiz-adv-x="627" unicode="π" /><glyph d="M268 -14Q247 -14 228.5 -6Q210 2 201 16V-240H69V501H201V213Q201 159 228 128.5Q255 98 303 98Q335 98 358.5 110.5Q382 123 405 152V501H537V143Q537 109 539 69Q541 29 545 0H418L410 63H408Q379 25 343.5 5.5Q308 -14 268 -14Z" glyph-name="mu" horiz-adv-x="606" unicode="µ" /><glyph d="M560 -97 560 -214H38V-95L304 289L52 667V786H549V669H201L453 289L189 -97Z" glyph-name="summation" horiz-adv-x="598" unicode="∑" /><glyph d="M69 392Q69 539 166 633.5Q263 728 412 728Q562 728 659 633.5Q756 539 756 392Q756 298 716 229Q676 160 608 130V114H766V0H470V182Q538 204 573.5 255.5Q609 307 609 386Q609 475 553 535.5Q497 596 412 596Q328 596 272 535.5Q216 475 216 386Q216 307 251 255Q286 203 355 182V0H58V114H217V130Q148 161 108.5 229.5Q69 298 69 392Z" glyph-name="Omega" horiz-adv-x="826" unicode="Ω" /><glyph d="M69 392Q69 539 166 633.5Q263 728 412 728Q562 728 659 633.5Q756 539 756 392Q756 298 716 229Q676 160 608 130V114H766V0H470V182Q538 204 573.5 255.5Q609 307 609 386Q609 475 553 535.5Q497 596 412 596Q328 596 272 535.5Q216 475 216 386Q216 307 251 255Q286 203 355 182V0H58V114H217V130Q148 161 108.5 229.5Q69 298 69 392Z" glyph-name="uni03A9" horiz-adv-x="826" unicode="Ω" /><glyph d="M441 712 678 0H19L253 712ZM184 114 512 114L346 603Z" glyph-name="Delta" horiz-adv-x="697" unicode="∆" /><glyph d="M441 712 678 0H19L253 712ZM184 114 512 114L346 603Z" glyph-name="uni0394" horiz-adv-x="697" unicode="Δ" /><glyph d="M345 -14Q265 -14 223 26.5Q181 67 181 146V184Q176 181 170.5 177.5Q165 174 153 167Q146 162 142 159.5Q138 157 135 155L96 238Q127 258 146.5 271Q166 284 181 295V535Q181 622 224.5 671.5Q268 721 340 721Q407 721 446.5 678.5Q486 636 486 561Q486 488 440 416.5Q394 345 297 267V186Q297 135 312 110Q327 85 358 85Q376 85 397.5 96Q419 107 437 125L491 56Q464 22 426.5 4Q389 -14 345 -14ZM336 627Q318 627 307.5 603Q297 579 297 537V395Q335 437 353 480Q371 523 371 570Q371 596 361.5 611.5Q352 627 336 627Z" glyph-name="uni2113" horiz-adv-x="594" unicode="ℓ" /><glyph d="M437 12Q508 12 572.5 42Q637 72 687 128H742Q689 62 610 27Q531 -8 437 -8Q362 -8 293 17Q224 42 170 89Q112 139 80.5 204.5Q49 270 49 342Q49 413 80.5 478Q112 543 171 593Q225 639 294 663.5Q363 688 437 688Q514 688 583.5 662.5Q653 637 707 590Q764 540 795 473.5Q826 407 826 333H202Q197 333 195 330.5Q193 328 193 322V150Q193 96 275.5 54Q358 12 437 12ZM682 359 682 533Q682 545 677.5 557Q673 569 665 580Q637 618 571 644Q505 670 437 670Q370 670 306 645Q242 620 212 580Q203 569 198 556.5Q193 544 193 533V359Q193 355 195 353Q197 351 202 351H672Q677 351 679.5 353Q682 355 682 359Z" glyph-name="estimated" horiz-adv-x="862" unicode="℮" /><glyph d="M498 494 508 536H603L567 380Q556 326 554 310.5Q552 295 552 286Q552 267 562 256.5Q572 246 590 246Q634 246 660.5 288.5Q687 331 687 403Q687 517 612.5 585Q538 653 415 653Q289 653 205.5 567.5Q122 482 122 356Q122 225 207 142Q292 59 426 59Q491 59 553 83.5Q615 108 658 151L712 93Q656 39 582 11.5Q508 -16 417 -16Q249 -16 140 89Q31 194 31 355Q31 512 142.5 620Q254 728 414 728Q570 728 671.5 637.5Q773 547 773 403Q773 292 717 227Q661 162 565 162Q524 162 498.5 180Q473 198 468 231H466Q451 201 418.5 181.5Q386 162 346 162Q284 162 246.5 206Q209 250 209 321Q209 417 263.5 488.5Q318 560 399 560Q437 560 463 541.5Q489 523 494 494ZM471 400Q471 437 456 457Q441 477 413 477Q372 477 342 429.5Q312 382 312 323Q312 287 328 266.5Q344 246 373 246Q413 246 442 296Q471 346 471 400Z" glyph-name="at.case" horiz-adv-x="800" unicode="" /><glyph d="M185 -180 66 -180V820H185Z" glyph-name="bar.case" horiz-adv-x="252" unicode="" /><glyph d="M52 363Q52 487 89 607.5Q126 728 194 822L297 778Q236 693 202.5 585Q169 477 169 363Q169 249 202 141Q235 33 297 -52L194 -96Q126 -2 89 118Q52 238 52 363Z" glyph-name="parenleft.case" horiz-adv-x="331" unicode="" /><glyph d="M278 363Q278 238 241 118Q204 -2 136 -96L34 -52Q95 33 128 141Q161 249 161 363Q161 477 128 585Q95 693 34 778L136 822Q204 728 241 607.5Q278 487 278 363Z" glyph-name="parenright.case" horiz-adv-x="331" unicode="" /><glyph d="M23 314 23 410Q60 410 75.5 431Q91 452 91 497V652Q91 725 126.5 766Q162 807 226 807H304V712H266Q236 712 220 692Q204 672 204 635V478Q204 429 182 398.5Q160 368 125 364V362Q161 356 182.5 325.5Q204 295 204 246V89Q204 53 220 33.5Q236 14 266 14H304V-81H226Q162 -81 126.5 -40Q91 1 91 73V227Q91 272 75.5 293Q60 314 23 314Z" glyph-name="braceleft.case" horiz-adv-x="335" unicode="" /><glyph d="M311 410 311 314Q274 314 258 293Q242 272 242 227V73Q242 1 207 -40Q172 -81 109 -81H30V14H68Q98 14 113.5 33.5Q129 53 129 89V246Q129 295 151 325.5Q173 356 209 362V364Q173 368 151 398.5Q129 429 129 478V635Q129 672 113.5 692Q98 712 68 712H30V807H109Q172 807 207 766Q242 725 242 652V497Q242 452 258 431Q274 410 311 410Z" glyph-name="braceright.case" horiz-adv-x="335" unicode="" /><glyph d="M272 -81 60 -81V807H272V712H174V14H272Z" glyph-name="bracketleft.case" horiz-adv-x="303" unicode="" /><glyph d="M242 807 242 -81H30V13H128V713H30V807Z" glyph-name="bracketright.case" horiz-adv-x="303" unicode="" /><glyph d="M282 274 40 274V393H282Z" glyph-name="hyphen.case" horiz-adv-x="322" unicode="" /><glyph d="M470 300 30 300V387H470Z" glyph-name="endash.case" horiz-adv-x="500" unicode="" /><glyph d="M970 300 30 300V387H970Z" glyph-name="emdash.case" horiz-adv-x="1000" unicode="" /><glyph d="M104 633Q104 669 130 694Q156 719 193 719Q230 719 256 694Q282 669 282 633Q282 597 256 572Q230 547 193 547Q156 547 130 572.5Q104 598 104 633ZM131 479 255 479L282 0H104Z" glyph-name="exclamdown.case" horiz-adv-x="387" unicode="" /><glyph d="M188 633Q188 669 214 694Q240 719 277 719Q314 719 340 694Q366 669 366 633Q366 598 340 572.5Q314 547 277 547Q240 547 214 572.5Q188 598 188 633ZM35 176Q35 226 58 264Q81 302 152 352L205 393V482H346V354L243 276Q207 248 195 228.5Q183 209 183 186Q183 146 208 123.5Q233 101 276 101Q320 101 347.5 124.5Q375 148 383 190H517Q505 91 440.5 36Q376 -19 275 -19Q164 -19 99.5 33Q35 85 35 176Z" glyph-name="questiondown.case" horiz-adv-x="559" unicode="" /><glyph d="M286 157 196 100L39 329L196 558L286 502L171 329ZM513 157 423 100L266 329L422 558L513 502L398 329Z" glyph-name="guillemotleft.case" horiz-adv-x="564" unicode="" /><glyph d="M297 329 141 101L50 157L165 329L50 502L140 559ZM524 329 368 101L277 157L392 329L277 502L368 559Z" glyph-name="guillemotright.case" horiz-adv-x="564" unicode="" /><glyph d="M286 157 196 100L39 329L196 558L286 502L171 329Z" glyph-name="guilsinglleft.case" horiz-adv-x="336" unicode="" /><glyph d="M297 329 141 101L50 157L165 329L50 502L140 559Z" glyph-name="guilsinglright.case" horiz-adv-x="336" unicode="" /><glyph d="M27 321 27 424H225V627H335V424H533V321H336V118H225V321Z" glyph-name="plus.case" horiz-adv-x="560" unicode="" /><glyph d="M27 322 27 425H533V322Z" glyph-name="minus.case" horiz-adv-x="560" unicode="" /><glyph d="M132 149 54 225L202 373L54 521L131 597L280 449L427 598L505 523L357 374L505 226L427 150L280 298Z" glyph-name="multiply.case" horiz-adv-x="560" unicode="" /><glyph d="M281 496Q248 496 225 518Q202 540 202 571Q202 603 225 625Q248 647 281 647Q311 647 333.5 624.5Q356 602 356 571Q356 541 333.5 518.5Q311 496 281 496ZM24 320 24 424H535V320ZM281 96Q248 96 225 118Q202 140 202 172Q202 204 225 226Q248 248 281 248Q311 248 333.5 225.5Q356 203 356 172Q356 141 333.5 118.5Q311 96 281 96Z" glyph-name="divide.case" horiz-adv-x="560" unicode="" /><glyph d="M27 415 27 515H533V415ZM27 232 27 332H533V232Z" glyph-name="equal.case" horiz-adv-x="560" unicode="" /><glyph d="M529 209 418 209V406H27V506H529Z" glyph-name="logicalnot.case" horiz-adv-x="560" unicode="" /><glyph d="M533 225 533 114L27 324V418L533 629V519L184 369Z" glyph-name="less.case" horiz-adv-x="560" unicode="" /><glyph d="M27 519 27 629L533 418V324L27 114V225L375 369Z" glyph-name="greater.case" horiz-adv-x="560" unicode="" /><glyph d="M533 332 533 232H256L180 78L99 116L157 232H27V332H206L247 415H27V515H297L361 644L442 608L396 515H533V415H347L306 332Z" glyph-name="notequal.case" horiz-adv-x="560" unicode="" /><glyph d="M178 591Q209 591 233.5 583Q258 575 291 554Q326 530 346.5 521.5Q367 513 393 513Q420 513 444 532Q468 551 489 587L542 495Q511 446 473 420.5Q435 395 393 395Q362 395 336.5 403Q311 411 279 432Q244 455 222.5 463.5Q201 472 178 472Q148 472 119 452.5Q90 433 72 399L17 489Q47 539 88.5 565Q130 591 178 591ZM178 353Q209 353 233.5 345Q258 337 291 316Q326 292 346.5 283.5Q367 275 393 275Q420 275 444 294Q468 313 489 349L542 257Q511 208 473 182.5Q435 157 393 157Q362 157 336.5 165Q311 173 279 194Q244 217 222.5 225.5Q201 234 178 234Q147 234 118.5 214Q90 194 72 160L17 251Q47 301 89 327Q131 353 178 353Z" glyph-name="approxequal.case" horiz-adv-x="560" unicode="" /><glyph d="M189 462Q225 462 266 437Q307 412 347 367Q381 412 423 437Q465 462 506 462Q567 462 605.5 422Q644 382 644 318Q644 252 607 211Q570 170 512 170Q475 170 433 195.5Q391 221 353 265Q318 220 276 195Q234 170 192 170Q131 170 93.5 210.5Q56 251 56 316Q56 381 93 421.5Q130 462 189 462ZM496 381Q479 381 460 367.5Q441 354 406 316Q439 279 458.5 265.5Q478 252 496 252Q520 252 535 270.5Q550 289 550 316Q550 344 535 362.5Q520 381 496 381ZM203 251Q220 251 239 264.5Q258 278 293 316Q260 352 240.5 366Q221 380 203 380Q179 380 164 361.5Q149 343 149 316Q149 288 164 269.5Q179 251 203 251Z" glyph-name="infinity.case" horiz-adv-x="701" unicode="" /></font>
</defs>
</svg>
